<svg xmlns="http://www.w3.org/2000/svg" width="1400" height="760" viewBox="0 0 1400 760" role="img" aria-label="Savannah River analytical figure"><rect x="0" y="0" width="1400" height="760" rx="12" fill="#F8FAFC" stroke="none" /><text x="70" y="62" font-family="Inter, Arial, sans-serif" font-size="30" font-weight="700" fill="#011E42" text-anchor="start">Thurmond to Augusta: reservoir release and downstream river response</text><text x="70" y="90" font-family="Inter, Arial, sans-serif" font-size="14" font-weight="400" fill="#64748B" text-anchor="start">Thurmond outflow is the proximal driver of the signal observed at Augusta. The most direct operational link in the dataset.</text><line x1="70" y1="113" x2="94" y2="113" stroke="#0B5CAD" stroke-width="4" /><text x="100" y="118" font-family="Inter, Arial, sans-serif" font-size="11" font-weight="500" fill="#64748B" text-anchor="start">Augusta (discharge)</text><line x1="231.2" y1="113" x2="255.2" y2="113" stroke="#C27803" stroke-width="4" /><text x="261.2" y="118" font-family="Inter, Arial, sans-serif" font-size="11" font-weight="500" fill="#64748B" text-anchor="start">Thurmond (outflow)</text><rect x="62" y="120" width="1286" height="352" rx="18" fill="#FFFFFF" stroke="#E2E8F0" /><text x="80" y="144" font-family="Inter, Arial, sans-serif" font-size="15" font-weight="700" fill="#011E42" text-anchor="start">Augusta discharge vs Thurmond outflow (ft³/s)</text><text x="1326" y="144" font-family="Inter, Arial, sans-serif" font-size="15" font-weight="700" fill="#0F7B5F" text-anchor="end">r = 0.83</text><line x1="80" y1="164.0" x2="1330" y2="164.0" stroke="#E2E8F0" stroke-width="1" stroke-dasharray="4 6" /><line x1="80" y1="304.0" x2="1330" y2="304.0" stroke="#E2E8F0" stroke-width="1" stroke-dasharray="4 6" /><line x1="80" y1="444.0" x2="1330" y2="444.0" stroke="#E2E8F0" stroke-width="1" stroke-dasharray="4 6" /><text x="74" y="170" font-family="Inter, Arial, sans-serif" font-size="11" font-weight="500" fill="#64748B" text-anchor="end">37,564</text><text x="74" y="308.0" font-family="Inter, Arial, sans-serif" font-size="11" font-weight="500" fill="#64748B" text-anchor="end">17,391</text><text x="74" y="448" font-family="Inter, Arial, sans-serif" font-size="11" font-weight="500" fill="#64748B" text-anchor="end">-2,783</text><polyline points="80.0,369.6740831846434 85.18672199170125,367.66092371600223 90.3734439834025,353.82195453572206 95.56016597510373,384.27160442679275 100.74688796680498,390.22067656404613 105.93360995850622,388.5721420583282 111.12033195020747,387.4335181345217 116.30705394190872,379.1824844617398 121.49377593360995,389.40636862008313 126.6804979253112,388.75210152079717 131.86721991701245,389.65650339572574 137.05394190871368,390.85338699021924 142.24066390041494,384.79859004590423 147.42738589211618,377.72083477111363 152.61410788381744,367.42045201214796 157.80082987551867,392.03273997001276 162.9875518672199,389.2998322527069 168.17427385892117,388.79355572824755 173.3609958506224,395.9061728903896 178.54771784232366,395.7104517622326 183.7344398340249,395.5412513225434 188.92116182572613,395.9274090575208 194.1078838174274,397.78093284745995 199.29460580912863,394.5291465780962 204.4813278008299,393.04216144584836 209.66804979253112,389.359916405586 214.85477178423236,388.93418094611525 220.04149377593362,394.5634947523003 225.22821576763485,398.28216854561214 230.4149377593361,398.01436627243424 235.60165975103735,397.6135490131622 240.78838174273858,398.05382303425176 245.97510373443984,397.5746457024313 251.16182572614107,396.493462046896 256.34854771784234,394.5149153643849 261.53526970954357,390.0923254976081 266.7219917012448,401.0058976664253 271.9087136929461,396.8035993828658 277.0954356846473,375.7535706792055 282.28215767634856,391.1012494858119 287.4688796680498,396.5568913556072 292.655601659751,395.4109351851647 297.84232365145226,395.5763488754456 303.0290456431535,394.3874040065468 308.2157676348548,396.48970604130045 313.402489626556,393.05111617464166 318.58921161825725,298.947692811528 323.77593360995854,247.54950643364782 328.9626556016598,284.5571498255995 334.149377593361,250.1706826274948 339.33609958506224,353.6973346022329 344.5228215767635,379.7182506872385 349.7095435684647,382.3457413826048 354.896265560166,380.036715564344 360.08298755186723,383.6673096738513 365.26970954356847,373.0014849229967 370.4564315352697,391.7250705155285 375.64315352697093,393.4749732010401 380.8298755186722,393.7345607552408 386.01659751037346,393.5458647756492 391.2033195020747,393.0123123614372 396.3900414937759,387.9766915507722 401.57676348547716,377.65421124272854 406.76348547717845,371.33714961742373 411.9502074688797,390.2385860216327 417.1369294605809,392.6974293744611 422.32365145228215,386.64997961841385 427.5103734439834,395.2606947878451 432.6970954356847,395.397055360046 437.8838174273859,394.07941719680105 443.07053941908714,394.5066843019136 448.2572614107884,395.46575964771415 453.4439834024896,395.92334450341286 458.6307053941909,395.4598602431847 463.81742738589213,396.7053905635652 469.00414937759336,398.76831066263856 474.1908713692946,400.4395112558911 479.37759336099583,398.70893585210194 484.5643153526971,397.0389541018124 489.75103734439836,390.94302445537613 494.9377593360996,395.0323244038382 500.1244813278008,396.4024223377069 505.31120331950206,399.4090959199714 510.49792531120335,400.12684207326174 515.6846473029045,400.7111379413826 520.8713692946058,385.94594095139354 526.058091286307,387.0656281509366 531.2448132780082,391.0395613734022 536.4315352697096,391.088538751423 541.6182572614108,376.3747550348833 546.804979253112,254.7752239961814 551.9917012448133,332.9999781737559 557.1784232365145,372.5462366039984 562.3651452282159,395.5009799329699 567.5518672199171,393.3528655644769 572.7385892116183,355.156748135054 577.9253112033196,248.72524575933224 583.1120331950208,341.29751778983797 588.298755186722,347.86482314047265 593.4854771784233,347.32813657152997 598.6721991701245,381.5659339994458 603.8589211618257,386.2741547539457 609.045643153527,382.48677831078504 614.2323651452282,383.4979161102755 619.4190871369294,390.25149575107434 624.6058091286307,393.63018844691817 629.792531120332,391.36516342314155 634.9792531120332,388.34615395198534 640.1659751037345,388.635584733311 645.3526970954357,386.49077492910146 650.5394190871369,380.92268619048036 655.7261410788382,380.8010172466097 660.9128630705394,393.1645427023441 666.0995850622406,384.54997202979087 671.2863070539419,387.76335053982 676.4730290456431,386.6186380780471 681.6597510373444,393.25416458045737 686.8464730290457,380.9786532263538 692.0331950207469,306.3596686746672 697.2199170124481,183.31034482758622 702.4066390041494,329.40816961160317 707.5933609958506,364.42061884491653 712.7800829875519,369.67619721386734 717.9668049792531,375.6050714712475 723.1535269709543,389.6083971849285 728.3402489626556,383.9777401725474 733.5269709543569,391.41538624481024 738.7136929460581,388.80385150492407 743.9004149377594,396.40913838256694 749.0871369294606,397.7797586697742 754.2738589211618,395.1771173445539 759.4605809128631,379.6026103482494 764.6473029045643,389.44811825267124 769.8340248962655,392.8839612880592 775.0207468879668,387.37760085088144 780.207468879668,391.60716662689936 785.3941908713693,392.1769359325102 790.5809128630706,390.6079684611734 795.7676348547718,391.9175971186555 800.954356846473,392.6072105111896 806.1410788381743,394.6890847814665 811.3278008298755,395.28601675909647 816.5145228215767,393.30632585850213 821.701244813278,393.57422141104473 826.8879668049792,392.6466610548455 832.0746887966804,389.14110974157927 837.2614107883818,350.2087226369964 842.448132780083,328.0128177106862 847.6348547717843,388.2745161424586 852.8215767634855,361.958069224846 858.0082987551867,380.32202307990144 863.195020746888,389.30804075352245 868.3817427385892,336.8827970690925 873.5684647302904,233.84952206328396 878.7551867219917,250.61202268855263 883.9419087136929,325.4637768139978 889.1286307053942,295.7304090461438 894.3153526970955,308.2872729151566 899.5020746887967,365.5608539388228 904.688796680498,386.1122234562677 909.8755186721992,386.1067262543707 915.0622406639004,379.29217985649325 920.2489626556016,393.18322325361515 925.4356846473029,393.51377700730467 930.6224066390041,392.9117955631764 935.8091286307053,374.58572517788144 940.9958506224067,311.940701578576 946.1825726141079,231.71222455480196 951.3692946058092,244.96830669697042 956.5560165975104,337.1172118879215 961.7427385892116,327.28910174051356 966.9294605809129,357.2730312690703 972.1161825726141,367.3883642438035 977.3029045643153,365.36235751881355 982.4896265560166,351.34171933270414 987.6763485477178,373.9387462290271 992.8630705394191,306.7574077496034 998.0497925311204,361.5118253868742 1003.2365145228216,329.65538805555065 1008.4232365145228,327.24089014020416 1013.6099585062241,345.9082155341363 1018.7966804979253,347.47387473527624 1023.9834024896265,371.5993240934301 1029.1701244813278,376.46188949565726 1034.356846473029,377.9303152960867 1039.5435684647302,367.89878362540423 1044.7302904564317,372.0041523237452 1049.917012448133,334.1931953985644 1055.1037344398342,370.94465901097857 1060.2904564315354,361.5565990169609 1065.4771784232366,362.6848944771027 1070.6639004149379,361.1869767132225 1075.850622406639,335.7356469352735 1081.0373443983403,295.49161635697453 1086.2240663900416,385.65152768760555 1091.4107883817428,384.378016417056 1096.597510373444,378.3870063118675 1101.7842323651453,377.6280932912663 1106.9709543568465,394.1933660847819 1112.1576763485477,395.11891162474717 1117.344398340249,394.11471373781603 1122.5311203319502,384.9127628015844 1127.7178423236514,323.04008431260013 1132.9045643153527,323.23061209599166 1138.091286307054,376.4818883804778 1143.2780082987551,333.95723837154674 1148.4647302904564,357.13744179055396 1153.6514522821576,369.8319596926704 1158.8381742738588,373.9185980944471 1164.02489626556,376.45502420103776 1169.2116182572613,383.86446288766456 1174.3983402489628,391.5974656701283 1179.585062240664,394.0661343499006 1184.7717842323652,386.54923895245366 1189.9585062240665,381.48534146806566 1195.1452282157677,342.76279087127057 1200.331950207469,319.7245970508283 1205.5186721991702,365.67726537843623 1210.7053941908714,352.57948631990007 1215.8921161825726,377.37333134280453 1221.0788381742739,369.7479345139805 1226.265560165975,380.35256864699716 1231.4522821576763,367.16240666613595 1236.6390041493776,373.9835198591138 1241.8257261410788,379.7722277864645 1247.01244813278,379.88692289548317 1252.1991701244813,383.39269808338867 1257.3858921161825,377.8452453968399 1262.5726141078837,380.8741814274447 1267.759336099585,370.87063327469895 1272.9460580912862,354.4017730359763 1278.1327800829877,367.8332648755793 1283.319502074689,382.6315463788542 1288.5062240663901,347.9722798512928 1293.6929460580914,377.121181188795 1298.8796680497926,390.9146678199806 1304.0663900414938,392.5231604598531 1309.253112033195,387.09099987442113 1314.4398340248963,392.33175319522275 1319.6265560165975,391.24175517756555 1324.8132780082988,390.8385526564671 1330.0,394.0537967329706" stroke="#0B5CAD" stroke-width="2" fill="none" opacity="0.3" /><polyline points="105.93360995850622,375.70356408092243 111.12033195020747,377.3792718028652 116.30705394190872,377.60467338522454 121.49377593360995,378.9159728557644 126.6804979253112,379.89958572226766 131.86721991701245,380.78657823803655 137.05394190871368,381.6254789673851 142.24066390041494,382.88585453915687 147.42738589211618,383.72418046041616 152.61410788381744,384.85738858345167 157.80082987551867,385.50414987872 162.9875518672199,385.42741285277503 168.17427385892117,385.44586399193497 173.3609958506224,386.15191855492395 178.54771784232366,387.52924916329835 183.7344398340249,388.0404893885034 188.92116182572613,388.63843168323035 194.1078838174274,389.31546747087486 199.29460580912863,389.62178076986464 204.4813278008299,390.3087450531933 209.66804979253112,391.2786685227327 214.85477178423236,393.07147926722996 220.04149377593362,393.2823754990872 225.22821576763485,394.030903523496 230.4149377593361,394.7993044021782 235.60165975103735,394.9415857457426 240.78838174273858,395.13686668507756 245.97510373443984,395.30631621673484 251.16182572614107,395.3534872991828 256.34854771784234,395.0813191755932 261.53526970954357,394.71158408555254 266.7219917012448,395.37522877060064 271.9087136929461,395.99553568537397 277.0954356846473,394.8971514964648 282.28215767634856,394.60863105759074 287.4688796680498,394.4648579584237 292.655601659751,394.2479053678179 297.84232365145226,394.07813868967486 303.0290456431535,393.77260377069945 308.2157676348548,393.68219213227184 313.402489626556,393.39532997625065 318.58921161825725,385.43139476351257 323.77593360995854,373.55282650818253 328.9626556016598,363.84876418811376 334.149377593361,351.6293544584995 339.33609958506224,349.7913347854184 344.5228215767635,348.842751552204 349.7095435684647,347.6584890544538 354.896265560166,346.37730408605205 360.08298755186723,345.38488415258587 365.26970954356847,343.60272422895673 370.4564315352697,343.2056712684757 375.64315352697093,343.2409926873422 380.8298755186722,351.1398983493183 386.01659751037346,363.3062615444851 391.2033195020747,372.3441917558049 396.3900414937759,383.8280258327447 401.57676348547716,385.82443221945266 406.76348547717845,385.1260071303014 411.9502074688797,385.7837441835537 417.1369294605809,386.8388036677302 422.32365145228215,387.0873594964437 427.5103734439834,388.94229365184776 432.6970954356847,389.2482923888909 437.8838174273859,389.298662721871 443.07053941908714,389.3630063507604 448.2572614107884,389.5229975900991 453.4439834024896,389.7655836019304 458.6307053941909,390.3891809929648 463.81742738589213,391.9767792697012 469.00414937759336,394.2627093568024 474.1908713692946,395.1127864596573 479.37759336099583,395.613745332794 484.5643153526971,396.47949320641055 489.75103734439836,396.11968734537146 494.9377593360996,396.08929309902084 500.1244813278008,396.282876860763 505.31120331950206,396.6914111622678 510.49792531120335,397.0798346977301 515.6846473029045,397.4788174842276 520.8713692946058,396.68599087657833 526.058091286307,395.8826773421926 531.2448132780082,395.2386149014229 536.4315352697096,394.4593671927172 541.6182572614108,392.598185457949 546.804979253112,380.7428746158131 551.9917012448133,375.9142874256781 557.1784232365145,374.0404467756914 562.3651452282159,373.9653265752967 567.5518672199171,373.4606407123388 572.7385892116183,369.7131328841548 577.9253112033196,357.047641868984 583.1120331950208,353.3269399388543 588.298755186722,350.0602061879823 593.4854771784233,346.417587454493 598.6721991701245,345.6240370584949 603.8589211618257,346.4489870350834 609.045643153527,357.0916165613004 614.2323651452282,361.2997780560103 619.4190871369294,362.77521631826664 624.6058091286307,362.61931702776235 629.792531120332,362.45367518265107 634.9792531120332,365.2194590007287 640.1659751037345,376.8786539152269 645.3526970954357,380.6447586768322 650.5394190871369,383.39958059766616 655.7261410788382,386.1889873205895 660.9128630705394,387.155538045831 666.0995850622406,387.01185615215144 671.2863070539419,387.451570504571 676.4730290456431,387.711630668552 681.6597510373444,387.9618530710006 686.8464730290457,386.90755846928687 692.0331950207469,379.8237672402473 697.2199170124481,362.7374498132141 702.4066390041494,357.8018318864051 707.5933609958506,355.962652212723 712.7800829875519,355.0254447980053 717.9668049792531,354.5924493167251 723.1535269709543,354.2961038569405 728.3402489626556,354.24841786883684 733.5269709543569,354.552754177586 738.7136929460581,354.73485529649247 743.9004149377594,354.9977697800016 749.0871369294606,356.3978619002866 754.2738589211618,363.7993159561105 759.4605809128631,380.1570047494991 764.6473029045643,385.1603338029214 769.8340248962655,387.53227900651666 775.0207468879668,389.00739597626784 780.207468879668,390.34090390590546 785.3941908713693,390.5549488015373 790.5809128630706,391.1074678255895 795.7676348547718,391.1493187317432 800.954356846473,391.4662653155987 806.1410788381743,391.322927515507 811.3278008298755,391.1151156896172 816.5145228215767,390.95921639911285 821.701244813278,392.12351732101246 826.8879668049792,392.390062554527 832.0746887966804,392.078158258987 837.2614107883818,388.98075174116326 842.448132780083,383.68122266481214 847.6348547717843,383.3560210156412 852.8215767634855,380.9685294126139 858.0082987551867,380.0022315760511 863.195020746888,379.72730076291214 868.3817427385892,374.9101101202143 873.5684647302904,361.4570688955633 878.7551867219917,349.5658769647341 883.9419087136929,343.8900065816469 889.1286307053942,335.81365224758844 894.3153526970955,329.0758325120532 899.5020746887967,330.35517678720544 904.688796680498,335.1967939326705 909.8755186721992,335.01614477532985 915.0622406639004,336.46065399463384 920.2489626556016,337.5324206757766 925.4356846473029,337.88289869692517 930.6224066390041,342.55198190476546 935.8091286307053,354.2799988309819 940.9958506224067,359.3907220718172 946.1825726141079,351.5780927168842 951.3692946058092,347.34791752111977 956.5560165975104,349.75041243551686 961.7427385892116,346.5610997523244 966.9294605809129,344.1578337367246 972.1161825726141,342.597970235844 977.3029045643153,341.43715170770406 982.4896265560166,337.9503597142948 987.6763485477178,336.3191071494383 992.8630705394191,329.1395748316406 998.0497925311204,328.0500831823899 1003.2365145228216,329.5263070554712 1008.4232365145228,337.48702918758806 1013.6099585062241,345.89868825735186 1018.7966804979253,346.7617434946314 1023.9834024896265,350.4542620240411 1029.1701244813278,352.0533335429234 1034.356846473029,352.931829463947 1039.5435684647302,353.14319830616284 1044.7302904564317,354.8650677220829 1049.917012448133,351.552938486211 1055.1037344398342,356.9018760913257 1060.2904564315354,356.90560722716623 1065.4771784232366,359.6580660956289 1070.6639004149379,362.4869066433804 1075.850622406639,361.6391925934752 1081.0373443983403,357.3073377286167 1086.2240663900416,358.478354694798 1091.4107883817428,359.1380319382479 1096.597510373444,359.1760895228963 1101.7842323651453,359.9868653283848 1106.9709543568465,361.83596647513787 1112.1576763485477,366.91310949398644 1117.344398340249,368.84394738788956 1122.5311203319502,370.79029436994153 1127.7178423236514,367.48656018956626 1132.9045643153527,364.32352980479703 1138.091286307054,367.71904992523076 1143.2780082987551,370.92451842644505 1148.4647302904564,368.5483446016908 1153.6514522821576,367.336173207992 1158.8381742738588,366.96380585654026 1164.02489626556,366.86605009902127 1169.2116182572613,366.0053081659281 1174.3983402489628,365.7118543363766 1179.585062240664,365.70780605405025 1184.7717842323652,365.8441790666227 1189.9585062240665,370.7146171629115 1195.1452282157677,372.3422987275181 1200.331950207469,367.6125244500473 1205.5186721991702,370.2558600339548 1210.7053941908714,369.8760304114003 1215.8921161825726,370.50447804891144 1221.0788381742739,370.15692275053925 1226.265560165975,370.4817181210359 1231.4522821576763,369.08988010257514 1236.6390041493776,367.6220512849906 1241.8257261410788,366.43089240470425 1247.01244813278,365.8756993999567 1252.1991701244813,366.034645784567 1257.3858921161825,368.9581836616977 1262.5726141078837,374.0539823597491 1267.759336099585,374.486763017771 1272.9460580912862,374.63862024411065 1278.1327800829877,373.84361470517524 1283.319502074689,374.91724902724803 1288.5062240663901,372.218891627606 1293.6929460580914,373.04878950449427 1298.8796680497926,374.45971850123317 1304.0663900414938,375.5222962240156 1309.253112033195,376.12263597226035 1314.4398340248963,376.8675572315799 1319.6265560165975,377.98393304664035 1324.8132780082988,378.8142973157255 1330.0,380.74622760391486" stroke="#0B5CAD" stroke-width="4" fill="none" opacity="1.0" /><polyline points="80.0,424.061185941943 85.18672199170125,424.6896551724138 90.3734439834025,406.2095100672905 95.56016597510373,424.0138048479095 100.74688796680498,420.30769140108134 105.93360995850622,414.3864643582687 111.12033195020747,422.9359392686675 116.30705394190872,424.6583494489358 121.49377593360995,424.6896551724138 126.6804979253112,424.6896551724138 131.86721991701245,424.6896551724138 137.05394190871368,424.61934189377837 142.24066390041494,424.04264264826253 147.42738589211618,424.50759399906576 152.61410788381744,424.623878230082 157.80082987551867,423.7349846099344 162.9875518672199,424.5251344684415 168.17427385892117,424.58770091700444 173.3609958506224,423.98251509317026 178.54771784232366,424.6896551724138 183.7344398340249,424.6556704206107 188.92116182572613,424.6896551724138 194.1078838174274,424.6896551724138 199.29460580912863,424.6896551724138 204.4813278008299,422.5173685194037 209.66804979253112,424.6896551724138 214.85477178423236,423.2489763360616 220.04149377593362,424.6896551724138 225.22821576763485,424.5581012946901 230.4149377593361,424.6667812206182 235.60165975103735,424.6632499224514 240.78838174273858,424.6896551724138 245.97510373443984,424.6896551724138 251.16182572614107,424.6896551724138 256.34854771784234,424.6896551724138 261.53526970954357,423.3105602248645 266.7219917012448,423.8423858708532 271.9087136929461,422.3630494868936 277.0954356846473,424.6896551724138 282.28215767634856,424.3105300602877 287.4688796680498,424.06058791579795 292.655601659751,424.6896551724138 297.84232365145226,424.6896551724138 303.0290456431535,424.6896551724138 308.2157676348548,424.6896551724138 313.402489626556,423.2121343597986 318.58921161825725,344.0463540222097 323.77593360995854,297.3581364378847 328.9626556016598,344.92046344947335 334.149377593361,294.56106147708533 339.33609958506224,420.38129477428265 344.5228215767635,423.1887811029421 349.7095435684647,418.8428997275031 354.896265560166,417.898957673008 360.08298755186723,424.0210755652808 365.26970954356847,424.5536776625665 370.4564315352697,424.6896551724138 375.64315352697093,424.6896551724138 380.8298755186722,424.5652560461226 386.01659751037346,421.47933445031754 391.2033195020747,424.4144562987907 396.3900414937759,424.6896551724138 401.57676348547716,418.63853273830114 406.76348547717845,408.8250104328311 411.9502074688797,424.6567667047179 417.1369294605809,424.58761994904467 422.32365145228215,424.6896551724138 427.5103734439834,422.62631171091465 432.6970954356847,424.6896551724138 437.8838174273859,424.6896551724138 443.07053941908714,424.6896551724138 448.2572614107884,424.6567667047179 453.4439834024896,424.6896551724138 458.6307053941909,424.6532429363562 463.81742738589213,422.7487790778454 469.00414937759336,424.587455709074 474.1908713692946,424.6896551724138 479.37759336099583,424.6556704206107 484.5643153526971,424.6896551724138 489.75103734439836,424.6896551724138 494.9377593360996,424.6896551724138 500.1244813278008,424.6896551724138 505.31120331950206,423.2322687464118 510.49792531120335,424.6896551724138 515.6846473029045,422.0525085464291 520.8713692946058,423.82784691365936 526.058091286307,423.2235964026606 531.2448132780082,424.6896551724138 536.4315352697096,424.03038892793546 541.6182572614108,422.4210527972107 546.804979253112,297.5473990474569 551.9917012448133,424.6567667047179 557.1784232365145,422.46938745604956 562.3651452282159,424.623878230082 567.5518672199171,410.7691573775878 572.7385892116183,424.623878230082 577.9253112033196,351.50697656265646 583.1120331950208,424.621733255788 588.298755186722,418.5162351355114 593.4854771784233,419.64875252615826 598.6721991701245,419.97042732101977 603.8589211618257,416.7339291030115 609.045643153527,409.77788356489754 614.2323651452282,416.53755703881603 619.4190871369294,424.58761994904467 624.6058091286307,405.94147445343265 629.792531120332,415.8362897495373 634.9792531120332,415.14091754816235 640.1659751037345,416.23633043259395 645.3526970954357,418.09304273759886 650.5394190871369,420.163183357656 655.7261410788382,424.6896551724138 660.9128630705394,424.6896551724138 666.0995850622406,407.2741366113001 671.2863070539419,405.85870310874486 676.4730290456431,414.81916790634386 681.6597510373444,416.0541951409798 686.8464730290457,424.6896551724138 692.0331950207469,400.3009402313212 697.2199170124481,193.78363978989395 702.4066390041494,418.5018735833023 707.5933609958506,424.58761994904467 712.7800829875519,424.6896551724138 717.9668049792531,422.580855283651 723.1535269709543,423.5776429123889 728.3402489626556,422.93653699639634 733.5269709543569,424.6896551724138 738.7136929460581,421.53385916416374 743.9004149377594,424.6567667047179 749.0871369294606,420.8614014853132 754.2738589211618,421.89541803207885 759.4605809128631,420.7923166891793 764.6473029045643,417.0366616424993 769.8340248962655,423.85340562614783 775.0207468879668,422.8863512824401 780.207468879668,419.4090354128764 785.3941908713693,418.47359400175594 790.5809128630706,418.74225980131365 795.7676348547718,421.5845614366315 800.954356846473,424.6896551724138 806.1410788381743,423.27775235037313 811.3278008298755,424.53852187206456 816.5145228215767,417.56737513974076 821.701244813278,424.6896551724138 826.8879668049792,424.58194772949275 832.0746887966804,422.60573360017224 837.2614107883818,375.5378475987866 842.448132780083,370.1512720094384 847.6348547717843,424.6896551724138 852.8215767634855,418.19881092605385 858.0082987551867,422.47428934530734 863.195020746888,420.64882840344535 868.3817427385892,369.66928894036937 873.5684647302904,274.7892139458353 878.7551867219917,287.14048974109136 883.9419087136929,393.60203926632875 889.1286307053942,368.0946897855099 894.3153526970955,386.4620514221684 899.5020746887967,420.53503104845527 904.688796680498,416.6076273233531 909.8755186721992,406.3053611553978 915.0622406639004,421.1176012101595 920.2489626556016,422.7067070169198 925.4356846473029,424.5246598686413 930.6224066390041,416.1197058682658 935.8091286307053,419.0119507786345 940.9958506224067,406.537315421289 946.1825726141079,302.0784947385754 951.3692946058092,290.4748946840066 956.5560165975104,415.7224912494616 961.7427385892116,417.32853060248476 966.9294605809129,399.6333391449192 972.1161825726141,416.00367628346106 977.3029045643153,412.5998225529382 982.4896265560166,410.10661796499033 987.6763485477178,413.68466196703207 992.8630705394191,341.845115719581 998.0497925311204,420.1454955331169 1003.2365145228216,424.6896551724138 1008.4232365145228,420.8746241354121 1013.6099585062241,417.01062341675254 1018.7966804979253,398.1463179390059 1023.9834024896265,422.0907847527813 1029.1701244813278,422.6101031981367 1034.356846473029,420.9702829116024 1039.5435684647302,405.8795728970723 1044.7302904564317,423.7827126995959 1049.917012448133,371.35424667496636 1055.1037344398342,420.5289718732589 1060.2904564315354,419.39235499298434 1065.4771784232366,413.670905269842 1070.6639004149379,420.02014271710186 1075.850622406639,375.3744331168763 1081.0373443983403,347.4110677285242 1086.2240663900416,423.844888333923 1091.4107883817428,414.1300924194923 1096.597510373444,407.266358565501 1101.7842323651453,417.75442593672113 1106.9709543568465,424.6214404608771 1112.1576763485477,423.74490920538767 1117.344398340249,422.93310108038776 1122.5311203319502,423.67905391144313 1127.7178423236514,341.7890371593127 1132.9045643153527,344.18976410900893 1138.091286307054,390.2852622148678 1143.2780082987551,354.46988065078233 1148.4647302904564,373.1104283990441 1153.6514522821576,372.662380968017 1158.8381742738588,373.7987269626846 1164.02489626556,376.4427398132371 1169.2116182572613,388.91396273923806 1174.3983402489628,396.0510065267526 1179.585062240664,399.3753848158604 1184.7717842323652,399.58515494338457 1189.9585062240665,388.16294837317645 1195.1452282157677,346.9590846800246 1200.331950207469,329.20449350457625 1205.5186721991702,372.5513020669952 1210.7053941908714,368.27840551729105 1215.8921161825726,383.3144920491394 1221.0788381742739,373.94247773673135 1226.265560165975,385.32665750716484 1231.4522821576763,399.0260325046266 1236.6390041493776,380.4264137928722 1241.8257261410788,384.50601568544664 1247.01244813278,388.5660375238634 1252.1991701244813,390.6230248998871 1257.3858921161825,388.2450062323939 1262.5726141078837,385.8426364249572 1267.759336099585,379.1245943760962 1272.9460580912862,359.9485915186158 1278.1327800829877,369.628036323499 1283.319502074689,384.6107920007789 1288.5062240663901,362.1782659325186 1293.6929460580914,378.2624149152988 1298.8796680497926,394.06551978594393 1304.0663900414938,394.70960641520054 1309.253112033195,390.12677684749224 1314.4398340248963,396.11016228588915 1319.6265560165975,397.8302859176472 1324.8132780082988,397.4045080553107 1330.0,398.6832988504599" stroke="#C27803" stroke-width="2" fill="none" opacity="0.3" /><polyline points="105.93360995850622,418.9447186314845 111.12033195020747,419.51489300822493 116.30705394190872,420.1578250633138 121.49377593360995,420.66136174210266 126.6804979253112,421.06419108513376 131.86721991701245,421.393778729432 137.05394190871368,421.6625756597942 142.24066390041494,421.66103038532077 147.42738589211618,421.6458586208751 152.61410788381744,423.18038930110777 157.80082987551867,423.15715428127646 162.9875518672199,423.50860787022316 168.17427385892117,424.35871091678445 173.3609958506224,424.4459255688264 178.54771784232366,424.4485343791162 183.7344398340249,424.44570231646594 188.92116182572613,424.44570231646594 194.1078838174274,424.44570231646594 199.29460580912863,424.45156175635225 204.4813278008299,424.3244555789473 209.66804979253112,424.339627343393 214.85477178423236,424.22505218555796 220.04149377593362,424.30460806576457 225.22821576763485,424.30735530128527 230.4149377593361,424.31394532658646 235.60165975103735,424.3706732290265 240.78838174273858,424.3706732290265 245.97510373443984,424.3735052916768 251.16182572614107,424.3735052916768 256.34854771784234,424.3735052916768 261.53526970954357,424.2585807127144 266.7219917012448,424.36899882533515 271.9087136929461,424.1751150182085 277.0954356846473,424.29517158790446 282.28215767634856,424.26357782856064 287.4688796680498,424.2221183803196 292.655601659751,424.2240245429693 297.84232365145226,424.2262249804661 303.0290456431535,424.2262249804661 308.2157676348548,424.2262249804661 313.402489626556,424.1030982460815 318.58921161825725,417.38282315023116 323.77593360995854,406.8867878346495 328.9626556016598,400.30996096620123 334.149377593361,389.6597952987172 339.33609958506224,389.30076526553955 344.5228215767635,389.2072861857608 349.7095435684647,388.77247883673624 354.896265560166,388.2065873784524 360.08298755186723,388.1508724111913 365.26970954356847,388.13954095203735 370.4564315352697,388.13954095203735 375.64315352697093,388.262667686422 380.8298755186722,394.97257618841473 386.01659751037346,405.31600935611743 391.2033195020747,411.94050876022726 396.3900414937759,422.78455823483796 401.57676348547716,422.63932806517283 406.76348547717845,421.4423471759969 411.9502074688797,421.92683609076477 417.1369294605809,422.4842246137678 422.32365145228215,422.53993958102893 427.5103734439834,422.3793257517246 432.6970954356847,422.3793257517246 437.8838174273859,422.3793257517246 443.07053941908714,422.3896923455822 448.2572614107884,422.65447836678226 453.4439834024896,422.6774116062508 458.6307053941909,422.674377253246 463.81742738589213,423.0168977815414 469.00414937759336,424.33043488789497 474.1908713692946,424.3331755935363 479.37759336099583,424.3388464661668 484.5643153526971,424.3388464661668 489.75103734439836,424.5107917546251 494.9377593360996,424.5107917546251 500.1244813278008,424.5107917546251 505.31120331950206,424.38934288579156 510.49792531120335,424.3920835914329 515.6846473029045,424.17232137260083 520.8713692946058,424.10353837070943 526.058091286307,424.1431064811107 531.2448132780082,424.15162310305567 536.4315352697096,424.09668424934915 541.6182572614108,423.9104661140658 546.804979253112,413.31527810365276 551.9917012448133,413.3125373980114 557.1784232365145,413.1275150883144 562.3651452282159,413.1220336764534 567.5518672199171,412.08344106238474 572.7385892116183,412.0779596505238 577.9253112033196,406.1991653185427 583.1120331950208,406.2653225137201 588.298755186722,405.8730424081243 593.4854771784233,405.452967187603 598.6721991701245,405.1146370536934 603.8589211618257,404.6407100791768 609.045643153527,413.9932504556302 614.2323651452282,413.31664965013834 619.4190871369294,413.4931690245546 624.6058091286307,411.9363020431672 629.792531120332,412.358563074163 634.9792531120332,411.56831635066965 640.1659751037345,416.9624291731644 645.3526970954357,416.418371629982 650.5394190871369,416.55561731516076 655.7261410788382,416.975692535682 660.9128630705394,417.3689615232982 666.0995850622406,416.58064548232227 671.2863070539419,416.2540471109762 676.4730290456431,416.11084801660354 681.6597510373444,415.3997292825981 686.8464730290457,416.96207767584656 692.0331950207469,415.6674652159952 697.2199170124481,397.22102540280616 702.4066390041494,397.4098206653652 707.5933609958506,397.9510354329857 712.7800829875519,398.32824141754884 717.9668049792531,398.15250809348527 723.1535269709543,398.0598404051498 728.3402489626556,399.3650404372412 733.5269709543569,400.934286442547 738.7136929460581,401.49384404736526 743.9004149377594,402.21072501101014 749.0871369294606,401.8917038704184 754.2738589211618,403.6912436871482 759.4605809128631,422.6086334287553 764.6473029045643,422.4865324336884 769.8340248962655,422.4253479067803 775.0207468879668,422.27507258261585 780.207468879668,422.0107542600513 785.3941908713693,421.5854168508319 790.5809128630706,421.2358937512417 795.7676348547718,420.9771359399265 800.954356846473,421.24011894061397 806.1410788381743,421.1252010777519 811.3278008298755,421.4316277766479 816.5145228215767,421.0709575356197 821.701244813278,421.39573574255587 826.8879668049792,422.0245095831387 832.0746887966804,421.9205369143074 837.2614107883818,417.9748282740029 842.448132780083,413.87001465704975 847.6348547717843,414.38801975460456 852.8215767634855,414.3427323483329 858.0082987551867,414.4168763407226 863.195020746888,414.0801407766419 868.3817427385892,409.61276882580825 873.5684647302904,397.1336598319558 878.7551867219917,386.26475271540164 883.9419087136929,383.67411805656127 889.1286307053942,378.9668465612293 894.3153526970955,375.9548730463957 899.5020746887967,379.7046383338681 904.688796680498,383.57600127669434 909.8755186721992,382.0439767752763 915.0622406639004,382.2872092989518 920.2489626556016,382.3065774382528 925.4356846473029,382.6295633936858 930.6224066390041,386.50043147101053 935.8091286307053,398.5189928737438 940.9958506224067,408.4687283470936 946.1825726141079,400.8417663031141 951.3692946058092,394.3734500446555 956.5560165975104,396.81182003026333 961.7427385892116,396.54461165976574 966.9294605809129,395.13008764489626 972.1161825726141,395.9382805722349 977.3029045643153,395.2284656841331 982.4896265560166,394.17845826313896 987.6763485477178,393.27512510467153 992.8630705394191,387.0855759256145 998.0497925311204,387.180037988488 1003.2365145228216,388.6927329677484 1008.4232365145228,398.5924104174848 1013.6099585062241,409.13705447854693 1018.7966804979253,407.6723733693423 1023.9834024896265,408.06922788186705 1029.1701244813278,409.98395821963516 1034.356846473029,410.3978421053136 1039.5435684647302,409.8378213006581 1044.7302904564317,410.97749586187524 1049.917012448133,407.4499612542031 1055.1037344398342,414.0069492670096 1060.2904564315354,413.94418755533184 1065.4771784232366,413.02595839678423 1070.6639004149379,412.954751611925 1075.850622406639,409.48506908693537 1081.0373443983403,405.2571315693952 1086.2240663900416,405.4033068678237 1091.4107883817428,404.69663930293666 1096.597510373444,403.5546456074282 1101.7842323651453,404.5442166940656 1106.9709543568465,404.61411067417237 1112.1576763485477,408.97999921837413 1117.344398340249,409.1803433189682 1122.5311203319502,409.5375682288398 1127.7178423236514,403.5474125529623 1132.9045643153527,397.22821433562126 1138.091286307054,398.4707834271206 1143.2780082987551,399.0590178373087 1148.4647302904564,394.83114617606884 1153.6514522821576,391.3755035551126 1158.8381742738588,388.58653425487785 1164.02489626556,385.14389374458756 1169.2116182572613,382.1682706011176 1174.3983402489628,379.86044537789803 1179.585062240664,377.89730235585404 1184.7717842323652,375.8894774418492 1189.9585062240665,379.7539700430045 1195.1452282157677,379.9847467572558 1200.331950207469,374.8946826980648 1205.5186721991702,376.4014678160826 1210.7053941908714,375.9987992426031 1215.8921161825726,376.88647516603004 1221.0788381742739,376.89845439720057 1226.265560165975,377.63878087169456 1231.4522821576763,378.4814533521436 1236.6390041493776,377.17940395765356 1241.8257261410788,375.94028986345245 1247.01244813278,375.0220300784923 1252.1991701244813,375.22703645571823 1257.3858921161825,378.66752991841565 1262.5726141078837,383.3873751617807 1267.759336099585,383.93514952087247 1272.9460580912862,383.2409983543162 1278.1327800829877,382.1004603771795 1283.319502074689,382.98948656585014 1288.5062240663901,381.0604539346296 1293.6929460580914,379.3301524688523 1298.8796680497926,380.4667446349416 1304.0663900414938,381.3170438624211 1309.253112033195,381.44710547272354 1314.4398340248963,381.904366921557 1319.6265560165975,382.7031402286615 1324.8132780082988,383.6666295311909 1330.0,385.2965215707212" stroke="#C27803" stroke-width="4" fill="none" opacity="1.0" /><line x1="80.0" y1="444" x2="1330.0" y2="444" stroke="#E2E8F0" stroke-width="2" /><line x1="80.0" y1="438" x2="80.0" y2="450" stroke="#E2E8F0" stroke-width="1" /><text x="80.0" y="466" font-family="Inter, Arial, sans-serif" font-size="11" font-weight="500" fill="#64748B" text-anchor="middle">2006</text><line x1="142.24066390041494" y1="438" x2="142.24066390041494" y2="450" stroke="#E2E8F0" stroke-width="1" /><text x="142.24066390041494" y="466" font-family="Inter, Arial, sans-serif" font-size="11" font-weight="500" fill="#64748B" text-anchor="middle">2007</text><line x1="204.4813278008299" y1="438" x2="204.4813278008299" y2="450" stroke="#E2E8F0" stroke-width="1" /><text x="204.4813278008299" y="466" font-family="Inter, Arial, sans-serif" font-size="11" font-weight="500" fill="#64748B" text-anchor="middle">2008</text><line x1="266.7219917012448" y1="438" x2="266.7219917012448" y2="450" stroke="#E2E8F0" stroke-width="1" /><text x="266.7219917012448" y="466" font-family="Inter, Arial, sans-serif" font-size="11" font-weight="500" fill="#64748B" text-anchor="middle">2009</text><line x1="328.9626556016598" y1="438" x2="328.9626556016598" y2="450" stroke="#E2E8F0" stroke-width="1" /><text x="328.9626556016598" y="466" font-family="Inter, Arial, sans-serif" font-size="11" font-weight="500" fill="#64748B" text-anchor="middle">2010</text><line x1="391.2033195020747" y1="438" x2="391.2033195020747" y2="450" stroke="#E2E8F0" stroke-width="1" /><text x="391.2033195020747" y="466" font-family="Inter, Arial, sans-serif" font-size="11" font-weight="500" fill="#64748B" text-anchor="middle">2011</text><line x1="453.4439834024896" y1="438" x2="453.4439834024896" y2="450" stroke="#E2E8F0" stroke-width="1" /><text x="453.4439834024896" y="466" font-family="Inter, Arial, sans-serif" font-size="11" font-weight="500" fill="#64748B" text-anchor="middle">2012</text><line x1="515.6846473029045" y1="438" x2="515.6846473029045" y2="450" stroke="#E2E8F0" stroke-width="1" /><text x="515.6846473029045" y="466" font-family="Inter, Arial, sans-serif" font-size="11" font-weight="500" fill="#64748B" text-anchor="middle">2013</text><line x1="577.9253112033196" y1="438" x2="577.9253112033196" y2="450" stroke="#E2E8F0" stroke-width="1" /><text x="577.9253112033196" y="466" font-family="Inter, Arial, sans-serif" font-size="11" font-weight="500" fill="#64748B" text-anchor="middle">2014</text><line x1="640.1659751037345" y1="438" x2="640.1659751037345" y2="450" stroke="#E2E8F0" stroke-width="1" /><text x="640.1659751037345" y="466" font-family="Inter, Arial, sans-serif" font-size="11" font-weight="500" fill="#64748B" text-anchor="middle">2015</text><line x1="697.2199170124481" y1="438" x2="697.2199170124481" y2="450" stroke="#E2E8F0" stroke-width="1" /><text x="697.2199170124481" y="466" font-family="Inter, Arial, sans-serif" font-size="11" font-weight="500" fill="#64748B" text-anchor="middle">2016</text><line x1="759.4605809128631" y1="438" x2="759.4605809128631" y2="450" stroke="#E2E8F0" stroke-width="1" /><text x="759.4605809128631" y="466" font-family="Inter, Arial, sans-serif" font-size="11" font-weight="500" fill="#64748B" text-anchor="middle">2017</text><line x1="821.701244813278" y1="438" x2="821.701244813278" y2="450" stroke="#E2E8F0" stroke-width="1" /><text x="821.701244813278" y="466" font-family="Inter, Arial, sans-serif" font-size="11" font-weight="500" fill="#64748B" text-anchor="middle">2018</text><line x1="878.7551867219917" y1="438" x2="878.7551867219917" y2="450" stroke="#E2E8F0" stroke-width="1" /><text x="878.7551867219917" y="466" font-family="Inter, Arial, sans-serif" font-size="11" font-weight="500" fill="#64748B" text-anchor="middle">2019</text><line x1="940.9958506224067" y1="438" x2="940.9958506224067" y2="450" stroke="#E2E8F0" stroke-width="1" /><text x="940.9958506224067" y="466" font-family="Inter, Arial, sans-serif" font-size="11" font-weight="500" fill="#64748B" text-anchor="middle">2020</text><line x1="1003.2365145228216" y1="438" x2="1003.2365145228216" y2="450" stroke="#E2E8F0" stroke-width="1" /><text x="1003.2365145228216" y="466" font-family="Inter, Arial, sans-serif" font-size="11" font-weight="500" fill="#64748B" text-anchor="middle">2021</text><line x1="1065.4771784232366" y1="438" x2="1065.4771784232366" y2="450" stroke="#E2E8F0" stroke-width="1" /><text x="1065.4771784232366" y="466" font-family="Inter, Arial, sans-serif" font-size="11" font-weight="500" fill="#64748B" text-anchor="middle">2022</text><line x1="1127.7178423236514" y1="438" x2="1127.7178423236514" y2="450" stroke="#E2E8F0" stroke-width="1" /><text x="1127.7178423236514" y="466" font-family="Inter, Arial, sans-serif" font-size="11" font-weight="500" fill="#64748B" text-anchor="middle">2023</text><line x1="1189.9585062240665" y1="438" x2="1189.9585062240665" y2="450" stroke="#E2E8F0" stroke-width="1" /><text x="1189.9585062240665" y="466" font-family="Inter, Arial, sans-serif" font-size="11" font-weight="500" fill="#64748B" text-anchor="middle">2024</text><line x1="1252.1991701244813" y1="438" x2="1252.1991701244813" y2="450" stroke="#E2E8F0" stroke-width="1" /><text x="1252.1991701244813" y="466" font-family="Inter, Arial, sans-serif" font-size="11" font-weight="500" fill="#64748B" text-anchor="middle">2025</text><line x1="1314.4398340248963" y1="438" x2="1314.4398340248963" y2="450" stroke="#E2E8F0" stroke-width="1" /><text x="1314.4398340248963" y="466" font-family="Inter, Arial, sans-serif" font-size="11" font-weight="500" fill="#64748B" text-anchor="middle">2026</text><line x1="1330.0" y1="438" x2="1330.0" y2="450" stroke="#E2E8F0" stroke-width="1" /><text x="1330.0" y="466" font-family="Inter, Arial, sans-serif" font-size="11" font-weight="500" fill="#64748B" text-anchor="middle">2026</text><rect x="62" y="482" width="1286" height="252" rx="18" fill="#FFFFFF" stroke="#E2E8F0" /><text x="80" y="506" font-family="Inter, Arial, sans-serif" font-size="15" font-weight="700" fill="#011E42" text-anchor="start">Thurmond — storage (ac·ft)</text><line x1="80" y1="526.0" x2="1330" y2="526.0" stroke="#E2E8F0" stroke-width="1" stroke-dasharray="4 6" /><line x1="80" y1="616.0" x2="1330" y2="616.0" stroke="#E2E8F0" stroke-width="1" stroke-dasharray="4 6" /><line x1="80" y1="706.0" x2="1330" y2="706.0" stroke="#E2E8F0" stroke-width="1" stroke-dasharray="4 6" /><text x="74" y="532" font-family="Inter, Arial, sans-serif" font-size="11" font-weight="500" fill="#64748B" text-anchor="end">991760436.8M</text><text x="74" y="620.0" font-family="Inter, Arial, sans-serif" font-size="11" font-weight="500" fill="#64748B" text-anchor="end">-6198502710.6M</text><text x="74" y="710" font-family="Inter, Arial, sans-serif" font-size="11" font-weight="500" fill="#64748B" text-anchor="end">-13388765857.9M</text><polygon points="80.0,706 80.0,538.4137931069696 85.18672199170125,538.4137931057953 90.3734439834025,538.4137931055227 95.56016597510373,538.4137931066422 100.74688796680498,538.4137931067709 105.93360995850622,538.4137931075543 111.12033195020747,538.41379310824 116.30705394190872,538.4137931096449 121.49377593360995,538.4137931109551 126.6804979253112,538.4137931122882 131.86721991701245,538.4137931121098 137.05394190871368,538.4137931118678 142.24066390041494,538.413793109793 147.42738589211618,538.4137931089112 152.61410788381744,538.4137931056162 157.80082987551867,538.4137931062686 162.9875518672199,538.4137931070295 168.17427385892117,538.4137931080908 173.3609958506224,538.4137931091142 178.54771784232366,538.4137931100782 183.7344398340249,538.4137931119458 188.92116182572613,538.4137931134678 194.1078838174274,538.413793114466 199.29460580912863,538.4137931154795 204.4813278008299,538.4137931151902 209.66804979253112,538.4137931147773 214.85477178423236,538.4137931137835 220.04149377593362,538.4137931121085 225.22821576763485,538.4137931122647 230.4149377593361,538.4137931131522 235.60165975103735,538.4137931143755 240.78838174273858,538.4137931156739 245.97510373443984,538.4137931162044 251.16182572614107,538.4137931168885 256.34854771784234,538.4137931172056 261.53526970954357,538.4137931159769 266.7219917012448,538.4137931157002 271.9087136929461,538.4137931161936 277.0954356846473,538.4137931126219 282.28215767634856,538.4137931088019 287.4688796680498,538.4137931083013 292.655601659751,538.4137931081118 297.84232365145226,538.4137931087256 303.0290456431535,538.4137931098213 308.2157676348548,538.4137931103979 313.402489626556,538.413793108155 318.58921161825725,538.4137931062584 323.77593360995854,538.413793107502 328.9626556016598,538.4137931072022 334.149377593361,538.4137931059579 339.33609958506224,538.4137931072578 344.5228215767635,538.4137931071562 349.7095435684647,538.413793107205 354.896265560166,538.4137931073735 360.08298755186723,538.4137931073834 365.26970954356847,538.4137931081863 370.4564315352697,538.4137931090099 375.64315352697093,538.4137931093621 380.8298755186722,538.4137931104193 386.01659751037346,538.4137931105629 391.2033195020747,538.4137931104694 396.3900414937759,538.4137931091844 401.57676348547716,538.4137931080809 406.76348547717845,538.4137931077653 411.9502074688797,538.4137931076434 417.1369294605809,538.4137931075134 422.32365145228215,538.4137931081123 427.5103734439834,538.4137931095752 432.6970954356847,538.4137931110117 437.8838174273859,538.4137931121122 443.07053941908714,538.4137931133952 448.2572614107884,538.4137931137732 453.4439834024896,538.4137931132158 458.6307053941909,538.4137931116908 463.81742738589213,538.4137931116293 469.00414937759336,538.4137931118784 474.1908713692946,538.4137931122244 479.37759336099583,538.4137931125267 484.5643153526971,538.4137931137467 489.75103734439836,538.4137931138798 494.9377593360996,538.4137931147282 500.1244813278008,538.4137931154748 505.31120331950206,538.4137931166571 510.49792531120335,538.4137931166644 515.6846473029045,538.4137931156672 520.8713692946058,538.4137931140021 526.058091286307,538.4137931115706 531.2448132780082,538.413793109952 536.4315352697096,538.4137931067546 541.6182572614108,538.4137931050227 546.804979253112,538.4137931048509 551.9917012448133,538.4137931052225 557.1784232365145,538.4137931052892 562.3651452282159,538.4137931060744 567.5518672199171,538.4137931067279 572.7385892116183,538.4137931055719 577.9253112033196,538.413793105135 583.1120331950208,538.4137931066654 588.298755186722,538.4137931054978 593.4854771784233,538.413793105605 598.6721991701245,538.413793106962 603.8589211618257,538.4137931056871 609.045643153527,538.4137931070634 614.2323651452282,538.4137931075318 619.4190871369294,538.4137931085941 624.6058091286307,538.4137931094448 629.792531120332,538.4137931102055 634.9792531120332,538.4137931102439 640.1659751037345,538.4137931082704 645.3526970954357,538.4137931075772 650.5394190871369,538.413793106316 655.7261410788382,538.4137931056599 660.9128630705394,538.4137931052148 666.0995850622406,538.4137931054318 671.2863070539419,538.4137931061975 676.4730290456431,538.4137931078785 681.6597510373444,538.4137931092623 686.8464730290457,538.4137931086252 692.0331950207469,538.413793106273 697.2199170124481,538.4137931051234 702.4066390041494,538.4137931064789 707.5933609958506,538.4137931059129 712.7800829875519,538.4137931053074 717.9668049792531,538.4137931058758 723.1535269709543,538.4137931063685 728.3402489626556,538.4137931080922 733.5269709543569,538.4137931091959 738.7136929460581,538.413793109853 743.9004149377594,538.413793111685 749.0871369294606,538.4137931130222 754.2738589211618,538.4137931136435 759.4605809128631,538.413793113184 764.6473029045643,538.4137931130649 769.8340248962655,538.4137931133464 775.0207468879668,538.4137931122675 780.207468879668,538.4137931114145 785.3941908713693,538.4137931111015 790.5809128630706,538.4137931102616 795.7676348547718,538.4137931113771 800.954356846473,538.4137931113795 806.1410788381743,538.4137931124679 811.3278008298755,538.4137931124542 816.5145228215767,538.4137931126597 821.701244813278,538.4137931125418 826.8879668049792,538.4137931079838 832.0746887966804,538.4137931076233 837.2614107883818,538.4137931054988 842.448132780083,538.4137931069986 847.6348547717843,538.4137931074863 852.8215767634855,538.4137931063228 858.0082987551867,538.4137931078054 863.195020746888,538.413793108354 868.3817427385892,538.4137931075227 873.5684647302904,538.4137931077324 878.7551867219917,538.4137931073384 883.9419087136929,538.4137931080868 889.1286307053942,538.4137931064284 894.3153526970955,538.4137931067556 899.5020746887967,538.4137931074382 904.688796680498,538.4137931058449 909.8755186721992,538.4137931055928 915.0622406639004,538.4137931067453 920.2489626556016,538.4137931082613 925.4356846473029,538.4137931097655 930.6224066390041,538.4137931100925 935.8091286307053,538.4137931087705 940.9958506224067,538.4137931066426 946.1825726141079,538.4137931041714 951.3692946058092,538.4137931034483 956.5560165975104,538.4137931045084 961.7427385892116,538.4137931050537 966.9294605809129,538.4137931050309 972.1161825726141,538.4137931056488 977.3029045643153,538.4137931068252 982.4896265560166,538.4137931057339 987.6763485477178,538.4137931059033 992.8630705394191,538.4137931059363 998.0497925311204,538.4137931078762 1003.2365145228216,538.413793107441 1008.4232365145228,538.4137931063344 1013.6099585062241,538.4137931056769 1018.7966804979253,538.4137931047005 1023.9834024896265,538.4137931049648 1029.1701244813278,538.4137931047708 1034.356846473029,538.4137931052371 1039.5435684647302,538.4137931058438 1044.7302904564317,538.4137931063079 1049.917012448133,538.4137931045614 1055.1037344398342,538.413793105999 1060.2904564315354,538.4137931079883 1065.4771784232366,538.413793106313 1070.6639004149379,538.4137931061798 1075.850622406639,538.4137931043408 1081.0373443983403,538.4137931041449 1086.2240663900416,538.4137931053086 1091.4107883817428,538.4137931049579 1096.597510373444,538.4137931059529 1101.7842323651453,538.4137931078319 1106.9709543568465,538.4137931092293 1112.1576763485477,538.4137931097459 1117.344398340249,538.4137931103992 1122.5311203319502,538.4137931090671 1127.7178423236514,538.4137931072039 1132.9045643153527,538.4137931064203 1138.091286307054,538.4137931058095 1143.2780082987551,538.4137931045759 1148.4647302904564,538.4137931043708 1153.6514522821576,538.4137931048887 1158.8381742738588,538.4137931056819 1164.02489626556,538.4137931072878 1169.2116182572613,538.4137931090553 1174.3983402489628,538.4137931099432 1179.585062240664,538.4137931111918 1184.7717842323652,538.4137931118162 1189.9585062240665,538.4137931084593 1195.1452282157677,538.4137931058158 1200.331950207469,538.4137931049502 1205.5186721991702,538.4137931050349 1210.7053941908714,538.4137931050038 1215.8921161825726,538.4137931056437 1221.0788381742739,538.413793107256 1226.265560165975,538.413793108942 1231.4522821576763,538.4137931100853 1236.6390041493776,538.4137931063323 1241.8257261410788,538.4137931077663 1247.01244813278,538.4137931085139 1252.1991701244813,538.41379310831 1257.3858921161825,538.4137931069317 1262.5726141078837,538.4137931056671 1267.759336099585,538.4137931051079 1272.9460580912862,538.4137931050711 1278.1327800829877,538.4137931053283 1283.319502074689,538.4137931066617 1288.5062240663901,538.4137931053539 1293.6929460580914,538.4137931074254 1298.8796680497926,538.4137931087605 1304.0663900414938,538.4137931094517 1309.253112033195,538.4137931104827 1314.4398340248963,538.4137931114116 1319.6265560165975,538.4137931109207 1324.8132780082988,693.5862068965517 1330.0,538.4137931107365 1330.0,706" fill="#87714D" opacity="0.1" /><polyline points="80.0,538.4137931069696 85.18672199170125,538.4137931057953 90.3734439834025,538.4137931055227 95.56016597510373,538.4137931066422 100.74688796680498,538.4137931067709 105.93360995850622,538.4137931075543 111.12033195020747,538.41379310824 116.30705394190872,538.4137931096449 121.49377593360995,538.4137931109551 126.6804979253112,538.4137931122882 131.86721991701245,538.4137931121098 137.05394190871368,538.4137931118678 142.24066390041494,538.413793109793 147.42738589211618,538.4137931089112 152.61410788381744,538.4137931056162 157.80082987551867,538.4137931062686 162.9875518672199,538.4137931070295 168.17427385892117,538.4137931080908 173.3609958506224,538.4137931091142 178.54771784232366,538.4137931100782 183.7344398340249,538.4137931119458 188.92116182572613,538.4137931134678 194.1078838174274,538.413793114466 199.29460580912863,538.4137931154795 204.4813278008299,538.4137931151902 209.66804979253112,538.4137931147773 214.85477178423236,538.4137931137835 220.04149377593362,538.4137931121085 225.22821576763485,538.4137931122647 230.4149377593361,538.4137931131522 235.60165975103735,538.4137931143755 240.78838174273858,538.4137931156739 245.97510373443984,538.4137931162044 251.16182572614107,538.4137931168885 256.34854771784234,538.4137931172056 261.53526970954357,538.4137931159769 266.7219917012448,538.4137931157002 271.9087136929461,538.4137931161936 277.0954356846473,538.4137931126219 282.28215767634856,538.4137931088019 287.4688796680498,538.4137931083013 292.655601659751,538.4137931081118 297.84232365145226,538.4137931087256 303.0290456431535,538.4137931098213 308.2157676348548,538.4137931103979 313.402489626556,538.413793108155 318.58921161825725,538.4137931062584 323.77593360995854,538.413793107502 328.9626556016598,538.4137931072022 334.149377593361,538.4137931059579 339.33609958506224,538.4137931072578 344.5228215767635,538.4137931071562 349.7095435684647,538.413793107205 354.896265560166,538.4137931073735 360.08298755186723,538.4137931073834 365.26970954356847,538.4137931081863 370.4564315352697,538.4137931090099 375.64315352697093,538.4137931093621 380.8298755186722,538.4137931104193 386.01659751037346,538.4137931105629 391.2033195020747,538.4137931104694 396.3900414937759,538.4137931091844 401.57676348547716,538.4137931080809 406.76348547717845,538.4137931077653 411.9502074688797,538.4137931076434 417.1369294605809,538.4137931075134 422.32365145228215,538.4137931081123 427.5103734439834,538.4137931095752 432.6970954356847,538.4137931110117 437.8838174273859,538.4137931121122 443.07053941908714,538.4137931133952 448.2572614107884,538.4137931137732 453.4439834024896,538.4137931132158 458.6307053941909,538.4137931116908 463.81742738589213,538.4137931116293 469.00414937759336,538.4137931118784 474.1908713692946,538.4137931122244 479.37759336099583,538.4137931125267 484.5643153526971,538.4137931137467 489.75103734439836,538.4137931138798 494.9377593360996,538.4137931147282 500.1244813278008,538.4137931154748 505.31120331950206,538.4137931166571 510.49792531120335,538.4137931166644 515.6846473029045,538.4137931156672 520.8713692946058,538.4137931140021 526.058091286307,538.4137931115706 531.2448132780082,538.413793109952 536.4315352697096,538.4137931067546 541.6182572614108,538.4137931050227 546.804979253112,538.4137931048509 551.9917012448133,538.4137931052225 557.1784232365145,538.4137931052892 562.3651452282159,538.4137931060744 567.5518672199171,538.4137931067279 572.7385892116183,538.4137931055719 577.9253112033196,538.413793105135 583.1120331950208,538.4137931066654 588.298755186722,538.4137931054978 593.4854771784233,538.413793105605 598.6721991701245,538.413793106962 603.8589211618257,538.4137931056871 609.045643153527,538.4137931070634 614.2323651452282,538.4137931075318 619.4190871369294,538.4137931085941 624.6058091286307,538.4137931094448 629.792531120332,538.4137931102055 634.9792531120332,538.4137931102439 640.1659751037345,538.4137931082704 645.3526970954357,538.4137931075772 650.5394190871369,538.413793106316 655.7261410788382,538.4137931056599 660.9128630705394,538.4137931052148 666.0995850622406,538.4137931054318 671.2863070539419,538.4137931061975 676.4730290456431,538.4137931078785 681.6597510373444,538.4137931092623 686.8464730290457,538.4137931086252 692.0331950207469,538.413793106273 697.2199170124481,538.4137931051234 702.4066390041494,538.4137931064789 707.5933609958506,538.4137931059129 712.7800829875519,538.4137931053074 717.9668049792531,538.4137931058758 723.1535269709543,538.4137931063685 728.3402489626556,538.4137931080922 733.5269709543569,538.4137931091959 738.7136929460581,538.413793109853 743.9004149377594,538.413793111685 749.0871369294606,538.4137931130222 754.2738589211618,538.4137931136435 759.4605809128631,538.413793113184 764.6473029045643,538.4137931130649 769.8340248962655,538.4137931133464 775.0207468879668,538.4137931122675 780.207468879668,538.4137931114145 785.3941908713693,538.4137931111015 790.5809128630706,538.4137931102616 795.7676348547718,538.4137931113771 800.954356846473,538.4137931113795 806.1410788381743,538.4137931124679 811.3278008298755,538.4137931124542 816.5145228215767,538.4137931126597 821.701244813278,538.4137931125418 826.8879668049792,538.4137931079838 832.0746887966804,538.4137931076233 837.2614107883818,538.4137931054988 842.448132780083,538.4137931069986 847.6348547717843,538.4137931074863 852.8215767634855,538.4137931063228 858.0082987551867,538.4137931078054 863.195020746888,538.413793108354 868.3817427385892,538.4137931075227 873.5684647302904,538.4137931077324 878.7551867219917,538.4137931073384 883.9419087136929,538.4137931080868 889.1286307053942,538.4137931064284 894.3153526970955,538.4137931067556 899.5020746887967,538.4137931074382 904.688796680498,538.4137931058449 909.8755186721992,538.4137931055928 915.0622406639004,538.4137931067453 920.2489626556016,538.4137931082613 925.4356846473029,538.4137931097655 930.6224066390041,538.4137931100925 935.8091286307053,538.4137931087705 940.9958506224067,538.4137931066426 946.1825726141079,538.4137931041714 951.3692946058092,538.4137931034483 956.5560165975104,538.4137931045084 961.7427385892116,538.4137931050537 966.9294605809129,538.4137931050309 972.1161825726141,538.4137931056488 977.3029045643153,538.4137931068252 982.4896265560166,538.4137931057339 987.6763485477178,538.4137931059033 992.8630705394191,538.4137931059363 998.0497925311204,538.4137931078762 1003.2365145228216,538.413793107441 1008.4232365145228,538.4137931063344 1013.6099585062241,538.4137931056769 1018.7966804979253,538.4137931047005 1023.9834024896265,538.4137931049648 1029.1701244813278,538.4137931047708 1034.356846473029,538.4137931052371 1039.5435684647302,538.4137931058438 1044.7302904564317,538.4137931063079 1049.917012448133,538.4137931045614 1055.1037344398342,538.413793105999 1060.2904564315354,538.4137931079883 1065.4771784232366,538.413793106313 1070.6639004149379,538.4137931061798 1075.850622406639,538.4137931043408 1081.0373443983403,538.4137931041449 1086.2240663900416,538.4137931053086 1091.4107883817428,538.4137931049579 1096.597510373444,538.4137931059529 1101.7842323651453,538.4137931078319 1106.9709543568465,538.4137931092293 1112.1576763485477,538.4137931097459 1117.344398340249,538.4137931103992 1122.5311203319502,538.4137931090671 1127.7178423236514,538.4137931072039 1132.9045643153527,538.4137931064203 1138.091286307054,538.4137931058095 1143.2780082987551,538.4137931045759 1148.4647302904564,538.4137931043708 1153.6514522821576,538.4137931048887 1158.8381742738588,538.4137931056819 1164.02489626556,538.4137931072878 1169.2116182572613,538.4137931090553 1174.3983402489628,538.4137931099432 1179.585062240664,538.4137931111918 1184.7717842323652,538.4137931118162 1189.9585062240665,538.4137931084593 1195.1452282157677,538.4137931058158 1200.331950207469,538.4137931049502 1205.5186721991702,538.4137931050349 1210.7053941908714,538.4137931050038 1215.8921161825726,538.4137931056437 1221.0788381742739,538.413793107256 1226.265560165975,538.413793108942 1231.4522821576763,538.4137931100853 1236.6390041493776,538.4137931063323 1241.8257261410788,538.4137931077663 1247.01244813278,538.4137931085139 1252.1991701244813,538.41379310831 1257.3858921161825,538.4137931069317 1262.5726141078837,538.4137931056671 1267.759336099585,538.4137931051079 1272.9460580912862,538.4137931050711 1278.1327800829877,538.4137931053283 1283.319502074689,538.4137931066617 1288.5062240663901,538.4137931053539 1293.6929460580914,538.4137931074254 1298.8796680497926,538.4137931087605 1304.0663900414938,538.4137931094517 1309.253112033195,538.4137931104827 1314.4398340248963,538.4137931114116 1319.6265560165975,538.4137931109207 1324.8132780082988,693.5862068965517 1330.0,538.4137931107365" stroke="#87714D" stroke-width="2" fill="none" opacity="0.4" /><polyline points="105.93360995850622,538.4137931065425 111.12033195020747,538.413793106785 116.30705394190872,538.4137931071425 121.49377593360995,538.4137931075661 126.6804979253112,538.4137931080384 131.86721991701245,538.4137931084085 137.05394190871368,538.4137931086967 142.24066390041494,538.413793108932 147.42738589211618,538.4137931091916 152.61410788381744,538.4137931091994 157.80082987551867,538.4137931091684 162.9875518672199,538.4137931091899 168.17427385892117,538.4137931092346 173.3609958506224,538.4137931093074 178.54771784232366,538.4137931093436 183.7344398340249,538.4137931094261 188.92116182572613,538.4137931095245 194.1078838174274,538.4137931097207 199.29460580912863,538.4137931100217 204.4813278008299,538.4137931104715 209.66804979253112,538.4137931109603 214.85477178423236,538.4137931116409 220.04149377593362,538.4137931121276 225.22821576763485,538.4137931125638 230.4149377593361,538.4137931129857 235.60165975103735,538.413793113424 240.78838174273858,538.4137931138904 245.97510373443984,538.4137931142453 251.16182572614107,538.4137931145303 256.34854771784234,538.4137931147586 261.53526970954357,538.4137931148001 266.7219917012448,538.4137931148425 271.9087136929461,538.4137931149606 277.0954356846473,538.4137931148638 282.28215767634856,538.4137931145883 287.4688796680498,538.4137931142579 292.655601659751,538.413793113838 297.84232365145226,538.4137931133671 303.0290456431535,538.4137931128794 308.2157676348548,538.4137931123955 313.402489626556,538.4137931116677 318.58921161825725,538.4137931107555 323.77593360995854,538.4137931100493 328.9626556016598,538.4137931093411 334.149377593361,538.4137931084881 339.33609958506224,538.4137931080411 344.5228215767635,538.413793107904 349.7095435684647,538.4137931078126 354.896265560166,538.4137931077511 360.08298755186723,538.4137931076392 365.26970954356847,538.4137931075029 370.4564315352697,538.4137931073873 375.64315352697093,538.4137931074879 380.8298755186722,538.4137931078346 386.01659751037346,538.4137931080897 391.2033195020747,538.4137931083619 396.3900414937759,538.4137931086309 401.57676348547716,538.4137931086995 406.76348547717845,538.4137931087503 411.9502074688797,538.4137931087868 417.1369294605809,538.4137931087984 422.32365145228215,538.4137931088592 427.5103734439834,538.4137931089749 432.6970954356847,538.4137931091417 437.8838174273859,538.4137931093709 443.07053941908714,538.4137931096188 448.2572614107884,538.4137931098865 453.4439834024896,538.4137931101152 458.6307053941909,538.4137931103241 463.81742738589213,538.4137931106197 469.00414937759336,538.4137931109626 474.1908713692946,538.4137931113444 479.37759336099583,538.4137931117621 484.5643153526971,538.4137931122316 489.75103734439836,538.4137931125904 494.9377593360996,538.4137931129001 500.1244813278008,538.4137931131803 505.31120331950206,538.4137931134521 510.49792531120335,538.413793113693 515.6846473029045,538.4137931138973 520.8713692946058,538.4137931140899 526.058091286307,538.413793114085 531.2448132780082,538.4137931139245 536.4315352697096,538.4137931134687 541.6182572614108,538.4137931128433 546.804979253112,538.413793112102 551.9917012448133,538.4137931113805 557.1784232365145,538.413793110594 562.3651452282159,538.4137931098106 567.5518672199171,538.4137931089832 572.7385892116183,538.4137931080588 577.9253112033196,538.4137931071812 583.1120331950208,538.4137931065698 588.298755186722,538.4137931060636 593.4854771784233,538.4137931057014 598.6721991701245,538.4137931057187 603.8589211618257,538.4137931057741 609.045643153527,538.4137931059585 614.2323651452282,538.4137931061509 619.4190871369294,538.4137931064263 624.6058091286307,538.4137931067071 629.792531120332,538.413793106997 634.9792531120332,538.4137931073863 640.1659751037345,538.4137931076476 645.3526970954357,538.4137931077236 650.5394190871369,538.4137931077918 655.7261410788382,538.4137931077963 660.9128630705394,538.4137931076507 666.0995850622406,538.4137931076294 671.2863070539419,538.4137931075574 676.4730290456431,538.4137931075862 681.6597510373444,538.4137931076419 686.8464730290457,538.4137931075736 692.0331950207469,538.413793107246 697.2199170124481,538.4137931068192 702.4066390041494,538.4137931066699 707.5933609958506,538.4137931065312 712.7800829875519,538.4137931064472 717.9668049792531,538.4137931064652 723.1535269709543,538.4137931065612 728.3402489626556,538.413793106783 733.5269709543569,538.4137931070328 738.7136929460581,538.4137931071974 743.9004149377594,538.4137931073992 749.0871369294606,538.4137931077656 754.2738589211618,538.4137931083799 759.4605809128631,538.4137931090515 764.6473029045643,538.4137931096004 769.8340248962655,538.4137931102199 775.0207468879668,538.4137931107999 780.207468879668,538.4137931112615 785.3941908713693,538.4137931116559 790.5809128630706,538.4137931118366 795.7676348547718,538.4137931120184 800.954356846473,538.4137931121456 806.1410788381743,538.4137931122109 811.3278008298755,538.4137931121636 816.5145228215767,538.4137931120815 821.701244813278,538.4137931120281 826.8879668049792,538.4137931116046 832.0746887966804,538.4137931111277 837.2614107883818,538.4137931105637 842.448132780083,538.4137931101957 847.6348547717843,538.4137931098944 852.8215767634855,538.4137931095661 858.0082987551867,538.4137931092685 863.195020746888,538.4137931090164 868.3817427385892,538.4137931086043 873.5684647302904,538.4137931082108 878.7551867219917,538.4137931077673 883.9419087136929,538.413793107396 889.1286307053942,538.4137931072664 894.3153526970955,538.4137931071942 899.5020746887967,538.4137931073558 904.688796680498,538.4137931072596 909.8755186721992,538.4137931071018 915.0622406639004,538.413793107137 920.2489626556016,538.413793107175 925.4356846473029,538.4137931072927 930.6224066390041,538.4137931075069 935.8091286307053,538.4137931075934 940.9958506224067,538.4137931075354 946.1825726141079,538.4137931072091 951.3692946058092,538.4137931069607 956.5560165975104,538.4137931067735 961.7427385892116,538.4137931065748 966.9294605809129,538.4137931065069 972.1161825726141,538.4137931065115 977.3029045643153,538.4137931065183 982.4896265560166,538.4137931063076 987.6763485477178,538.4137931059859 992.8630705394191,538.4137931056395 998.0497925311204,538.413793105565 1003.2365145228216,538.4137931056314 1008.4232365145228,538.4137931058117 1013.6099585062241,538.4137931059975 1018.7966804979253,538.4137931060135 1023.9834024896265,538.4137931060061 1029.1701244813278,538.4137931059844 1034.356846473029,538.41379310595 1039.5435684647302,538.4137931058683 1044.7302904564317,538.413793105916 1049.917012448133,538.4137931058043 1055.1037344398342,538.4137931058094 1060.2904564315354,538.4137931058187 1065.4771784232366,538.4137931057248 1070.6639004149379,538.4137931057119 1075.850622406639,538.4137931056006 1081.0373443983403,538.4137931055543 1086.2240663900416,538.413793105583 1091.4107883817428,538.4137931055985 1096.597510373444,538.4137931056582 1101.7842323651453,538.4137931058239 1106.9709543568465,538.4137931060673 1112.1576763485477,538.4137931064994 1117.344398340249,538.413793106866 1122.5311203319502,538.413793106956 1127.7178423236514,538.4137931070302 1132.9045643153527,538.4137931070502 1138.091286307054,538.4137931071726 1143.2780082987551,538.4137931072086 1148.4647302904564,538.4137931071303 1153.6514522821576,538.4137931071247 1158.8381742738588,538.413793107102 1164.02489626556,538.4137931070567 1169.2116182572613,538.4137931070422 1174.3983402489628,538.4137931070586 1179.585062240664,538.4137931071247 1184.7717842323652,538.4137931073537 1189.9585062240665,538.4137931074583 1195.1452282157677,538.4137931074081 1200.331950207469,538.4137931073365 1205.5186721991702,538.4137931073747 1210.7053941908714,538.4137931074274 1215.8921161825726,538.4137931074903 1221.0788381742739,538.4137931076215 1226.265560165975,538.4137931077594 1231.4522821576763,538.4137931078451 1236.6390041493776,538.4137931075443 1241.8257261410788,538.4137931072588 1247.01244813278,538.4137931069836 1252.1991701244813,538.4137931069712 1257.3858921161825,538.4137931070642 1262.5726141078837,538.4137931071239 1267.759336099585,538.41379310713 1272.9460580912862,538.4137931071356 1278.1327800829877,538.4137931071093 1283.319502074689,538.4137931070597 1288.5062240663901,538.4137931067607 1293.6929460580914,538.4137931065391 1298.8796680497926,538.4137931067414 1304.0663900414938,538.4137931068819 1309.253112033195,538.413793107046 1314.4398340248963,538.4137931073045 1319.6265560165975,538.4137931076368 1324.8132780082988,551.3448275902106 1330.0,551.3448275906796" stroke="#87714D" stroke-width="4" fill="none" opacity="1.0" /><line x1="80.0" y1="706" x2="1330.0" y2="706" stroke="#E2E8F0" stroke-width="2" /><line x1="80.0" y1="700" x2="80.0" y2="712" stroke="#E2E8F0" stroke-width="1" /><text x="80.0" y="728" font-family="Inter, Arial, sans-serif" font-size="11" font-weight="500" fill="#64748B" text-anchor="middle">2006</text><line x1="142.24066390041494" y1="700" x2="142.24066390041494" y2="712" stroke="#E2E8F0" stroke-width="1" /><text x="142.24066390041494" y="728" font-family="Inter, Arial, sans-serif" font-size="11" font-weight="500" fill="#64748B" text-anchor="middle">2007</text><line x1="204.4813278008299" y1="700" x2="204.4813278008299" y2="712" stroke="#E2E8F0" stroke-width="1" /><text x="204.4813278008299" y="728" font-family="Inter, Arial, sans-serif" font-size="11" font-weight="500" fill="#64748B" text-anchor="middle">2008</text><line x1="266.7219917012448" y1="700" x2="266.7219917012448" y2="712" stroke="#E2E8F0" stroke-width="1" /><text x="266.7219917012448" y="728" font-family="Inter, Arial, sans-serif" font-size="11" font-weight="500" fill="#64748B" text-anchor="middle">2009</text><line x1="328.9626556016598" y1="700" x2="328.9626556016598" y2="712" stroke="#E2E8F0" stroke-width="1" /><text x="328.9626556016598" y="728" font-family="Inter, Arial, sans-serif" font-size="11" font-weight="500" fill="#64748B" text-anchor="middle">2010</text><line x1="391.2033195020747" y1="700" x2="391.2033195020747" y2="712" stroke="#E2E8F0" stroke-width="1" /><text x="391.2033195020747" y="728" font-family="Inter, Arial, sans-serif" font-size="11" font-weight="500" fill="#64748B" text-anchor="middle">2011</text><line x1="453.4439834024896" y1="700" x2="453.4439834024896" y2="712" stroke="#E2E8F0" stroke-width="1" /><text x="453.4439834024896" y="728" font-family="Inter, Arial, sans-serif" font-size="11" font-weight="500" fill="#64748B" text-anchor="middle">2012</text><line x1="515.6846473029045" y1="700" x2="515.6846473029045" y2="712" stroke="#E2E8F0" stroke-width="1" /><text x="515.6846473029045" y="728" font-family="Inter, Arial, sans-serif" font-size="11" font-weight="500" fill="#64748B" text-anchor="middle">2013</text><line x1="577.9253112033196" y1="700" x2="577.9253112033196" y2="712" stroke="#E2E8F0" stroke-width="1" /><text x="577.9253112033196" y="728" font-family="Inter, Arial, sans-serif" font-size="11" font-weight="500" fill="#64748B" text-anchor="middle">2014</text><line x1="640.1659751037345" y1="700" x2="640.1659751037345" y2="712" stroke="#E2E8F0" stroke-width="1" /><text x="640.1659751037345" y="728" font-family="Inter, Arial, sans-serif" font-size="11" font-weight="500" fill="#64748B" text-anchor="middle">2015</text><line x1="697.2199170124481" y1="700" x2="697.2199170124481" y2="712" stroke="#E2E8F0" stroke-width="1" /><text x="697.2199170124481" y="728" font-family="Inter, Arial, sans-serif" font-size="11" font-weight="500" fill="#64748B" text-anchor="middle">2016</text><line x1="759.4605809128631" y1="700" x2="759.4605809128631" y2="712" stroke="#E2E8F0" stroke-width="1" /><text x="759.4605809128631" y="728" font-family="Inter, Arial, sans-serif" font-size="11" font-weight="500" fill="#64748B" text-anchor="middle">2017</text><line x1="821.701244813278" y1="700" x2="821.701244813278" y2="712" stroke="#E2E8F0" stroke-width="1" /><text x="821.701244813278" y="728" font-family="Inter, Arial, sans-serif" font-size="11" font-weight="500" fill="#64748B" text-anchor="middle">2018</text><line x1="878.7551867219917" y1="700" x2="878.7551867219917" y2="712" stroke="#E2E8F0" stroke-width="1" /><text x="878.7551867219917" y="728" font-family="Inter, Arial, sans-serif" font-size="11" font-weight="500" fill="#64748B" text-anchor="middle">2019</text><line x1="940.9958506224067" y1="700" x2="940.9958506224067" y2="712" stroke="#E2E8F0" stroke-width="1" /><text x="940.9958506224067" y="728" font-family="Inter, Arial, sans-serif" font-size="11" font-weight="500" fill="#64748B" text-anchor="middle">2020</text><line x1="1003.2365145228216" y1="700" x2="1003.2365145228216" y2="712" stroke="#E2E8F0" stroke-width="1" /><text x="1003.2365145228216" y="728" font-family="Inter, Arial, sans-serif" font-size="11" font-weight="500" fill="#64748B" text-anchor="middle">2021</text><line x1="1065.4771784232366" y1="700" x2="1065.4771784232366" y2="712" stroke="#E2E8F0" stroke-width="1" /><text x="1065.4771784232366" y="728" font-family="Inter, Arial, sans-serif" font-size="11" font-weight="500" fill="#64748B" text-anchor="middle">2022</text><line x1="1127.7178423236514" y1="700" x2="1127.7178423236514" y2="712" stroke="#E2E8F0" stroke-width="1" /><text x="1127.7178423236514" y="728" font-family="Inter, Arial, sans-serif" font-size="11" font-weight="500" fill="#64748B" text-anchor="middle">2023</text><line x1="1189.9585062240665" y1="700" x2="1189.9585062240665" y2="712" stroke="#E2E8F0" stroke-width="1" /><text x="1189.9585062240665" y="728" font-family="Inter, Arial, sans-serif" font-size="11" font-weight="500" fill="#64748B" text-anchor="middle">2024</text><line x1="1252.1991701244813" y1="700" x2="1252.1991701244813" y2="712" stroke="#E2E8F0" stroke-width="1" /><text x="1252.1991701244813" y="728" font-family="Inter, Arial, sans-serif" font-size="11" font-weight="500" fill="#64748B" text-anchor="middle">2025</text><line x1="1314.4398340248963" y1="700" x2="1314.4398340248963" y2="712" stroke="#E2E8F0" stroke-width="1" /><text x="1314.4398340248963" y="728" font-family="Inter, Arial, sans-serif" font-size="11" font-weight="500" fill="#64748B" text-anchor="middle">2026</text><line x1="1330.0" y1="700" x2="1330.0" y2="712" stroke="#E2E8F0" stroke-width="1" /><text x="1330.0" y="728" font-family="Inter, Arial, sans-serif" font-size="11" font-weight="500" fill="#64748B" text-anchor="middle">2026</text></svg>