<svg xmlns="http://www.w3.org/2000/svg" width="1400" height="740" viewBox="0 0 1400 740" role="img" aria-label="Savannah River analytical figure"><rect x="0" y="0" width="1400" height="740" rx="12" fill="#F8FAFC" stroke="none" /><text x="70" y="62" font-family="Inter, Arial, sans-serif" font-size="30" font-weight="700" fill="#011E42" text-anchor="start">Water quality — temperature and dissolved oxygen (USACE Dock)</text><text x="70" y="90" font-family="Inter, Arial, sans-serif" font-size="14" font-weight="400" fill="#64748B" text-anchor="start">Temperature and DO have the greatest direct geochemical relevance: low DO mobilizes Fe and Mn from sediments into the water column.</text><line x1="70" y1="113" x2="94" y2="113" stroke="#64748B" stroke-width="2"  opacity="0.35" /><text x="100" y="118" font-family="Inter, Arial, sans-serif" font-size="11" font-weight="500" fill="#64748B" text-anchor="start">Monthly</text><line x1="149.6" y1="113" x2="173.6" y2="113" stroke="#011E42" stroke-width="4" /><text x="179.6" y="118" font-family="Inter, Arial, sans-serif" font-size="11" font-weight="500" fill="#64748B" text-anchor="start">12-month average</text><rect x="62" y="120" width="1286" height="304" rx="18" fill="#FFFFFF" stroke="#E2E8F0" /><text x="80" y="144" font-family="Inter, Arial, sans-serif" font-size="15" font-weight="700" fill="#011E42" text-anchor="start">Water temperature (°C)</text><rect x="1190" y="126" width="72" height="24" rx="12" fill="#DBEAFE" stroke="none" /><text x="1200" y="143" font-family="Inter, Arial, sans-serif" font-size="11" font-weight="700" fill="#0F7B5F" text-anchor="start">2007–2026</text><line x1="80" y1="164.0" x2="1330" y2="164.0" stroke="#E2E8F0" stroke-width="1" stroke-dasharray="4 6" /><line x1="80" y1="274.0" x2="1330" y2="274.0" stroke="#E2E8F0" stroke-width="1" stroke-dasharray="4 6" /><line x1="80" y1="384.0" x2="1330" y2="384.0" stroke="#E2E8F0" stroke-width="1" stroke-dasharray="4 6" /><text x="74" y="170" font-family="Inter, Arial, sans-serif" font-size="11" font-weight="500" fill="#64748B" text-anchor="end">32.3</text><text x="74" y="278.0" font-family="Inter, Arial, sans-serif" font-size="11" font-weight="500" fill="#64748B" text-anchor="end">19.4</text><text x="74" y="388" font-family="Inter, Arial, sans-serif" font-size="11" font-weight="500" fill="#64748B" text-anchor="end">6.6</text><polygon points="80.0,384 80.0,229.05709497272755 85.50660792951541,208.83362024169696 91.01321585903084,191.0592387795009 96.51982378854626,179.17241379310346 102.02643171806167,201.74541199834522 107.53303964757708,226.71050858482147 113.03964757709251,290.1434379880109 118.54625550660793,311.6584942809792 124.05286343612335,340.3121003053102 129.55947136563876,322.92175786264113 135.06607929515417,301.7236500026095 140.5726872246696,270.71509160401644 146.07929515418502,233.13731581882473 151.58590308370043,192.0502699267944 157.09251101321587,188.4719483215173 162.59911894273128,190.05562868240503 168.1057268722467,202.74442379997214 173.61233480176213,247.98893676421736 179.1189427312775,306.879212642531 184.62555066079295,325.9760878578061 190.13215859030836,336.850097593236 195.63876651982378,339.1009931955456 201.14537444933922,307.9110632954118 206.65198237885463,278.51687481256806 212.15859030837004,235.126125705273 217.66519823788545,197.86355151451576 223.1718061674009,190.74618648145878 228.6784140969163,189.28219880970457 234.1850220264317,203.5912037638958 239.69162995594715,241.22146177055694 245.19823788546256,286.984665888871 250.70484581497797,338.01944327469147 256.2114537444934,368.82758620689657 261.7180616740088,364.6776545164557 267.22466960352426,333.5446167487159 272.73127753303964,271.8853535193922 278.237885462555,236.019248267107 283.74449339207047,202.15453185107248 289.2511013215859,183.86821538960268 294.75770925110135,184.58639721320534 300.26431718061673,196.6076516978648 305.77092511013217,240.66901553131393 311.27753303964755,288.3166730614397 316.784140969163,347.25452460013577 322.29074889867843,367.36360709807616 327.79735682819387,340.84415819909407 333.30396475770925,294.81806344913826 338.8105726872247,268.3174701304589 344.3171806167401,231.48918225496746 349.8237885462555,189.50993003502333 355.3303964757709,186.7225323762699 360.83700440528634,180.074750071743 366.3436123348018,204.62826924348158 371.85022026431716,247.2339257621941 377.3568281938326,290.7713836148694 382.86343612334804,313.96512601961524 388.3700440528634,330.77317183569545 393.87665198237886,317.9906896590491 399.3832599118943,279.7270399996109 404.8898678414097,253.7604826124312 410.3964757709251,224.20608163755085 415.9030837004405,211.27881737563695 421.40969162995594,183.647240319079 426.9162995594714,194.03324845530162 432.42290748898677,205.6653347230674 437.9295154185022,236.8295073182281 443.43612334801765,305.72797756613465 448.942731277533,317.9287710844945 454.44933920704847,326.54695296772627 459.95594713656385,330.9458177076592 465.4625550660793,327.49532357865814 470.96916299559473,276.8708905451032 476.4757709251101,248.29278390838778 481.98237885462555,212.50616837088486 487.488986784141,223.6260113737589 492.9955947136564,218.921004623388 498.5022026431718,217.8722764279201 504.00881057268725,243.48649477662673 509.51541850220264,292.9692061532751 515.0220264317181,320.9488236555214 520.5286343612335,363.80952715848355 526.0352422907489,351.17064538223565 531.5418502202643,326.8323812412195 537.0484581497797,286.28060434316086 542.5550660792951,242.0225071048725 548.0616740088105,203.57217692491636 553.568281938326,194.31868529172863 559.0748898678414,194.96320019555625 564.5814977973569,206.40745850967028 570.0881057268723,240.2915100303023 575.5947136563877,298.4304484052075 581.1013215859031,326.72189370595765 586.6079295154185,343.44263184866503 592.114537444934,350.5997888352492 597.6211453744494,313.1316871066051 603.1277533039647,266.3575087680979 608.6343612334801,240.06132124297312 614.1409691629956,199.45245526504232 619.647577092511,189.08884776372983 625.1541850220265,190.24898829131362 630.6607929515418,210.83163528201698 636.1674008810572,250.3736710223545 641.6740088105727,282.25602544111786 647.1806167400881,305.72889380005495 652.6872246696036,343.6636154821225 658.193832599119,341.37635309981937 663.7004405286343,294.5326266127112 669.2070484581498,275.74819572717604 674.7136563876652,239.29710508707814 680.2202643171806,206.50260126750135 685.7268722466961,183.2513159473902 691.2334801762114,181.47428454052766 696.7400881057268,204.12400663292328 702.2466960352423,241.3319493058188 707.7533039647577,282.79834172963507 713.2599118942732,315.6913621029736 718.7665198237886,324.43844182921066 724.2731277533039,313.2185066927494 729.7797356828194,295.8677078785264 735.2863436123348,250.42093841711895 740.7929515418502,226.94990252602236 746.2995594713657,203.648292843768 751.806167400881,187.62486009197562 757.3127753303964,190.31344149428315 762.8193832599119,215.64591363104526 768.3259911894273,229.82262982043298 773.8325991189428,287.92658861062574 779.3392070484582,324.21746675868695 784.8458149779735,365.49448990076144 790.352422907489,314.46217007695134 795.8590308370044,305.1580372530686 801.3656387665199,278.85939216593346 806.8722466960353,237.35432953292218 812.3788546255506,219.10914084265775 817.885462555066,190.59886976777634 823.3920704845815,201.02170708241954 828.8986784140969,198.38684096405353 834.4052863436124,224.37181722191048 839.9118942731277,290.85701295321076 845.4185022026431,339.58471332783586 850.9251101321586,338.9401898610744 856.431718061674,327.47712734426057 861.9383259911895,308.1688675443561 867.4449339207049,279.47782437330227 872.9515418502202,232.58486957958175 878.4581497797357,203.4009182482337 883.9647577092511,186.22532562319088 889.4713656387665,193.72019615725952 894.977973568282,203.61023060287525 900.4845814977973,225.63324013088442 905.9911894273127,293.81877763362866 911.4977973568282,324.08856035274795 917.0044052863436,327.4308703756886 922.5110132158591,329.1815536351435 928.0176211453745,296.39253865615433 933.5242290748898,273.7501721239222 939.0308370044053,251.11947687050608 944.5374449339207,223.66652261372818 950.0440528634361,188.32463160783487 955.5506607929516,190.03721837466168 961.0572687224669,212.21122667790195 966.5638766519824,240.97286267548435 972.0704845814978,273.3220254322156 977.5770925110132,327.4308703756886 983.0837004405287,341.9418149984902 988.590308370044,343.1989650034809 994.0969162995594,301.3369393477261 999.6035242290749,278.85939216593346 1005.1101321585903,244.67425932875946 1010.6167400881058,214.03798304153926 1016.1233480176212,203.55375805423913 1021.6299559471365,198.04769740661882 1027.136563876652,210.45106425069272 1032.6431718061674,239.51808015760184 1038.1497797356828,299.5246029646655 1043.6563876651983,313.0488235958922 1049.1629955947137,331.94252608008475 1054.669603524229,333.1782944392917 1060.1762114537446,295.9597851060448 1065.6828193832598,274.75869734503885 1071.1894273127755,229.73055259291453 1076.6960352422907,198.15849320749868 1082.2026431718061,194.36471962402098 1087.7092511013216,195.87474162806748 1093.215859030837,205.57019196523635 1098.7224669603524,255.7416201101641 1104.229074889868,279.23044977776794 1109.7356828193833,321.3539446181481 1115.2422907488988,338.424572800252 1120.7488986784142,318.1931602295572 1126.2555066079294,288.19789660622644 1131.7621145374449,271.8948755018157 1137.2687224669603,249.756771580142 1142.7753303964757,227.83381993398467 1148.2819383259912,196.4732221996028 1153.7885462555066,188.85865897640062 1159.295154185022,211.28833079512665 1164.8017621145375,249.00176057811873 1170.308370044053,285.3481950408958 1175.8149779735684,324.45686069988784 1181.3215859030836,343.08354521833064 1186.828193832599,333.6716821238806 1192.3348017621145,300.70162103483636 1197.84140969163,269.9824812369033 1203.3480176211453,235.7809931961061 1208.8546255506608,202.04987567375167 1214.3612334801762,188.77939189789808 1219.8678414096917,202.5869771355639 1225.374449339207,210.47894516325664 1230.8810572687225,247.95210758579674 1236.387665198238,268.6980411617832 1241.8942731277532,323.26909614775514 1247.4008810572686,356.3146566244149 1252.907488986784,327.56142086492383 1258.4140969162995,306.6772644109868 1263.920704845815,259.06950158959427 1269.4273127753304,235.9179658857169 1274.9339207048458,212.06850825968846 1280.4405286343613,188.71677972570285 1285.9471365638767,202.2463008129729 1291.4537444933922,216.7781218684621 1296.9603524229076,246.15665730825702 1302.4669603524228,291.9606809321584 1307.9735682819382,327.67946947076115 1313.4801762114537,338.0654776069838 1318.9867841409691,345.5333834624087 1324.4933920704846,294.0906679087301 1330.0,267.22331557100097 1330.0,384" fill="#0F7B5F" opacity="0.08" /><polyline points="80.0,229.05709497272755 85.50660792951541,208.83362024169696 91.01321585903084,191.0592387795009 96.51982378854626,179.17241379310346 102.02643171806167,201.74541199834522 107.53303964757708,226.71050858482147 113.03964757709251,290.1434379880109 118.54625550660793,311.6584942809792 124.05286343612335,340.3121003053102 129.55947136563876,322.92175786264113 135.06607929515417,301.7236500026095 140.5726872246696,270.71509160401644 146.07929515418502,233.13731581882473 151.58590308370043,192.0502699267944 157.09251101321587,188.4719483215173 162.59911894273128,190.05562868240503 168.1057268722467,202.74442379997214 173.61233480176213,247.98893676421736 179.1189427312775,306.879212642531 184.62555066079295,325.9760878578061 190.13215859030836,336.850097593236 195.63876651982378,339.1009931955456 201.14537444933922,307.9110632954118 206.65198237885463,278.51687481256806 212.15859030837004,235.126125705273 217.66519823788545,197.86355151451576 223.1718061674009,190.74618648145878 228.6784140969163,189.28219880970457 234.1850220264317,203.5912037638958 239.69162995594715,241.22146177055694 245.19823788546256,286.984665888871 250.70484581497797,338.01944327469147 256.2114537444934,368.82758620689657 261.7180616740088,364.6776545164557 267.22466960352426,333.5446167487159 272.73127753303964,271.8853535193922 278.237885462555,236.019248267107 283.74449339207047,202.15453185107248 289.2511013215859,183.86821538960268 294.75770925110135,184.58639721320534 300.26431718061673,196.6076516978648 305.77092511013217,240.66901553131393 311.27753303964755,288.3166730614397 316.784140969163,347.25452460013577 322.29074889867843,367.36360709807616 327.79735682819387,340.84415819909407 333.30396475770925,294.81806344913826 338.8105726872247,268.3174701304589 344.3171806167401,231.48918225496746 349.8237885462555,189.50993003502333 355.3303964757709,186.7225323762699 360.83700440528634,180.074750071743 366.3436123348018,204.62826924348158 371.85022026431716,247.2339257621941 377.3568281938326,290.7713836148694 382.86343612334804,313.96512601961524 388.3700440528634,330.77317183569545 393.87665198237886,317.9906896590491 399.3832599118943,279.7270399996109 404.8898678414097,253.7604826124312 410.3964757709251,224.20608163755085 415.9030837004405,211.27881737563695 421.40969162995594,183.647240319079 426.9162995594714,194.03324845530162 432.42290748898677,205.6653347230674 437.9295154185022,236.8295073182281 443.43612334801765,305.72797756613465 448.942731277533,317.9287710844945 454.44933920704847,326.54695296772627 459.95594713656385,330.9458177076592 465.4625550660793,327.49532357865814 470.96916299559473,276.8708905451032 476.4757709251101,248.29278390838778 481.98237885462555,212.50616837088486 487.488986784141,223.6260113737589 492.9955947136564,218.921004623388 498.5022026431718,217.8722764279201 504.00881057268725,243.48649477662673 509.51541850220264,292.9692061532751 515.0220264317181,320.9488236555214 520.5286343612335,363.80952715848355 526.0352422907489,351.17064538223565 531.5418502202643,326.8323812412195 537.0484581497797,286.28060434316086 542.5550660792951,242.0225071048725 548.0616740088105,203.57217692491636 553.568281938326,194.31868529172863 559.0748898678414,194.96320019555625 564.5814977973569,206.40745850967028 570.0881057268723,240.2915100303023 575.5947136563877,298.4304484052075 581.1013215859031,326.72189370595765 586.6079295154185,343.44263184866503 592.114537444934,350.5997888352492 597.6211453744494,313.1316871066051 603.1277533039647,266.3575087680979 608.6343612334801,240.06132124297312 614.1409691629956,199.45245526504232 619.647577092511,189.08884776372983 625.1541850220265,190.24898829131362 630.6607929515418,210.83163528201698 636.1674008810572,250.3736710223545 641.6740088105727,282.25602544111786 647.1806167400881,305.72889380005495 652.6872246696036,343.6636154821225 658.193832599119,341.37635309981937 663.7004405286343,294.5326266127112 669.2070484581498,275.74819572717604 674.7136563876652,239.29710508707814 680.2202643171806,206.50260126750135 685.7268722466961,183.2513159473902 691.2334801762114,181.47428454052766 696.7400881057268,204.12400663292328 702.2466960352423,241.3319493058188 707.7533039647577,282.79834172963507 713.2599118942732,315.6913621029736 718.7665198237886,324.43844182921066 724.2731277533039,313.2185066927494 729.7797356828194,295.8677078785264 735.2863436123348,250.42093841711895 740.7929515418502,226.94990252602236 746.2995594713657,203.648292843768 751.806167400881,187.62486009197562 757.3127753303964,190.31344149428315 762.8193832599119,215.64591363104526 768.3259911894273,229.82262982043298 773.8325991189428,287.92658861062574 779.3392070484582,324.21746675868695 784.8458149779735,365.49448990076144 790.352422907489,314.46217007695134 795.8590308370044,305.1580372530686 801.3656387665199,278.85939216593346 806.8722466960353,237.35432953292218 812.3788546255506,219.10914084265775 817.885462555066,190.59886976777634 823.3920704845815,201.02170708241954 828.8986784140969,198.38684096405353 834.4052863436124,224.37181722191048 839.9118942731277,290.85701295321076 845.4185022026431,339.58471332783586 850.9251101321586,338.9401898610744 856.431718061674,327.47712734426057 861.9383259911895,308.1688675443561 867.4449339207049,279.47782437330227 872.9515418502202,232.58486957958175 878.4581497797357,203.4009182482337 883.9647577092511,186.22532562319088 889.4713656387665,193.72019615725952 894.977973568282,203.61023060287525 900.4845814977973,225.63324013088442 905.9911894273127,293.81877763362866 911.4977973568282,324.08856035274795 917.0044052863436,327.4308703756886 922.5110132158591,329.1815536351435 928.0176211453745,296.39253865615433 933.5242290748898,273.7501721239222 939.0308370044053,251.11947687050608 944.5374449339207,223.66652261372818 950.0440528634361,188.32463160783487 955.5506607929516,190.03721837466168 961.0572687224669,212.21122667790195 966.5638766519824,240.97286267548435 972.0704845814978,273.3220254322156 977.5770925110132,327.4308703756886 983.0837004405287,341.9418149984902 988.590308370044,343.1989650034809 994.0969162995594,301.3369393477261 999.6035242290749,278.85939216593346 1005.1101321585903,244.67425932875946 1010.6167400881058,214.03798304153926 1016.1233480176212,203.55375805423913 1021.6299559471365,198.04769740661882 1027.136563876652,210.45106425069272 1032.6431718061674,239.51808015760184 1038.1497797356828,299.5246029646655 1043.6563876651983,313.0488235958922 1049.1629955947137,331.94252608008475 1054.669603524229,333.1782944392917 1060.1762114537446,295.9597851060448 1065.6828193832598,274.75869734503885 1071.1894273127755,229.73055259291453 1076.6960352422907,198.15849320749868 1082.2026431718061,194.36471962402098 1087.7092511013216,195.87474162806748 1093.215859030837,205.57019196523635 1098.7224669603524,255.7416201101641 1104.229074889868,279.23044977776794 1109.7356828193833,321.3539446181481 1115.2422907488988,338.424572800252 1120.7488986784142,318.1931602295572 1126.2555066079294,288.19789660622644 1131.7621145374449,271.8948755018157 1137.2687224669603,249.756771580142 1142.7753303964757,227.83381993398467 1148.2819383259912,196.4732221996028 1153.7885462555066,188.85865897640062 1159.295154185022,211.28833079512665 1164.8017621145375,249.00176057811873 1170.308370044053,285.3481950408958 1175.8149779735684,324.45686069988784 1181.3215859030836,343.08354521833064 1186.828193832599,333.6716821238806 1192.3348017621145,300.70162103483636 1197.84140969163,269.9824812369033 1203.3480176211453,235.7809931961061 1208.8546255506608,202.04987567375167 1214.3612334801762,188.77939189789808 1219.8678414096917,202.5869771355639 1225.374449339207,210.47894516325664 1230.8810572687225,247.95210758579674 1236.387665198238,268.6980411617832 1241.8942731277532,323.26909614775514 1247.4008810572686,356.3146566244149 1252.907488986784,327.56142086492383 1258.4140969162995,306.6772644109868 1263.920704845815,259.06950158959427 1269.4273127753304,235.9179658857169 1274.9339207048458,212.06850825968846 1280.4405286343613,188.71677972570285 1285.9471365638767,202.2463008129729 1291.4537444933922,216.7781218684621 1296.9603524229076,246.15665730825702 1302.4669603524228,291.9606809321584 1307.9735682819382,327.67946947076115 1313.4801762114537,338.0654776069838 1318.9867841409691,345.5333834624087 1324.4933920704846,294.0906679087301 1330.0,267.22331557100097" stroke="#0F7B5F" stroke-width="2" fill="none" opacity="0.35" /><polyline points="107.53303964757708,206.09638139503258 113.03964757709251,218.10310376545803 118.54625550660793,229.79752757989817 124.05286343612335,242.07692454938842 129.55947136563876,250.16140788071368 135.06607929515417,254.8488844372497 140.5726872246696,256.1710683678136 146.07929515418502,256.511086771655 151.58590308370043,255.1124742454131 157.09251101321587,254.89686670724782 162.59911894273128,255.80380128135627 168.1057268722467,255.88705226482517 173.61233480176213,257.6602546131082 179.1189427312775,259.05490250098484 184.62555066079295,260.24803529905375 190.13215859030836,259.9595350730476 195.63876651982378,261.30780468412297 201.14537444933922,261.82342245852317 206.65198237885463,262.4735710592358 212.15859030837004,262.6393052164398 217.66519823788545,263.12374534874994 223.1718061674009,263.3132651954117 228.6784140969163,263.24881270602003 234.1850220264317,263.31937770301363 239.69162995594715,262.755421453542 245.19823788546256,261.0975425574036 250.70484581497797,262.10115550881073 256.2114537444934,264.7659462266158 261.7180616740088,266.897334670025 267.22466960352426,269.03346412446695 272.73127753303964,268.48083735003564 278.237885462555,268.55526423018847 283.74449339207047,268.91284592490155 289.2511013215859,268.3396816672469 294.75770925110135,267.94836486753854 300.26431718061673,267.36640219536935 305.77092511013217,267.32036500876575 311.27753303964755,267.4313656064798 316.784140969163,268.2009557169335 322.29074889867843,268.07895745786516 327.79735682819387,266.0928327647516 333.30396475770925,262.86561998978686 338.8105726872247,262.56829637404246 344.3171806167401,262.1907908730308 349.8237885462555,261.13707405502674 355.3303964757709,261.3749338039156 360.83700440528634,260.9989632087938 366.3436123348018,261.66734800426184 371.85022026431716,262.2144238568352 377.3568281938326,262.418983069621 382.86343612334804,259.6448665212443 388.3700440528634,256.5956635827125 393.87665198237886,254.69120787104217 399.3832599118943,253.43362258358152 404.8898678414097,252.22054029041254 410.3964757709251,251.61361523896116 415.9030837004405,253.42768918401228 421.40969162995594,253.17141484591306 426.9162995594714,254.33462304454295 432.42290748898677,254.42104516784175 437.9295154185022,253.55401029751124 443.43612334801765,254.80039312678335 448.942731277533,255.13069688218997 454.44933920704847,254.77851197652586 459.95594713656385,255.85810598057668 465.4625550660793,259.83879627883067 470.96916299559473,261.7646636065533 476.4757709251101,263.7718887957897 481.98237885462555,263.87416804539373 487.488986784141,267.20573229995034 492.9955947136564,269.27971198062426 498.5022026431718,270.2969571226953 504.00881057268725,270.85170607756186 509.51541850220264,269.7884751264902 515.0220264317181,270.0401461740758 520.5286343612335,273.1453606899722 526.0352422907489,274.83076299618693 531.5418502202643,274.7755178014004 537.0484581497797,275.5596606179052 542.5550660792951,275.0371375509456 548.0616740088105,274.29263826378155 553.568281938326,271.850361090279 559.0748898678414,269.8538773879597 564.5814977973569,268.8984758947722 570.0881057268723,268.63222716591184 575.5947136563877,269.0873306869062 581.1013215859031,269.5684198577759 586.6079295154185,267.8711785819577 592.114537444934,267.8236072030422 597.6211453744494,266.6818826918243 603.1277533039647,265.02162472723575 608.6343612334801,264.8581925720774 614.1409691629956,264.51488243375456 619.647577092511,264.07906263975474 625.1541850220265,263.68621164773447 630.6607929515418,264.05489304543005 636.1674008810572,264.8950731281011 641.6740088105727,263.54720454776026 647.1806167400881,261.79778788893503 652.6872246696036,261.81620319172316 658.193832599119,261.047583547104 663.7004405286343,259.49766183927954 669.2070484581498,260.28021908586936 674.7136563876652,260.21653440621145 680.2202643171806,260.80404657308304 685.7268722466961,260.31758558838806 691.2334801762114,259.5863602758225 696.7400881057268,259.0273912217314 702.2466960352423,258.27391441202013 707.7533039647577,258.31910743606323 713.2599118942732,259.1493131279731 718.7665198237886,257.5472153235638 724.2731277533039,255.20072812297462 729.7797356828194,255.3119848951259 735.2863436123348,253.20138011928782 740.7929515418502,252.17244657253312 746.2995594713657,251.93458753722203 751.806167400881,252.2990495492708 757.3127753303964,253.03564596208375 762.8193832599119,253.99580487859393 768.3259911894273,253.03669492147844 773.8325991189428,253.4640488282277 779.3392070484582,254.17455754953713 784.8458149779735,257.595894888833 790.352422907489,257.69953350418314 795.8590308370044,258.4737276187284 801.3656387665199,260.8435987644629 806.8722466960353,261.71063434837123 812.3788546255506,262.9990383482787 817.885462555066,263.2468724879287 823.3920704845815,264.1392279536068 828.8986784140969,262.70097189802414 834.4052863436124,262.24673751481396 839.9118942731277,262.4909395433627 845.4185022026431,263.7715434241251 850.9251101321586,261.5586850874845 856.431718061674,262.6432648597603 861.9383259911895,262.89416738403423 867.4449339207049,262.945703401315 872.9515418502202,262.54824840520325 878.4581497797357,261.23922985566793 883.9647577092511,260.8747678436191 889.4713656387665,260.2663085998558 894.977973568282,260.7015910697576 900.4845814977973,260.80670964550546 905.9911894273127,261.0535233688736 911.4977973568282,259.7621772876163 917.0044052863436,258.8030673305008 922.5110132158591,258.94510285474104 928.0176211453745,257.9637421140576 933.5242290748898,257.48643775994253 939.0308370044053,259.03098836751957 944.5374449339207,260.7197887313108 950.0440528634361,260.89473089669775 955.5506607929516,260.5878160814813 961.0572687224669,261.3045657544002 966.5638766519824,262.58286763311685 972.0704845814978,260.87480494966576 977.5770925110132,261.15333078491085 983.0837004405287,262.3625761701443 988.590308370044,263.5306937841724 994.0969162995594,263.9427271751367 999.6035242290749,264.368495511971 1005.1101321585903,263.8313940501588 1010.6167400881058,263.02901575247637 1016.1233480176212,264.2981096230101 1021.6299559471365,264.9656495423398 1027.136563876652,264.8189693400724 1032.6431718061674,264.6977374635822 1038.1497797356828,266.8812855912863 1043.6563876651983,265.68278169296997 1049.1629955947137,264.8495076164362 1054.669603524229,264.0144517360871 1060.1762114537446,263.5663555492803 1065.6828193832598,263.2246309808724 1071.1894273127755,261.97932208621864 1076.6960352422907,260.6560312667153 1082.2026431718061,259.8902780641971 1087.7092511013216,259.7091984159845 1093.215859030837,259.3024590588631 1098.7224669603524,260.6544207215767 1104.229074889868,258.9632412893352 1109.7356828193833,259.6553347078565 1115.2422907488988,260.19550526787043 1120.7488986784142,258.94674408372595 1126.2555066079294,258.2999200420744 1131.7621145374449,258.0612682218058 1137.2687224669603,259.7301198040748 1142.7753303964757,262.20306369794855 1148.2819383259912,262.37877224591375 1153.7885462555066,261.79409869160816 1159.295154185022,262.2706102607657 1164.8017621145375,261.7089552997619 1170.308370044053,262.21876740502256 1175.8149779735684,262.47734374516756 1181.3215859030836,262.8655914466741 1186.828193832599,264.155468271201 1192.3348017621145,265.1974453069185 1197.84140969163,265.0380791181758 1203.3480176211453,263.8734309195062 1208.8546255506608,261.7247688978201 1214.3612334801762,261.083616372678 1219.8678414096917,262.22764288594163 1225.374449339207,262.1601940832858 1230.8810572687225,262.0727230005923 1236.387665198238,260.6852101773329 1241.8942731277532,260.58622979798855 1247.4008810572686,261.68882241516224 1252.907488986784,261.17963397691585 1258.4140969162995,261.6776042582617 1263.920704845815,260.7681892876526 1269.4273127753304,260.77960367845344 1274.9339207048458,261.6144897272816 1280.4405286343613,261.6092720462653 1285.9471365638767,261.580882352716 1291.4537444933922,262.1058137448165 1296.9603524229076,261.95619288835485 1302.4669603524228,263.8947462025528 1307.9735682819382,264.2622773128033 1313.4801762114537,262.74151239468404 1318.9867841409691,264.2391759444745 1324.4933920704846,263.1902929026197 1330.0,263.8697774010703" stroke="#011E42" stroke-width="4" fill="none" opacity="1.0" /><line x1="80.0" y1="384" x2="1330.0" y2="384" stroke="#E2E8F0" stroke-width="2" /><line x1="80.0" y1="378" x2="80.0" y2="390" stroke="#E2E8F0" stroke-width="1" /><text x="80.0" y="406" font-family="Inter, Arial, sans-serif" font-size="11" font-weight="500" fill="#64748B" text-anchor="middle">2007</text><line x1="124.05286343612335" y1="378" x2="124.05286343612335" y2="390" stroke="#E2E8F0" stroke-width="1" /><text x="124.05286343612335" y="406" font-family="Inter, Arial, sans-serif" font-size="11" font-weight="500" fill="#64748B" text-anchor="middle">2008</text><line x1="190.13215859030836" y1="378" x2="190.13215859030836" y2="390" stroke="#E2E8F0" stroke-width="1" /><text x="190.13215859030836" y="406" font-family="Inter, Arial, sans-serif" font-size="11" font-weight="500" fill="#64748B" text-anchor="middle">2009</text><line x1="256.2114537444934" y1="378" x2="256.2114537444934" y2="390" stroke="#E2E8F0" stroke-width="1" /><text x="256.2114537444934" y="406" font-family="Inter, Arial, sans-serif" font-size="11" font-weight="500" fill="#64748B" text-anchor="middle">2010</text><line x1="322.29074889867843" y1="378" x2="322.29074889867843" y2="390" stroke="#E2E8F0" stroke-width="1" /><text x="322.29074889867843" y="406" font-family="Inter, Arial, sans-serif" font-size="11" font-weight="500" fill="#64748B" text-anchor="middle">2011</text><line x1="388.3700440528634" y1="378" x2="388.3700440528634" y2="390" stroke="#E2E8F0" stroke-width="1" /><text x="388.3700440528634" y="406" font-family="Inter, Arial, sans-serif" font-size="11" font-weight="500" fill="#64748B" text-anchor="middle">2012</text><line x1="454.44933920704847" y1="378" x2="454.44933920704847" y2="390" stroke="#E2E8F0" stroke-width="1" /><text x="454.44933920704847" y="406" font-family="Inter, Arial, sans-serif" font-size="11" font-weight="500" fill="#64748B" text-anchor="middle">2013</text><line x1="520.5286343612335" y1="378" x2="520.5286343612335" y2="390" stroke="#E2E8F0" stroke-width="1" /><text x="520.5286343612335" y="406" font-family="Inter, Arial, sans-serif" font-size="11" font-weight="500" fill="#64748B" text-anchor="middle">2014</text><line x1="586.6079295154185" y1="378" x2="586.6079295154185" y2="390" stroke="#E2E8F0" stroke-width="1" /><text x="586.6079295154185" y="406" font-family="Inter, Arial, sans-serif" font-size="11" font-weight="500" fill="#64748B" text-anchor="middle">2015</text><line x1="652.6872246696036" y1="378" x2="652.6872246696036" y2="390" stroke="#E2E8F0" stroke-width="1" /><text x="652.6872246696036" y="406" font-family="Inter, Arial, sans-serif" font-size="11" font-weight="500" fill="#64748B" text-anchor="middle">2016</text><line x1="718.7665198237886" y1="378" x2="718.7665198237886" y2="390" stroke="#E2E8F0" stroke-width="1" /><text x="718.7665198237886" y="406" font-family="Inter, Arial, sans-serif" font-size="11" font-weight="500" fill="#64748B" text-anchor="middle">2017</text><line x1="784.8458149779735" y1="378" x2="784.8458149779735" y2="390" stroke="#E2E8F0" stroke-width="1" /><text x="784.8458149779735" y="406" font-family="Inter, Arial, sans-serif" font-size="11" font-weight="500" fill="#64748B" text-anchor="middle">2018</text><line x1="850.9251101321586" y1="378" x2="850.9251101321586" y2="390" stroke="#E2E8F0" stroke-width="1" /><text x="850.9251101321586" y="406" font-family="Inter, Arial, sans-serif" font-size="11" font-weight="500" fill="#64748B" text-anchor="middle">2019</text><line x1="917.0044052863436" y1="378" x2="917.0044052863436" y2="390" stroke="#E2E8F0" stroke-width="1" /><text x="917.0044052863436" y="406" font-family="Inter, Arial, sans-serif" font-size="11" font-weight="500" fill="#64748B" text-anchor="middle">2020</text><line x1="983.0837004405287" y1="378" x2="983.0837004405287" y2="390" stroke="#E2E8F0" stroke-width="1" /><text x="983.0837004405287" y="406" font-family="Inter, Arial, sans-serif" font-size="11" font-weight="500" fill="#64748B" text-anchor="middle">2021</text><line x1="1049.1629955947137" y1="378" x2="1049.1629955947137" y2="390" stroke="#E2E8F0" stroke-width="1" /><text x="1049.1629955947137" y="406" font-family="Inter, Arial, sans-serif" font-size="11" font-weight="500" fill="#64748B" text-anchor="middle">2022</text><line x1="1115.2422907488988" y1="378" x2="1115.2422907488988" y2="390" stroke="#E2E8F0" stroke-width="1" /><text x="1115.2422907488988" y="406" font-family="Inter, Arial, sans-serif" font-size="11" font-weight="500" fill="#64748B" text-anchor="middle">2023</text><line x1="1181.3215859030836" y1="378" x2="1181.3215859030836" y2="390" stroke="#E2E8F0" stroke-width="1" /><text x="1181.3215859030836" y="406" font-family="Inter, Arial, sans-serif" font-size="11" font-weight="500" fill="#64748B" text-anchor="middle">2024</text><line x1="1247.4008810572686" y1="378" x2="1247.4008810572686" y2="390" stroke="#E2E8F0" stroke-width="1" /><text x="1247.4008810572686" y="406" font-family="Inter, Arial, sans-serif" font-size="11" font-weight="500" fill="#64748B" text-anchor="middle">2025</text><line x1="1313.4801762114537" y1="378" x2="1313.4801762114537" y2="390" stroke="#E2E8F0" stroke-width="1" /><text x="1313.4801762114537" y="406" font-family="Inter, Arial, sans-serif" font-size="11" font-weight="500" fill="#64748B" text-anchor="middle">2026</text><line x1="1330.0" y1="378" x2="1330.0" y2="390" stroke="#E2E8F0" stroke-width="1" /><text x="1330.0" y="406" font-family="Inter, Arial, sans-serif" font-size="11" font-weight="500" fill="#64748B" text-anchor="middle">2026</text><rect x="62" y="432" width="1286" height="304" rx="18" fill="#FFFFFF" stroke="#E2E8F0" /><text x="80" y="456" font-family="Inter, Arial, sans-serif" font-size="15" font-weight="700" fill="#011E42" text-anchor="start">Dissolved oxygen (mg/L)</text><text x="1326" y="456" font-family="Inter, Arial, sans-serif" font-size="11" font-weight="500" fill="#B91C1C" text-anchor="end">Red line = critical threshold 5 mg/L</text><rect x="1190" y="438" width="72" height="24" rx="12" fill="#DBEAFE" stroke="none" /><text x="1200" y="455" font-family="Inter, Arial, sans-serif" font-size="11" font-weight="700" fill="#0B5CAD" text-anchor="start">2007–2026</text><line x1="80" y1="476.0" x2="1330" y2="476.0" stroke="#E2E8F0" stroke-width="1" stroke-dasharray="4 6" /><line x1="80" y1="586.0" x2="1330" y2="586.0" stroke="#E2E8F0" stroke-width="1" stroke-dasharray="4 6" /><line x1="80" y1="696.0" x2="1330" y2="696.0" stroke="#E2E8F0" stroke-width="1" stroke-dasharray="4 6" /><text x="74" y="482" font-family="Inter, Arial, sans-serif" font-size="11" font-weight="500" fill="#64748B" text-anchor="end">11.6</text><text x="74" y="590.0" font-family="Inter, Arial, sans-serif" font-size="11" font-weight="500" fill="#64748B" text-anchor="end">6.6</text><text x="74" y="700" font-family="Inter, Arial, sans-serif" font-size="11" font-weight="500" fill="#64748B" text-anchor="end">1.6</text><polygon points="80.0,696 80.0,595.1681400184807 85.50660792951541,624.2602307005722 91.01321585903084,638.5031293890802 96.51982378854626,647.8328470869676 102.02643171806167,640.8461259457032 107.53303964757708,625.8598344278513 113.03964757709251,579.6507381006204 118.54625550660793,555.3817400560436 124.05286343612335,529.9306656732563 129.55947136563876,540.2279480194613 135.06607929515417,555.2877395692144 140.5726872246696,589.1457489121765 146.07929515418502,608.469438387514 151.58590308370043,637.6649492750636 157.09251101321587,649.806879165876 162.59911894273128,650.7469058896635 168.1057268722467,626.9557564021741 173.61233480176213,603.1583343874305 179.1189427312775,568.3101618136393 184.62555066079295,555.0292327665602 190.13215859030836,545.6995150686728 195.63876651982378,539.3585801131393 201.14537444933922,561.3273746615935 206.65198237885463,589.8014137819453 212.15859030837004,613.4045622957763 217.66519823788545,642.4974397757114 223.1718061674009,647.55084562648 228.6784140969163,657.4210497320134 234.1850220264317,644.610144974576 239.69162995594715,617.7764482254116 245.19823788546256,585.5517219285391 250.70484581497797,549.3891161348267 256.2114537444934,494.3743531846191 261.7180616740088,491.17241379310343 267.22466960352426,534.3487759762103 272.73127753303964,587.5187165378453 278.237885462555,604.3803625717055 283.74449339207047,633.0752951866823 289.2511013215859,645.905804323726 294.75770925110135,645.0127669156053 300.26431718061673,652.089576409976 305.77092511013217,618.4571813487012 311.27753303964755,589.291437646239 316.784140969163,541.093425647556 322.29074889867843,520.8359601201896 327.79735682819387,545.7070770701708 333.30396475770925,573.92365845166 338.8105726872247,597.5965259966432 344.3171806167401,600.8317731635431 349.8237885462555,638.0049115100386 355.3303964757709,664.3537222325133 360.83700440528634,665.9987635352674 366.3436123348018,651.6767479524739 371.85022026431716,628.1158898227429 377.3568281938326,596.5766174362223 382.86343612334804,565.0226363011232 388.3700440528634,549.9296243979685 393.87665198237886,564.9472785520911 399.3832599118943,593.2881084264014 404.8898678414097,609.4470784193304 410.3964757709251,626.3298587174928 415.9030837004405,639.996187575022 421.40969162995594,662.4031629559425 426.9162995594714,656.9275526400342 432.42290748898677,657.772005281305 437.9295154185022,640.4771833234843 443.43612334801765,586.8873331237537 448.942731277533,575.1221919781017 454.44933920704847,560.5988654247934 459.95594713656385,558.6382526202196 465.4625550660793,561.9148940958976 470.96916299559473,606.3387242602264 476.4757709251101,627.5753815596012 481.98237885462555,648.4227050593072 487.488986784141,644.5662591392928 492.9955947136564,655.4705123109385 498.5022026431718,642.6431503652697 504.00881057268725,627.7217478140292 509.51541850220264,582.2005532126641 515.0220264317181,557.7317959377643 520.5286343612335,524.5725505020104 526.0352422907489,531.2928531511922 531.5418502202643,564.7584470695977 537.0484581497797,590.2142422394472 542.5550660792951,620.3372129407804 548.0616740088105,639.8262173852822 553.568281938326,651.3579199818009 559.0748898678414,654.6009914161468 564.5814977973569,656.8492225435925 570.0881057268723,632.8394962440178 575.5947136563877,585.7217139737745 581.1013215859031,559.7998503589976 586.6079295154185,539.8008916342853 592.114537444934,536.5746052206056 597.6211453744494,565.7689796223809 603.1277533039647,603.3275396348222 608.6343612334801,616.1776312959762 614.1409691629956,641.3075173145595 619.647577092511,656.6925404952134 625.1541850220265,659.8181167848967 630.6607929515418,649.2969248856656 636.1674008810572,623.4627892304637 641.6740088105727,602.1133357179931 647.1806167400881,582.0313479652724 652.6872246696036,538.8608649104979 658.193832599119,530.2548045293743 663.7004405286343,577.5897430044851 669.2070484581498,600.1220596530097 674.7136563876652,630.1604495861427 680.2202643171806,663.5029970639883 685.7268722466961,670.6518641275466 691.2334801762114,673.706934588234 696.7400881057268,662.6287772376301 702.2466960352423,656.0110205740801 707.7533039647577,614.7409602888346 713.2599118942732,588.25898403131 718.7665198237886,576.7907279386892 724.2731277533039,579.2448596907379 729.7797356828194,584.6399106496474 735.2863436123348,619.1363408763033 740.7929515418502,641.2526818759511 746.2995594713657,667.2427127816883 751.806167400881,680.8275862068965 757.3127753303964,675.8219783251341 762.8193832599119,671.9052112371008 768.3259911894273,653.637470034526 773.8325991189428,610.3455797013659 779.3392070484582,574.7226735174559 784.8458149779735,524.0085257255397 790.352422907489,561.6823953330776 795.8590308370044,574.7461900307849 801.3656387665199,589.2428747348849 806.8722466960353,620.7367314014261 812.3788546255506,651.1667936722633 817.885462555066,659.2071026927592 823.3920704845815,651.2396380392947 828.8986784140969,659.690436979257 834.4052863436124,649.3133820738967 839.9118942731277,599.4421133275639 845.4185022026431,549.2230362233145 850.9251101321586,535.453287160327 856.431718061674,545.290773588859 861.9383259911895,559.7528391878352 867.4449339207049,583.8761484983495 872.9515418502202,623.7447906909513 878.4581497797357,660.5403534944426 883.9647577092511,670.839865101205 889.4713656387665,668.3723140748216 894.977973568282,663.2844421073987 900.4845814977973,653.6609646923594 905.9911894273127,599.9420796462582 911.4977973568282,568.1895413330975 917.0044052863436,559.3768372405184 922.5110132158591,548.5933356823884 928.0176211453745,565.7924742802143 933.5242290748898,598.6893007795911 939.0308370044053,612.7700535458055 944.5374449339207,629.2141503351012 950.0440528634361,655.752513771426 955.5506607929516,650.6999165739967 961.0572687224669,637.2278393618844 966.5638766519824,617.6581662829053 972.0704845814978,592.7640354959952 977.5770925110132,556.1102711483393 983.0837004405287,535.9233114499687 988.590308370044,530.6944278245542 994.0969162995594,561.9926340939566 999.6035242290749,578.8007997299392 1005.1101321585903,599.7272401239306 1010.6167400881058,617.9707217263241 1016.1233480176212,626.987862125297 1021.6299559471365,629.8784262701596 1027.136563876652,633.5609680112157 1032.6431718061674,621.0187328619138 1038.1497797356828,580.8649420174495 1043.6563876651983,564.6644465827685 1049.1629955947137,547.344556371427 1054.669603524229,533.86867630307 1060.1762114537446,569.6700763200266 1065.6828193832598,594.5124751487119 1071.1894273127755,621.9822542435346 1076.6960352422907,641.8660563616198 1082.2026431718061,644.4722586524636 1087.7092511013216,647.3863393106551 1093.215859030837,652.3324128222425 1098.7224669603524,616.7416342169513 1104.229074889868,606.9215447629639 1109.7356828193833,568.2600471620933 1115.2422907488988,547.0625549109394 1120.7488986784142,563.7378609888112 1126.2555066079294,591.4785608078224 1131.7621145374449,600.6562953888973 1137.2687224669603,609.6679719139555 1142.7753303964757,622.826663173814 1148.2819383259912,641.3936935339427 1153.7885462555066,654.0839778108385 1159.295154185022,645.2415065331719 1164.8017621145375,625.9538349146804 1170.308370044053,596.6748578892093 1175.8149779735684,559.7998503589976 1181.3215859030836,543.0439630686311 1186.828193832599,547.8145806610685 1192.3348017621145,577.0492347413433 1197.84140969163,605.6344964791035 1203.3480176211453,622.4588570373695 1208.8546255506608,639.0976862929865 1214.3612334801762,653.0492949353521 1219.8678414096917,653.9194714950135 1225.374449339207,650.6982555563267 1230.8810572687225,642.2632144287344 1236.387665198238,620.2291156592512 1241.8942731277532,564.1004436617934 1247.4008810572686,537.9913440157062 1252.907488986784,555.255852401048 1258.4140969162995,569.6465598066976 1263.920704845815,603.9346197377411 1269.4273127753304,622.1467605593596 1274.9339207048458,630.9140270764636 1280.4405286343613,646.130413252613 1285.9471365638767,643.461747955176 1291.4537444933922,632.905303141447 1296.9603524229076,622.5697736778387 1302.4669603524228,585.8431431076557 1307.9735682819382,553.4312026349685 1313.4801762114537,543.2319640422895 1318.9867841409691,539.1764582678131 1324.4933920704846,578.4827585571101 1330.0,595.9776020112015 1330.0,696" fill="#0B5CAD" opacity="0.08" /><polyline points="80.0,595.1681400184807 85.50660792951541,624.2602307005722 91.01321585903084,638.5031293890802 96.51982378854626,647.8328470869676 102.02643171806167,640.8461259457032 107.53303964757708,625.8598344278513 113.03964757709251,579.6507381006204 118.54625550660793,555.3817400560436 124.05286343612335,529.9306656732563 129.55947136563876,540.2279480194613 135.06607929515417,555.2877395692144 140.5726872246696,589.1457489121765 146.07929515418502,608.469438387514 151.58590308370043,637.6649492750636 157.09251101321587,649.806879165876 162.59911894273128,650.7469058896635 168.1057268722467,626.9557564021741 173.61233480176213,603.1583343874305 179.1189427312775,568.3101618136393 184.62555066079295,555.0292327665602 190.13215859030836,545.6995150686728 195.63876651982378,539.3585801131393 201.14537444933922,561.3273746615935 206.65198237885463,589.8014137819453 212.15859030837004,613.4045622957763 217.66519823788545,642.4974397757114 223.1718061674009,647.55084562648 228.6784140969163,657.4210497320134 234.1850220264317,644.610144974576 239.69162995594715,617.7764482254116 245.19823788546256,585.5517219285391 250.70484581497797,549.3891161348267 256.2114537444934,494.3743531846191 261.7180616740088,491.17241379310343 267.22466960352426,534.3487759762103 272.73127753303964,587.5187165378453 278.237885462555,604.3803625717055 283.74449339207047,633.0752951866823 289.2511013215859,645.905804323726 294.75770925110135,645.0127669156053 300.26431718061673,652.089576409976 305.77092511013217,618.4571813487012 311.27753303964755,589.291437646239 316.784140969163,541.093425647556 322.29074889867843,520.8359601201896 327.79735682819387,545.7070770701708 333.30396475770925,573.92365845166 338.8105726872247,597.5965259966432 344.3171806167401,600.8317731635431 349.8237885462555,638.0049115100386 355.3303964757709,664.3537222325133 360.83700440528634,665.9987635352674 366.3436123348018,651.6767479524739 371.85022026431716,628.1158898227429 377.3568281938326,596.5766174362223 382.86343612334804,565.0226363011232 388.3700440528634,549.9296243979685 393.87665198237886,564.9472785520911 399.3832599118943,593.2881084264014 404.8898678414097,609.4470784193304 410.3964757709251,626.3298587174928 415.9030837004405,639.996187575022 421.40969162995594,662.4031629559425 426.9162995594714,656.9275526400342 432.42290748898677,657.772005281305 437.9295154185022,640.4771833234843 443.43612334801765,586.8873331237537 448.942731277533,575.1221919781017 454.44933920704847,560.5988654247934 459.95594713656385,558.6382526202196 465.4625550660793,561.9148940958976 470.96916299559473,606.3387242602264 476.4757709251101,627.5753815596012 481.98237885462555,648.4227050593072 487.488986784141,644.5662591392928 492.9955947136564,655.4705123109385 498.5022026431718,642.6431503652697 504.00881057268725,627.7217478140292 509.51541850220264,582.2005532126641 515.0220264317181,557.7317959377643 520.5286343612335,524.5725505020104 526.0352422907489,531.2928531511922 531.5418502202643,564.7584470695977 537.0484581497797,590.2142422394472 542.5550660792951,620.3372129407804 548.0616740088105,639.8262173852822 553.568281938326,651.3579199818009 559.0748898678414,654.6009914161468 564.5814977973569,656.8492225435925 570.0881057268723,632.8394962440178 575.5947136563877,585.7217139737745 581.1013215859031,559.7998503589976 586.6079295154185,539.8008916342853 592.114537444934,536.5746052206056 597.6211453744494,565.7689796223809 603.1277533039647,603.3275396348222 608.6343612334801,616.1776312959762 614.1409691629956,641.3075173145595 619.647577092511,656.6925404952134 625.1541850220265,659.8181167848967 630.6607929515418,649.2969248856656 636.1674008810572,623.4627892304637 641.6740088105727,602.1133357179931 647.1806167400881,582.0313479652724 652.6872246696036,538.8608649104979 658.193832599119,530.2548045293743 663.7004405286343,577.5897430044851 669.2070484581498,600.1220596530097 674.7136563876652,630.1604495861427 680.2202643171806,663.5029970639883 685.7268722466961,670.6518641275466 691.2334801762114,673.706934588234 696.7400881057268,662.6287772376301 702.2466960352423,656.0110205740801 707.7533039647577,614.7409602888346 713.2599118942732,588.25898403131 718.7665198237886,576.7907279386892 724.2731277533039,579.2448596907379 729.7797356828194,584.6399106496474 735.2863436123348,619.1363408763033 740.7929515418502,641.2526818759511 746.2995594713657,667.2427127816883 751.806167400881,680.8275862068965 757.3127753303964,675.8219783251341 762.8193832599119,671.9052112371008 768.3259911894273,653.637470034526 773.8325991189428,610.3455797013659 779.3392070484582,574.7226735174559 784.8458149779735,524.0085257255397 790.352422907489,561.6823953330776 795.8590308370044,574.7461900307849 801.3656387665199,589.2428747348849 806.8722466960353,620.7367314014261 812.3788546255506,651.1667936722633 817.885462555066,659.2071026927592 823.3920704845815,651.2396380392947 828.8986784140969,659.690436979257 834.4052863436124,649.3133820738967 839.9118942731277,599.4421133275639 845.4185022026431,549.2230362233145 850.9251101321586,535.453287160327 856.431718061674,545.290773588859 861.9383259911895,559.7528391878352 867.4449339207049,583.8761484983495 872.9515418502202,623.7447906909513 878.4581497797357,660.5403534944426 883.9647577092511,670.839865101205 889.4713656387665,668.3723140748216 894.977973568282,663.2844421073987 900.4845814977973,653.6609646923594 905.9911894273127,599.9420796462582 911.4977973568282,568.1895413330975 917.0044052863436,559.3768372405184 922.5110132158591,548.5933356823884 928.0176211453745,565.7924742802143 933.5242290748898,598.6893007795911 939.0308370044053,612.7700535458055 944.5374449339207,629.2141503351012 950.0440528634361,655.752513771426 955.5506607929516,650.6999165739967 961.0572687224669,637.2278393618844 966.5638766519824,617.6581662829053 972.0704845814978,592.7640354959952 977.5770925110132,556.1102711483393 983.0837004405287,535.9233114499687 988.590308370044,530.6944278245542 994.0969162995594,561.9926340939566 999.6035242290749,578.8007997299392 1005.1101321585903,599.7272401239306 1010.6167400881058,617.9707217263241 1016.1233480176212,626.987862125297 1021.6299559471365,629.8784262701596 1027.136563876652,633.5609680112157 1032.6431718061674,621.0187328619138 1038.1497797356828,580.8649420174495 1043.6563876651983,564.6644465827685 1049.1629955947137,547.344556371427 1054.669603524229,533.86867630307 1060.1762114537446,569.6700763200266 1065.6828193832598,594.5124751487119 1071.1894273127755,621.9822542435346 1076.6960352422907,641.8660563616198 1082.2026431718061,644.4722586524636 1087.7092511013216,647.3863393106551 1093.215859030837,652.3324128222425 1098.7224669603524,616.7416342169513 1104.229074889868,606.9215447629639 1109.7356828193833,568.2600471620933 1115.2422907488988,547.0625549109394 1120.7488986784142,563.7378609888112 1126.2555066079294,591.4785608078224 1131.7621145374449,600.6562953888973 1137.2687224669603,609.6679719139555 1142.7753303964757,622.826663173814 1148.2819383259912,641.3936935339427 1153.7885462555066,654.0839778108385 1159.295154185022,645.2415065331719 1164.8017621145375,625.9538349146804 1170.308370044053,596.6748578892093 1175.8149779735684,559.7998503589976 1181.3215859030836,543.0439630686311 1186.828193832599,547.8145806610685 1192.3348017621145,577.0492347413433 1197.84140969163,605.6344964791035 1203.3480176211453,622.4588570373695 1208.8546255506608,639.0976862929865 1214.3612334801762,653.0492949353521 1219.8678414096917,653.9194714950135 1225.374449339207,650.6982555563267 1230.8810572687225,642.2632144287344 1236.387665198238,620.2291156592512 1241.8942731277532,564.1004436617934 1247.4008810572686,537.9913440157062 1252.907488986784,555.255852401048 1258.4140969162995,569.6465598066976 1263.920704845815,603.9346197377411 1269.4273127753304,622.1467605593596 1274.9339207048458,630.9140270764636 1280.4405286343613,646.130413252613 1285.9471365638767,643.461747955176 1291.4537444933922,632.905303141447 1296.9603524229076,622.5697736778387 1302.4669603524228,585.8431431076557 1307.9735682819382,553.4312026349685 1313.4801762114537,543.2319640422895 1318.9867841409691,539.1764582678131 1324.4933920704846,578.4827585571101 1330.0,595.9776020112015" stroke="#0B5CAD" stroke-width="2" fill="none" opacity="0.35" /><polyline points="107.53303964757708,628.7450512614425 113.03964757709251,621.7315779527537 118.54625550660793,613.4378482156649 124.05286343612335,604.1592723776195 129.55947136563876,597.7661399418037 135.06607929515417,593.9044671806591 140.5726872246696,593.5079073249523 146.07929515418502,594.616348855705 151.58590308370043,595.7334087369127 157.09251101321587,596.675387884979 162.59911894273128,596.918226118537 168.1057268722467,595.7606953232429 173.61233480176213,593.8689036532078 179.1189427312775,592.9238556292928 184.62555066079295,592.8944800218358 190.13215859030836,594.2085508047871 195.63876651982378,594.1361034792603 201.14537444933922,594.6394064036253 206.65198237885463,594.6940451427727 212.15859030837004,595.1053054684612 217.66519823788545,595.5080130101818 223.1718061674009,595.3200102152322 228.6784140969163,595.8761888687613 234.1850220264317,597.3473879164615 239.69162995594715,598.5655640696266 245.19823788546256,600.0023607458683 250.70484581497797,599.5323510265571 256.2114537444934,595.255254202886 261.7180616740088,591.239740342883 267.22466960352426,588.9915237857678 272.73127753303964,588.801299015426 278.237885462555,588.0492823717535 283.74449339207047,587.2641036560011 289.2511013215859,587.1270168807716 294.75770925110135,586.0929933127376 300.26431718061673,586.7162792656876 305.77092511013217,586.7730070259618 311.27753303964755,587.0846500024367 316.784140969163,586.3933424618308 322.29074889867843,588.5984763731283 327.79735682819387,593.1430316462173 333.30396475770925,596.4409385191715 338.8105726872247,597.2807559740712 344.3171806167401,596.9850401900577 349.8237885462555,597.3958415503374 355.3303964757709,598.9331680427364 360.83700440528634,600.6820010943749 366.3436123348018,600.6475987229164 371.85022026431716,601.4524910957532 377.3568281938326,602.0595894115851 382.86343612334804,604.0536902993824 388.3700440528634,606.4781623225306 393.87665198237886,608.0815124460239 399.3832599118943,609.6952166105857 404.8898678414097,610.6827626458097 410.3964757709251,612.8076031086388 415.9030837004405,612.9735427807208 421.40969162995594,612.8109961743398 426.9162995594714,612.0550619330704 432.42290748898677,612.5630000438064 437.9295154185022,613.5931078355349 443.43612334801765,612.7856674761624 448.942731277533,613.6272971159107 454.44933920704847,614.5164005348128 459.95594713656385,613.9906483738234 465.4625550660793,611.3762138462814 470.96916299559473,611.1171843330228 476.4757709251101,611.2209779031984 481.98237885462555,611.9231876935555 487.488986784141,610.4367790421682 492.9955947136564,610.3153590147434 498.5022026431718,609.0546211050738 504.00881057268725,607.9916681459526 509.51541850220264,607.6011031533618 515.0220264317181,606.1519034833337 520.5286343612335,603.1497105731017 526.0352422907489,600.8709272840161 531.5418502202643,601.1078900318245 537.0484581497797,599.7641831967595 542.5550660792951,599.1610024785244 548.0616740088105,598.444628505689 553.568281938326,599.0106002425647 559.0748898678414,598.9381401679988 564.5814977973569,600.1219795161924 570.0881057268723,600.5484585520247 575.5947136563877,600.8418886154506 581.1013215859031,601.0142264838867 586.6079295154185,602.2832549115763 592.114537444934,602.7234009173608 597.6211453744494,602.807611963426 603.1277533039647,603.9003867463739 608.6343612334801,603.5537549426402 614.1409691629956,603.6771966034133 619.647577092511,604.1217483128644 625.1541850220265,604.5565087602602 630.6607929515418,603.9271506220996 636.1674008810572,603.14575837097 641.6740088105727,604.511726849655 647.1806167400881,606.3643516501779 652.6872246696036,606.2860160898623 658.193832599119,605.7593660322597 663.7004405286343,606.744429647435 669.2070484581498,606.4773063156173 674.7136563876652,607.6425411731311 680.2202643171806,609.4921644855835 685.7268722466961,610.6554414549447 691.2334801762114,611.8128429385561 696.7400881057268,612.9238306345532 702.2466960352423,615.6361832465212 707.7533039647577,616.6884852940913 713.2599118942732,617.2074549662611 718.7665198237886,620.368276885277 724.2731277533039,624.4507814820573 729.7797356828194,625.0382954524875 735.2863436123348,626.622818887762 740.7929515418502,627.5471715785794 746.2995594713657,627.8588145550543 751.806167400881,628.7067913950002 757.3127753303964,628.8830450397419 762.8193832599119,629.6560812063644 768.3259911894273,629.4582853280683 773.8325991189428,629.0920036124459 779.3392070484582,627.9639777362913 784.8458149779735,623.5654608851955 790.352422907489,622.1019221887238 795.8590308370044,621.2774454704853 801.3656387665199,618.7863232920338 806.8722466960353,617.07666075249 812.3788546255506,615.7370008267046 817.885462555066,613.9352938671932 823.3920704845815,611.8867655100399 828.8986784140969,610.8688676552197 834.4052863436124,610.5085269918338 839.9118942731277,609.599904794017 845.4185022026431,607.4749350195052 850.9251101321586,608.4286651390709 856.431718061674,607.062696660386 861.9383259911895,605.8132507568068 867.4449339207049,605.3660235704289 872.9515418502202,605.6166951778893 878.4581497797357,606.3978251630708 883.9647577092511,607.3672220304413 889.4713656387665,608.794945033402 894.977973568282,609.0944454607471 900.4845814977973,609.4567440122856 905.9911894273127,609.4984078721768 911.4977973568282,611.0789499646587 917.0044052863436,613.072579138008 922.5110132158591,613.3477926458022 928.0176211453745,613.8510955701671 933.5242290748898,615.0855249269372 939.0308370044053,614.1709634981751 944.5374449339207,611.56044656823 950.0440528634361,610.3031672907484 955.5506607929516,608.8304674990129 961.0572687224669,606.6590839368868 966.5638766519824,603.6588507360989 972.0704845814978,603.0606803902436 977.5770925110132,602.0540745415138 983.0837004405287,600.0996140589681 988.590308370044,598.6080384041485 994.0969162995594,598.2913850552936 999.6035242290749,596.6340099678227 1005.1101321585903,595.5471088493331 1010.6167400881058,594.6101564652683 1016.1233480176212,592.2131021614243 1021.6299559471365,590.4779779694379 1027.136563876652,590.1724053568821 1032.6431718061674,590.4524525717995 1038.1497797356828,589.4608614485874 1043.6563876651983,590.1737094014564 1049.1629955947137,591.125479811578 1054.669603524229,591.390000518121 1060.1762114537446,592.0297873702934 1065.6828193832598,593.3390936551912 1071.1894273127755,595.1936781651582 1076.6960352422907,597.1849560514328 1082.2026431718061,598.6419890953634 1087.7092511013216,600.100981848738 1093.215859030837,601.6652689163236 1098.7224669603524,601.3088440292433 1104.229074889868,603.4802275913696 1109.7356828193833,603.77986097298 1115.2422907488988,603.7563608512727 1120.7488986784142,606.2454595750845 1126.2555066079294,608.0628332824008 1131.7621145374449,608.5748183024162 1137.2687224669603,607.5486281082847 1142.7753303964757,605.9620120093008 1148.2819383259912,605.7054649160907 1153.7885462555066,606.2636014577727 1159.295154185022,605.6726926003502 1164.8017621145375,606.4403759918276 1170.308370044053,605.5864854190147 1175.8149779735684,604.8814690187567 1181.3215859030836,604.5465863652311 1186.828193832599,603.2196463379191 1192.3348017621145,602.0172024990459 1197.84140969163,602.4320525898963 1203.3480176211453,603.4979596835142 1208.8546255506608,604.8538782767786 1214.3612334801762,605.8251783935627 1219.8678414096917,605.8114695339107 1225.374449339207,606.2661986191735 1230.8810572687225,607.625313578678 1236.387665198238,609.5881683928482 1241.8942731277532,609.9465511680811 1247.4008810572686,609.5254995803374 1252.907488986784,610.145605558669 1258.4140969162995,609.5287159807818 1263.920704845815,609.3870595856683 1269.4273127753304,609.3610515458342 1274.9339207048458,608.6790799444573 1280.4405286343613,608.1025064708957 1285.9471365638767,607.2310295092426 1291.4537444933922,605.7482834746693 1296.9603524229076,604.1071634120946 1302.4669603524228,601.2416656994617 1307.9735682819382,600.3525622805596 1313.4801762114537,600.7892806161082 1318.9867841409691,599.4493311050053 1324.4933920704846,600.1856810008729 1330.0,599.522596190328" stroke="#011E42" stroke-width="4" fill="none" opacity="1.0" /><line x1="80" y1="620.6662255724304" x2="1330" y2="620.6662255724304" stroke="#B91C1C" stroke-width="2" stroke-dasharray="8 4" /><text x="86" y="614.6662255724304" font-family="Inter, Arial, sans-serif" font-size="10" font-weight="700" fill="#B91C1C" text-anchor="start">5 mg/L</text><line x1="80.0" y1="696" x2="1330.0" y2="696" stroke="#E2E8F0" stroke-width="2" /><line x1="80.0" y1="690" x2="80.0" y2="702" stroke="#E2E8F0" stroke-width="1" /><text x="80.0" y="718" font-family="Inter, Arial, sans-serif" font-size="11" font-weight="500" fill="#64748B" text-anchor="middle">2007</text><line x1="124.05286343612335" y1="690" x2="124.05286343612335" y2="702" stroke="#E2E8F0" stroke-width="1" /><text x="124.05286343612335" y="718" font-family="Inter, Arial, sans-serif" font-size="11" font-weight="500" fill="#64748B" text-anchor="middle">2008</text><line x1="190.13215859030836" y1="690" x2="190.13215859030836" y2="702" stroke="#E2E8F0" stroke-width="1" /><text x="190.13215859030836" y="718" font-family="Inter, Arial, sans-serif" font-size="11" font-weight="500" fill="#64748B" text-anchor="middle">2009</text><line x1="256.2114537444934" y1="690" x2="256.2114537444934" y2="702" stroke="#E2E8F0" stroke-width="1" /><text x="256.2114537444934" y="718" font-family="Inter, Arial, sans-serif" font-size="11" font-weight="500" fill="#64748B" text-anchor="middle">2010</text><line x1="322.29074889867843" y1="690" x2="322.29074889867843" y2="702" stroke="#E2E8F0" stroke-width="1" /><text x="322.29074889867843" y="718" font-family="Inter, Arial, sans-serif" font-size="11" font-weight="500" fill="#64748B" text-anchor="middle">2011</text><line x1="388.3700440528634" y1="690" x2="388.3700440528634" y2="702" stroke="#E2E8F0" stroke-width="1" /><text x="388.3700440528634" y="718" font-family="Inter, Arial, sans-serif" font-size="11" font-weight="500" fill="#64748B" text-anchor="middle">2012</text><line x1="454.44933920704847" y1="690" x2="454.44933920704847" y2="702" stroke="#E2E8F0" stroke-width="1" /><text x="454.44933920704847" y="718" font-family="Inter, Arial, sans-serif" font-size="11" font-weight="500" fill="#64748B" text-anchor="middle">2013</text><line x1="520.5286343612335" y1="690" x2="520.5286343612335" y2="702" stroke="#E2E8F0" stroke-width="1" /><text x="520.5286343612335" y="718" font-family="Inter, Arial, sans-serif" font-size="11" font-weight="500" fill="#64748B" text-anchor="middle">2014</text><line x1="586.6079295154185" y1="690" x2="586.6079295154185" y2="702" stroke="#E2E8F0" stroke-width="1" /><text x="586.6079295154185" y="718" font-family="Inter, Arial, sans-serif" font-size="11" font-weight="500" fill="#64748B" text-anchor="middle">2015</text><line x1="652.6872246696036" y1="690" x2="652.6872246696036" y2="702" stroke="#E2E8F0" stroke-width="1" /><text x="652.6872246696036" y="718" font-family="Inter, Arial, sans-serif" font-size="11" font-weight="500" fill="#64748B" text-anchor="middle">2016</text><line x1="718.7665198237886" y1="690" x2="718.7665198237886" y2="702" stroke="#E2E8F0" stroke-width="1" /><text x="718.7665198237886" y="718" font-family="Inter, Arial, sans-serif" font-size="11" font-weight="500" fill="#64748B" text-anchor="middle">2017</text><line x1="784.8458149779735" y1="690" x2="784.8458149779735" y2="702" stroke="#E2E8F0" stroke-width="1" /><text x="784.8458149779735" y="718" font-family="Inter, Arial, sans-serif" font-size="11" font-weight="500" fill="#64748B" text-anchor="middle">2018</text><line x1="850.9251101321586" y1="690" x2="850.9251101321586" y2="702" stroke="#E2E8F0" stroke-width="1" /><text x="850.9251101321586" y="718" font-family="Inter, Arial, sans-serif" font-size="11" font-weight="500" fill="#64748B" text-anchor="middle">2019</text><line x1="917.0044052863436" y1="690" x2="917.0044052863436" y2="702" stroke="#E2E8F0" stroke-width="1" /><text x="917.0044052863436" y="718" font-family="Inter, Arial, sans-serif" font-size="11" font-weight="500" fill="#64748B" text-anchor="middle">2020</text><line x1="983.0837004405287" y1="690" x2="983.0837004405287" y2="702" stroke="#E2E8F0" stroke-width="1" /><text x="983.0837004405287" y="718" font-family="Inter, Arial, sans-serif" font-size="11" font-weight="500" fill="#64748B" text-anchor="middle">2021</text><line x1="1049.1629955947137" y1="690" x2="1049.1629955947137" y2="702" stroke="#E2E8F0" stroke-width="1" /><text x="1049.1629955947137" y="718" font-family="Inter, Arial, sans-serif" font-size="11" font-weight="500" fill="#64748B" text-anchor="middle">2022</text><line x1="1115.2422907488988" y1="690" x2="1115.2422907488988" y2="702" stroke="#E2E8F0" stroke-width="1" /><text x="1115.2422907488988" y="718" font-family="Inter, Arial, sans-serif" font-size="11" font-weight="500" fill="#64748B" text-anchor="middle">2023</text><line x1="1181.3215859030836" y1="690" x2="1181.3215859030836" y2="702" stroke="#E2E8F0" stroke-width="1" /><text x="1181.3215859030836" y="718" font-family="Inter, Arial, sans-serif" font-size="11" font-weight="500" fill="#64748B" text-anchor="middle">2024</text><line x1="1247.4008810572686" y1="690" x2="1247.4008810572686" y2="702" stroke="#E2E8F0" stroke-width="1" /><text x="1247.4008810572686" y="718" font-family="Inter, Arial, sans-serif" font-size="11" font-weight="500" fill="#64748B" text-anchor="middle">2025</text><line x1="1313.4801762114537" y1="690" x2="1313.4801762114537" y2="702" stroke="#E2E8F0" stroke-width="1" /><text x="1313.4801762114537" y="718" font-family="Inter, Arial, sans-serif" font-size="11" font-weight="500" fill="#64748B" text-anchor="middle">2026</text><line x1="1330.0" y1="690" x2="1330.0" y2="702" stroke="#E2E8F0" stroke-width="1" /><text x="1330.0" y="718" font-family="Inter, Arial, sans-serif" font-size="11" font-weight="500" fill="#64748B" text-anchor="middle">2026</text></svg>