<svg xmlns="http://www.w3.org/2000/svg" width="1400" height="540" viewBox="0 0 1400 540" role="img" aria-label="Savannah River analytical figure"><rect x="0" y="0" width="1400" height="540" rx="12" fill="#F8FAFC" stroke="none" /><text x="70" y="62" font-family="Inter, Arial, sans-serif" font-size="30" font-weight="700" fill="#011E42" text-anchor="start">Flow seasonality — monthly climatology (2006–2026)</text><text x="70" y="90" font-family="Inter, Arial, sans-serif" font-size="14" font-weight="400" fill="#64748B" text-anchor="start">The thick curve shows the historical mean for each month. Thin curves are individual years — the envelope reveals real variability.</text><line x1="70" y1="113" x2="94" y2="113" stroke="#0B5CAD" stroke-width="1"  opacity="0.25" /><text x="100" y="118" font-family="Inter, Arial, sans-serif" font-size="11" font-weight="500" fill="#64748B" text-anchor="start">Individual years</text><line x1="210.8" y1="113" x2="234.8" y2="113" stroke="#011E42" stroke-width="4" /><text x="240.8" y="118" font-family="Inter, Arial, sans-serif" font-size="11" font-weight="500" fill="#64748B" text-anchor="start">Climatology (mean)</text><rect x="62" y="120" width="1286" height="402" rx="18" fill="#FFFFFF" stroke="#E2E8F0" /><text x="80" y="144" font-family="Inter, Arial, sans-serif" font-size="15" font-weight="700" fill="#011E42" text-anchor="start">Monthly mean discharge (ft³/s)</text><line x1="80" y1="164.0" x2="1330" y2="164.0" stroke="#E2E8F0" stroke-width="1" stroke-dasharray="4 6" /><line x1="80" y1="329.0" x2="1330" y2="329.0" stroke="#E2E8F0" stroke-width="1" stroke-dasharray="4 6" /><line x1="80" y1="494.0" x2="1330" y2="494.0" stroke="#E2E8F0" stroke-width="1" stroke-dasharray="4 6" /><text x="74" y="170" font-family="Inter, Arial, sans-serif" font-size="11" font-weight="500" fill="#64748B" text-anchor="end">37,291</text><text x="74" y="333.0" font-family="Inter, Arial, sans-serif" font-size="11" font-weight="500" fill="#64748B" text-anchor="end">19,097</text><text x="74" y="498" font-family="Inter, Arial, sans-serif" font-size="11" font-weight="500" fill="#64748B" text-anchor="end">903.2</text><polyline points="80.0,430.29722174655853 193.63636363636363,427.666441504546 307.27272727272725,409.58179035970915 420.90909090909093,449.37314248925304 534.5454545454545,457.1473410466863 648.1818181818181,454.99304970838216 761.8181818181819,453.50510532618443 875.4545454545455,442.72272236017636 989.0909090909091,456.08321012051687 1102.7272727272727,455.22821925436256 1216.3636363636363,456.4100841887918 1330.0,457.97416182964935" stroke="#0B5CAD" stroke-width="1" fill="none" opacity="0.22" /><polyline points="80.0,450.0618029635864 193.63636363636363,440.8126505617219 307.27272727272725,427.35219505903723 420.90909090909093,459.5153306073486 534.5454545454545,455.9439892715405 648.1818181818181,455.28239127183434 761.8181818181819,464.57710090146554 875.4545454545455,464.3213341403517 989.0909090909091,464.1002243968825 1102.7272727272727,464.604852150075 1216.3636363636363,467.0270217996375 1330.0,462.7776142380677" stroke="#0B5CAD" stroke-width="1" fill="none" opacity="0.22" /><polyline points="80.0,460.83443429280265 193.63636363636363,456.0225067485286 307.27272727272725,455.4661591503645 420.90909090909093,462.822500149717 534.5454545454545,467.6820324889696 648.1818181818181,467.3320706801726 761.8181818181819,466.80828598115806 875.4545454545455,467.38363245211383 989.0909090909091,466.7574474545466 1102.7272727272727,465.3445655426686 1216.3636363636363,462.75901700499463 1330.0,456.9796129283299" stroke="#0B5CAD" stroke-width="1" fill="none" opacity="0.22" /><polyline points="80.0,471.2413793103448 193.63636363636363,465.7498504634555 307.27272727272725,438.2418460206858 420.90909090909093,458.29806650103694 534.5454545454545,465.4274544417952 648.1818181818181,463.929928339977 761.8181818181819,464.14608959045324 875.4545454545455,462.5923862109329 989.0909090909091,465.3396572254371 1102.7272727272727,460.8461362587666 1216.3636363636363,337.87255629864785 1330.0,270.7058289208757" stroke="#0B5CAD" stroke-width="1" fill="none" opacity="0.22" /><polyline points="80.0,319.06711303946815 193.63636363636363,274.1311604204516 307.27272727272725,409.4189380552142 420.90909090909093,443.422857258745 534.5454545454545,446.85644049699033 648.1818181818181,443.8390245418214 761.8181818181819,448.58345507444375 875.4545454545455,434.6454429813156 989.0909090909091,459.1132706937967 1102.7272727272727,461.4000291360357 1216.3636363636363,461.73925601761226 1330.0,461.492669662885" stroke="#0B5CAD" stroke-width="1" fill="none" opacity="0.22" /><polyline points="80.0,460.7954277547046 193.63636363636363,454.21491988072773 307.27272727272725,440.72558748258746 420.90909090909093,432.47050328767057 534.5454545454545,457.17074497861415 648.1818181818181,460.38394125619993 761.8181818181819,452.48118363535895 875.4545454545455,463.73359542399237 989.0909090909091,463.91179029862775 1102.7272727272727,462.18991158013455 1216.3636363636363,462.7482607202306 1330.0,464.001572496886" stroke="#0B5CAD" stroke-width="1" fill="none" opacity="0.22" /><polyline points="80.0,464.5995406241843 193.63636363636363,463.9938632035501 307.27272727272725,465.6215119858376 420.90909090909093,468.3173190105815 534.5454545454545,470.5012302057219 648.1818181818181,468.23972849633464 761.8181818181819,466.0574100751573 875.4545454545455,458.09129933214336 989.0909090909091,463.43516288376657 1102.7272727272727,465.2255955992021 1216.3636363636363,469.1546919165153 1330.0,470.0926366885364" stroke="#0B5CAD" stroke-width="1" fill="none" opacity="0.22" /><polyline points="80.0,470.8561897250872 193.63636363636363,451.5611516936966 307.27272727272725,453.02434972031915 420.90909090909093,458.2174529829215 534.5454545454545,458.28145621784154 648.1818181818181,439.0536046294897 761.8181818181819,280.14833722386015 875.4545454545455,382.3718028420858 989.0909090909091,434.05052822096707 1102.7272727272727,464.0475980760874 1216.3636363636363,461.24045988050807 1330.0,411.3260876610339" stroke="#0B5CAD" stroke-width="1" fill="none" opacity="0.22" /><polyline points="80.0,272.2422754050956 193.63636363636363,393.2149593924402 307.27272727272725,401.7970600301876 420.90909090909093,401.0957224343732 534.5454545454545,445.83739462002626 648.1818181818181,451.99005879239394 761.8181818181819,447.040746395172 875.4545454545455,448.36209295826717 989.0909090909091,457.18761530690836 1102.7272727272727,461.6028631432148 1216.3636363636363,458.6429470645162 1330.0,454.6977303090213" stroke="#0B5CAD" stroke-width="1" fill="none" opacity="0.22" /><polyline points="80.0,455.07595607444256 193.63636363636363,452.2731362562999 307.27272727272725,444.99680367186534 420.90909090909093,444.83780769634166 534.5454545454545,460.99436111260843 648.1818181818181,449.7369109841941 761.8181818181819,453.93612760164274 875.4545454545455,452.4402267680887 989.0909090909091,461.111478246082 1102.7272727272727,445.0699409342002 1216.3636363636363,323.7984438795912 1330.0,347.5584654175025" stroke="#0B5CAD" stroke-width="1" fill="none" opacity="0.22" /><polyline points="80.0,186.75862068965517 193.63636363636363,377.6780569438631 307.27272727272725,423.4320377398493 420.90909090909093,430.2999843425674 534.5454545454545,438.0477884766434 648.1818181818181,456.3472193880371 761.8181818181819,448.989123097871 875.4545454545455,458.7085778349555 989.0909090909091,455.2958457081464 1102.7272727272727,465.23437207140785 1216.3636363636363,467.0254873938915 1330.0,463.62437710824867" stroke="#0B5CAD" stroke-width="1" fill="none" opacity="0.22" /><polyline points="80.0,443.2717394145151 193.63636363636363,456.1377681971298 307.27272727272725,460.6276996272792 420.90909090909093,453.4320330796588 534.5454545454545,458.95919486150746 648.1818181818181,459.7037647056033 761.8181818181819,457.65345091365157 875.4545454545455,459.3648628758657 989.0909090909091,460.26604398742984 1102.7272727272727,462.98662016726695 1216.3636363636363,463.76668596783384 1330.0,461.17964217537616" stroke="#0B5CAD" stroke-width="1" fill="none" opacity="0.22" /><polyline points="80.0,461.52972588088 193.63636363636363,458.79909390743575 307.27272727272725,460.3175976335285 420.90909090909093,455.7365719989689 534.5454545454545,404.86004862138935 648.1818181818181,375.8546225519197 761.8181818181819,454.6041146085169 875.4545454545455,420.2139981427032 989.0909090909091,444.2118620574371 1102.7272727272727,455.95471607291836 1216.3636363636363,387.44583865111144 1330.0,252.80280198294508" stroke="#0B5CAD" stroke-width="1" fill="none" opacity="0.22" /><polyline points="80.0,274.7078999836732 193.63636363636363,372.5235568655953 307.27272727272725,333.6682363256091 420.90909090909093,350.07744279077633 534.5454545454545,424.92208758588686 648.1818181818181,451.77844830394014 761.8181818181819,451.77126460569747 875.4545454545455,442.8660714001568 989.0909090909091,461.01877270342345 1102.7272727272727,461.4507376310287 1216.3636363636363,460.664073229157 1330.0,436.7157151212394" stroke="#0B5CAD" stroke-width="1" fill="none" opacity="0.22" /><polyline points="80.0,354.85171333071185 193.63636363636363,250.00979917109518 307.27272727272725,267.33273832685427 420.90909090909093,387.7521700090672 534.5454545454545,374.90887647227896 648.1818181818181,414.0916290611061 761.8181818181819,427.3102630271809 875.4545454545455,424.6626940961982 989.0909090909091,406.3406393881731 1102.7272727272727,435.8702483501481 1216.3636363636363,348.07822757053486 1330.0,419.6308503641278" stroke="#0B5CAD" stroke-width="1" fill="none" opacity="0.22" /><polyline points="80.0,378.001119973856 193.63636363636363,374.84587394937626 307.27272727272725,399.24018129688216 420.90909090909093,401.2861718685403 534.5454545454545,432.8131107373938 648.1818181818181,439.16747122643505 761.8181818181819,441.08639798946916 875.4545454545455,427.97727487853797 989.0909090909091,433.3421369403904 1102.7272727272727,383.9310893011829 1216.3636363636363,431.95759979011086 1330.0,419.6893601758095" stroke="#0B5CAD" stroke-width="1" fill="none" opacity="0.22" /><polyline points="80.0,421.1638074066078 193.63636363636363,419.20634078821047 307.27272727272725,385.9467522877693 420.90909090909093,333.3561840026863 534.5454545454545,451.1764148611581 648.1818181818181,449.5122008032409 761.8181818181819,441.6831980541117 875.4545454545455,440.69145675835074 989.0909090909091,462.3388190500935 1102.7272727272727,463.5483143521556 1216.3636363636363,462.2360368097351 1330.0,450.2110029820143" stroke="#0B5CAD" stroke-width="1" fill="none" opacity="0.22" /><polyline points="80.0,369.3562954316591 193.63636363636363,369.6052755725314 307.27272727272725,439.1936056046935 420.90909090909093,383.62274259824574 534.5454545454545,413.9144418453579 648.1818181818181,430.5035334692338 761.8181818181819,435.843918933531 875.4545454545455,439.15849971587073 989.0909090909091,448.84109327331885 1102.7272727272727,458.94651773095745 1216.3636363636363,462.17255366501274 1330.0,452.34953656134246" stroke="#0B5CAD" stroke-width="1" fill="none" opacity="0.22" /><polyline points="80.0,445.7320769626269 193.63636363636363,395.12976620821007 307.27272727272725,365.0236439369413 420.90909090909093,425.07421309807296 534.5454545454545,407.9581431104829 648.1818181818181,440.35853593867904 761.8181818181819,430.3937300565523 875.4545454545455,444.2517787533811 989.0909090909091,427.014983522442 1102.7272727272727,435.9287581618297 1216.3636363636363,443.49339408822965 1330.0,443.64327671370563" stroke="#0B5CAD" stroke-width="1" fill="none" opacity="0.22" /><polyline points="80.0,448.2245949058032 193.63636363636363,440.9752293445533 307.27272727272725,444.9334180463223 420.90909090909093,431.8608635665585 534.5454545454545,410.3394924087434 648.1818181818181,427.8916555149428 761.8181818181819,447.22992811628404 875.4545454545455,401.9374835764098 989.0909090909091,440.0290281905242 1102.7272727272727,458.05424311414845 1216.3636363636363,460.1562080713782 1330.0,453.0575052799698" stroke="#0B5CAD" stroke-width="1" fill="none" opacity="0.22" /><polyline points="80.0,404.69404826029984 193.63636363636363,412.04919425293605 307.27272727272725,418.28080613663263 420.90909090909093,428.2393100379138 534.5454545454545,440.187102191268 648.1818181818181,444.9994894804762 761.8181818181819,441.69246155993466 875.4545454545455,441.8248616710138 989.0909090909091,451.48948048389894 1102.7272727272727,454.3732664327499 1216.3636363636363,437.41944220448306 1330.0,425.5255224281576" stroke="#011E42" stroke-width="4" fill="none" opacity="1.0" /><line x1="80.0" y1="490" x2="80.0" y2="498" stroke="#E2E8F0" stroke-width="1" /><text x="80.0" y="516" font-family="Inter, Arial, sans-serif" font-size="11" font-weight="500" fill="#64748B" text-anchor="middle">Jan</text><line x1="193.63636363636363" y1="490" x2="193.63636363636363" y2="498" stroke="#E2E8F0" stroke-width="1" /><text x="193.63636363636363" y="516" font-family="Inter, Arial, sans-serif" font-size="11" font-weight="500" fill="#64748B" text-anchor="middle">Feb</text><line x1="307.27272727272725" y1="490" x2="307.27272727272725" y2="498" stroke="#E2E8F0" stroke-width="1" /><text x="307.27272727272725" y="516" font-family="Inter, Arial, sans-serif" font-size="11" font-weight="500" fill="#64748B" text-anchor="middle">Mar</text><line x1="420.90909090909093" y1="490" x2="420.90909090909093" y2="498" stroke="#E2E8F0" stroke-width="1" /><text x="420.90909090909093" y="516" font-family="Inter, Arial, sans-serif" font-size="11" font-weight="500" fill="#64748B" text-anchor="middle">Apr</text><line x1="534.5454545454545" y1="490" x2="534.5454545454545" y2="498" stroke="#E2E8F0" stroke-width="1" /><text x="534.5454545454545" y="516" font-family="Inter, Arial, sans-serif" font-size="11" font-weight="500" fill="#64748B" text-anchor="middle">May</text><line x1="648.1818181818181" y1="490" x2="648.1818181818181" y2="498" stroke="#E2E8F0" stroke-width="1" /><text x="648.1818181818181" y="516" font-family="Inter, Arial, sans-serif" font-size="11" font-weight="500" fill="#64748B" text-anchor="middle">Jun</text><line x1="761.8181818181819" y1="490" x2="761.8181818181819" y2="498" stroke="#E2E8F0" stroke-width="1" /><text x="761.8181818181819" y="516" font-family="Inter, Arial, sans-serif" font-size="11" font-weight="500" fill="#64748B" text-anchor="middle">Jul</text><line x1="875.4545454545455" y1="490" x2="875.4545454545455" y2="498" stroke="#E2E8F0" stroke-width="1" /><text x="875.4545454545455" y="516" font-family="Inter, Arial, sans-serif" font-size="11" font-weight="500" fill="#64748B" text-anchor="middle">Aug</text><line x1="989.0909090909091" y1="490" x2="989.0909090909091" y2="498" stroke="#E2E8F0" stroke-width="1" /><text x="989.0909090909091" y="516" font-family="Inter, Arial, sans-serif" font-size="11" font-weight="500" fill="#64748B" text-anchor="middle">Sep</text><line x1="1102.7272727272727" y1="490" x2="1102.7272727272727" y2="498" stroke="#E2E8F0" stroke-width="1" /><text x="1102.7272727272727" y="516" font-family="Inter, Arial, sans-serif" font-size="11" font-weight="500" fill="#64748B" text-anchor="middle">Oct</text><line x1="1216.3636363636363" y1="490" x2="1216.3636363636363" y2="498" stroke="#E2E8F0" stroke-width="1" /><text x="1216.3636363636363" y="516" font-family="Inter, Arial, sans-serif" font-size="11" font-weight="500" fill="#64748B" text-anchor="middle">Nov</text><line x1="1330.0" y1="490" x2="1330.0" y2="498" stroke="#E2E8F0" stroke-width="1" /><text x="1330.0" y="516" font-family="Inter, Arial, sans-serif" font-size="11" font-weight="500" fill="#64748B" text-anchor="middle">Dec</text><line x1="80" y1="494" x2="1330" y2="494" stroke="#E2E8F0" stroke-width="2" /><circle cx="80.0" cy="404.69404826029984" r="6" fill="#0B5CAD" stroke="#FFFFFF" stroke-width="1.5" opacity="1.0" /><text x="90.0" y="390.69404826029984" font-family="Inter, Arial, sans-serif" font-size="10" font-weight="700" fill="#0B5CAD" text-anchor="start">Peak: 10,751 ft³/s</text><circle cx="1102.7272727272727" cy="454.3732664327499" r="6" fill="#C27803" stroke="#FFFFFF" stroke-width="1.5" opacity="1.0" /><text x="1112.7272727272727" y="470.3732664327499" font-family="Inter, Arial, sans-serif" font-size="10" font-weight="700" fill="#C27803" text-anchor="start">Low: 5,273 ft³/s</text></svg>