<svg xmlns="http://www.w3.org/2000/svg" width="1400" height="860" viewBox="0 0 1400 860" role="img" aria-label="Savannah River analytical figure"><rect x="0" y="0" width="1400" height="860" rx="12" fill="#F8FAFC" stroke="none" /><text x="70" y="70" font-family="Inter, Arial, sans-serif" font-size="30" font-weight="700" fill="#011E42" text-anchor="start">Savannah River behavior near Augusta (2006-2026)</text><text x="70" y="98" font-family="Inter, Arial, sans-serif" font-size="14" font-weight="400" fill="#64748B" text-anchor="start">Monthly behavior with a 12-month moving mean. The river comes first; the rest of the report tries to explain this signal.</text><line x1="70" y1="123" x2="94" y2="123" stroke="#0B5CAD" stroke-width="2"  opacity="0.4" /><text x="100" y="128" font-family="Inter, Arial, sans-serif" font-size="11" font-weight="500" fill="#64748B" text-anchor="start">Monthly</text><line x1="149.6" y1="123" x2="173.6" y2="123" stroke="#011E42" stroke-width="4" /><text x="179.6" y="128" font-family="Inter, Arial, sans-serif" font-size="11" font-weight="500" fill="#64748B" text-anchor="start">12-month mean</text><rect x="62" y="134" width="1276" height="344" rx="18" fill="#FFFFFF" stroke="#E2E8F0" /><text x="80" y="162" font-family="Inter, Arial, sans-serif" font-size="17" font-weight="700" fill="#011E42" text-anchor="start">Augusta discharge (ft³/s)</text><rect x="1210" y="140" width="72" height="24" rx="12" fill="#DBEAFE" stroke="none" /><text x="1220" y="157" font-family="Inter, Arial, sans-serif" font-size="11" font-weight="700" fill="#011E42" text-anchor="start">2006-2026</text><line x1="80" y1="186.0" x2="1320" y2="186.0" stroke="#E2E8F0" stroke-width="1" stroke-dasharray="4 6" /><line x1="80" y1="311.0" x2="1320" y2="311.0" stroke="#E2E8F0" stroke-width="1" stroke-dasharray="4 6" /><line x1="80" y1="436.0" x2="1320" y2="436.0" stroke="#E2E8F0" stroke-width="1" stroke-dasharray="4 6" /><text x="74" y="192" font-family="Inter, Arial, sans-serif" font-size="11" font-weight="500" fill="#64748B" text-anchor="end">37,291</text><text x="74" y="315.0" font-family="Inter, Arial, sans-serif" font-size="11" font-weight="500" fill="#64748B" text-anchor="end">19,097</text><text x="74" y="440" font-family="Inter, Arial, sans-serif" font-size="11" font-weight="500" fill="#64748B" text-anchor="end">903.2</text><polygon points="80.0,436 80.0,387.74031950496857 85.10288065843622,385.7473041701106 90.20576131687243,372.04681087856756 95.30864197530865,402.1917746130705 100.41152263374485,408.0813189747623 105.51440329218107,406.4492800821077 110.61728395061729,405.32204948953364 115.7201646090535,397.1535775455882 120.8230452674897,407.2751591822098 125.92592592592592,406.62743882906256 131.02880658436214,407.522791052115 136.13168724279836,408.70769835579495 141.23456790123458,402.7134870936261 146.33744855967078,395.7065534558499 151.440329218107,385.50923868108885 156.54320987654322,409.87525046011257 161.6460905349794,407.16968884207614 166.74897119341563,406.6684782362381 171.85185185185185,413.70992492535265 176.95473251028807,413.5161622275392 182.0576131687243,413.34865484612305 187.1604938271605,413.73094859854166 192.26337448559673,415.565925605786 197.36625514403292,412.34667745308155 202.46913580246914,410.8745714339414 207.57201646090533,407.22917177918833 212.67489711934155,406.8076963260337 217.77777777777777,412.38068193160376 222.880658436214,416.06214582497694 227.9835390946502,415.797023242555 233.08641975308643,415.4002166523925 238.18930041152262,415.83608519099533 243.29218106995884,415.36170261708077 248.39506172839506,414.2913375323247 253.49794238683128,412.33258864014743 258.6008230452675,407.95425221843175 263.7037037037037,418.7586206896552 268.8065843621399,414.59837156322385 273.90946502057614,393.7589742580953 279.01234567901236,408.95308068260374 284.1152263374486,414.35413215287514 289.2181069958848,413.21964268180074 294.320987654321,413.3834012048888 299.42386831275724,412.20635319010063 304.52674897119346,414.2876191101796 309.6296296296296,410.8834365596717 314.73251028806584,317.72163355958173 319.83539094650206,266.8377491824816 324.9382716049383,303.47508563596074 330.0411522633745,269.4326972882209 335.14403292181066,371.92343792061683 340.24691358024694,397.6839827717765 345.3497942386831,400.28518219468964 350.4526748971193,397.99926101653136 355.55555555555554,401.5935265715483 360.65843621399176,391.0344265009967 365.761316872428,409.57065961651267 370.8641975308642,411.3030523757846 375.9670781893004,411.5600424375851 381.06995884773664,411.3732345930947 386.17283950617286,410.84502102629136 391.275720164609,405.8597877884301 396.37860082304525,395.64059657771776 401.48148148148147,389.3867449149019 406.5843621399177,408.0990492262228 411.6872427983539,410.53328883045447 416.7901234567901,404.5463512389083 421.89300411522635,413.0709056242367 426.99588477366257,413.20590174138465 432.0987654320988,411.9014481667686 437.201646090535,412.3244399395686 442.30452674897117,413.273918558247 447.4074074074074,413.72692471529115 452.5102880658436,413.26807818450766 457.61316872427983,414.50114544381637 462.71604938271605,416.5434234928648 467.81893004115227,418.1979016710015 472.9218106995885,416.48464280025354 478.0246913580247,414.83137126905854 483.12757201646093,408.7964388879874 488.2304526748971,412.8448203664898 493.3333333333333,414.2012087872743 498.43621399176953,417.17779690645096 503.53909465020575,417.8883611276791 508.641975308642,418.4668103977933 513.7448559670781,403.8493573437096 518.8477366255145,404.9578406972115 523.9506172839506,408.8920098355466 529.0534979423869,408.9404971347284 534.156378600823,394.37394290112854 539.2592592592592,273.99116456353045 544.3621399176955,351.4331839712771 549.4650205761317,390.58373350073265 554.5679012345679,413.30878642127834 559.6707818930041,411.1821665761425 564.7736625514403,373.368248228056 569.8765432098766,268.0017237917391 574.9794238683128,359.6476965094244 580.082304526749,366.1492879016573 585.1851851851852,365.6179715411919 590.2880658436213,399.5131777424441 595.3909465020577,404.17428696393483 600.4938271604939,400.4248078751303 605.59670781893,401.4258279986872 610.6995884773662,408.1118297779609 615.8024691358024,411.4567145024355 620.9053497942386,409.2143538367547 626.0082304526749,406.2255532644101 631.1111111111111,406.5120879351838 636.2139917695473,404.388739588106 641.3168724279835,398.8763664180798 646.4197530864197,398.75591492147095 651.522633744856,410.99572811561245 656.6255144032922,402.4673568062076 661.7283950617284,405.648581516396 666.8312757201646,404.5153233091581 671.9341563786008,411.0844532167288 677.0370370370371,398.93177343500014 682.1399176954733,307.0594271815085 687.2427983539095,325.05944349810795 692.3456790123457,203.24137931034483 697.448559670782,347.877315866563 702.551440329218,382.53942253018886 707.6543209876543,387.7424123807329 712.7572016460905,393.61196096715406 717.8600823045267,407.4751662030584 722.9629629629629,401.9008508317205 728.0658436213992,409.2640741173905 733.1687242798354,406.67867099102 738.2716049382716,414.2078576298544 743.3744855967078,415.56476317719057 748.477366255144,412.98816447594595 753.5802469135803,397.5694995564508 758.6831275720165,407.31649105843167 763.7860082304527,410.7179542630903 768.8888888888889,405.26669172701423 773.9917695473251,409.453935501142 779.0946502057614,410.01800356485097 784.1975308641976,408.4647355406451 789.3004115226338,409.7612597544437 794.40329218107,410.4439727177499 799.5061728395061,412.5050152782325 804.6090534979423,413.0959742180559 809.7119341563786,411.13609255710315 814.8148148148148,411.40130748551513 819.917695473251,409.3326468995725 825.0205761316872,410.4830285102489 830.1234567901234,407.01255454467343 835.2263374485597,368.46973380408286 840.3292181069959,346.49592617569675 845.4320987654321,406.15463227917945 850.5349794238683,380.10151374447213 855.6378600823045,398.2817136798766 860.7407407407408,407.17781520675635 865.843621399177,355.2771504932662 870.9465020576132,253.27484998707962 876.0493827160494,269.86962119975243 881.1522633744856,343.97239156484494 886.2551440329219,314.536542670916 891.358024691358,326.9677596899821 896.4609053497942,383.6682481711264 901.5637860082304,404.0139759878334 906.6666666666666,404.008533792195 911.7695473251028,397.2621753031491 916.8724279835391,411.0142217450178 921.9753086419753,411.3414679022945 927.0781893004115,410.74551002208864 932.1810699588477,392.6028144857874 937.283950617284,330.58463131114536 942.3868312757202,251.1589387659812 947.4897119341564,264.2823775203442 952.5925925925926,355.50921970383877 957.6954732510288,345.7794518729386 962.798353909465,375.4633553493228 967.9012345679013,385.47747199028856 973.0041152263375,383.4717379516653 978.1069958847737,369.5913934758887 983.2098765432099,391.9623093561728 988.312757201646,325.4532027049506 993.4156378600823,379.65973512433925 998.5185185185185,348.1220605862546 1003.6213991769547,345.7317226889214 1008.7242798353909,364.21225855824406 1013.8271604938271,365.76225141556085 1018.9300411522634,389.6462960131771 1024.0329218106995,394.46020547457204 1029.1358024691358,395.91393787081 1034.2386831275721,385.9827839988924 1039.3415637860082,390.0470734396897 1044.4444444444443,352.61446159180525 1049.5473251028807,388.99818165917486 1054.650205761317,379.7040607392496 1059.7530864197531,380.8210662171271 1064.8559670781892,379.3381369607655 1069.9588477366256,354.14147900588586 1075.061728395062,314.30013939597444 1080.164609053498,403.5578900463319 1085.267489711934,402.297121820637 1090.3703703703704,396.3660591319028 1095.4732510288065,395.6147399684475 1100.5761316872427,412.01425685613145 1105.679012345679,412.9305411758755 1110.7818930041153,411.9363915225266 1115.8847736625514,402.8265174106169 1120.9876543209878,341.5729510845902 1126.0905349794239,341.76157240343287 1131.19341563786,394.48000424597996 1136.2962962962963,352.38086560473164 1141.3991769547324,375.3291226101196 1146.5020576131687,387.89661626457104 1151.6049382716049,391.9423628284326 1156.7078189300412,394.45340887565965 1161.8106995884773,401.7887070252416 1166.9135802469136,409.4443316143617 1172.0164609053497,411.8882982310703 1177.119341563786,404.4466186070776 1182.2222222222222,399.43339163835367 1187.3251028806585,361.0983077334925 1192.4279835390946,338.2906393461676 1197.530864197531,383.7834947712674 1202.633744855967,370.8167750836992 1207.7366255144034,395.362527226272 1212.8395061728395,387.81343186102447 1217.9423868312758,398.3119536010463 1223.045267489712,385.2537753957894 1228.148148148148,392.00663497108314 1233.2510288065844,397.7374197638103 1238.3539094650205,397.85096720735277 1243.4567901234568,401.32166280742666 1248.559670781893,395.82971920041916 1253.6625514403293,398.82834700478963 1258.7654320987654,388.9248966413322 1263.8683127572017,372.62082758238137 1268.9711934156378,385.9179208446536 1274.0740740740741,400.5681273608212 1279.1769547325102,366.25566937606806 1284.2798353909466,395.1129001443365 1289.3827160493827,408.76836599556697 1294.485596707819,410.36076369043803 1299.5884773662551,404.9829585454317 1304.6913580246915,410.1712716906468 1309.7942386831276,409.0921804422909 1314.897119341564,408.6930124577769 1320.0,411.8760840671552 1320.0,436" fill="#0B5CAD" opacity="0.1" /><polyline points="80.0,387.74031950496857 85.10288065843622,385.7473041701106 90.20576131687243,372.04681087856756 95.30864197530865,402.1917746130705 100.41152263374485,408.0813189747623 105.51440329218107,406.4492800821077 110.61728395061729,405.32204948953364 115.7201646090535,397.1535775455882 120.8230452674897,407.2751591822098 125.92592592592592,406.62743882906256 131.02880658436214,407.522791052115 136.13168724279836,408.70769835579495 141.23456790123458,402.7134870936261 146.33744855967078,395.7065534558499 151.440329218107,385.50923868108885 156.54320987654322,409.87525046011257 161.6460905349794,407.16968884207614 166.74897119341563,406.6684782362381 171.85185185185185,413.70992492535265 176.95473251028807,413.5161622275392 182.0576131687243,413.34865484612305 187.1604938271605,413.73094859854166 192.26337448559673,415.565925605786 197.36625514403292,412.34667745308155 202.46913580246914,410.8745714339414 207.57201646090533,407.22917177918833 212.67489711934155,406.8076963260337 217.77777777777777,412.38068193160376 222.880658436214,416.06214582497694 227.9835390946502,415.797023242555 233.08641975308643,415.4002166523925 238.18930041152262,415.83608519099533 243.29218106995884,415.36170261708077 248.39506172839506,414.2913375323247 253.49794238683128,412.33258864014743 258.6008230452675,407.95425221843175 263.7037037037037,418.7586206896552 268.8065843621399,414.59837156322385 273.90946502057614,393.7589742580953 279.01234567901236,408.95308068260374 284.1152263374486,414.35413215287514 289.2181069958848,413.21964268180074 294.320987654321,413.3834012048888 299.42386831275724,412.20635319010063 304.52674897119346,414.2876191101796 309.6296296296296,410.8834365596717 314.73251028806584,317.72163355958173 319.83539094650206,266.8377491824816 324.9382716049383,303.47508563596074 330.0411522633745,269.4326972882209 335.14403292181066,371.92343792061683 340.24691358024694,397.6839827717765 345.3497942386831,400.28518219468964 350.4526748971193,397.99926101653136 355.55555555555554,401.5935265715483 360.65843621399176,391.0344265009967 365.761316872428,409.57065961651267 370.8641975308642,411.3030523757846 375.9670781893004,411.5600424375851 381.06995884773664,411.3732345930947 386.17283950617286,410.84502102629136 391.275720164609,405.8597877884301 396.37860082304525,395.64059657771776 401.48148148148147,389.3867449149019 406.5843621399177,408.0990492262228 411.6872427983539,410.53328883045447 416.7901234567901,404.5463512389083 421.89300411522635,413.0709056242367 426.99588477366257,413.20590174138465 432.0987654320988,411.9014481667686 437.201646090535,412.3244399395686 442.30452674897117,413.273918558247 447.4074074074074,413.72692471529115 452.5102880658436,413.26807818450766 457.61316872427983,414.50114544381637 462.71604938271605,416.5434234928648 467.81893004115227,418.1979016710015 472.9218106995885,416.48464280025354 478.0246913580247,414.83137126905854 483.12757201646093,408.7964388879874 488.2304526748971,412.8448203664898 493.3333333333333,414.2012087872743 498.43621399176953,417.17779690645096 503.53909465020575,417.8883611276791 508.641975308642,418.4668103977933 513.7448559670781,403.8493573437096 518.8477366255145,404.9578406972115 523.9506172839506,408.8920098355466 529.0534979423869,408.9404971347284 534.156378600823,394.37394290112854 539.2592592592592,273.99116456353045 544.3621399176955,351.4331839712771 549.4650205761317,390.58373350073265 554.5679012345679,413.30878642127834 559.6707818930041,411.1821665761425 564.7736625514403,373.368248228056 569.8765432098766,268.0017237917391 574.9794238683128,359.6476965094244 580.082304526749,366.1492879016573 585.1851851851852,365.6179715411919 590.2880658436213,399.5131777424441 595.3909465020577,404.17428696393483 600.4938271604939,400.4248078751303 605.59670781893,401.4258279986872 610.6995884773662,408.1118297779609 615.8024691358024,411.4567145024355 620.9053497942386,409.2143538367547 626.0082304526749,406.2255532644101 631.1111111111111,406.5120879351838 636.2139917695473,404.388739588106 641.3168724279835,398.8763664180798 646.4197530864197,398.75591492147095 651.522633744856,410.99572811561245 656.6255144032922,402.4673568062076 661.7283950617284,405.648581516396 666.8312757201646,404.5153233091581 671.9341563786008,411.0844532167288 677.0370370370371,398.93177343500014 682.1399176954733,307.0594271815085 687.2427983539095,325.05944349810795 692.3456790123457,203.24137931034483 697.448559670782,347.877315866563 702.551440329218,382.53942253018886 707.6543209876543,387.7424123807329 712.7572016460905,393.61196096715406 717.8600823045267,407.4751662030584 722.9629629629629,401.9008508317205 728.0658436213992,409.2640741173905 733.1687242798354,406.67867099102 738.2716049382716,414.2078576298544 743.3744855967078,415.56476317719057 748.477366255144,412.98816447594595 753.5802469135803,397.5694995564508 758.6831275720165,407.31649105843167 763.7860082304527,410.7179542630903 768.8888888888889,405.26669172701423 773.9917695473251,409.453935501142 779.0946502057614,410.01800356485097 784.1975308641976,408.4647355406451 789.3004115226338,409.7612597544437 794.40329218107,410.4439727177499 799.5061728395061,412.5050152782325 804.6090534979423,413.0959742180559 809.7119341563786,411.13609255710315 814.8148148148148,411.40130748551513 819.917695473251,409.3326468995725 825.0205761316872,410.4830285102489 830.1234567901234,407.01255454467343 835.2263374485597,368.46973380408286 840.3292181069959,346.49592617569675 845.4320987654321,406.15463227917945 850.5349794238683,380.10151374447213 855.6378600823045,398.2817136798766 860.7407407407408,407.17781520675635 865.843621399177,355.2771504932662 870.9465020576132,253.27484998707962 876.0493827160494,269.86962119975243 881.1522633744856,343.97239156484494 886.2551440329219,314.536542670916 891.358024691358,326.9677596899821 896.4609053497942,383.6682481711264 901.5637860082304,404.0139759878334 906.6666666666666,404.008533792195 911.7695473251028,397.2621753031491 916.8724279835391,411.0142217450178 921.9753086419753,411.3414679022945 927.0781893004115,410.74551002208864 932.1810699588477,392.6028144857874 937.283950617284,330.58463131114536 942.3868312757202,251.1589387659812 947.4897119341564,264.2823775203442 952.5925925925926,355.50921970383877 957.6954732510288,345.7794518729386 962.798353909465,375.4633553493228 967.9012345679013,385.47747199028856 973.0041152263375,383.4717379516653 978.1069958847737,369.5913934758887 983.2098765432099,391.9623093561728 988.312757201646,325.4532027049506 993.4156378600823,379.65973512433925 998.5185185185185,348.1220605862546 1003.6213991769547,345.7317226889214 1008.7242798353909,364.21225855824406 1013.8271604938271,365.76225141556085 1018.9300411522634,389.6462960131771 1024.0329218106995,394.46020547457204 1029.1358024691358,395.91393787081 1034.2386831275721,385.9827839988924 1039.3415637860082,390.0470734396897 1044.4444444444443,352.61446159180525 1049.5473251028807,388.99818165917486 1054.650205761317,379.7040607392496 1059.7530864197531,380.8210662171271 1064.8559670781892,379.3381369607655 1069.9588477366256,354.14147900588586 1075.061728395062,314.30013939597444 1080.164609053498,403.5578900463319 1085.267489711934,402.297121820637 1090.3703703703704,396.3660591319028 1095.4732510288065,395.6147399684475 1100.5761316872427,412.01425685613145 1105.679012345679,412.9305411758755 1110.7818930041153,411.9363915225266 1115.8847736625514,402.8265174106169 1120.9876543209878,341.5729510845902 1126.0905349794239,341.76157240343287 1131.19341563786,394.48000424597996 1136.2962962962963,352.38086560473164 1141.3991769547324,375.3291226101196 1146.5020576131687,387.89661626457104 1151.6049382716049,391.9423628284326 1156.7078189300412,394.45340887565965 1161.8106995884773,401.7887070252416 1166.9135802469136,409.4443316143617 1172.0164609053497,411.8882982310703 1177.119341563786,404.4466186070776 1182.2222222222222,399.43339163835367 1187.3251028806585,361.0983077334925 1192.4279835390946,338.2906393461676 1197.530864197531,383.7834947712674 1202.633744855967,370.8167750836992 1207.7366255144034,395.362527226272 1212.8395061728395,387.81343186102447 1217.9423868312758,398.3119536010463 1223.045267489712,385.2537753957894 1228.148148148148,392.00663497108314 1233.2510288065844,397.7374197638103 1238.3539094650205,397.85096720735277 1243.4567901234568,401.32166280742666 1248.559670781893,395.82971920041916 1253.6625514403293,398.82834700478963 1258.7654320987654,388.9248966413322 1263.8683127572017,372.62082758238137 1268.9711934156378,385.9179208446536 1274.0740740740741,400.5681273608212 1279.1769547325102,366.25566937606806 1284.2798353909466,395.1129001443365 1289.3827160493827,408.76836599556697 1294.485596707819,410.36076369043803 1299.5884773662551,404.9829585454317 1304.6913580246915,410.1712716906468 1309.7942386831276,409.0921804422909 1314.897119341564,408.6930124577769 1320.0,411.8760840671552" stroke="#0B5CAD" stroke-width="2" fill="none" opacity="0.4" /><polyline points="105.51440329218107,393.7094680372645 110.61728395061729,395.36840824473154 115.7201646090535,395.5915544073386 120.8230452674897,396.88973271565766 125.92592592592592,397.8635033269981 131.02880658436214,398.74162039291787 136.13168724279836,399.5721268898243 141.23456790123458,400.81989085554574 146.33744855967078,401.649828296024 151.440329218107,402.77169727956743 156.54320987654322,403.41198693348764 161.6460905349794,403.33601775576375 166.74897119341563,403.35428426860796 171.85185185185185,404.0532738882596 176.95473251028807,405.4168226117555 182.0576131687243,405.92294725041495 187.1604938271605,406.5149063978715 192.26337448559673,407.1851676106774 197.36625514403292,407.48841586878467 202.46913580246914,408.1685062304776 207.57201646090533,409.1287244240891 212.67489711934155,410.9035958945012 217.77777777777777,411.1123818504588 222.880658436214,411.8534199323672 227.9835390946502,412.61413201622696 233.08641975308643,412.7549896601469 238.18930041152262,412.9483165737683 243.29218106995884,413.1160705546814 248.39506172839506,413.1627696324967 253.49794238683128,412.89332488536013 258.6008230452675,412.5272894491393 263.7037037037037,413.18429355378214 268.8065843621399,413.79839353578507 273.90946502057614,412.71100003012356 279.01234567901236,412.4253665927069 284.1152263374486,412.28303212003175 289.2181069958848,412.0682504066355 294.320987654321,411.9001824526769 299.42386831275724,411.59770478593566 304.52674897119346,411.50819782702723 309.6296296296296,411.22420607930616 314.73251028806584,403.33995982259233 319.83539094650206,391.58025123626317 324.9382716049383,381.97328998178864 330.0411522633745,369.87615045887173 335.14403292181066,368.0565224307485 340.24691358024694,367.1174309381796 345.3497942386831,365.9450184416641 350.4526748971193,364.6766533028917 355.55555555555554,363.69416375011326 360.65843621399176,361.9298365260213 365.761316872428,361.5367565682157 370.8641975308642,361.5717245528918 375.9670781893004,369.3915919593921 381.06995884773664,381.43621574360986 386.17283950617286,390.38371035947074 391.275720164609,401.7526345678215 396.37860082304525,403.7290644559132 401.48148148148147,403.03762796784036 406.5843621399177,403.68878355380144 411.6872427983539,404.73328587162837 416.7901234567901,404.9793545939084 421.89300411522635,406.81572785417836 426.99588477366257,407.11866469791767 432.0987654320988,407.16853101383305 437.201646090535,407.232230805665 442.30452674897117,407.39062113609435 447.4074074074074,407.6307797768443 452.5102880658436,408.2481373098508 457.61316872427983,409.819849715359 462.71604938271605,412.0829062635226 467.81893004115227,412.92447730058745 472.9218106995885,413.4204234647374 478.0246913580247,414.2775084672499 483.12757201646093,413.9213029058958 488.2304526748971,413.89121279132127 493.3333333333333,414.08285950969673 498.43621399176953,414.48730592360357 503.53909465020575,414.8718428043896 508.641975308642,415.2668332779314 513.7448559670781,414.4819398745316 518.8477366255145,413.6866644789812 523.9506172839506,413.0490466742047 529.0534979423869,412.2775962961819 534.156378600823,410.4350379712548 539.2592592592592,398.6983540791275 544.3621399176955,393.9180828360683 549.4650205761317,392.06299226392184 554.5679012345679,391.98862373342223 559.6707818930041,391.48898787256314 564.7736625514403,387.77897846426123 569.8765432098766,375.24022124709006 574.9794238683128,371.55674951089964 580.082304526749,368.32270344460346 585.1851851851852,364.7165335867406 590.2880658436213,363.93092363738356 595.3909465020577,364.74761897595073 600.4938271604939,375.28375591858406 605.59670781893,379.4498095875349 610.6995884773662,380.9104842773039 615.8024691358024,380.75614495073364 620.9053497942386,380.5921605557847 626.0082304526749,383.3302693088142 631.1111111111111,394.87279965410124 636.2139917695473,398.6012199106581 641.3168724279835,401.32847645369327 646.4197530864197,404.0899717353832 651.522633744856,405.0468509331472 656.6255144032922,404.9046067533366 661.7283950617284,405.33992122344205 666.8312757201646,405.59737916598135 671.9341563786008,405.84509778587864 677.0370370370371,404.8013526969257 682.1399176954733,396.28844214232186 687.2427983539095,389.5245996617967 692.3456790123457,372.58537394306006 697.448559670782,367.8760886329315 702.551440329218,366.5146766422739 707.6543209876543,365.5968847638791 712.7572016460905,364.14823750150754 717.8600823045267,364.56555495124513 722.9629629629629,364.25324406085554 728.0658436213992,364.64897329487485 733.1687242798354,364.28182477606583 738.2716049382716,365.5548317923036 743.3744855967078,374.59694312527716 748.477366255144,381.924336540097 753.5802469135803,398.11834656060586 758.6831275720165,403.07161115992824 763.7860082304527,405.41982213767 768.8888888888889,406.88017874986014 773.9917695473251,408.20034329435913 779.0946502057614,408.41224640784185 784.1975308641976,408.9592368002522 789.3004115226338,409.0006689366733 794.40329218107,409.31444408056745 799.5061728395061,409.1725405512656 804.6090534979423,408.9668081380044 809.7119341563786,408.8124688114342 814.8148148148148,409.96511947218954 819.917695473251,410.1331324589513 825.0205761316872,410.11355531288115 830.1234567901234,410.2590438810194 835.2263374485597,406.8436937395978 840.3292181069959,401.55018729050164 845.4320987654321,401.3576786853795 850.5349794238683,398.8860331845485 855.6378600823045,397.8725115980591 860.7407407407408,397.42857825876945 865.843621399177,392.6103429483703 870.9465020576132,379.4552394008683 876.0493827160494,367.6609322103881 881.1522633744856,362.21424426582746 886.2551440329219,354.2187037792164 891.358024691358,347.54830420799215 896.4609053497942,348.8148470719124 901.5637860082304,353.6080178895904 906.6666666666666,353.42917634900846 911.7695473251028,354.8592314788982 916.8724279835391,355.92027381765996 921.9753086419753,356.2672448756215 927.0781893004115,360.88960816969 932.1810699588477,372.5002718779157 937.283950617284,377.5598560538651 942.3868312757202,369.8254016539597 947.4897119341564,365.63755455807876 952.5925925925926,368.01600955923345 957.6954732510288,364.85860986771786 962.798353909465,362.4793914811753 967.9012345679013,360.9351363310164 973.0041152263375,359.78593321839276 978.1069958847737,356.334030862632 983.2098765432099,354.7191009837885 988.312757201646,347.6114087073604 993.4156378600823,346.53281876057304 998.5185185185185,347.9942712001655 1003.6213991769547,355.87533652707714 1008.7242798353909,364.2028266135688 1013.8271604938271,365.05724592287896 1018.9300411522634,368.7128162678988 1024.0329218106995,370.29588711166963 1029.1358024691358,371.16559260171306 1034.2386831275721,371.374846438982 1039.3415637860082,373.0794864359654 1044.4444444444443,369.8004991222681 1049.5473251028807,375.09591403512013 1054.650205761317,375.0996078363626 1059.7530864197531,377.8245249722687 1064.8559670781892,380.62505949492237 1069.9588477366256,379.7858278655592 1075.061728395062,375.49731853059365 1080.164609053498,376.65661803335655 1085.267489711934,377.30969439552865 1090.3703703703704,377.3473711672864 1095.4732510288065,378.1500341647493 1100.5761316872427,379.98063278278613 1105.679012345679,385.0069727481253 1110.7818930041153,386.91849023673797 1115.8847736625514,388.84536162601853 1120.9876543209878,385.5746853649738 1126.0905349794239,382.4433049851961 1131.19341563786,385.8048487552039 1136.2962962962963,388.9782426059337 1141.3991769547324,386.62584531958265 1146.5020576131687,385.4258031899105 1151.6049382716049,385.057161831288 1156.7078189300412,384.9603842402223 1161.8106995884773,384.1082550876482 1166.9135802469136,383.8177376241887 1172.0164609053497,383.8137298499007 1177.119341563786,383.9487382829391 1182.2222222222222,388.77044166241933 1187.3251028806585,390.38183627325765 1192.4279835390946,385.6993891982733 1197.530864197531,388.3162749621513 1202.633744855967,387.94024600161623 1207.7366255144034,388.5624052484246 1212.8395061728395,388.21832766780733 1217.9423868312758,388.5398730615895 1223.045267489712,387.1619620924685 1228.148148148148,385.70882070552864 1233.2510288065844,384.52958083325694 1238.3539094650205,383.9799432166132 1243.4567901234568,384.13729914736933 1248.559670781893,387.0315834362799 1253.6625514403293,392.0763924078317 1258.7654320987654,392.5048425636704 1263.8683127572017,392.655180271894 1268.9711934156378,391.8681297400924 1274.0740740740741,392.93102103174215 1279.1769547325102,390.259664012994 1284.2798353909466,391.08125774203955 1289.3827160493827,392.47806866074654 1294.485596707819,393.5300139879655 1299.5884773662551,394.1243465994721 1304.6913580246915,394.86181400640714 1309.7942386831276,395.9670191098964 1314.897119341564,396.78907456431205 1320.0,398.7016735164639" stroke="#011E42" stroke-width="4" fill="none" opacity="1.0" /><line x1="80.0" y1="436" x2="1320.0" y2="436" stroke="#E2E8F0" stroke-width="2" /><line x1="80.0" y1="430" x2="80.0" y2="442" stroke="#E2E8F0" stroke-width="1" /><text x="80.0" y="458" font-family="Inter, Arial, sans-serif" font-size="11" font-weight="500" fill="#64748B" text-anchor="middle">2006</text><line x1="141.23456790123458" y1="430" x2="141.23456790123458" y2="442" stroke="#E2E8F0" stroke-width="1" /><text x="141.23456790123458" y="458" font-family="Inter, Arial, sans-serif" font-size="11" font-weight="500" fill="#64748B" text-anchor="middle">2007</text><line x1="202.46913580246914" y1="430" x2="202.46913580246914" y2="442" stroke="#E2E8F0" stroke-width="1" /><text x="202.46913580246914" y="458" font-family="Inter, Arial, sans-serif" font-size="11" font-weight="500" fill="#64748B" text-anchor="middle">2008</text><line x1="263.7037037037037" y1="430" x2="263.7037037037037" y2="442" stroke="#E2E8F0" stroke-width="1" /><text x="263.7037037037037" y="458" font-family="Inter, Arial, sans-serif" font-size="11" font-weight="500" fill="#64748B" text-anchor="middle">2009</text><line x1="324.9382716049383" y1="430" x2="324.9382716049383" y2="442" stroke="#E2E8F0" stroke-width="1" /><text x="324.9382716049383" y="458" font-family="Inter, Arial, sans-serif" font-size="11" font-weight="500" fill="#64748B" text-anchor="middle">2010</text><line x1="386.17283950617286" y1="430" x2="386.17283950617286" y2="442" stroke="#E2E8F0" stroke-width="1" /><text x="386.17283950617286" y="458" font-family="Inter, Arial, sans-serif" font-size="11" font-weight="500" fill="#64748B" text-anchor="middle">2011</text><line x1="447.4074074074074" y1="430" x2="447.4074074074074" y2="442" stroke="#E2E8F0" stroke-width="1" /><text x="447.4074074074074" y="458" font-family="Inter, Arial, sans-serif" font-size="11" font-weight="500" fill="#64748B" text-anchor="middle">2012</text><line x1="508.641975308642" y1="430" x2="508.641975308642" y2="442" stroke="#E2E8F0" stroke-width="1" /><text x="508.641975308642" y="458" font-family="Inter, Arial, sans-serif" font-size="11" font-weight="500" fill="#64748B" text-anchor="middle">2013</text><line x1="569.8765432098766" y1="430" x2="569.8765432098766" y2="442" stroke="#E2E8F0" stroke-width="1" /><text x="569.8765432098766" y="458" font-family="Inter, Arial, sans-serif" font-size="11" font-weight="500" fill="#64748B" text-anchor="middle">2014</text><line x1="631.1111111111111" y1="430" x2="631.1111111111111" y2="442" stroke="#E2E8F0" stroke-width="1" /><text x="631.1111111111111" y="458" font-family="Inter, Arial, sans-serif" font-size="11" font-weight="500" fill="#64748B" text-anchor="middle">2015</text><line x1="692.3456790123457" y1="430" x2="692.3456790123457" y2="442" stroke="#E2E8F0" stroke-width="1" /><text x="692.3456790123457" y="458" font-family="Inter, Arial, sans-serif" font-size="11" font-weight="500" fill="#64748B" text-anchor="middle">2016</text><line x1="753.5802469135803" y1="430" x2="753.5802469135803" y2="442" stroke="#E2E8F0" stroke-width="1" /><text x="753.5802469135803" y="458" font-family="Inter, Arial, sans-serif" font-size="11" font-weight="500" fill="#64748B" text-anchor="middle">2017</text><line x1="814.8148148148148" y1="430" x2="814.8148148148148" y2="442" stroke="#E2E8F0" stroke-width="1" /><text x="814.8148148148148" y="458" font-family="Inter, Arial, sans-serif" font-size="11" font-weight="500" fill="#64748B" text-anchor="middle">2018</text><line x1="876.0493827160494" y1="430" x2="876.0493827160494" y2="442" stroke="#E2E8F0" stroke-width="1" /><text x="876.0493827160494" y="458" font-family="Inter, Arial, sans-serif" font-size="11" font-weight="500" fill="#64748B" text-anchor="middle">2019</text><line x1="937.283950617284" y1="430" x2="937.283950617284" y2="442" stroke="#E2E8F0" stroke-width="1" /><text x="937.283950617284" y="458" font-family="Inter, Arial, sans-serif" font-size="11" font-weight="500" fill="#64748B" text-anchor="middle">2020</text><line x1="998.5185185185185" y1="430" x2="998.5185185185185" y2="442" stroke="#E2E8F0" stroke-width="1" /><text x="998.5185185185185" y="458" font-family="Inter, Arial, sans-serif" font-size="11" font-weight="500" fill="#64748B" text-anchor="middle">2021</text><line x1="1059.7530864197531" y1="430" x2="1059.7530864197531" y2="442" stroke="#E2E8F0" stroke-width="1" /><text x="1059.7530864197531" y="458" font-family="Inter, Arial, sans-serif" font-size="11" font-weight="500" fill="#64748B" text-anchor="middle">2022</text><line x1="1120.9876543209878" y1="430" x2="1120.9876543209878" y2="442" stroke="#E2E8F0" stroke-width="1" /><text x="1120.9876543209878" y="458" font-family="Inter, Arial, sans-serif" font-size="11" font-weight="500" fill="#64748B" text-anchor="middle">2023</text><line x1="1182.2222222222222" y1="430" x2="1182.2222222222222" y2="442" stroke="#E2E8F0" stroke-width="1" /><text x="1182.2222222222222" y="458" font-family="Inter, Arial, sans-serif" font-size="11" font-weight="500" fill="#64748B" text-anchor="middle">2024</text><line x1="1243.4567901234568" y1="430" x2="1243.4567901234568" y2="442" stroke="#E2E8F0" stroke-width="1" /><text x="1243.4567901234568" y="458" font-family="Inter, Arial, sans-serif" font-size="11" font-weight="500" fill="#64748B" text-anchor="middle">2025</text><line x1="1304.6913580246915" y1="430" x2="1304.6913580246915" y2="442" stroke="#E2E8F0" stroke-width="1" /><text x="1304.6913580246915" y="458" font-family="Inter, Arial, sans-serif" font-size="11" font-weight="500" fill="#64748B" text-anchor="middle">2026</text><line x1="1320.0" y1="430" x2="1320.0" y2="442" stroke="#E2E8F0" stroke-width="1" /><text x="1320.0" y="458" font-family="Inter, Arial, sans-serif" font-size="11" font-weight="500" fill="#64748B" text-anchor="middle">2026</text><rect x="62" y="464" width="1276" height="314" rx="18" fill="#FFFFFF" stroke="#E2E8F0" /><text x="80" y="492" font-family="Inter, Arial, sans-serif" font-size="17" font-weight="700" fill="#011E42" text-anchor="start">Augusta stage (ft)</text><rect x="1210" y="470" width="72" height="24" rx="12" fill="#DBEAFE" stroke="none" /><text x="1220" y="487" font-family="Inter, Arial, sans-serif" font-size="11" font-weight="700" fill="#011E42" text-anchor="start">2006-2026</text><line x1="80" y1="516.0" x2="1320" y2="516.0" stroke="#E2E8F0" stroke-width="1" stroke-dasharray="4 6" /><line x1="80" y1="626.0" x2="1320" y2="626.0" stroke="#E2E8F0" stroke-width="1" stroke-dasharray="4 6" /><line x1="80" y1="736.0" x2="1320" y2="736.0" stroke="#E2E8F0" stroke-width="1" stroke-dasharray="4 6" /><text x="74" y="522" font-family="Inter, Arial, sans-serif" font-size="11" font-weight="500" fill="#64748B" text-anchor="end">125.4</text><text x="74" y="630.0" font-family="Inter, Arial, sans-serif" font-size="11" font-weight="500" fill="#64748B" text-anchor="end">58.7</text><text x="74" y="740" font-family="Inter, Arial, sans-serif" font-size="11" font-weight="500" fill="#64748B" text-anchor="end">-8.1</text><polygon points="80.0,736 80.0,713.8080535735899 85.10288065843622,713.4741359677657 90.20576131687243,711.3416362222507 95.30864197530865,717.323210229023 100.41152263374485,718.5522124138153 105.51440329218107,717.6321525161173 110.61728395061729,716.9447644540031 115.7201646090535,715.2784948238749 120.8230452674897,718.8084162128571 125.92592592592592,719.326969604506 131.02880658436214,718.9627843772896 136.13168724279836,718.3289454548188 141.23456790123458,716.4031602173201 146.33744855967078,714.5554644544139 151.440329218107,713.2849971112134 156.54320987654322,718.9539594790764 161.6460905349794,717.8926138836773 166.74897119341563,716.4450356445212 171.85185185185185,719.4260256268514 176.95473251028807,719.8354788252235 182.0576131687243,719.9698377357536 187.1604938271605,720.1470820926418 192.26337448559673,720.7229462450357 197.36625514403292,719.6243765830882 202.46913580246914,719.2266926617767 207.57201646090533,718.1730416658279 212.67489711934155,718.0676569590096 217.77777777777777,719.3316407371487 222.880658436214,720.3846656200801 227.9835390946502,720.569770990668 233.08641975308643,720.6571500052394 238.18930041152262,720.8275862068965 243.29218106995884,720.6724749451724 248.39506172839506,562.834326263799 253.49794238683128,562.297370092437 258.6008230452675,560.8284265703961 263.7037037037037,563.3495315984708 268.8065843621399,562.026381787856 273.90946502057614,558.9208546310394 279.01234567901236,560.0929760958696 284.1152263374486,561.752536430717 289.2181069958848,562.2926099858391 294.320987654321,562.5163086332844 299.42386831275724,562.154023164776 304.52674897119346,562.8264537164384 309.6296296296296,561.8046240907646 314.73251028806584,545.5554375411407 319.83539094650206,538.4183983234661 324.9382716049383,542.3522449919435 330.0411522633745,536.914188161889 335.14403292181066,552.1696756846432 340.24691358024694,557.8137055730881 345.3497942386831,557.4590372637358 350.4526748971193,557.2042521049781 355.55555555555554,560.1077045807704 360.65843621399176,557.6388635129877 365.761316872428,561.9627110369871 370.8641975308642,562.1077583557899 375.9670781893004,562.0542487601265 381.06995884773664,561.8588372397396 386.17283950617286,561.6765312534058 391.275720164609,560.9012616386404 396.37860082304525,558.9435314559291 401.48148148148147,554.3845471882565 406.5843621399177,560.596688961341 411.6872427983539,561.8039864440864 416.7901234567901,559.8763228675356 421.89300411522635,562.4059331466515 426.99588477366257,562.7999081721679 432.0987654320988,562.8495622297769 437.201646090535,562.7878390199252 442.30452674897117,562.5732634982093 447.4074074074074,562.619421208916 452.5102880658436,562.442484965539 457.61316872427983,562.4403034559733 462.71604938271605,562.5754598367675 467.81893004115227,562.9516120609449 472.9218106995885,562.7451694177914 478.0246913580247,563.1624424382173 483.12757201646093,561.8770851388643 488.2304526748971,563.0454103816102 493.3333333333333,563.349709546381 498.43621399176953,564.1572190385434 503.53909465020575,564.1319075959834 508.641975308642,564.2777177840678 513.7448559670781,559.9844525856353 518.8477366255145,560.6220251188886 523.9506172839506,561.253298625654 529.0534979423869,561.5066272478134 534.156378600823,557.7477989396808 539.2592592592592,538.3301691133238 544.3621399176955,545.5908837762529 549.4650205761317,555.314928064746 554.5679012345679,561.2068575164235 559.6707818930041,560.5061744386852 564.7736625514403,552.3027840168043 569.8765432098766,537.1258802683933 574.9794238683128,550.616491951447 580.082304526749,552.3107026988082 585.1851851851852,551.3579679399327 590.2880658436213,558.0690278709081 595.3909465020577,559.6074649948795 600.4938271604939,558.5612021325358 605.59670781893,558.7881549200056 610.6995884773662,560.7935998576379 615.8024691358024,562.1676411229039 620.9053497942386,561.7392167001053 626.0082304526749,560.7579130633137 631.1111111111111,560.3142114828913 636.2139917695473,559.4570512284515 641.3168724279835,557.6645539186899 646.4197530864197,557.7256147668759 651.522633744856,560.4891491076103 656.6255144032922,559.7251808328083 661.7283950617284,560.5504488673424 666.8312757201646,560.1505801411334 671.9341563786008,562.0361244359395 677.0370370370371,559.2144225482257 682.1399176954733,542.404734682455 687.2427983539095,543.7949280159032 692.3456790123457,531.1724137931035 697.448559670782,547.0677014933201 702.551440329218,553.923642328849 707.6543209876543,556.3425228731772 712.7572016460905,557.6080373328773 717.8600823045267,560.9466498894022 722.9629629629629,559.5878923724233 728.0658436213992,561.7238357395339 733.1687242798354,561.12879605215 738.2716049382716,562.81962084622 743.3744855967078,563.3033623541031 748.477366255144,562.636606363577 753.5802469135803,558.9282954899512 758.6831275720165,561.2733589571974 763.7860082304527,562.4372915228266 768.8888888888889,561.2595235071793 773.9917695473251,562.3056562039221 779.0946502057614,562.4517020082211 784.1975308641976,562.0097848498983 789.3004115226338,562.3800664407048 794.40329218107,562.4242403617461 799.5061728395061,562.8736576949507 804.6090534979423,563.3791549825215 809.7119341563786,562.9042597925076 814.8148148148148,562.7164258872966 819.917695473251,561.7937462009207 825.0205761316872,561.6081366445874 830.1234567901234,560.3143136381731 835.2263374485597,553.5789555791263 840.3292181069959,549.9550711028952 845.4320987654321,560.4827709931623 850.5349794238683,554.5894426731908 855.6378600823045,559.210560419508 860.7407407407408,561.9178335626342 865.843621399177,552.121751676161 870.9465020576132,535.9438876375447 876.0493827160494,537.3484140160932 881.1522633744856,547.6408865410662 886.2551440329219,544.3221810831619 891.358024691358,546.4098445459699 896.4609053497942,556.0638366738144 901.5637860082304,559.0878999364079 906.6666666666666,558.9631979953379 911.7695473251028,557.6634895265603 916.8724279835391,561.9044940600326 921.9753086419753,562.1104160407822 927.0781893004115,561.8847220700104 932.1810699588477,557.1732661012816 937.283950617284,545.019338156013 942.3868312757202,535.0677479203493 947.4897119341564,536.4307465291879 952.5925925925926,549.1394765144795 957.6954732510288,548.8722185253495 962.798353909465,554.171447975129 967.9012345679013,556.8219409059088 973.0041152263375,556.2968133275776 978.1069958847737,553.6645172182815 983.2098765432099,556.3414601287136 988.312757201646,543.1150615483266 993.4156378600823,553.7243818610712 998.5185185185185,548.4661479849369 1003.6213991769547,547.9576684222043 1008.7242798353909,552.1558567112835 1013.8271604938271,551.8789961256659 1018.9300411522634,556.3589995315291 1024.0329218106995,557.0004902141385 1029.1358024691358,557.0807842656186 1034.2386831275721,555.033544636411 1039.3415637860082,556.3114709628474 1044.4444444444443,549.8422158791801 1049.5473251028807,555.8575604449103 1054.650205761317,554.1697294596629 1059.7530864197531,554.2271324896948 1064.8559670781892,553.9769459662831 1069.9588477366256,550.0803299550174 1075.061728395062,544.8500536727745 1080.164609053498,559.5055090806642 1085.267489711934,559.1556371265581 1090.3703703703704,557.3789574088142 1095.4732510288065,557.1381856479848 1100.5761316872427,561.853965091865 1105.679012345679,562.1555950379828 1110.7818930041153,561.8495707670826 1115.8847736625514,559.3072586320433 1120.9876543209878,547.0427772522313 1126.0905349794239,546.2382121389164 1131.19341563786,556.9537541727235 1136.2962962962963,550.5971121058935 1141.3991769547324,554.3111107219825 1146.5020576131687,555.0502041856705 1151.6049382716049,555.4522511261135 1156.7078189300412,556.2037992958499 1161.8106995884773,559.398394324719 1166.9135802469136,561.4917438823243 1172.0164609053497,562.500949092369 1177.119341563786,561.7070031853617 1182.2222222222222,558.0598157712236 1187.3251028806585,548.9632520627433 1192.4279835390946,545.5997416277829 1197.530864197531,555.5598816014652 1202.633744855967,554.2032149724313 1207.7366255144034,558.9101349171158 1212.8395061728395,555.5792812190087 1217.9423868312758,558.7135667353126 1223.045267489712,558.2549142351019 1228.148148148148,557.3279341408961 1233.2510288065844,558.2241572569565 1238.3539094650205,558.5546477178434 1243.4567901234568,559.3843265538181 1248.559670781893,557.8607299560242 1253.6625514403293,558.4844884589154 1258.7654320987654,556.0602233426378 1263.8683127572017,552.2605642274436 1268.9711934156378,554.8964209426096 1274.0740740740741,558.8065807670404 1279.1769547325102,550.5406136444051 1284.2798353909466,557.2251230881124 1289.3827160493827,561.3407962721656 1294.485596707819,561.901040552442 1299.5884773662551,560.214005389793 1304.6913580246915,561.8669865949605 1309.7942386831276,561.4638208894153 1314.897119341564,561.3466438382146 1320.0,562.3986109196799 1320.0,736" fill="#87714D" opacity="0.1" /><polyline points="80.0,713.8080535735899 85.10288065843622,713.4741359677657 90.20576131687243,711.3416362222507 95.30864197530865,717.323210229023 100.41152263374485,718.5522124138153 105.51440329218107,717.6321525161173 110.61728395061729,716.9447644540031 115.7201646090535,715.2784948238749 120.8230452674897,718.8084162128571 125.92592592592592,719.326969604506 131.02880658436214,718.9627843772896 136.13168724279836,718.3289454548188 141.23456790123458,716.4031602173201 146.33744855967078,714.5554644544139 151.440329218107,713.2849971112134 156.54320987654322,718.9539594790764 161.6460905349794,717.8926138836773 166.74897119341563,716.4450356445212 171.85185185185185,719.4260256268514 176.95473251028807,719.8354788252235 182.0576131687243,719.9698377357536 187.1604938271605,720.1470820926418 192.26337448559673,720.7229462450357 197.36625514403292,719.6243765830882 202.46913580246914,719.2266926617767 207.57201646090533,718.1730416658279 212.67489711934155,718.0676569590096 217.77777777777777,719.3316407371487 222.880658436214,720.3846656200801 227.9835390946502,720.569770990668 233.08641975308643,720.6571500052394 238.18930041152262,720.8275862068965 243.29218106995884,720.6724749451724 248.39506172839506,562.834326263799 253.49794238683128,562.297370092437 258.6008230452675,560.8284265703961 263.7037037037037,563.3495315984708 268.8065843621399,562.026381787856 273.90946502057614,558.9208546310394 279.01234567901236,560.0929760958696 284.1152263374486,561.752536430717 289.2181069958848,562.2926099858391 294.320987654321,562.5163086332844 299.42386831275724,562.154023164776 304.52674897119346,562.8264537164384 309.6296296296296,561.8046240907646 314.73251028806584,545.5554375411407 319.83539094650206,538.4183983234661 324.9382716049383,542.3522449919435 330.0411522633745,536.914188161889 335.14403292181066,552.1696756846432 340.24691358024694,557.8137055730881 345.3497942386831,557.4590372637358 350.4526748971193,557.2042521049781 355.55555555555554,560.1077045807704 360.65843621399176,557.6388635129877 365.761316872428,561.9627110369871 370.8641975308642,562.1077583557899 375.9670781893004,562.0542487601265 381.06995884773664,561.8588372397396 386.17283950617286,561.6765312534058 391.275720164609,560.9012616386404 396.37860082304525,558.9435314559291 401.48148148148147,554.3845471882565 406.5843621399177,560.596688961341 411.6872427983539,561.8039864440864 416.7901234567901,559.8763228675356 421.89300411522635,562.4059331466515 426.99588477366257,562.7999081721679 432.0987654320988,562.8495622297769 437.201646090535,562.7878390199252 442.30452674897117,562.5732634982093 447.4074074074074,562.619421208916 452.5102880658436,562.442484965539 457.61316872427983,562.4403034559733 462.71604938271605,562.5754598367675 467.81893004115227,562.9516120609449 472.9218106995885,562.7451694177914 478.0246913580247,563.1624424382173 483.12757201646093,561.8770851388643 488.2304526748971,563.0454103816102 493.3333333333333,563.349709546381 498.43621399176953,564.1572190385434 503.53909465020575,564.1319075959834 508.641975308642,564.2777177840678 513.7448559670781,559.9844525856353 518.8477366255145,560.6220251188886 523.9506172839506,561.253298625654 529.0534979423869,561.5066272478134 534.156378600823,557.7477989396808 539.2592592592592,538.3301691133238 544.3621399176955,545.5908837762529 549.4650205761317,555.314928064746 554.5679012345679,561.2068575164235 559.6707818930041,560.5061744386852 564.7736625514403,552.3027840168043 569.8765432098766,537.1258802683933 574.9794238683128,550.616491951447 580.082304526749,552.3107026988082 585.1851851851852,551.3579679399327 590.2880658436213,558.0690278709081 595.3909465020577,559.6074649948795 600.4938271604939,558.5612021325358 605.59670781893,558.7881549200056 610.6995884773662,560.7935998576379 615.8024691358024,562.1676411229039 620.9053497942386,561.7392167001053 626.0082304526749,560.7579130633137 631.1111111111111,560.3142114828913 636.2139917695473,559.4570512284515 641.3168724279835,557.6645539186899 646.4197530864197,557.7256147668759 651.522633744856,560.4891491076103 656.6255144032922,559.7251808328083 661.7283950617284,560.5504488673424 666.8312757201646,560.1505801411334 671.9341563786008,562.0361244359395 677.0370370370371,559.2144225482257 682.1399176954733,542.404734682455 687.2427983539095,543.7949280159032 692.3456790123457,531.1724137931035 697.448559670782,547.0677014933201 702.551440329218,553.923642328849 707.6543209876543,556.3425228731772 712.7572016460905,557.6080373328773 717.8600823045267,560.9466498894022 722.9629629629629,559.5878923724233 728.0658436213992,561.7238357395339 733.1687242798354,561.12879605215 738.2716049382716,562.81962084622 743.3744855967078,563.3033623541031 748.477366255144,562.636606363577 753.5802469135803,558.9282954899512 758.6831275720165,561.2733589571974 763.7860082304527,562.4372915228266 768.8888888888889,561.2595235071793 773.9917695473251,562.3056562039221 779.0946502057614,562.4517020082211 784.1975308641976,562.0097848498983 789.3004115226338,562.3800664407048 794.40329218107,562.4242403617461 799.5061728395061,562.8736576949507 804.6090534979423,563.3791549825215 809.7119341563786,562.9042597925076 814.8148148148148,562.7164258872966 819.917695473251,561.7937462009207 825.0205761316872,561.6081366445874 830.1234567901234,560.3143136381731 835.2263374485597,553.5789555791263 840.3292181069959,549.9550711028952 845.4320987654321,560.4827709931623 850.5349794238683,554.5894426731908 855.6378600823045,559.210560419508 860.7407407407408,561.9178335626342 865.843621399177,552.121751676161 870.9465020576132,535.9438876375447 876.0493827160494,537.3484140160932 881.1522633744856,547.6408865410662 886.2551440329219,544.3221810831619 891.358024691358,546.4098445459699 896.4609053497942,556.0638366738144 901.5637860082304,559.0878999364079 906.6666666666666,558.9631979953379 911.7695473251028,557.6634895265603 916.8724279835391,561.9044940600326 921.9753086419753,562.1104160407822 927.0781893004115,561.8847220700104 932.1810699588477,557.1732661012816 937.283950617284,545.019338156013 942.3868312757202,535.0677479203493 947.4897119341564,536.4307465291879 952.5925925925926,549.1394765144795 957.6954732510288,548.8722185253495 962.798353909465,554.171447975129 967.9012345679013,556.8219409059088 973.0041152263375,556.2968133275776 978.1069958847737,553.6645172182815 983.2098765432099,556.3414601287136 988.312757201646,543.1150615483266 993.4156378600823,553.7243818610712 998.5185185185185,548.4661479849369 1003.6213991769547,547.9576684222043 1008.7242798353909,552.1558567112835 1013.8271604938271,551.8789961256659 1018.9300411522634,556.3589995315291 1024.0329218106995,557.0004902141385 1029.1358024691358,557.0807842656186 1034.2386831275721,555.033544636411 1039.3415637860082,556.3114709628474 1044.4444444444443,549.8422158791801 1049.5473251028807,555.8575604449103 1054.650205761317,554.1697294596629 1059.7530864197531,554.2271324896948 1064.8559670781892,553.9769459662831 1069.9588477366256,550.0803299550174 1075.061728395062,544.8500536727745 1080.164609053498,559.5055090806642 1085.267489711934,559.1556371265581 1090.3703703703704,557.3789574088142 1095.4732510288065,557.1381856479848 1100.5761316872427,561.853965091865 1105.679012345679,562.1555950379828 1110.7818930041153,561.8495707670826 1115.8847736625514,559.3072586320433 1120.9876543209878,547.0427772522313 1126.0905349794239,546.2382121389164 1131.19341563786,556.9537541727235 1136.2962962962963,550.5971121058935 1141.3991769547324,554.3111107219825 1146.5020576131687,555.0502041856705 1151.6049382716049,555.4522511261135 1156.7078189300412,556.2037992958499 1161.8106995884773,559.398394324719 1166.9135802469136,561.4917438823243 1172.0164609053497,562.500949092369 1177.119341563786,561.7070031853617 1182.2222222222222,558.0598157712236 1187.3251028806585,548.9632520627433 1192.4279835390946,545.5997416277829 1197.530864197531,555.5598816014652 1202.633744855967,554.2032149724313 1207.7366255144034,558.9101349171158 1212.8395061728395,555.5792812190087 1217.9423868312758,558.7135667353126 1223.045267489712,558.2549142351019 1228.148148148148,557.3279341408961 1233.2510288065844,558.2241572569565 1238.3539094650205,558.5546477178434 1243.4567901234568,559.3843265538181 1248.559670781893,557.8607299560242 1253.6625514403293,558.4844884589154 1258.7654320987654,556.0602233426378 1263.8683127572017,552.2605642274436 1268.9711934156378,554.8964209426096 1274.0740740740741,558.8065807670404 1279.1769547325102,550.5406136444051 1284.2798353909466,557.2251230881124 1289.3827160493827,561.3407962721656 1294.485596707819,561.901040552442 1299.5884773662551,560.214005389793 1304.6913580246915,561.8669865949605 1309.7942386831276,561.4638208894153 1314.897119341564,561.3466438382146 1320.0,562.3986109196799" stroke="#87714D" stroke-width="2" fill="none" opacity="0.4" /><polyline points="105.51440329218107,715.3552334870936 110.61728395061729,715.5823093395093 115.7201646090535,715.544332525055 120.8230452674897,715.9070084903664 125.92592592592592,716.2490046017803 131.02880658436214,716.4957118540993 136.13168724279836,716.6484813208259 141.23456790123458,716.8647402078035 146.33744855967078,716.9548509150242 151.440329218107,717.116797655771 156.54320987654322,717.2526934266089 161.6460905349794,717.1977268824306 166.74897119341563,717.0988004764642 171.85185185185185,717.3055722408683 176.95473251028807,717.6853209076473 182.0576131687243,717.7821060345555 187.1604938271605,717.8504487419001 192.26337448559673,717.9971288975456 197.36625514403292,718.1050814915681 202.46913580246914,718.3403758619394 207.57201646090533,718.6418406295572 212.67489711934155,719.0403956168736 217.77777777777777,719.0718690550462 222.880658436214,719.2795400330799 227.9835390946502,719.6232679785921 233.08641975308643,719.725861676791 238.18930041152262,719.8085372919305 243.29218106995884,719.8670903927155 248.39506172839506,706.7576940736452 253.49794238683128,693.5555627275953 258.6008230452675,680.3225668932043 263.7037037037037,667.3328034712622 268.8065843621399,654.3205818147645 273.90946502057614,641.0583482874337 279.01234567901236,627.788459567327 284.1152263374486,614.5691154682135 289.2181069958848,601.3793520511443 294.320987654321,588.2009486034815 299.42386831275724,574.9781516833048 304.52674897119346,561.8243165809104 309.6296296296296,561.7385080664908 314.73251028806584,560.3433470205493 319.83539094650206,558.4758446666385 324.9382716049383,556.7260707827613 330.0411522633745,554.6333879805974 335.14403292181066,554.0707897350643 340.24691358024694,553.8808505248326 345.3497942386831,553.5230589275841 350.4526748971193,553.0990291041791 355.55555555555554,552.8983120998029 360.65843621399176,552.5220487954872 365.761316872428,552.4500702388661 370.8641975308642,552.4753314276184 375.9670781893004,553.8502323625338 381.06995884773664,555.8036022722232 386.17283950617286,557.4139594606784 391.275720164609,559.4128822504077 396.37860082304525,559.9773702313482 401.48148148148147,559.6916070326122 406.5843621399177,559.9530780074126 411.6872427983539,560.3363892023384 416.7901234567901,560.3171073929021 421.89300411522635,560.7143631957074 426.99588477366257,560.7841296236392 432.0987654320988,560.845946613138 437.201646090535,560.9070791347881 442.30452674897117,560.9666146563271 447.4074074074074,561.0451888192863 452.5102880658436,561.1736240965279 457.61316872427983,561.4650217631983 462.71604938271605,562.1475978172408 467.81893004115227,562.3438414088745 472.9218106995885,562.4222733233498 478.0246913580247,562.6961166209067 483.12757201646093,562.6520459535911 488.2304526748971,562.6725044710446 493.3333333333333,562.7141834140949 498.43621399176953,562.8282984156465 503.53909465020575,562.9581854237944 508.641975308642,563.0963768050569 513.7448559670781,562.8915407733983 518.8477366255145,562.7400175786413 523.9506172839506,562.6298374777152 529.0534979423869,562.5094220766208 534.156378600823,562.0929745367782 539.2592592592592,560.0236184263705 544.3621399176955,558.6664349794862 549.4650205761317,558.0222281197475 554.5679012345679,557.843657117251 559.6707818930041,557.5394034005963 564.7736625514403,556.5536431023313 569.8765432098766,554.2909899760251 574.9794238683128,553.5103265898427 580.082304526749,552.8177163881694 585.1851851851852,551.9931054976926 590.2880658436213,551.7066388829505 595.3909465020577,551.8616110542171 600.4938271604939,553.5475304724847 605.59670781893,554.6473030677973 610.6995884773662,555.1038590505384 615.8024691358024,555.1839243510784 620.9053497942386,555.2866778728635 626.0082304526749,555.9912719600726 631.1111111111111,557.923632894614 636.2139917695473,558.6603461676978 641.3168724279835,559.1065004360213 646.4197530864197,559.6371376715999 651.522633744856,559.838814441325 656.6255144032922,559.8486240944858 661.7283950617284,560.0143946557197 666.8312757201646,560.1279300908136 671.9341563786008,560.2314738056722 677.0370370370371,559.9853722577823 682.1399176954733,558.3741654229781 687.2427983539095,556.9605833356939 692.3456790123457,554.5321001948782 697.448559670782,553.4996543836173 702.551440329218,553.1879117511305 707.6543209876543,553.0726540933224 712.7572016460905,552.8325614454279 717.8600823045267,552.9343505334774 722.9629629629629,552.8541374922341 728.0658436213992,552.9852421254342 733.1687242798354,552.909631426785 738.2716049382716,553.2100646182846 743.3744855967078,554.9516169242552 748.477366255144,556.5217567865614 753.5802469135803,558.8347469279654 758.6831275720165,560.0185517166219 763.7860082304527,560.7280224827866 768.8888888888889,561.1377725356201 773.9917695473251,561.5292407748739 779.0946502057614,561.6546617847754 784.1975308641976,561.8564861578984 789.3004115226338,561.9111720496626 794.40329218107,562.019125742129 799.5061728395061,562.0236288128565 804.6090534979423,562.0299448652247 809.7119341563786,562.0522493176355 814.8148148148148,562.3679268507476 819.917695473251,562.4112924543913 825.0205761316872,562.342196214538 830.1234567901234,562.2634287254541 835.2263374485597,561.5362036733878 840.3292181069959,560.4948177646106 845.4320987654321,560.3675666098827 850.5349794238683,559.7183479625899 855.6378600823045,559.4505413007366 860.7407407407408,559.3708892897102 865.843621399177,558.4327723475136 870.9465020576132,556.1860746679333 876.0493827160494,554.0720736786664 881.1522633744856,552.8926687070118 886.2551440329219,551.4521724102264 891.358024691358,550.2934666525427 896.4609053497942,550.5005400771001 901.5637860082304,551.2616091465595 906.6666666666666,551.1349780634075 911.7695473251028,551.3911486345216 916.8724279835391,551.6156431045654 921.9753086419753,551.631691644411 927.0781893004115,552.4452725105651 932.1810699588477,554.2143873825432 937.283950617284,554.8536310608698 942.3868312757202,553.8058695091435 947.4897119341564,553.148249962979 952.5925925925926,553.3757192936881 957.6954732510288,552.776417781316 962.798353909465,552.3667134512094 967.9012345679013,552.1882753604236 973.0041152263375,552.0743856771751 978.1069958847737,551.3877209403624 983.2098765432099,550.9069746143568 988.312757201646,549.3428362375498 993.4156378600823,549.0554292175323 998.5185185185185,549.3426633699426 1003.6213991769547,550.4168234117639 1008.7242798353909,551.7272492602718 1013.8271604938271,551.955542561204 1018.9300411522634,552.5794409783857 1024.0329218106995,552.8151944983031 1029.1358024691358,552.836764778279 1034.2386831275721,552.7314923873485 1039.3415637860082,552.9520718660622 1044.4444444444443,552.4104681786011 1049.5473251028807,553.4723430866497 1054.650205761317,553.5094553865324 1059.7530864197531,553.9895374285956 1064.8559670781892,554.4911438906022 1069.9588477366256,554.31818332758 1075.061728395062,553.7324381231723 1080.164609053498,553.994647252267 1085.267489711934,554.1742428283019 1090.3703703703704,554.1990905902348 1095.4732510288065,554.3744773411993 1100.5761316872427,554.8363518519508 1105.679012345679,555.862466781851 1110.7818930041153,556.3618009753653 1115.8847736625514,556.7899284063972 1120.9876543209878,556.1912321366085 1126.0905349794239,555.5463376509946 1131.19341563786,556.1191230024701 1136.2962962962963,556.5980445385633 1141.3991769547324,556.1651780086731 1146.5020576131687,555.8230585969326 1151.6049382716049,555.6624997400409 1156.7078189300412,555.5846342106962 1161.8106995884773,555.380003313434 1166.9135802469136,555.3246823837959 1172.0164609053497,555.378963910903 1177.119341563786,555.5789426236796 1182.2222222222222,556.497029166929 1187.3251028806585,556.7241158272478 1192.4279835390946,555.7779481151695 1197.530864197531,556.1915122398004 1202.633744855967,556.1825209273378 1207.7366255144034,556.5041818216249 1212.8395061728395,556.5147676626996 1217.9423868312758,556.7239149493214 1223.045267489712,556.6286249418533 1228.148148148148,556.2816407967343 1233.2510288065844,555.9252414771166 1238.3539094650205,555.6625451881567 1243.4567901234568,555.7729210867062 1248.559670781893,556.5143775778131 1253.6625514403293,557.5881064804074 1258.7654320987654,557.6298016255051 1263.8683127572017,557.4679140634228 1268.9711934156378,557.1334378988806 1274.0740740740741,557.4023795278833 1279.1769547325102,556.7213001036409 1284.2798353909466,556.6354841747252 1289.3827160493827,556.9698893523309 1294.485596707819,557.2762962936215 1299.5884773662551,557.4145760996173 1304.6913580246915,557.6214644363791 1309.7942386831276,557.9217220141618 1314.897119341564,558.1602349624367 1320.0,558.6884339271901" stroke="#87714D" stroke-width="4" fill="none" opacity="1.0" /><line x1="80.0" y1="736" x2="1320.0" y2="736" stroke="#E2E8F0" stroke-width="2" /><line x1="80.0" y1="730" x2="80.0" y2="742" stroke="#E2E8F0" stroke-width="1" /><text x="80.0" y="758" font-family="Inter, Arial, sans-serif" font-size="11" font-weight="500" fill="#64748B" text-anchor="middle">2006</text><line x1="141.23456790123458" y1="730" x2="141.23456790123458" y2="742" stroke="#E2E8F0" stroke-width="1" /><text x="141.23456790123458" y="758" font-family="Inter, Arial, sans-serif" font-size="11" font-weight="500" fill="#64748B" text-anchor="middle">2007</text><line x1="202.46913580246914" y1="730" x2="202.46913580246914" y2="742" stroke="#E2E8F0" stroke-width="1" /><text x="202.46913580246914" y="758" font-family="Inter, Arial, sans-serif" font-size="11" font-weight="500" fill="#64748B" text-anchor="middle">2008</text><line x1="263.7037037037037" y1="730" x2="263.7037037037037" y2="742" stroke="#E2E8F0" stroke-width="1" /><text x="263.7037037037037" y="758" font-family="Inter, Arial, sans-serif" font-size="11" font-weight="500" fill="#64748B" text-anchor="middle">2009</text><line x1="324.9382716049383" y1="730" x2="324.9382716049383" y2="742" stroke="#E2E8F0" stroke-width="1" /><text x="324.9382716049383" y="758" font-family="Inter, Arial, sans-serif" font-size="11" font-weight="500" fill="#64748B" text-anchor="middle">2010</text><line x1="386.17283950617286" y1="730" x2="386.17283950617286" y2="742" stroke="#E2E8F0" stroke-width="1" /><text x="386.17283950617286" y="758" font-family="Inter, Arial, sans-serif" font-size="11" font-weight="500" fill="#64748B" text-anchor="middle">2011</text><line x1="447.4074074074074" y1="730" x2="447.4074074074074" y2="742" stroke="#E2E8F0" stroke-width="1" /><text x="447.4074074074074" y="758" font-family="Inter, Arial, sans-serif" font-size="11" font-weight="500" fill="#64748B" text-anchor="middle">2012</text><line x1="508.641975308642" y1="730" x2="508.641975308642" y2="742" stroke="#E2E8F0" stroke-width="1" /><text x="508.641975308642" y="758" font-family="Inter, Arial, sans-serif" font-size="11" font-weight="500" fill="#64748B" text-anchor="middle">2013</text><line x1="569.8765432098766" y1="730" x2="569.8765432098766" y2="742" stroke="#E2E8F0" stroke-width="1" /><text x="569.8765432098766" y="758" font-family="Inter, Arial, sans-serif" font-size="11" font-weight="500" fill="#64748B" text-anchor="middle">2014</text><line x1="631.1111111111111" y1="730" x2="631.1111111111111" y2="742" stroke="#E2E8F0" stroke-width="1" /><text x="631.1111111111111" y="758" font-family="Inter, Arial, sans-serif" font-size="11" font-weight="500" fill="#64748B" text-anchor="middle">2015</text><line x1="692.3456790123457" y1="730" x2="692.3456790123457" y2="742" stroke="#E2E8F0" stroke-width="1" /><text x="692.3456790123457" y="758" font-family="Inter, Arial, sans-serif" font-size="11" font-weight="500" fill="#64748B" text-anchor="middle">2016</text><line x1="753.5802469135803" y1="730" x2="753.5802469135803" y2="742" stroke="#E2E8F0" stroke-width="1" /><text x="753.5802469135803" y="758" font-family="Inter, Arial, sans-serif" font-size="11" font-weight="500" fill="#64748B" text-anchor="middle">2017</text><line x1="814.8148148148148" y1="730" x2="814.8148148148148" y2="742" stroke="#E2E8F0" stroke-width="1" /><text x="814.8148148148148" y="758" font-family="Inter, Arial, sans-serif" font-size="11" font-weight="500" fill="#64748B" text-anchor="middle">2018</text><line x1="876.0493827160494" y1="730" x2="876.0493827160494" y2="742" stroke="#E2E8F0" stroke-width="1" /><text x="876.0493827160494" y="758" font-family="Inter, Arial, sans-serif" font-size="11" font-weight="500" fill="#64748B" text-anchor="middle">2019</text><line x1="937.283950617284" y1="730" x2="937.283950617284" y2="742" stroke="#E2E8F0" stroke-width="1" /><text x="937.283950617284" y="758" font-family="Inter, Arial, sans-serif" font-size="11" font-weight="500" fill="#64748B" text-anchor="middle">2020</text><line x1="998.5185185185185" y1="730" x2="998.5185185185185" y2="742" stroke="#E2E8F0" stroke-width="1" /><text x="998.5185185185185" y="758" font-family="Inter, Arial, sans-serif" font-size="11" font-weight="500" fill="#64748B" text-anchor="middle">2021</text><line x1="1059.7530864197531" y1="730" x2="1059.7530864197531" y2="742" stroke="#E2E8F0" stroke-width="1" /><text x="1059.7530864197531" y="758" font-family="Inter, Arial, sans-serif" font-size="11" font-weight="500" fill="#64748B" text-anchor="middle">2022</text><line x1="1120.9876543209878" y1="730" x2="1120.9876543209878" y2="742" stroke="#E2E8F0" stroke-width="1" /><text x="1120.9876543209878" y="758" font-family="Inter, Arial, sans-serif" font-size="11" font-weight="500" fill="#64748B" text-anchor="middle">2023</text><line x1="1182.2222222222222" y1="730" x2="1182.2222222222222" y2="742" stroke="#E2E8F0" stroke-width="1" /><text x="1182.2222222222222" y="758" font-family="Inter, Arial, sans-serif" font-size="11" font-weight="500" fill="#64748B" text-anchor="middle">2024</text><line x1="1243.4567901234568" y1="730" x2="1243.4567901234568" y2="742" stroke="#E2E8F0" stroke-width="1" /><text x="1243.4567901234568" y="758" font-family="Inter, Arial, sans-serif" font-size="11" font-weight="500" fill="#64748B" text-anchor="middle">2025</text><line x1="1304.6913580246915" y1="730" x2="1304.6913580246915" y2="742" stroke="#E2E8F0" stroke-width="1" /><text x="1304.6913580246915" y="758" font-family="Inter, Arial, sans-serif" font-size="11" font-weight="500" fill="#64748B" text-anchor="middle">2026</text><line x1="1320.0" y1="730" x2="1320.0" y2="742" stroke="#E2E8F0" stroke-width="1" /><text x="1320.0" y="758" font-family="Inter, Arial, sans-serif" font-size="11" font-weight="500" fill="#64748B" text-anchor="middle">2026</text></svg>