<svg xmlns="http://www.w3.org/2000/svg" width="1400" height="980" viewBox="0 0 1400 980" role="img" aria-label="Savannah River analytical figure"><rect x="0" y="0" width="1400" height="980" rx="12" fill="#F8FAFC" stroke="none" /><text x="70" y="70" font-family="Inter, Arial, sans-serif" font-size="30" font-weight="700" fill="#011E42" text-anchor="start">Reservoir behavior upstream of Augusta: cascade outflow</text><text x="70" y="98" font-family="Inter, Arial, sans-serif" font-size="14" font-weight="400" fill="#64748B" text-anchor="start">Hartwell, Russell, and Thurmond appear here as operational context for the river. Each panel shows monthly outflow plus a 12-month mean.</text><line x1="70" y1="123" x2="94" y2="123" stroke="#64748B" stroke-width="2"  opacity="0.35" /><text x="100" y="128" font-family="Inter, Arial, sans-serif" font-size="11" font-weight="500" fill="#64748B" text-anchor="start">Monthly</text><line x1="149.6" y1="123" x2="173.6" y2="123" stroke="#011E42" stroke-width="4" /><text x="179.6" y="128" font-family="Inter, Arial, sans-serif" font-size="11" font-weight="500" fill="#64748B" text-anchor="start">12-month mean</text><rect x="62" y="136" width="1276" height="249" rx="18" fill="#FFFFFF" stroke="#E2E8F0" /><text x="80" y="162" font-family="Inter, Arial, sans-serif" font-size="17" font-weight="700" fill="#011E42" text-anchor="start">Hartwell</text><rect x="1170" y="142" width="72" height="24" rx="12" fill="#DBEAFE" stroke="none" /><text x="1180" y="159" font-family="Inter, Arial, sans-serif" font-size="11" font-weight="700" fill="#011E42" text-anchor="start">2023-2026</text><line x1="80" y1="184.0" x2="1320" y2="184.0" stroke="#E2E8F0" stroke-width="1" stroke-dasharray="4 6" /><line x1="80" y1="266.5" x2="1320" y2="266.5" stroke="#E2E8F0" stroke-width="1" stroke-dasharray="4 6" /><line x1="80" y1="349.0" x2="1320" y2="349.0" stroke="#E2E8F0" stroke-width="1" stroke-dasharray="4 6" /><text x="74" y="190" font-family="Inter, Arial, sans-serif" font-size="11" font-weight="500" fill="#64748B" text-anchor="end">6,766</text><text x="74" y="270.5" font-family="Inter, Arial, sans-serif" font-size="11" font-weight="500" fill="#64748B" text-anchor="end">4,048</text><text x="74" y="353" font-family="Inter, Arial, sans-serif" font-size="11" font-weight="500" fill="#64748B" text-anchor="end">1,331</text><polygon points="80.0,349 80.0,229.4863166929636 111.7948717948718,293.6277241718522 143.5897435897436,296.1963678198761 175.3846153846154,287.4482350560976 207.17948717948718,263.21978540313506 238.97435897435898,272.0090485238727 270.7692307692308,284.6297376940412 302.56410256410254,277.10761288688946 334.35897435897436,307.40718500588144 366.15384615384613,323.11650175163834 397.94871794871796,334.6465869005318 429.7435897435897,336.6792112845731 461.53846153846155,281.0831012375221 493.3333333333333,246.6975422135064 525.1282051282051,195.3793103448276 556.9230769230769,275.55629779521627 588.7179487179487,257.4323962615368 620.5128205128206,288.6481225663174 652.3076923076923,282.78499783628104 684.1025641025641,310.79708900903535 715.8974358974359,308.6955412776358 747.6923076923077,295.3413837370504 779.4871794871794,306.55267397469345 811.2820512820513,305.0995355092956 843.0769230769231,286.5484758449707 874.8717948717949,298.7949941928674 906.6666666666666,308.30223789508443 938.4615384615385,292.57156776900973 970.2564102564103,266.6463283074919 1002.0512820512821,306.9082072970787 1033.8461538461538,290.71723282240777 1065.6410256410256,329.5845294165418 1097.4358974358975,292.5222858547157 1129.2307692307693,316.3332425296095 1161.025641025641,327.0130949976039 1192.820512820513,306.99533886734156 1224.6153846153845,313.6427595038647 1256.4102564102564,309.78861920445905 1288.2051282051282,337.62068965517244 1320.0,291.5866629059338 1320.0,349" fill="#0F7B5F" opacity="0.1" /><polyline points="80.0,229.4863166929636 111.7948717948718,293.6277241718522 143.5897435897436,296.1963678198761 175.3846153846154,287.4482350560976 207.17948717948718,263.21978540313506 238.97435897435898,272.0090485238727 270.7692307692308,284.6297376940412 302.56410256410254,277.10761288688946 334.35897435897436,307.40718500588144 366.15384615384613,323.11650175163834 397.94871794871796,334.6465869005318 429.7435897435897,336.6792112845731 461.53846153846155,281.0831012375221 493.3333333333333,246.6975422135064 525.1282051282051,195.3793103448276 556.9230769230769,275.55629779521627 588.7179487179487,257.4323962615368 620.5128205128206,288.6481225663174 652.3076923076923,282.78499783628104 684.1025641025641,310.79708900903535 715.8974358974359,308.6955412776358 747.6923076923077,295.3413837370504 779.4871794871794,306.55267397469345 811.2820512820513,305.0995355092956 843.0769230769231,286.5484758449707 874.8717948717949,298.7949941928674 906.6666666666666,308.30223789508443 938.4615384615385,292.57156776900973 970.2564102564103,266.6463283074919 1002.0512820512821,306.9082072970787 1033.8461538461538,290.71723282240777 1065.6410256410256,329.5845294165418 1097.4358974358975,292.5222858547157 1129.2307692307693,316.3332425296095 1161.025641025641,327.0130949976039 1192.820512820513,306.99533886734156 1224.6153846153845,313.6427595038647 1256.4102564102564,309.78861920445905 1288.2051282051282,337.62068965517244 1320.0,291.5866629059338" stroke="#0F7B5F" stroke-width="2" fill="none" opacity="0.4" /><polyline points="238.97435897435898,273.6645796112996 270.7692307692308,275.2310307659769 302.56410256410254,275.465603531091 334.35897435897436,279.014668139401 366.15384615384613,283.42485150062475 397.94871794871796,288.0813729006163 429.7435897435897,292.131192765946 461.53846153846155,296.4309248113259 493.3333333333333,292.5200763147971 525.1282051282051,284.1186548585431 556.9230769230769,283.12766008680296 588.7179487179487,282.64537765833643 620.5128205128206,284.03196716187347 652.3076923076923,283.87823884039346 684.1025641025641,286.68569518390564 715.8974358974359,286.79305820655185 747.6923076923077,284.47846503866947 779.4871794871794,282.13730562818296 811.2820512820513,279.5056659802432 843.0769230769231,279.9611138641972 874.8717948717949,284.30256819581064 906.6666666666666,293.71281215833204 938.4615384615385,295.13075132281483 970.2564102564103,295.8985789933111 1002.0512820512821,297.42025272087454 1033.8461538461538,298.0812723030518 1065.6410256410256,299.6468923370106 1097.4358974358975,298.2991210517673 1129.2307692307693,300.0484426178139 1161.025641025641,301.75347770305643 1192.820512820513,301.9114613162269 1224.6153846153845,304.16931828780145 1256.4102564102564,305.085453705434 1288.2051282051282,307.5286580187747 1320.0,307.4465826135184" stroke="#0F7B5F" stroke-width="4" fill="none" opacity="1.0" /><line x1="80.0" y1="349" x2="1320.0" y2="349" stroke="#E2E8F0" stroke-width="2" /><line x1="80.0" y1="343" x2="80.0" y2="355" stroke="#E2E8F0" stroke-width="1" /><text x="80.0" y="371" font-family="Inter, Arial, sans-serif" font-size="11" font-weight="500" fill="#64748B" text-anchor="middle">2023</text><line x1="461.53846153846155" y1="343" x2="461.53846153846155" y2="355" stroke="#E2E8F0" stroke-width="1" /><text x="461.53846153846155" y="371" font-family="Inter, Arial, sans-serif" font-size="11" font-weight="500" fill="#64748B" text-anchor="middle">2024</text><line x1="843.0769230769231" y1="343" x2="843.0769230769231" y2="355" stroke="#E2E8F0" stroke-width="1" /><text x="843.0769230769231" y="371" font-family="Inter, Arial, sans-serif" font-size="11" font-weight="500" fill="#64748B" text-anchor="middle">2025</text><line x1="1224.6153846153845" y1="343" x2="1224.6153846153845" y2="355" stroke="#E2E8F0" stroke-width="1" /><text x="1224.6153846153845" y="371" font-family="Inter, Arial, sans-serif" font-size="11" font-weight="500" fill="#64748B" text-anchor="middle">2026</text><line x1="1320.0" y1="343" x2="1320.0" y2="355" stroke="#E2E8F0" stroke-width="1" /><text x="1320.0" y="371" font-family="Inter, Arial, sans-serif" font-size="11" font-weight="500" fill="#64748B" text-anchor="middle">2026</text><rect x="62" y="391" width="1276" height="249" rx="18" fill="#FFFFFF" stroke="#E2E8F0" /><text x="80" y="417" font-family="Inter, Arial, sans-serif" font-size="17" font-weight="700" fill="#011E42" text-anchor="start">Russell</text><rect x="1170" y="397" width="72" height="24" rx="12" fill="#DBEAFE" stroke="none" /><text x="1180" y="414" font-family="Inter, Arial, sans-serif" font-size="11" font-weight="700" fill="#011E42" text-anchor="start">2023-2026</text><line x1="80" y1="439.0" x2="1320" y2="439.0" stroke="#E2E8F0" stroke-width="1" stroke-dasharray="4 6" /><line x1="80" y1="521.5" x2="1320" y2="521.5" stroke="#E2E8F0" stroke-width="1" stroke-dasharray="4 6" /><line x1="80" y1="604.0" x2="1320" y2="604.0" stroke="#E2E8F0" stroke-width="1" stroke-dasharray="4 6" /><text x="74" y="445" font-family="Inter, Arial, sans-serif" font-size="11" font-weight="500" fill="#64748B" text-anchor="end">8,727</text><text x="74" y="525.5" font-family="Inter, Arial, sans-serif" font-size="11" font-weight="500" fill="#64748B" text-anchor="end">5,050</text><text x="74" y="608" font-family="Inter, Arial, sans-serif" font-size="11" font-weight="500" fill="#64748B" text-anchor="end">1,373</text><polygon points="80.0,604 80.0,460.0446281293164 111.7948717948718,543.624703605095 143.5897435897436,562.3674820111962 175.3846153846154,530.5568857556513 207.17948717948718,530.3704804825486 238.97435897435898,522.041261740148 270.7692307692308,510.4681715949729 302.56410256410254,475.5589477877088 334.35897435897436,512.1465685671371 366.15384615384613,592.6206896551724 397.94871794871796,522.7763459242432 429.7435897435897,504.1599316834799 461.53846153846155,489.25748083834276 493.3333333333333,496.5608092340051 525.1282051282051,465.58501042435483 556.9230769230769,538.7095879259573 588.7179487179487,525.7766678308061 620.5128205128206,515.9396044810476 652.3076923076923,497.7360437710195 684.1025641025641,450.3793103448276 715.8974358974359,471.0655740830001 747.6923076923077,487.8137659654078 779.4871794871794,505.0215925643131 811.2820512820513,517.1248730939583 843.0769230769231,470.8970869211696 874.8717948717949,499.1071546911518 906.6666666666666,538.5194290907441 938.4615384615385,555.8446391916932 970.2564102564103,542.8947607422488 1002.0512820512821,510.8356257530512 1033.8461538461538,468.36386379707403 1065.6410256410256,499.1309020908661 1097.4358974358975,489.22750708983426 1129.2307692307693,469.5335476565408 1161.025641025641,478.7305343040349 1192.820512820513,531.841834624271 1224.6153846153845,506.59905451082 1256.4102564102564,490.40600608850974 1288.2051282051282,519.4933805910589 1320.0,550.604853751738 1320.0,604" fill="#6D28D9" opacity="0.1" /><polyline points="80.0,460.0446281293164 111.7948717948718,543.624703605095 143.5897435897436,562.3674820111962 175.3846153846154,530.5568857556513 207.17948717948718,530.3704804825486 238.97435897435898,522.041261740148 270.7692307692308,510.4681715949729 302.56410256410254,475.5589477877088 334.35897435897436,512.1465685671371 366.15384615384613,592.6206896551724 397.94871794871796,522.7763459242432 429.7435897435897,504.1599316834799 461.53846153846155,489.25748083834276 493.3333333333333,496.5608092340051 525.1282051282051,465.58501042435483 556.9230769230769,538.7095879259573 588.7179487179487,525.7766678308061 620.5128205128206,515.9396044810476 652.3076923076923,497.7360437710195 684.1025641025641,450.3793103448276 715.8974358974359,471.0655740830001 747.6923076923077,487.8137659654078 779.4871794871794,505.0215925643131 811.2820512820513,517.1248730939583 843.0769230769231,470.8970869211696 874.8717948717949,499.1071546911518 906.6666666666666,538.5194290907441 938.4615384615385,555.8446391916932 970.2564102564103,542.8947607422488 1002.0512820512821,510.8356257530512 1033.8461538461538,468.36386379707403 1065.6410256410256,499.1309020908661 1097.4358974358975,489.22750708983426 1129.2307692307693,469.5335476565408 1161.025641025641,478.7305343040349 1192.820512820513,531.841834624271 1224.6153846153845,506.59905451082 1256.4102564102564,490.40600608850974 1288.2051282051282,519.4933805910589 1320.0,550.604853751738" stroke="#6D28D9" stroke-width="2" fill="none" opacity="0.4" /><polyline points="238.97435897435898,524.8342402873259 270.7692307692308,522.7819447598469 302.56410256410254,516.8790701383296 334.35897435897436,516.3532366304194 366.15384615384613,523.9799819328946 397.94871794871796,523.8705604775627 429.7435897435897,522.2280080780558 461.53846153846155,524.6624124704747 493.3333333333333,520.7404212728839 525.1282051282051,512.6752153073137 556.9230769230769,513.3546071548392 588.7179487179487,512.9717894338607 620.5128205128206,512.4633179956023 652.3076923076923,511.40230734360625 684.1025641025641,509.3040042233662 715.8974358974359,505.8805880163547 747.6923076923077,497.14667770887434 779.4871794871794,495.66711492888015 811.2820512820513,496.7475267130867 843.0769230769231,495.2174938866556 874.8717948717949,495.42968934141777 906.6666666666666,501.50755756361696 938.4615384615385,502.9354785024283 970.2564102564103,504.36198624504846 1002.0512820512821,503.9366546843821 1033.8461538461538,501.48897301988666 1065.6410256410256,505.55160566538984 1097.4358974358975,507.06510008262603 1129.2307692307693,505.5417485568871 1161.025641025641,503.3508270351972 1192.820512820513,504.5772404960567 1224.6153846153845,507.5524044618609 1256.4102564102564,506.82730874497395 1288.2051282051282,505.24180470333357 1320.0,504.8051559166706" stroke="#6D28D9" stroke-width="4" fill="none" opacity="1.0" /><line x1="80.0" y1="604" x2="1320.0" y2="604" stroke="#E2E8F0" stroke-width="2" /><line x1="80.0" y1="598" x2="80.0" y2="610" stroke="#E2E8F0" stroke-width="1" /><text x="80.0" y="626" font-family="Inter, Arial, sans-serif" font-size="11" font-weight="500" fill="#64748B" text-anchor="middle">2023</text><line x1="461.53846153846155" y1="598" x2="461.53846153846155" y2="610" stroke="#E2E8F0" stroke-width="1" /><text x="461.53846153846155" y="626" font-family="Inter, Arial, sans-serif" font-size="11" font-weight="500" fill="#64748B" text-anchor="middle">2024</text><line x1="843.0769230769231" y1="598" x2="843.0769230769231" y2="610" stroke="#E2E8F0" stroke-width="1" /><text x="843.0769230769231" y="626" font-family="Inter, Arial, sans-serif" font-size="11" font-weight="500" fill="#64748B" text-anchor="middle">2025</text><line x1="1224.6153846153845" y1="598" x2="1224.6153846153845" y2="610" stroke="#E2E8F0" stroke-width="1" /><text x="1224.6153846153845" y="626" font-family="Inter, Arial, sans-serif" font-size="11" font-weight="500" fill="#64748B" text-anchor="middle">2026</text><line x1="1320.0" y1="598" x2="1320.0" y2="610" stroke="#E2E8F0" stroke-width="1" /><text x="1320.0" y="626" font-family="Inter, Arial, sans-serif" font-size="11" font-weight="500" fill="#64748B" text-anchor="middle">2026</text><rect x="62" y="646" width="1276" height="249" rx="18" fill="#FFFFFF" stroke="#E2E8F0" /><text x="80" y="672" font-family="Inter, Arial, sans-serif" font-size="17" font-weight="700" fill="#011E42" text-anchor="start">Thurmond</text><rect x="1170" y="652" width="72" height="24" rx="12" fill="#DBEAFE" stroke="none" /><text x="1180" y="669" font-family="Inter, Arial, sans-serif" font-size="11" font-weight="700" fill="#011E42" text-anchor="start">2006-2026</text><line x1="80" y1="694.0" x2="1320" y2="694.0" stroke="#E2E8F0" stroke-width="1" stroke-dasharray="4 6" /><line x1="80" y1="776.5" x2="1320" y2="776.5" stroke="#E2E8F0" stroke-width="1" stroke-dasharray="4 6" /><line x1="80" y1="859.0" x2="1320" y2="859.0" stroke="#E2E8F0" stroke-width="1" stroke-dasharray="4 6" /><text x="74" y="700" font-family="Inter, Arial, sans-serif" font-size="11" font-weight="500" fill="#64748B" text-anchor="end">35,934</text><text x="74" y="780.5" font-family="Inter, Arial, sans-serif" font-size="11" font-weight="500" fill="#64748B" text-anchor="end">16,636</text><text x="74" y="863" font-family="Inter, Arial, sans-serif" font-size="11" font-weight="500" fill="#64748B" text-anchor="end">-2,662</text><polygon points="80.0,859 80.0,847.2335436986317 85.14522821576763,847.6206896551724 90.29045643153528,836.2366582549795 95.4356846473029,847.2043562729277 100.58091286307054,844.9213378436151 105.72614107883817,841.2737780328232 110.87136929460581,846.5403757939067 116.01659751037344,847.6014048856507 121.16182572614107,847.6206896551724 126.30705394190872,847.6206896551724 131.45228215767634,847.6206896551724 136.59751037344398,847.5773756786164 141.74273858921163,847.2221207668138 146.88796680497927,847.5085373910879 152.0331950207469,847.5801701260965 157.1784232365145,847.0325990531624 162.32365145228215,847.5193425689158 167.4688796680498,847.5578843883111 172.61410788381744,847.1850813403756 177.75933609958506,847.6206896551724 182.9045643153527,847.5997545662186 188.04979253112032,847.6206896551724 193.19502074688796,847.6206896551724 198.3402489626556,847.6206896551724 203.48547717842325,846.2825302777749 208.63070539419087,847.6206896551724 213.7759336099585,846.7332110657278 218.92116182572613,847.6206896551724 224.06639004149378,847.5396506012958 229.21161825726142,847.6065989765546 234.35684647302904,847.6044236468164 239.50207468879668,847.6206896551724 244.64730290456433,847.6206896551724 249.79253112033194,847.6206896551724 254.9377593360996,847.6206896551724 260.08298755186723,846.7711476143799 265.2282157676349,847.0987597526463 270.37344398340247,846.1874675657806 275.5186721991701,847.6206896551724 280.66390041493776,847.3871432107861 285.8091286307054,847.2331753060474 290.95435684647305,847.6206896551724 296.09958506224064,847.6206896551724 301.24481327800834,847.6206896551724 306.3900414937759,847.6206896551724 311.53526970954357,846.7105158859964 316.6804979253112,797.9432727687307 321.8257261410788,769.1826687812843 326.9709543568465,798.481736569235 332.1161825726141,767.4596309479068 337.26141078838174,844.9666785650714 342.4066390041494,846.6961299486653 347.551867219917,844.0190054045622 352.6970954356847,843.4375237155816 357.84232365145226,847.2088351379143 362.9875518672199,847.5369255811884 368.13278008298755,847.6206896551724 373.2780082987552,847.6206896551724 378.42323651452284,847.5440580296197 383.56846473029043,845.6430865737495 388.7136929460581,847.4511632471923 393.8589211618257,847.6206896551724 399.00414937759336,843.8931124416551 404.149377593361,837.8478435632742 409.29460580912865,847.600429892772 414.43983402489624,847.5578345108999 419.5850622406639,847.6206896551724 424.73029045643153,846.3496408283655 429.8755186721992,847.6206896551724 435.0207468879668,847.6206896551724 440.16597510373447,847.6206896551724 445.31120331950206,847.600429892772 450.4564315352697,847.6206896551724 455.60165975103735,847.5982592015005 460.746887966805,846.4250824627633 465.89211618257264,847.5577333367494 471.0373443983402,847.6206896551724 476.18257261410787,847.5997545662186 481.3278008298755,847.6206896551724 486.47302904564316,847.6206896551724 491.6182572614108,847.6206896551724 496.76348547717845,847.6206896551724 501.90871369294604,846.7229189536198 507.0539419087137,847.6206896551724 512.1991701244813,845.9961699435388 517.344398340249,847.0898035488784 522.4896265560167,846.7175766669106 527.6348547717841,847.6206896551724 532.7800829875519,847.2145723013564 537.9253112033196,846.2231984273192 543.0705394190871,769.2992572321864 548.2157676348547,847.600429892772 553.3609958506224,846.252973262463 558.50622406639,847.5801701260965 563.6514522821576,839.0454656457742 568.7966804979253,847.5801701260965 573.941908713693,802.5391220319428 579.0871369294606,847.5788487915195 584.2323651452282,843.8177753843752 589.3775933609959,844.5154221540867 594.5228215767635,844.7135783884952 599.6680497925311,842.7198495984403 604.8132780082988,838.4348269226655 609.9585062240664,842.5988816226909 615.103734439834,847.5578345108999 620.2489626556016,836.0715445165769 625.3941908713693,842.1668910297781 630.5394190871369,841.7385318945958 635.6846473029045,842.413321762403 640.8298755186722,843.557082867149 645.9751037344398,844.8323188399993 651.1203319502075,847.6206896551724 656.2655601659751,847.6206896551724 661.4107883817427,836.8924833005915 666.5560165975104,836.0205561946995 671.701244813278,841.5403295534006 676.8464730290457,842.3011238404157 681.9917012448133,847.6206896551724 687.1369294605809,832.5968954630596 692.2821576763486,705.3793103448276 697.4273858921161,843.8089284645932 702.5726141078839,847.5578345108999 707.7178423236514,847.6206896551724 712.8630705394191,846.3216390246802 718.0082987551867,846.9356743366502 723.1535269709543,846.5407440026624 728.298755186722,847.6206896551724 733.4439834024896,845.6766745705418 738.5892116182573,847.600429892772 743.7344398340249,845.2624311061215 748.8796680497925,845.8993999594362 754.0248962655602,845.2198738922041 759.1701244813278,842.9063371349713 764.3153526970955,847.1055480781482 769.4605809128631,846.5098288913216 774.6058091286307,844.3677530135446 779.7510373443984,843.7915078414067 784.896265560166,843.9570097831353 790.0414937759336,845.7079078892496 795.1867219917012,847.6206896551724 800.3319502074689,846.7509374985361 805.4771784232365,847.5275893993571 810.6224066390041,843.2332641738411 815.7676348547718,847.6206896551724 820.9128630705394,847.554340343234 826.0580912863071,846.3369644203873 831.2033195020747,817.3424793050117 836.3485477178423,814.0242723699562 841.49377593361,847.6206896551724 846.6390041493776,843.6222375708412 851.7842323651453,846.2559928957459 856.9294605809129,845.1314830737845 862.0746887966804,813.7273639657509 867.2199170124481,755.2798925391874 872.3651452282157,762.8884535480864 877.5103734439834,828.4702774901782 882.655601659751,812.757388561355 887.8008298755186,824.0719437459056 892.9460580912863,845.0613822896674 898.0912863070539,842.6420459114372 903.2365145228216,836.2957038842507 908.3817427385892,845.4202537690811 913.5269709543569,846.3991654767265 918.6721991701245,847.5190502087099 923.8174273858921,842.341479377249 928.9626556016598,844.1231432489011 934.1078838174274,836.4385910007367 939.2531120331951,772.0904764207561 944.3983402489627,764.9424942688263 949.5435684647302,842.0967895402721 954.688796680498,843.0861325525027 959.8340248962655,832.1856437284454 964.9792531120332,842.2700035079171 970.1244813278008,840.1731813493511 975.2697095435684,838.6373319739891 980.4149377593361,840.8414578095175 985.5601659751037,796.5872787646855 990.7053941908714,844.8214228893014 995.850622406639,847.6206896551724 1000.9958506224067,845.270576446056 1006.1410788381743,842.8902972187358 1011.2863070539419,831.2696175822991 1016.4315352697096,846.0197486293399 1021.5767634854772,846.3396561546865 1026.7219917012449,845.3295036084597 1031.8672199170123,836.0334122802054 1037.01244813278,847.0620002330928 1042.1576763485477,814.7653218199526 1047.3029045643152,845.0576497518382 1052.4481327800831,844.3574776383925 1057.5933609958506,840.832983489003 1062.738589211618,844.7442037773571 1067.883817427386,817.2418136672295 1073.0290456431535,800.0159841174487 1078.1742738589212,847.1003013053778 1083.319502074689,841.115849283641 1088.4647302904564,836.8876919141004 1093.609958506224,843.3484901168272 1098.7551867219918,847.5786684257031 1103.9004149377593,847.0387127446746 1109.045643153527,846.538627429686 1114.1908713692947,846.9981449498944 1119.3360995850621,796.5527335764665 1124.4813278008298,798.0316154154979 1129.6265560165975,826.4270958005061 1134.7717842323652,804.3643129589142 1139.9170124481327,815.8471546615034 1145.0622406639004,815.5711510914787 1150.207468879668,816.2711563355497 1155.3526970954356,817.8999057388679 1160.4979253112033,825.5823558809419 1165.643153526971,829.9788760445792 1170.7883817427387,832.0267402044137 1175.9336099585062,832.1559615771341 1181.0788381742739,825.1197203834062 1186.2240663900416,799.737556151261 1191.369294605809,788.800476258806 1196.5145228215767,815.502724913549 1201.6597510373444,812.8705600568929 1206.804979253112,822.1330025453519 1211.9502074688796,816.3597088504916 1217.0954356846473,823.3725249964065 1222.240663900415,831.8115342275021 1227.3858921161825,820.3539053917021 1232.5311203319502,822.8669979989933 1237.676348547718,825.3680290153131 1242.8215767634854,826.6351624033493 1247.966804979253,825.1702691881179 1253.1120331950208,823.6903753254256 1258.2572614107885,819.5519661734949 1263.402489626556,807.7392765318303 1268.5477178423237,813.7019517688703 1273.6929460580914,822.931541694779 1278.8381742738588,809.1127875835937 1283.9834024896265,819.0208514014795 1289.1286307053942,828.7557880615868 1294.2738589211617,829.1525545572064 1299.4190871369294,826.3294665671634 1304.5643153526971,830.0153168309303 1309.7095435684648,831.0749373763728 1314.8547717842323,830.8126521764042 1320.0,831.6004054371846 1320.0,859" fill="#C27803" opacity="0.1" /><polyline points="80.0,847.2335436986317 85.14522821576763,847.6206896551724 90.29045643153528,836.2366582549795 95.4356846473029,847.2043562729277 100.58091286307054,844.9213378436151 105.72614107883817,841.2737780328232 110.87136929460581,846.5403757939067 116.01659751037344,847.6014048856507 121.16182572614107,847.6206896551724 126.30705394190872,847.6206896551724 131.45228215767634,847.6206896551724 136.59751037344398,847.5773756786164 141.74273858921163,847.2221207668138 146.88796680497927,847.5085373910879 152.0331950207469,847.5801701260965 157.1784232365145,847.0325990531624 162.32365145228215,847.5193425689158 167.4688796680498,847.5578843883111 172.61410788381744,847.1850813403756 177.75933609958506,847.6206896551724 182.9045643153527,847.5997545662186 188.04979253112032,847.6206896551724 193.19502074688796,847.6206896551724 198.3402489626556,847.6206896551724 203.48547717842325,846.2825302777749 208.63070539419087,847.6206896551724 213.7759336099585,846.7332110657278 218.92116182572613,847.6206896551724 224.06639004149378,847.5396506012958 229.21161825726142,847.6065989765546 234.35684647302904,847.6044236468164 239.50207468879668,847.6206896551724 244.64730290456433,847.6206896551724 249.79253112033194,847.6206896551724 254.9377593360996,847.6206896551724 260.08298755186723,846.7711476143799 265.2282157676349,847.0987597526463 270.37344398340247,846.1874675657806 275.5186721991701,847.6206896551724 280.66390041493776,847.3871432107861 285.8091286307054,847.2331753060474 290.95435684647305,847.6206896551724 296.09958506224064,847.6206896551724 301.24481327800834,847.6206896551724 306.3900414937759,847.6206896551724 311.53526970954357,846.7105158859964 316.6804979253112,797.9432727687307 321.8257261410788,769.1826687812843 326.9709543568465,798.481736569235 332.1161825726141,767.4596309479068 337.26141078838174,844.9666785650714 342.4066390041494,846.6961299486653 347.551867219917,844.0190054045622 352.6970954356847,843.4375237155816 357.84232365145226,847.2088351379143 362.9875518672199,847.5369255811884 368.13278008298755,847.6206896551724 373.2780082987552,847.6206896551724 378.42323651452284,847.5440580296197 383.56846473029043,845.6430865737495 388.7136929460581,847.4511632471923 393.8589211618257,847.6206896551724 399.00414937759336,843.8931124416551 404.149377593361,837.8478435632742 409.29460580912865,847.600429892772 414.43983402489624,847.5578345108999 419.5850622406639,847.6206896551724 424.73029045643153,846.3496408283655 429.8755186721992,847.6206896551724 435.0207468879668,847.6206896551724 440.16597510373447,847.6206896551724 445.31120331950206,847.600429892772 450.4564315352697,847.6206896551724 455.60165975103735,847.5982592015005 460.746887966805,846.4250824627633 465.89211618257264,847.5577333367494 471.0373443983402,847.6206896551724 476.18257261410787,847.5997545662186 481.3278008298755,847.6206896551724 486.47302904564316,847.6206896551724 491.6182572614108,847.6206896551724 496.76348547717845,847.6206896551724 501.90871369294604,846.7229189536198 507.0539419087137,847.6206896551724 512.1991701244813,845.9961699435388 517.344398340249,847.0898035488784 522.4896265560167,846.7175766669106 527.6348547717841,847.6206896551724 532.7800829875519,847.2145723013564 537.9253112033196,846.2231984273192 543.0705394190871,769.2992572321864 548.2157676348547,847.600429892772 553.3609958506224,846.252973262463 558.50622406639,847.5801701260965 563.6514522821576,839.0454656457742 568.7966804979253,847.5801701260965 573.941908713693,802.5391220319428 579.0871369294606,847.5788487915195 584.2323651452282,843.8177753843752 589.3775933609959,844.5154221540867 594.5228215767635,844.7135783884952 599.6680497925311,842.7198495984403 604.8132780082988,838.4348269226655 609.9585062240664,842.5988816226909 615.103734439834,847.5578345108999 620.2489626556016,836.0715445165769 625.3941908713693,842.1668910297781 630.5394190871369,841.7385318945958 635.6846473029045,842.413321762403 640.8298755186722,843.557082867149 645.9751037344398,844.8323188399993 651.1203319502075,847.6206896551724 656.2655601659751,847.6206896551724 661.4107883817427,836.8924833005915 666.5560165975104,836.0205561946995 671.701244813278,841.5403295534006 676.8464730290457,842.3011238404157 681.9917012448133,847.6206896551724 687.1369294605809,832.5968954630596 692.2821576763486,705.3793103448276 697.4273858921161,843.8089284645932 702.5726141078839,847.5578345108999 707.7178423236514,847.6206896551724 712.8630705394191,846.3216390246802 718.0082987551867,846.9356743366502 723.1535269709543,846.5407440026624 728.298755186722,847.6206896551724 733.4439834024896,845.6766745705418 738.5892116182573,847.600429892772 743.7344398340249,845.2624311061215 748.8796680497925,845.8993999594362 754.0248962655602,845.2198738922041 759.1701244813278,842.9063371349713 764.3153526970955,847.1055480781482 769.4605809128631,846.5098288913216 774.6058091286307,844.3677530135446 779.7510373443984,843.7915078414067 784.896265560166,843.9570097831353 790.0414937759336,845.7079078892496 795.1867219917012,847.6206896551724 800.3319502074689,846.7509374985361 805.4771784232365,847.5275893993571 810.6224066390041,843.2332641738411 815.7676348547718,847.6206896551724 820.9128630705394,847.554340343234 826.0580912863071,846.3369644203873 831.2033195020747,817.3424793050117 836.3485477178423,814.0242723699562 841.49377593361,847.6206896551724 846.6390041493776,843.6222375708412 851.7842323651453,846.2559928957459 856.9294605809129,845.1314830737845 862.0746887966804,813.7273639657509 867.2199170124481,755.2798925391874 872.3651452282157,762.8884535480864 877.5103734439834,828.4702774901782 882.655601659751,812.757388561355 887.8008298755186,824.0719437459056 892.9460580912863,845.0613822896674 898.0912863070539,842.6420459114372 903.2365145228216,836.2957038842507 908.3817427385892,845.4202537690811 913.5269709543569,846.3991654767265 918.6721991701245,847.5190502087099 923.8174273858921,842.341479377249 928.9626556016598,844.1231432489011 934.1078838174274,836.4385910007367 939.2531120331951,772.0904764207561 944.3983402489627,764.9424942688263 949.5435684647302,842.0967895402721 954.688796680498,843.0861325525027 959.8340248962655,832.1856437284454 964.9792531120332,842.2700035079171 970.1244813278008,840.1731813493511 975.2697095435684,838.6373319739891 980.4149377593361,840.8414578095175 985.5601659751037,796.5872787646855 990.7053941908714,844.8214228893014 995.850622406639,847.6206896551724 1000.9958506224067,845.270576446056 1006.1410788381743,842.8902972187358 1011.2863070539419,831.2696175822991 1016.4315352697096,846.0197486293399 1021.5767634854772,846.3396561546865 1026.7219917012449,845.3295036084597 1031.8672199170123,836.0334122802054 1037.01244813278,847.0620002330928 1042.1576763485477,814.7653218199526 1047.3029045643152,845.0576497518382 1052.4481327800831,844.3574776383925 1057.5933609958506,840.832983489003 1062.738589211618,844.7442037773571 1067.883817427386,817.2418136672295 1073.0290456431535,800.0159841174487 1078.1742738589212,847.1003013053778 1083.319502074689,841.115849283641 1088.4647302904564,836.8876919141004 1093.609958506224,843.3484901168272 1098.7551867219918,847.5786684257031 1103.9004149377593,847.0387127446746 1109.045643153527,846.538627429686 1114.1908713692947,846.9981449498944 1119.3360995850621,796.5527335764665 1124.4813278008298,798.0316154154979 1129.6265560165975,826.4270958005061 1134.7717842323652,804.3643129589142 1139.9170124481327,815.8471546615034 1145.0622406639004,815.5711510914787 1150.207468879668,816.2711563355497 1155.3526970954356,817.8999057388679 1160.4979253112033,825.5823558809419 1165.643153526971,829.9788760445792 1170.7883817427387,832.0267402044137 1175.9336099585062,832.1559615771341 1181.0788381742739,825.1197203834062 1186.2240663900416,799.737556151261 1191.369294605809,788.800476258806 1196.5145228215767,815.502724913549 1201.6597510373444,812.8705600568929 1206.804979253112,822.1330025453519 1211.9502074688796,816.3597088504916 1217.0954356846473,823.3725249964065 1222.240663900415,831.8115342275021 1227.3858921161825,820.3539053917021 1232.5311203319502,822.8669979989933 1237.676348547718,825.3680290153131 1242.8215767634854,826.6351624033493 1247.966804979253,825.1702691881179 1253.1120331950208,823.6903753254256 1258.2572614107885,819.5519661734949 1263.402489626556,807.7392765318303 1268.5477178423237,813.7019517688703 1273.6929460580914,822.931541694779 1278.8381742738588,809.1127875835937 1283.9834024896265,819.0208514014795 1289.1286307053942,828.7557880615868 1294.2738589211617,829.1525545572064 1299.4190871369294,826.3294665671634 1304.5643153526971,830.0153168309303 1309.7095435684648,831.0749373763728 1314.8547717842323,830.8126521764042 1320.0,831.6004054371846" stroke="#C27803" stroke-width="2" fill="none" opacity="0.4" /><polyline points="105.72614107883817,844.081727293025 110.87136929460581,844.4329627931509 116.01659751037344,844.8290180547134 121.16182572614107,845.1392037880977 126.30705394190872,845.3873523748052 131.45228215767634,845.5903830366567 136.59751037344398,845.75596575682 141.74273858921163,845.7550138458353 146.88796680497927,845.7456678238282 152.0331950207469,846.6909604797546 157.1784232365145,846.6766473781075 162.32365145228215,846.8931477718826 167.4688796680498,847.4168233015065 172.61410788381744,847.4705487637123 177.75933609958506,847.4721558278391 182.9045643153527,847.4704112370929 188.04979253112032,847.4704112370929 193.19502074688796,847.4704112370929 198.3402489626556,847.4740207351393 203.48547717842325,847.3957215277194 208.63070539419087,847.4050675497265 213.7759336099585,847.334487628029 218.92116182572613,847.3834951781965 224.06639004149378,847.3851875142282 229.21161825726142,847.3892470632485 234.35684647302904,847.4241922554519 239.50207468879668,847.4241922554519 244.64730290456433,847.425936846198 249.79253112033194,847.425936846198 254.9377593360996,847.425936846198 260.08298755186723,847.355141676132 265.2282157676349,847.4231607990379 270.37344398340247,847.303725624922 275.5186721991701,847.3776821740423 280.66390041493776,847.3582199703435 285.8091286307054,847.3326803624061 290.95435684647305,847.3338545856243 296.09958506224064,847.3352100863206 301.24481327800834,847.3352100863206 306.3900414937759,847.3352100863206 311.53526970954357,847.2593622722226 316.6804979253112,843.1195775316858 321.8257261410788,836.6538709622612 326.9709543568465,832.6024523636436 332.1161825726141,826.041799312154 337.26141078838174,825.8206317213123 342.4066390041494,825.7630472828023 347.551867219917,825.4951997910118 352.6970954356847,825.1466026293792 357.84232365145226,825.1122814196077 362.9875518672199,825.105301080109 368.13278008298755,825.105301080109 373.2780082987552,825.181148894207 378.42323651452284,829.3145476659478 383.56846473029043,835.6862491486532 388.7136929460581,839.7670347051497 393.8589211618257,846.4471229307552 399.00414937759336,846.3576590871371 404.149377593361,845.6203018883546 409.29460580912865,845.9187539290386 414.43983402489624,846.2621131619819 419.5850622406639,846.2964343717534 424.73029045643153,846.1974939756848 429.8755186721992,846.1974939756848 435.0207468879668,846.1974939756848 440.16597510373447,846.2038799444808 445.31120331950206,846.3669918877328 450.4564315352697,846.3811190883978 455.60165975103735,846.3792498839251 460.746887966805,846.5902473856842 465.89211618257264,847.399404866807 471.0373443983402,847.4010931803404 476.18257261410787,847.4045865182836 481.3278008298755,847.4045865182836 486.47302904564316,847.5105072538508 491.6182572614108,847.5105072538508 496.76348547717845,847.5105072538508 501.90871369294604,847.4356930287215 507.0539419087137,847.4373813422549 512.1991701244813,847.3020046996187 517.344398340249,847.2596333952335 522.4896265560167,847.2840079122459 527.6348547717841,847.2892542721145 532.7800829875519,847.2554111592964 537.9253112033196,847.1406981477214 543.0705394190871,840.6139121124727 548.2157676348547,840.6122237989392 553.3609958506224,840.4982474328801 558.50622406639,840.4948708054571 563.6514522821576,839.8550830298034 568.7966804979253,839.8517064023804 573.941908713693,836.2302857430807 579.0871369294606,836.2710395133008 584.2323651452282,836.0293894064229 589.3775933609959,835.7706171146657 594.5228215767635,835.5622009552606 599.6680497925311,835.2702552195207 604.8132780082988,841.0315526937272 609.9585062240664,840.6147570045539 615.103734439834,840.7234954419235 620.2489626556016,839.7644433077969 625.3941908713693,840.0245620897973 630.5394190871369,839.537758903839 635.6846473029045,842.8606088813773 640.8298755186722,842.525461721013 645.9751037344398,842.6100070089817 651.1203319502075,842.8687793007389 656.2655601659751,843.111038572962 661.4107883817427,842.6254247148079 666.5560165975104,842.4242354874774 671.701244813278,842.3360228150365 676.8464730290457,841.8979635924961 681.9917012448133,842.8603923540458 687.1369294605809,842.0628927234859 692.2821576763486,830.6996242610053 697.4273858921161,830.8159248195211 702.5726141078839,831.1493207898336 707.7178423236514,831.3816850244315 712.8630705394191,831.2734308052237 718.0082987551867,831.2163461953469 723.1535269709543,832.0203679205194 728.298755186722,832.9870457088922 733.4439834024896,833.3317411269874 738.5892116182573,833.7733499646837 743.7344398340249,833.5768284189294 748.8796680497925,834.6853704602942 754.0248962655602,846.3387507559089 759.1701244813278,846.2635348117738 764.3153526970955,846.2258442757111 769.4605809128631,846.1332725453901 774.6058091286307,845.9704487111288 779.7510373443984,845.7084348365253 784.896265560166,845.4931236515647 790.0414937759336,845.3337251710711 795.1867219917012,845.4957264281236 800.3319502074689,845.4249353952706 805.4771784232365,845.6136985863736 810.6224066390041,845.3915206042407 815.7676348547718,845.591588584488 820.9128630705394,845.9789221851767 826.0580912863071,845.9148735470299 831.2033195020747,843.484261081504 836.3485477178423,840.9556376945383 841.49377593361,841.2747361790188 846.6390041493776,841.246838494661 851.7842323651453,841.2925122452023 856.9294605809129,841.0850783634199 862.0746887966804,838.3331139023545 867.2199170124481,830.6458058306737 872.3651452282157,823.9504049451941 877.5103734439834,822.354537264778 882.655601659751,819.4547912829547 887.8008298755186,817.5993728934146 892.9460580912863,819.9092814754692 898.0912863070539,822.2940959372593 903.2365145228216,821.3503471230158 908.3817427385892,821.5001818062025 913.5269709543569,821.5121128546175 918.6721991701245,821.711076782528 923.8174273858921,824.0955864001528 928.9626556016598,831.4991906259623 934.1078838174274,837.6283687470166 939.2531120331951,832.9300519912314 944.3983402489627,828.945477466854 949.5435684647302,830.4475479497178 954.688796680498,830.2829438049541 959.8340248962655,829.4115769563715 964.9792531120332,829.9094352583437 970.1244813278008,829.4721792233662 975.2697095435684,828.8253597648047 980.4149377593361,828.2688937315387 985.5601659751037,824.4560436804917 990.7053941908714,824.5142336505251 995.850622406639,825.4460752050613 1000.9958506224067,831.5444168738363 1006.1410788381743,838.0400671196621 1011.2863070539419,837.1378027898311 1016.4315352697096,837.3822707962341 1021.5767634854772,838.5617718317543 1026.7219917012449,838.8167301734662 1031.8672199170123,838.471749417704 1037.01244813278,839.1738051059626 1042.1576763485477,837.0007937734989 1047.3029045643152,841.0399913557617 1052.4481327800831,841.0013292515192 1057.5933609958506,840.4356870710052 1062.738589211618,840.3918226819469 1067.883817427386,838.2544490526548 1073.0290456431535,835.6499795972505 1078.1742738589212,835.740025653587 1083.319502074689,835.3047084143332 1088.4647302904564,834.6012241064699 1093.609958506224,835.2108139261884 1098.7551867219918,835.2538696089059 1103.9004149377593,837.9433188526327 1109.045643153527,838.0667336591201 1114.1908713692947,838.2867892684119 1119.3360995850621,834.5967684423672 1124.4813278008298,830.7040527455456 1129.6265560165975,831.4694929233186 1134.7717842323652,831.8318536601074 1139.9170124481327,829.2274247731178 1145.0622406639004,827.098699923771 1150.207468879668,825.3806552922251 1155.3526970954356,823.2599399273952 1160.4979253112033,821.4269138819984 1165.643153526971,820.0052608236572 1170.7883817427387,818.7959368882177 1175.9336099585062,817.5590882738211 1181.0788381742739,819.9396705077328 1186.2240663900416,820.081832235713 1191.369294605809,816.946280607238 1196.5145228215767,817.8744816034575 1201.6597510373444,817.6264320530734 1206.804979253112,818.1732530075628 1211.9502074688796,818.180632383808 1217.0954356846473,818.6366839886028 1222.240663900415,819.1557821841495 1227.3858921161825,818.3537012964098 1232.5311203319502,817.5903894459581 1237.676348547718,817.0247283991397 1242.8215767634854,817.1510152341349 1247.966804979253,819.2704079872063 1253.1120331950208,822.1778995760912 1258.2572614107885,822.5153363477534 1263.402489626556,822.0877293873316 1268.5477178423237,821.3851418226247 1273.6929460580914,821.9327945596488 1278.8381742738588,820.744483108581 1283.9834024896265,819.6785928730791 1289.1286307053942,820.3787497622361 1294.2738589211617,820.9025461420872 1299.4190871369294,820.9826659380748 1304.5643153526971,821.2643454737065 1309.7095435684648,821.7564011560611 1314.8547717842323,822.349924226976 1320.0,823.3539608322834" stroke="#C27803" stroke-width="4" fill="none" opacity="1.0" /><line x1="80.0" y1="859" x2="1320.0" y2="859" stroke="#E2E8F0" stroke-width="2" /><line x1="80.0" y1="853" x2="80.0" y2="865" stroke="#E2E8F0" stroke-width="1" /><text x="80.0" y="881" font-family="Inter, Arial, sans-serif" font-size="11" font-weight="500" fill="#64748B" text-anchor="middle">2006</text><line x1="141.74273858921163" y1="853" x2="141.74273858921163" y2="865" stroke="#E2E8F0" stroke-width="1" /><text x="141.74273858921163" y="881" font-family="Inter, Arial, sans-serif" font-size="11" font-weight="500" fill="#64748B" text-anchor="middle">2007</text><line x1="203.48547717842325" y1="853" x2="203.48547717842325" y2="865" stroke="#E2E8F0" stroke-width="1" /><text x="203.48547717842325" y="881" font-family="Inter, Arial, sans-serif" font-size="11" font-weight="500" fill="#64748B" text-anchor="middle">2008</text><line x1="265.2282157676349" y1="853" x2="265.2282157676349" y2="865" stroke="#E2E8F0" stroke-width="1" /><text x="265.2282157676349" y="881" font-family="Inter, Arial, sans-serif" font-size="11" font-weight="500" fill="#64748B" text-anchor="middle">2009</text><line x1="326.9709543568465" y1="853" x2="326.9709543568465" y2="865" stroke="#E2E8F0" stroke-width="1" /><text x="326.9709543568465" y="881" font-family="Inter, Arial, sans-serif" font-size="11" font-weight="500" fill="#64748B" text-anchor="middle">2010</text><line x1="388.7136929460581" y1="853" x2="388.7136929460581" y2="865" stroke="#E2E8F0" stroke-width="1" /><text x="388.7136929460581" y="881" font-family="Inter, Arial, sans-serif" font-size="11" font-weight="500" fill="#64748B" text-anchor="middle">2011</text><line x1="450.4564315352697" y1="853" x2="450.4564315352697" y2="865" stroke="#E2E8F0" stroke-width="1" /><text x="450.4564315352697" y="881" font-family="Inter, Arial, sans-serif" font-size="11" font-weight="500" fill="#64748B" text-anchor="middle">2012</text><line x1="512.1991701244813" y1="853" x2="512.1991701244813" y2="865" stroke="#E2E8F0" stroke-width="1" /><text x="512.1991701244813" y="881" font-family="Inter, Arial, sans-serif" font-size="11" font-weight="500" fill="#64748B" text-anchor="middle">2013</text><line x1="573.941908713693" y1="853" x2="573.941908713693" y2="865" stroke="#E2E8F0" stroke-width="1" /><text x="573.941908713693" y="881" font-family="Inter, Arial, sans-serif" font-size="11" font-weight="500" fill="#64748B" text-anchor="middle">2014</text><line x1="635.6846473029045" y1="853" x2="635.6846473029045" y2="865" stroke="#E2E8F0" stroke-width="1" /><text x="635.6846473029045" y="881" font-family="Inter, Arial, sans-serif" font-size="11" font-weight="500" fill="#64748B" text-anchor="middle">2015</text><line x1="692.2821576763486" y1="853" x2="692.2821576763486" y2="865" stroke="#E2E8F0" stroke-width="1" /><text x="692.2821576763486" y="881" font-family="Inter, Arial, sans-serif" font-size="11" font-weight="500" fill="#64748B" text-anchor="middle">2016</text><line x1="754.0248962655602" y1="853" x2="754.0248962655602" y2="865" stroke="#E2E8F0" stroke-width="1" /><text x="754.0248962655602" y="881" font-family="Inter, Arial, sans-serif" font-size="11" font-weight="500" fill="#64748B" text-anchor="middle">2017</text><line x1="815.7676348547718" y1="853" x2="815.7676348547718" y2="865" stroke="#E2E8F0" stroke-width="1" /><text x="815.7676348547718" y="881" font-family="Inter, Arial, sans-serif" font-size="11" font-weight="500" fill="#64748B" text-anchor="middle">2018</text><line x1="872.3651452282157" y1="853" x2="872.3651452282157" y2="865" stroke="#E2E8F0" stroke-width="1" /><text x="872.3651452282157" y="881" font-family="Inter, Arial, sans-serif" font-size="11" font-weight="500" fill="#64748B" text-anchor="middle">2019</text><line x1="934.1078838174274" y1="853" x2="934.1078838174274" y2="865" stroke="#E2E8F0" stroke-width="1" /><text x="934.1078838174274" y="881" font-family="Inter, Arial, sans-serif" font-size="11" font-weight="500" fill="#64748B" text-anchor="middle">2020</text><line x1="995.850622406639" y1="853" x2="995.850622406639" y2="865" stroke="#E2E8F0" stroke-width="1" /><text x="995.850622406639" y="881" font-family="Inter, Arial, sans-serif" font-size="11" font-weight="500" fill="#64748B" text-anchor="middle">2021</text><line x1="1057.5933609958506" y1="853" x2="1057.5933609958506" y2="865" stroke="#E2E8F0" stroke-width="1" /><text x="1057.5933609958506" y="881" font-family="Inter, Arial, sans-serif" font-size="11" font-weight="500" fill="#64748B" text-anchor="middle">2022</text><line x1="1119.3360995850621" y1="853" x2="1119.3360995850621" y2="865" stroke="#E2E8F0" stroke-width="1" /><text x="1119.3360995850621" y="881" font-family="Inter, Arial, sans-serif" font-size="11" font-weight="500" fill="#64748B" text-anchor="middle">2023</text><line x1="1181.0788381742739" y1="853" x2="1181.0788381742739" y2="865" stroke="#E2E8F0" stroke-width="1" /><text x="1181.0788381742739" y="881" font-family="Inter, Arial, sans-serif" font-size="11" font-weight="500" fill="#64748B" text-anchor="middle">2024</text><line x1="1242.8215767634854" y1="853" x2="1242.8215767634854" y2="865" stroke="#E2E8F0" stroke-width="1" /><text x="1242.8215767634854" y="881" font-family="Inter, Arial, sans-serif" font-size="11" font-weight="500" fill="#64748B" text-anchor="middle">2025</text><line x1="1304.5643153526971" y1="853" x2="1304.5643153526971" y2="865" stroke="#E2E8F0" stroke-width="1" /><text x="1304.5643153526971" y="881" font-family="Inter, Arial, sans-serif" font-size="11" font-weight="500" fill="#64748B" text-anchor="middle">2026</text><line x1="1320.0" y1="853" x2="1320.0" y2="865" stroke="#E2E8F0" stroke-width="1" /><text x="1320.0" y="881" font-family="Inter, Arial, sans-serif" font-size="11" font-weight="500" fill="#64748B" text-anchor="middle">2026</text></svg>