<svg xmlns="http://www.w3.org/2000/svg" width="1400" height="1060" viewBox="0 0 1400 1060" role="img" aria-label="Savannah River analytical figure"><rect x="0" y="0" width="1400" height="1060" rx="12" fill="#F8FAFC" stroke="none" /><text x="70" y="72" font-family="Inter, Arial, sans-serif" font-size="32" font-weight="700" fill="#011E42" text-anchor="start">Savannah system seasonality: month-of-year climatology across all sensors</text><text x="70" y="102" font-family="Inter, Arial, sans-serif" font-size="15" font-weight="400" fill="#64748B" text-anchor="start">Mean seasonal cycle from 20 years of data reveals the river's recurring behavioral structure across flow, chemistry, and quality.</text><rect x="70" y="130" width="595" height="260" rx="18" fill="#FFFFFF" stroke="#E2E8F0" /><text x="90" y="162" font-family="Inter, Arial, sans-serif" font-size="16" font-weight="700" fill="#011E42" text-anchor="start">Augusta discharge (ft³/s)</text><line x1="90" y1="184.0" x2="645" y2="184.0" stroke="#E2E8F0" stroke-width="1" stroke-dasharray="4 6" /><line x1="90" y1="269.0" x2="645" y2="269.0" stroke="#E2E8F0" stroke-width="1" stroke-dasharray="4 6" /><line x1="90" y1="354.0" x2="645" y2="354.0" stroke="#E2E8F0" stroke-width="1" stroke-dasharray="4 6" /><text x="84" y="190" font-family="Inter, Arial, sans-serif" font-size="11" font-weight="500" fill="#64748B" text-anchor="end">11,189</text><text x="84" y="273.0" font-family="Inter, Arial, sans-serif" font-size="11" font-weight="500" fill="#64748B" text-anchor="end">8,012</text><text x="84" y="358" font-family="Inter, Arial, sans-serif" font-size="11" font-weight="500" fill="#64748B" text-anchor="end">4,834</text><polyline points="90.0,195.72413793103448 140.45454545454544,217.4215270236993 190.9090909090909,235.8045350361041 241.36363636363637,265.1817267523861 291.8181818181818,300.4272399494257 342.27272727272725,314.623591671483 392.72727272727275,304.867990408893 443.1818181818182,305.2585654877389 493.6363636363636,333.76880784396127 544.090909090909,342.2758620689655 594.5454545454545,292.262752708847 645.0,257.1761608883388" stroke="#0B5CAD" stroke-width="3" fill="none" opacity="1.0" /><line x1="90.0" y1="350" x2="90.0" y2="358" stroke="#E2E8F0" stroke-width="1" /><text x="90.0" y="376" font-family="Inter, Arial, sans-serif" font-size="11" font-weight="500" fill="#64748B" text-anchor="middle">Jan</text><line x1="140.45454545454544" y1="350" x2="140.45454545454544" y2="358" stroke="#E2E8F0" stroke-width="1" /><text x="140.45454545454544" y="376" font-family="Inter, Arial, sans-serif" font-size="11" font-weight="500" fill="#64748B" text-anchor="middle">Feb</text><line x1="190.9090909090909" y1="350" x2="190.9090909090909" y2="358" stroke="#E2E8F0" stroke-width="1" /><text x="190.9090909090909" y="376" font-family="Inter, Arial, sans-serif" font-size="11" font-weight="500" fill="#64748B" text-anchor="middle">Mar</text><line x1="241.36363636363637" y1="350" x2="241.36363636363637" y2="358" stroke="#E2E8F0" stroke-width="1" /><text x="241.36363636363637" y="376" font-family="Inter, Arial, sans-serif" font-size="11" font-weight="500" fill="#64748B" text-anchor="middle">Apr</text><line x1="291.8181818181818" y1="350" x2="291.8181818181818" y2="358" stroke="#E2E8F0" stroke-width="1" /><text x="291.8181818181818" y="376" font-family="Inter, Arial, sans-serif" font-size="11" font-weight="500" fill="#64748B" text-anchor="middle">May</text><line x1="342.27272727272725" y1="350" x2="342.27272727272725" y2="358" stroke="#E2E8F0" stroke-width="1" /><text x="342.27272727272725" y="376" font-family="Inter, Arial, sans-serif" font-size="11" font-weight="500" fill="#64748B" text-anchor="middle">Jun</text><line x1="392.72727272727275" y1="350" x2="392.72727272727275" y2="358" stroke="#E2E8F0" stroke-width="1" /><text x="392.72727272727275" y="376" font-family="Inter, Arial, sans-serif" font-size="11" font-weight="500" fill="#64748B" text-anchor="middle">Jul</text><line x1="443.1818181818182" y1="350" x2="443.1818181818182" y2="358" stroke="#E2E8F0" stroke-width="1" /><text x="443.1818181818182" y="376" font-family="Inter, Arial, sans-serif" font-size="11" font-weight="500" fill="#64748B" text-anchor="middle">Aug</text><line x1="493.6363636363636" y1="350" x2="493.6363636363636" y2="358" stroke="#E2E8F0" stroke-width="1" /><text x="493.6363636363636" y="376" font-family="Inter, Arial, sans-serif" font-size="11" font-weight="500" fill="#64748B" text-anchor="middle">Sep</text><line x1="544.090909090909" y1="350" x2="544.090909090909" y2="358" stroke="#E2E8F0" stroke-width="1" /><text x="544.090909090909" y="376" font-family="Inter, Arial, sans-serif" font-size="11" font-weight="500" fill="#64748B" text-anchor="middle">Oct</text><line x1="594.5454545454545" y1="350" x2="594.5454545454545" y2="358" stroke="#E2E8F0" stroke-width="1" /><text x="594.5454545454545" y="376" font-family="Inter, Arial, sans-serif" font-size="11" font-weight="500" fill="#64748B" text-anchor="middle">Nov</text><line x1="645.0" y1="350" x2="645.0" y2="358" stroke="#E2E8F0" stroke-width="1" /><text x="645.0" y="376" font-family="Inter, Arial, sans-serif" font-size="11" font-weight="500" fill="#64748B" text-anchor="middle">Dec</text><rect x="715" y="130" width="595" height="260" rx="18" fill="#FFFFFF" stroke="#E2E8F0" /><text x="735" y="162" font-family="Inter, Arial, sans-serif" font-size="16" font-weight="700" fill="#011E42" text-anchor="start">Dock temperature (°C)</text><line x1="735" y1="184.0" x2="1290" y2="184.0" stroke="#E2E8F0" stroke-width="1" stroke-dasharray="4 6" /><line x1="735" y1="269.0" x2="1290" y2="269.0" stroke="#E2E8F0" stroke-width="1" stroke-dasharray="4 6" /><line x1="735" y1="354.0" x2="1290" y2="354.0" stroke="#E2E8F0" stroke-width="1" stroke-dasharray="4 6" /><text x="729" y="190" font-family="Inter, Arial, sans-serif" font-size="11" font-weight="500" fill="#64748B" text-anchor="end">30.5</text><text x="729" y="273.0" font-family="Inter, Arial, sans-serif" font-size="11" font-weight="500" fill="#64748B" text-anchor="end">20.2</text><text x="729" y="358" font-family="Inter, Arial, sans-serif" font-size="11" font-weight="500" fill="#64748B" text-anchor="end">9.9</text><polyline points="735.0,342.2758620689655 785.4545454545455,333.0225585116093 835.9090909090909,303.94585036102995 886.3636363636364,272.5105601017783 936.8181818181818,239.51991545593955 987.2727272727273,210.3496486162496 1037.7272727272727,195.72413793103448 1088.1818181818182,197.0463179442051 1138.6363636363635,210.90480092954877 1189.090909090909,243.2103364206537 1239.5454545454545,289.92577575999314 1290.0,323.06297064399394" stroke="#0F7B5F" stroke-width="3" fill="none" opacity="1.0" /><line x1="735.0" y1="350" x2="735.0" y2="358" stroke="#E2E8F0" stroke-width="1" /><text x="735.0" y="376" font-family="Inter, Arial, sans-serif" font-size="11" font-weight="500" fill="#64748B" text-anchor="middle">Jan</text><line x1="785.4545454545455" y1="350" x2="785.4545454545455" y2="358" stroke="#E2E8F0" stroke-width="1" /><text x="785.4545454545455" y="376" font-family="Inter, Arial, sans-serif" font-size="11" font-weight="500" fill="#64748B" text-anchor="middle">Feb</text><line x1="835.9090909090909" y1="350" x2="835.9090909090909" y2="358" stroke="#E2E8F0" stroke-width="1" /><text x="835.9090909090909" y="376" font-family="Inter, Arial, sans-serif" font-size="11" font-weight="500" fill="#64748B" text-anchor="middle">Mar</text><line x1="886.3636363636364" y1="350" x2="886.3636363636364" y2="358" stroke="#E2E8F0" stroke-width="1" /><text x="886.3636363636364" y="376" font-family="Inter, Arial, sans-serif" font-size="11" font-weight="500" fill="#64748B" text-anchor="middle">Apr</text><line x1="936.8181818181818" y1="350" x2="936.8181818181818" y2="358" stroke="#E2E8F0" stroke-width="1" /><text x="936.8181818181818" y="376" font-family="Inter, Arial, sans-serif" font-size="11" font-weight="500" fill="#64748B" text-anchor="middle">May</text><line x1="987.2727272727273" y1="350" x2="987.2727272727273" y2="358" stroke="#E2E8F0" stroke-width="1" /><text x="987.2727272727273" y="376" font-family="Inter, Arial, sans-serif" font-size="11" font-weight="500" fill="#64748B" text-anchor="middle">Jun</text><line x1="1037.7272727272727" y1="350" x2="1037.7272727272727" y2="358" stroke="#E2E8F0" stroke-width="1" /><text x="1037.7272727272727" y="376" font-family="Inter, Arial, sans-serif" font-size="11" font-weight="500" fill="#64748B" text-anchor="middle">Jul</text><line x1="1088.1818181818182" y1="350" x2="1088.1818181818182" y2="358" stroke="#E2E8F0" stroke-width="1" /><text x="1088.1818181818182" y="376" font-family="Inter, Arial, sans-serif" font-size="11" font-weight="500" fill="#64748B" text-anchor="middle">Aug</text><line x1="1138.6363636363635" y1="350" x2="1138.6363636363635" y2="358" stroke="#E2E8F0" stroke-width="1" /><text x="1138.6363636363635" y="376" font-family="Inter, Arial, sans-serif" font-size="11" font-weight="500" fill="#64748B" text-anchor="middle">Sep</text><line x1="1189.090909090909" y1="350" x2="1189.090909090909" y2="358" stroke="#E2E8F0" stroke-width="1" /><text x="1189.090909090909" y="376" font-family="Inter, Arial, sans-serif" font-size="11" font-weight="500" fill="#64748B" text-anchor="middle">Oct</text><line x1="1239.5454545454545" y1="350" x2="1239.5454545454545" y2="358" stroke="#E2E8F0" stroke-width="1" /><text x="1239.5454545454545" y="376" font-family="Inter, Arial, sans-serif" font-size="11" font-weight="500" fill="#64748B" text-anchor="middle">Nov</text><line x1="1290.0" y1="350" x2="1290.0" y2="358" stroke="#E2E8F0" stroke-width="1" /><text x="1290.0" y="376" font-family="Inter, Arial, sans-serif" font-size="11" font-weight="500" fill="#64748B" text-anchor="middle">Dec</text><rect x="70" y="405" width="595" height="260" rx="18" fill="#FFFFFF" stroke="#E2E8F0" /><text x="90" y="437" font-family="Inter, Arial, sans-serif" font-size="16" font-weight="700" fill="#011E42" text-anchor="start">Dock dissolved oxygen (mg/L)</text><line x1="90" y1="459.0" x2="645" y2="459.0" stroke="#E2E8F0" stroke-width="1" stroke-dasharray="4 6" /><line x1="90" y1="544.0" x2="645" y2="544.0" stroke="#E2E8F0" stroke-width="1" stroke-dasharray="4 6" /><line x1="90" y1="629.0" x2="645" y2="629.0" stroke="#E2E8F0" stroke-width="1" stroke-dasharray="4 6" /><text x="84" y="465" font-family="Inter, Arial, sans-serif" font-size="11" font-weight="500" fill="#64748B" text-anchor="end">9.1</text><text x="84" y="548.0" font-family="Inter, Arial, sans-serif" font-size="11" font-weight="500" fill="#64748B" text-anchor="end">6.1</text><text x="84" y="633" font-family="Inter, Arial, sans-serif" font-size="11" font-weight="500" fill="#64748B" text-anchor="end">3.0</text><polyline points="90.0,470.7241379310345 140.45454545454544,476.66657853790036 190.9090909090909,508.6842348769103 241.36363636363637,543.6889962325525 291.8181818181818,568.7007429345983 342.27272727272725,598.9866038864138 392.72727272727275,615.1355986539137 443.1818181818182,617.2758620689655 493.6363636363636,609.894227499478 544.090909090909,586.0770334853158 594.5454545454545,539.6760614449443 645.0,499.70069235617916" stroke="#011E42" stroke-width="3" fill="none" opacity="1.0" /><line x1="90.0" y1="625" x2="90.0" y2="633" stroke="#E2E8F0" stroke-width="1" /><text x="90.0" y="651" font-family="Inter, Arial, sans-serif" font-size="11" font-weight="500" fill="#64748B" text-anchor="middle">Jan</text><line x1="140.45454545454544" y1="625" x2="140.45454545454544" y2="633" stroke="#E2E8F0" stroke-width="1" /><text x="140.45454545454544" y="651" font-family="Inter, Arial, sans-serif" font-size="11" font-weight="500" fill="#64748B" text-anchor="middle">Feb</text><line x1="190.9090909090909" y1="625" x2="190.9090909090909" y2="633" stroke="#E2E8F0" stroke-width="1" /><text x="190.9090909090909" y="651" font-family="Inter, Arial, sans-serif" font-size="11" font-weight="500" fill="#64748B" text-anchor="middle">Mar</text><line x1="241.36363636363637" y1="625" x2="241.36363636363637" y2="633" stroke="#E2E8F0" stroke-width="1" /><text x="241.36363636363637" y="651" font-family="Inter, Arial, sans-serif" font-size="11" font-weight="500" fill="#64748B" text-anchor="middle">Apr</text><line x1="291.8181818181818" y1="625" x2="291.8181818181818" y2="633" stroke="#E2E8F0" stroke-width="1" /><text x="291.8181818181818" y="651" font-family="Inter, Arial, sans-serif" font-size="11" font-weight="500" fill="#64748B" text-anchor="middle">May</text><line x1="342.27272727272725" y1="625" x2="342.27272727272725" y2="633" stroke="#E2E8F0" stroke-width="1" /><text x="342.27272727272725" y="651" font-family="Inter, Arial, sans-serif" font-size="11" font-weight="500" fill="#64748B" text-anchor="middle">Jun</text><line x1="392.72727272727275" y1="625" x2="392.72727272727275" y2="633" stroke="#E2E8F0" stroke-width="1" /><text x="392.72727272727275" y="651" font-family="Inter, Arial, sans-serif" font-size="11" font-weight="500" fill="#64748B" text-anchor="middle">Jul</text><line x1="443.1818181818182" y1="625" x2="443.1818181818182" y2="633" stroke="#E2E8F0" stroke-width="1" /><text x="443.1818181818182" y="651" font-family="Inter, Arial, sans-serif" font-size="11" font-weight="500" fill="#64748B" text-anchor="middle">Aug</text><line x1="493.6363636363636" y1="625" x2="493.6363636363636" y2="633" stroke="#E2E8F0" stroke-width="1" /><text x="493.6363636363636" y="651" font-family="Inter, Arial, sans-serif" font-size="11" font-weight="500" fill="#64748B" text-anchor="middle">Sep</text><line x1="544.090909090909" y1="625" x2="544.090909090909" y2="633" stroke="#E2E8F0" stroke-width="1" /><text x="544.090909090909" y="651" font-family="Inter, Arial, sans-serif" font-size="11" font-weight="500" fill="#64748B" text-anchor="middle">Oct</text><line x1="594.5454545454545" y1="625" x2="594.5454545454545" y2="633" stroke="#E2E8F0" stroke-width="1" /><text x="594.5454545454545" y="651" font-family="Inter, Arial, sans-serif" font-size="11" font-weight="500" fill="#64748B" text-anchor="middle">Nov</text><line x1="645.0" y1="625" x2="645.0" y2="633" stroke="#E2E8F0" stroke-width="1" /><text x="645.0" y="651" font-family="Inter, Arial, sans-serif" font-size="11" font-weight="500" fill="#64748B" text-anchor="middle">Dec</text><rect x="715" y="405" width="595" height="260" rx="18" fill="#FFFFFF" stroke="#E2E8F0" /><text x="735" y="437" font-family="Inter, Arial, sans-serif" font-size="16" font-weight="700" fill="#011E42" text-anchor="start">Dock conductance (µS/cm)</text><line x1="735" y1="459.0" x2="1290" y2="459.0" stroke="#E2E8F0" stroke-width="1" stroke-dasharray="4 6" /><line x1="735" y1="544.0" x2="1290" y2="544.0" stroke="#E2E8F0" stroke-width="1" stroke-dasharray="4 6" /><line x1="735" y1="629.0" x2="1290" y2="629.0" stroke="#E2E8F0" stroke-width="1" stroke-dasharray="4 6" /><text x="729" y="465" font-family="Inter, Arial, sans-serif" font-size="11" font-weight="500" fill="#64748B" text-anchor="end">19,978</text><text x="729" y="548.0" font-family="Inter, Arial, sans-serif" font-size="11" font-weight="500" fill="#64748B" text-anchor="end">15,898</text><text x="729" y="633" font-family="Inter, Arial, sans-serif" font-size="11" font-weight="500" fill="#64748B" text-anchor="end">11,818</text><polyline points="735.0,590.6178290872722 785.4545454545455,617.2758620689656 835.9090909090909,613.5557591532887 886.3636363636364,614.8499894870462 936.8181818181818,572.6727364386203 987.2727272727273,552.5192116633161 1037.7272727272727,525.9911857508289 1088.1818181818182,534.6057964403989 1138.6363636363635,489.5552753877082 1189.090909090909,470.72413793103453 1239.5454545454545,487.5252879771571 1290.0,547.6840701496495" stroke="#C27803" stroke-width="3" fill="none" opacity="1.0" /><line x1="735.0" y1="625" x2="735.0" y2="633" stroke="#E2E8F0" stroke-width="1" /><text x="735.0" y="651" font-family="Inter, Arial, sans-serif" font-size="11" font-weight="500" fill="#64748B" text-anchor="middle">Jan</text><line x1="785.4545454545455" y1="625" x2="785.4545454545455" y2="633" stroke="#E2E8F0" stroke-width="1" /><text x="785.4545454545455" y="651" font-family="Inter, Arial, sans-serif" font-size="11" font-weight="500" fill="#64748B" text-anchor="middle">Feb</text><line x1="835.9090909090909" y1="625" x2="835.9090909090909" y2="633" stroke="#E2E8F0" stroke-width="1" /><text x="835.9090909090909" y="651" font-family="Inter, Arial, sans-serif" font-size="11" font-weight="500" fill="#64748B" text-anchor="middle">Mar</text><line x1="886.3636363636364" y1="625" x2="886.3636363636364" y2="633" stroke="#E2E8F0" stroke-width="1" /><text x="886.3636363636364" y="651" font-family="Inter, Arial, sans-serif" font-size="11" font-weight="500" fill="#64748B" text-anchor="middle">Apr</text><line x1="936.8181818181818" y1="625" x2="936.8181818181818" y2="633" stroke="#E2E8F0" stroke-width="1" /><text x="936.8181818181818" y="651" font-family="Inter, Arial, sans-serif" font-size="11" font-weight="500" fill="#64748B" text-anchor="middle">May</text><line x1="987.2727272727273" y1="625" x2="987.2727272727273" y2="633" stroke="#E2E8F0" stroke-width="1" /><text x="987.2727272727273" y="651" font-family="Inter, Arial, sans-serif" font-size="11" font-weight="500" fill="#64748B" text-anchor="middle">Jun</text><line x1="1037.7272727272727" y1="625" x2="1037.7272727272727" y2="633" stroke="#E2E8F0" stroke-width="1" /><text x="1037.7272727272727" y="651" font-family="Inter, Arial, sans-serif" font-size="11" font-weight="500" fill="#64748B" text-anchor="middle">Jul</text><line x1="1088.1818181818182" y1="625" x2="1088.1818181818182" y2="633" stroke="#E2E8F0" stroke-width="1" /><text x="1088.1818181818182" y="651" font-family="Inter, Arial, sans-serif" font-size="11" font-weight="500" fill="#64748B" text-anchor="middle">Aug</text><line x1="1138.6363636363635" y1="625" x2="1138.6363636363635" y2="633" stroke="#E2E8F0" stroke-width="1" /><text x="1138.6363636363635" y="651" font-family="Inter, Arial, sans-serif" font-size="11" font-weight="500" fill="#64748B" text-anchor="middle">Sep</text><line x1="1189.090909090909" y1="625" x2="1189.090909090909" y2="633" stroke="#E2E8F0" stroke-width="1" /><text x="1189.090909090909" y="651" font-family="Inter, Arial, sans-serif" font-size="11" font-weight="500" fill="#64748B" text-anchor="middle">Oct</text><line x1="1239.5454545454545" y1="625" x2="1239.5454545454545" y2="633" stroke="#E2E8F0" stroke-width="1" /><text x="1239.5454545454545" y="651" font-family="Inter, Arial, sans-serif" font-size="11" font-weight="500" fill="#64748B" text-anchor="middle">Nov</text><line x1="1290.0" y1="625" x2="1290.0" y2="633" stroke="#E2E8F0" stroke-width="1" /><text x="1290.0" y="651" font-family="Inter, Arial, sans-serif" font-size="11" font-weight="500" fill="#64748B" text-anchor="middle">Dec</text><rect x="70" y="680" width="595" height="260" rx="18" fill="#FFFFFF" stroke="#E2E8F0" /><text x="90" y="712" font-family="Inter, Arial, sans-serif" font-size="16" font-weight="700" fill="#011E42" text-anchor="start">Dock pH</text><line x1="90" y1="734.0" x2="645" y2="734.0" stroke="#E2E8F0" stroke-width="1" stroke-dasharray="4 6" /><line x1="90" y1="819.0" x2="645" y2="819.0" stroke="#E2E8F0" stroke-width="1" stroke-dasharray="4 6" /><line x1="90" y1="904.0" x2="645" y2="904.0" stroke="#E2E8F0" stroke-width="1" stroke-dasharray="4 6" /><text x="84" y="740" font-family="Inter, Arial, sans-serif" font-size="11" font-weight="500" fill="#64748B" text-anchor="end">7.5</text><text x="84" y="823.0" font-family="Inter, Arial, sans-serif" font-size="11" font-weight="500" fill="#64748B" text-anchor="end">7.3</text><text x="84" y="908" font-family="Inter, Arial, sans-serif" font-size="11" font-weight="500" fill="#64748B" text-anchor="end">7.1</text><polyline points="90.0,745.7241379310344 140.45454545454544,759.6340245447744 190.9090909090909,778.369790187771 241.36363636363637,832.8482910434441 291.8181818181818,842.4011665810814 342.27272727272725,884.8398964990837 392.72727272727275,886.5649844778677 443.1818181818182,892.2758620689656 493.6363636363636,867.5857206272138 544.090909090909,821.479273205716 594.5454545454545,767.9809453382272 645.0,756.954720239536" stroke="#6D28D9" stroke-width="3" fill="none" opacity="1.0" /><line x1="90.0" y1="900" x2="90.0" y2="908" stroke="#E2E8F0" stroke-width="1" /><text x="90.0" y="926" font-family="Inter, Arial, sans-serif" font-size="11" font-weight="500" fill="#64748B" text-anchor="middle">Jan</text><line x1="140.45454545454544" y1="900" x2="140.45454545454544" y2="908" stroke="#E2E8F0" stroke-width="1" /><text x="140.45454545454544" y="926" font-family="Inter, Arial, sans-serif" font-size="11" font-weight="500" fill="#64748B" text-anchor="middle">Feb</text><line x1="190.9090909090909" y1="900" x2="190.9090909090909" y2="908" stroke="#E2E8F0" stroke-width="1" /><text x="190.9090909090909" y="926" font-family="Inter, Arial, sans-serif" font-size="11" font-weight="500" fill="#64748B" text-anchor="middle">Mar</text><line x1="241.36363636363637" y1="900" x2="241.36363636363637" y2="908" stroke="#E2E8F0" stroke-width="1" /><text x="241.36363636363637" y="926" font-family="Inter, Arial, sans-serif" font-size="11" font-weight="500" fill="#64748B" text-anchor="middle">Apr</text><line x1="291.8181818181818" y1="900" x2="291.8181818181818" y2="908" stroke="#E2E8F0" stroke-width="1" /><text x="291.8181818181818" y="926" font-family="Inter, Arial, sans-serif" font-size="11" font-weight="500" fill="#64748B" text-anchor="middle">May</text><line x1="342.27272727272725" y1="900" x2="342.27272727272725" y2="908" stroke="#E2E8F0" stroke-width="1" /><text x="342.27272727272725" y="926" font-family="Inter, Arial, sans-serif" font-size="11" font-weight="500" fill="#64748B" text-anchor="middle">Jun</text><line x1="392.72727272727275" y1="900" x2="392.72727272727275" y2="908" stroke="#E2E8F0" stroke-width="1" /><text x="392.72727272727275" y="926" font-family="Inter, Arial, sans-serif" font-size="11" font-weight="500" fill="#64748B" text-anchor="middle">Jul</text><line x1="443.1818181818182" y1="900" x2="443.1818181818182" y2="908" stroke="#E2E8F0" stroke-width="1" /><text x="443.1818181818182" y="926" font-family="Inter, Arial, sans-serif" font-size="11" font-weight="500" fill="#64748B" text-anchor="middle">Aug</text><line x1="493.6363636363636" y1="900" x2="493.6363636363636" y2="908" stroke="#E2E8F0" stroke-width="1" /><text x="493.6363636363636" y="926" font-family="Inter, Arial, sans-serif" font-size="11" font-weight="500" fill="#64748B" text-anchor="middle">Sep</text><line x1="544.090909090909" y1="900" x2="544.090909090909" y2="908" stroke="#E2E8F0" stroke-width="1" /><text x="544.090909090909" y="926" font-family="Inter, Arial, sans-serif" font-size="11" font-weight="500" fill="#64748B" text-anchor="middle">Oct</text><line x1="594.5454545454545" y1="900" x2="594.5454545454545" y2="908" stroke="#E2E8F0" stroke-width="1" /><text x="594.5454545454545" y="926" font-family="Inter, Arial, sans-serif" font-size="11" font-weight="500" fill="#64748B" text-anchor="middle">Nov</text><line x1="645.0" y1="900" x2="645.0" y2="908" stroke="#E2E8F0" stroke-width="1" /><text x="645.0" y="926" font-family="Inter, Arial, sans-serif" font-size="11" font-weight="500" fill="#64748B" text-anchor="middle">Dec</text><rect x="715" y="680" width="595" height="260" rx="18" fill="#FFFFFF" stroke="#E2E8F0" /><text x="735" y="712" font-family="Inter, Arial, sans-serif" font-size="16" font-weight="700" fill="#011E42" text-anchor="start">Dock turbidity (FNU)</text><line x1="735" y1="734.0" x2="1290" y2="734.0" stroke="#E2E8F0" stroke-width="1" stroke-dasharray="4 6" /><line x1="735" y1="819.0" x2="1290" y2="819.0" stroke="#E2E8F0" stroke-width="1" stroke-dasharray="4 6" /><line x1="735" y1="904.0" x2="1290" y2="904.0" stroke="#E2E8F0" stroke-width="1" stroke-dasharray="4 6" /><text x="729" y="740" font-family="Inter, Arial, sans-serif" font-size="11" font-weight="500" fill="#64748B" text-anchor="end">41.7</text><text x="729" y="823.0" font-family="Inter, Arial, sans-serif" font-size="11" font-weight="500" fill="#64748B" text-anchor="end">31.2</text><text x="729" y="908" font-family="Inter, Arial, sans-serif" font-size="11" font-weight="500" fill="#64748B" text-anchor="end">20.7</text><polyline points="735.0,758.8165269506356 785.4545454545455,745.7241379310345 835.9090909090909,771.3519865257201 886.3636363636364,812.8775295716687 936.8181818181818,837.5110874690284 987.2727272727273,863.1097505735067 1037.7272727272727,892.2758620689656 1088.1818181818182,879.0712741129536 1138.6363636363635,854.6086667423085 1189.090909090909,836.3296662756665 1239.5454545454545,822.7908299544179 1290.0,786.8985076188125" stroke="#B91C1C" stroke-width="3" fill="none" opacity="1.0" /><line x1="735.0" y1="900" x2="735.0" y2="908" stroke="#E2E8F0" stroke-width="1" /><text x="735.0" y="926" font-family="Inter, Arial, sans-serif" font-size="11" font-weight="500" fill="#64748B" text-anchor="middle">Jan</text><line x1="785.4545454545455" y1="900" x2="785.4545454545455" y2="908" stroke="#E2E8F0" stroke-width="1" /><text x="785.4545454545455" y="926" font-family="Inter, Arial, sans-serif" font-size="11" font-weight="500" fill="#64748B" text-anchor="middle">Feb</text><line x1="835.9090909090909" y1="900" x2="835.9090909090909" y2="908" stroke="#E2E8F0" stroke-width="1" /><text x="835.9090909090909" y="926" font-family="Inter, Arial, sans-serif" font-size="11" font-weight="500" fill="#64748B" text-anchor="middle">Mar</text><line x1="886.3636363636364" y1="900" x2="886.3636363636364" y2="908" stroke="#E2E8F0" stroke-width="1" /><text x="886.3636363636364" y="926" font-family="Inter, Arial, sans-serif" font-size="11" font-weight="500" fill="#64748B" text-anchor="middle">Apr</text><line x1="936.8181818181818" y1="900" x2="936.8181818181818" y2="908" stroke="#E2E8F0" stroke-width="1" /><text x="936.8181818181818" y="926" font-family="Inter, Arial, sans-serif" font-size="11" font-weight="500" fill="#64748B" text-anchor="middle">May</text><line x1="987.2727272727273" y1="900" x2="987.2727272727273" y2="908" stroke="#E2E8F0" stroke-width="1" /><text x="987.2727272727273" y="926" font-family="Inter, Arial, sans-serif" font-size="11" font-weight="500" fill="#64748B" text-anchor="middle">Jun</text><line x1="1037.7272727272727" y1="900" x2="1037.7272727272727" y2="908" stroke="#E2E8F0" stroke-width="1" /><text x="1037.7272727272727" y="926" font-family="Inter, Arial, sans-serif" font-size="11" font-weight="500" fill="#64748B" text-anchor="middle">Jul</text><line x1="1088.1818181818182" y1="900" x2="1088.1818181818182" y2="908" stroke="#E2E8F0" stroke-width="1" /><text x="1088.1818181818182" y="926" font-family="Inter, Arial, sans-serif" font-size="11" font-weight="500" fill="#64748B" text-anchor="middle">Aug</text><line x1="1138.6363636363635" y1="900" x2="1138.6363636363635" y2="908" stroke="#E2E8F0" stroke-width="1" /><text x="1138.6363636363635" y="926" font-family="Inter, Arial, sans-serif" font-size="11" font-weight="500" fill="#64748B" text-anchor="middle">Sep</text><line x1="1189.090909090909" y1="900" x2="1189.090909090909" y2="908" stroke="#E2E8F0" stroke-width="1" /><text x="1189.090909090909" y="926" font-family="Inter, Arial, sans-serif" font-size="11" font-weight="500" fill="#64748B" text-anchor="middle">Oct</text><line x1="1239.5454545454545" y1="900" x2="1239.5454545454545" y2="908" stroke="#E2E8F0" stroke-width="1" /><text x="1239.5454545454545" y="926" font-family="Inter, Arial, sans-serif" font-size="11" font-weight="500" fill="#64748B" text-anchor="middle">Nov</text><line x1="1290.0" y1="900" x2="1290.0" y2="908" stroke="#E2E8F0" stroke-width="1" /><text x="1290.0" y="926" font-family="Inter, Arial, sans-serif" font-size="11" font-weight="500" fill="#64748B" text-anchor="middle">Dec</text></svg>