<svg xmlns="http://www.w3.org/2000/svg" width="1400" height="900" viewBox="0 0 1400 900" role="img" aria-label="Savannah River analytical figure"><rect x="0" y="0" width="1400" height="900" rx="12" fill="#F8FAFC" stroke="none" /><text x="70" y="70" font-family="Inter, Arial, sans-serif" font-size="30" font-weight="700" fill="#011E42" text-anchor="start">Thurmond to Augusta: release, storage, and downstream response</text><text x="70" y="98" font-family="Inter, Arial, sans-serif" font-size="14" font-weight="400" fill="#64748B" text-anchor="start">This is the clearest operational bridge in the workspace: Thurmond release behavior aligns with the river response observed near Augusta.</text><line x1="70" y1="123" x2="94" y2="123" stroke="#0B5CAD" stroke-width="4" /><text x="100" y="128" font-family="Inter, Arial, sans-serif" font-size="11" font-weight="500" fill="#64748B" text-anchor="start">Augusta discharge</text><line x1="217.6" y1="123" x2="241.6" y2="123" stroke="#C27803" stroke-width="4" /><text x="247.6" y="128" font-family="Inter, Arial, sans-serif" font-size="11" font-weight="500" fill="#64748B" text-anchor="start">Thurmond outflow</text><rect x="62" y="134" width="1276" height="338" rx="18" fill="#FFFFFF" stroke="#E2E8F0" /><text x="80" y="162" font-family="Inter, Arial, sans-serif" font-size="17" font-weight="700" fill="#011E42" text-anchor="start">Augusta discharge vs Thurmond outflow (ft³/s)</text><line x1="80" y1="186.0" x2="1320" y2="186.0" stroke="#E2E8F0" stroke-width="1" stroke-dasharray="4 6" /><line x1="80" y1="311.0" x2="1320" y2="311.0" stroke="#E2E8F0" stroke-width="1" stroke-dasharray="4 6" /><line x1="80" y1="436.0" x2="1320" y2="436.0" stroke="#E2E8F0" stroke-width="1" stroke-dasharray="4 6" /><text x="74" y="192" font-family="Inter, Arial, sans-serif" font-size="11" font-weight="500" fill="#64748B" text-anchor="end">37,564</text><text x="74" y="315.0" font-family="Inter, Arial, sans-serif" font-size="11" font-weight="500" fill="#64748B" text-anchor="end">17,391</text><text x="74" y="440" font-family="Inter, Arial, sans-serif" font-size="11" font-weight="500" fill="#64748B" text-anchor="end">-2,783</text><polyline points="80.0,369.637574272003 85.14522821576763,367.84011046071623 90.29045643153528,355.48388797832325 95.4356846473029,382.67107538106495 100.58091286307054,387.98274693218406 105.72614107883817,386.51084112350736 110.87136929460581,385.49421262010867 116.01659751037344,378.12721826941055 121.16182572614107,387.25568626793137 126.30705394190872,386.67151921499743 131.45228215767634,387.47902088904084 136.59751037344398,388.54766695555287 141.74273858921163,383.1415982552716 146.88796680497927,376.82217390278004 152.0331950207469,367.625403582275 157.1784232365145,389.6006606875114 162.32365145228215,387.16056451134546 167.4688796680498,386.70853190022103 172.61410788381744,393.05908293784785 177.75933609958506,392.8843319305648 182.9045643153527,392.7332601094138 188.04979253112032,393.0780438013578 193.19502074688796,394.73297575666066 198.3402489626556,391.82959515901445 203.48547717842325,390.5019298623646 208.63070539419087,387.21421107641606 213.7759336099585,386.83409013046 218.92116182572613,391.8602631716967 224.06639004149378,395.1805076300108 229.21161825726142,394.94139845753057 234.35684647302904,394.5835259046091 239.50207468879668,394.9766277091534 244.64730290456433,394.54879080574227 249.79253112033194,393.58344825615717 254.9377593360996,391.8168887182008 260.08298755186723,387.8681477657215 265.2282157676349,397.6124086307369 270.37344398340247,393.86035659184444 275.5186721991701,375.06568810643347 280.66390041493776,388.76897275518917 285.8091286307054,393.64008156750646 290.95435684647305,392.6169064153256 296.09958506224064,392.76459721021934 301.24481327800834,391.7030392915596 306.3900414937759,393.58009467973255 311.53526970954357,390.50992515593003 316.6804979253112,306.4890114388643 321.8257261410788,260.59777360147126 326.9709543568465,293.6403123442853 332.1161825726141,262.93810948883464 337.26141078838174,355.3726201805651 342.4066390041494,378.60558097074863 347.551867219917,380.9515548058971 352.6970954356847,378.8899246110214 357.84232365145226,382.1315264945101 362.9875518672199,372.6084686812471 368.13278008298755,389.3259558174361 373.2780082987552,390.8883689295001 378.42323651452284,391.120143531465 383.56846473029043,390.9516649782582 388.7136929460581,390.47527889414033 393.8589211618257,385.97918888461805 399.00414937759336,376.7626886095791 404.149377593361,371.12245501555697 409.29460580912865,387.99873751931494 414.43983402489624,390.19413337005454 419.5850622406639,384.79462465929805 424.73029045643153,392.48276320343314 429.8755186721992,392.6045137143268 435.0207468879668,391.42805106857236 440.16597510373447,391.80953955528 445.31120331950206,392.66585682831624 450.4564315352697,393.07441473519003 455.60165975103735,392.66058950284355 460.746887966805,393.77267014604035 465.89211618257264,395.61456309164157 471.0373443983402,397.10670647847417 476.18257261410787,395.5615498679482 481.3278008298755,394.07049473376105 486.47302904564316,388.62770040658586 491.6182572614108,392.2788610748555 496.76348547717845,393.50216280152404 501.90871369294604,396.1866927856887 507.0539419087137,396.8275375654123 512.1991701244813,397.34923030480593 517.344398340249,384.1660187066014 522.4896265560167,385.16573942047916 527.6348547717841,388.7138940833948 532.7800829875519,388.7576238851991 537.9253112033196,375.62031699543155 543.0705394190871,267.0493071394477 548.2157676348547,336.8928376551392 553.3609958506224,372.20199696785573 558.50622406639,392.6973035115803 563.6514522821576,390.7793442539972 568.7966804979253,356.6756679777268 573.941908713693,261.64754085654664 579.0871369294606,344.30135516949815 584.2323651452282,350.1650206611363 589.3775933609959,349.6858362245804 594.5228215767635,380.2552982137909 599.6680497925311,384.45906674459434 604.8132780082988,381.0774806346295 609.9585062240664,381.9802822413174 615.103734439834,388.01026406345926 620.2489626556016,391.0269539704626 625.3941908713693,389.0046101992335 630.5394190871369,386.30906602855833 635.6846473029045,386.5674863690277 640.8298755186722,384.65247761526916 645.9751037344398,379.6809698129289 651.1203319502075,379.5723368273301 656.2655601659751,390.6111988413786 661.4107883817427,382.91961788374186 666.5560165975104,385.788705839125 671.701244813278,384.7666411411135 676.8464730290457,390.69121837540837 681.9917012448133,379.730940380673 687.1369294605809,313.10684703095285 692.2821576763486,203.24137931034483 697.4273858921161,333.6858657246457 702.5726141078839,364.94698111153264 707.7178423236514,369.6394617980958 712.8630705394191,374.93309952789957 718.0082987551867,387.43606891511473 723.1535269709543,382.4086965826316 728.298755186722,389.04945200429484 733.4439834024896,386.7177245579679 738.5892116182573,393.50815927014906 743.7344398340249,394.731927383727 748.8796680497925,392.4081404862088 754.0248962655602,378.5023306680798 759.1701244813278,387.2929627255993 764.3153526970955,390.36067972148146 769.4605809128631,385.4442864740013 774.6058091286307,389.220684488303 779.7510373443984,389.7294070825984 784.896265560166,388.3285432689048 790.0414937759336,389.4978545702281 795.1867219917012,390.1135808135621 800.3319502074689,391.9723971263094 805.4771784232365,392.50537210633615 810.6224066390041,390.7377909450912 815.7676348547718,390.9769834027185 820.9128630705394,390.1488045132549 826.0580912863071,387.0188479835529 831.2033195020747,352.2577880687468 836.3485477178423,332.44001581311267 841.49377593361,386.2451036986237 846.6390041493776,362.7482760936125 851.7842323651453,379.1446634641977 856.9294605809129,387.1678935299308 862.0746887966804,340.3596402402611 867.2199170124481,248.36564469936067 872.3651452282157,263.3321631147792 877.5103734439834,330.16408644106946 882.655601659751,303.61643664834264 887.8008298755186,314.82792224567555 892.9460580912863,365.9650481596632 898.0912863070539,384.31448522881044 903.2365145228216,384.30957701283097 908.3817427385892,378.22516058615474 913.5269709543569,390.6278779050135 918.6721991701245,390.92301518509345 923.8174273858921,390.385531752836 928.9626556016598,374.0229689088227 934.1078838174274,318.0899121237286 939.2531120331951,246.45734335250174 944.3983402489627,258.2931309794379 949.5435684647302,340.56893918564424 954.688796680498,331.79384083974423 959.8340248962655,358.5652064902414 964.9792531120332,367.59675378911027 970.1244813278008,365.7878192132264 975.2697095435684,353.269392261343 980.4149377593361,373.44530913305994 985.5601659751037,313.461971205003 990.7053941908714,362.34984409542335 995.850622406639,333.90659647817023 1000.9958506224067,331.75079476803944 1006.1410788381743,348.4180495840502 1011.2863070539419,349.8159595850681 1016.4315352697096,371.356539369134 1021.5767634854772,375.69811562112255 1026.7219917012449,377.00921008579166 1031.8672199170123,368.05248537982516 1037.01244813278,371.717993146201 1042.1576763485477,337.9582101772897 1047.3029045643152,370.772016974088 1052.4481327800831,362.38982055085796 1057.5933609958506,363.3972272116988 1062.738589211618,362.0598006368058 1067.883817427386,339.33539904935134 1073.0290456431535,303.40322889015584 1078.1742738589212,383.9031497210764 1083.319502074689,382.7660860866572 1088.4647302904564,377.4169699213102 1093.609958506224,376.7393690100592 1098.7551867219918,391.5297911471267 1103.9004149377593,392.35617109352427 1109.045643153527,391.45956583733573 1114.1908713692947,383.2435382157003 1119.3360995850621,328.00007527910725 1124.4813278008298,328.1701893714211 1129.6265560165975,375.71597176828374 1134.7717842323652,337.7475342603096 1139.9170124481327,358.44414445585176 1145.0622406639004,369.7785354398843 1150.207468879668,373.4273197271849 1155.3526970954356,375.69198589378374 1160.4979253112033,382.3075561497005 1165.643153526971,389.21202291975743 1170.7883817427387,391.4161913838399 1175.9336099585062,384.70467763611936 1181.0788381742739,380.1833405964872 1186.2240663900416,345.6096347064916 1191.369294605809,325.0398187953824 1196.5145228215767,366.0689869450324 1201.6597510373444,354.37454135705366 1206.804979253112,376.5119029846469 1211.9502074688796,369.7035129589112 1217.0954356846473,379.17193629196174 1222.240663900415,367.3950059519071 1227.3858921161825,373.4852855884945 1232.5311203319502,378.6537748093433 1237.676348547718,378.7561811566814 1242.8215767634854,381.88633757445416 1247.966804979253,376.93325481860705 1253.1120331950208,379.6376619887899 1258.2572614107885,370.70592256669545 1263.402489626556,356.00158306783595 1268.5477178423237,367.9939864960529 1273.6929460580914,381.20673783826265 1278.8381742738588,350.26096415294 1283.9834024896265,376.28676891856696 1289.1286307053942,388.6023819821255 1294.2738589211617,390.0385361248688 1299.4190871369294,385.18839274501886 1304.5643153526971,389.8676367814489 1309.7095435684648,388.89442426568354 1314.8547717842323,388.5344220147027 1320.0,391.40517565443804" stroke="#0B5CAD" stroke-width="2" fill="none" opacity="0.3" /><polyline points="105.72614107883817,375.02103935796646 110.87136929460581,376.5172069668439 116.01659751037344,376.71845837966475 121.16182572614107,377.88926147836105 126.30705394190872,378.7674872520247 131.45228215767634,379.5594448553898 136.59751037344398,380.30846336373673 141.74273858921163,381.43379869567576 146.88796680497927,382.18230398251444 152.0331950207469,383.19409694951037 157.1784232365145,383.77156239171427 162.32365145228215,383.7030471899777 167.4688796680498,383.71952142137053 172.61410788381744,384.3499272811821 177.75933609958506,385.57968675294495 182.9045643153527,386.03615123973515 188.04979253112032,386.57002828859856 193.19502074688796,387.17452452756686 198.3402489626556,387.448018544522 203.48547717842325,388.0613795117797 208.63070539419087,388.92738260958276 213.7759336099585,390.52810648859816 218.92116182572613,390.7164066956136 224.06639004149378,391.3847352888357 229.21161825726142,392.07080750194484 234.35684647302904,392.1978444158416 239.50207468879668,392.37220239739065 244.64730290456433,392.52349662208474 249.79253112033194,392.56561365998465 254.9377593360996,392.32260640677964 260.08298755186723,391.99248579067194 265.2282157676349,392.5850256880363 270.37344398340247,393.1388711476553 275.5186721991701,392.1581709789864 280.66390041493776,391.90056344427745 285.8091286307054,391.7721946057354 290.95435684647305,391.57848693555167 296.09958506224064,391.42690954435255 301.24481327800834,391.15411050955305 306.3900414937759,391.0733858323856 311.53526970954357,390.81725890736664 316.6804979253112,383.70660246742193 321.8257261410788,373.10073795373444 326.9709543568465,364.43639659653013 332.1161825726141,353.52620933794594 337.26141078838174,351.8851203441236 342.4066390041494,351.0381710287536 347.551867219917,349.98079379861946 352.6970954356847,348.8368786482608 357.84232365145226,347.95078942195164 362.9875518672199,346.35957520442565 368.13278008298755,346.0050636325676 373.2780082987552,346.0366006136984 378.42323651452284,353.0891949547485 383.56846473029043,363.9520192361474 388.7136929460581,372.02159978196863 393.8589211618257,382.27502306495063 399.00414937759336,384.0575287673684 404.149377593361,383.4339349377691 409.29460580912865,384.0212001638873 414.43983402489624,384.96321756047337 419.5850622406639,385.18514240753905 424.73029045643153,386.8413336177212 429.8755186721992,387.1145467757954 435.0207468879668,387.1595202873848 440.16597510373447,387.21696995603605 445.31120331950206,387.3598192768742 450.4564315352697,387.576413930295 455.60165975103735,388.13319731514713 460.746887966805,389.5506957765189 465.89211618257264,391.5917047828593 471.0373443983402,392.3507021961226 476.18257261410787,392.7979869042804 481.3278008298755,393.5709760771523 486.47302904564316,393.24972084408165 491.6182572614108,393.2225831241257 496.76348547717845,393.39542576853836 501.90871369294604,393.7601885377391 507.0539419087137,394.10699526583045 512.1991701244813,394.4632298966318 517.344398340249,393.7553489969449 522.4896265560167,393.0381047698148 527.6348547717841,392.4630490191276 532.7800829875519,391.7672921363547 537.9253112033196,390.1055227303116 543.0705394190871,379.52042376411885 548.2157676348547,375.20918520149826 553.3609958506224,373.53611319258164 558.50622406639,373.4690415850863 563.6514522821576,373.01842920744537 568.7966804979253,369.67244007513824 573.941908713693,358.36396595444995 579.0871369294606,355.0419106596913 584.2323651452282,352.1251840964128 589.3775933609959,348.8728459415116 594.5228215767635,348.16431880222757 599.6680497925311,348.9008812813245 604.8132780082988,358.4032290725896 609.9585062240664,362.1605161214378 615.103734439834,363.4778717127381 620.2489626556016,363.338675917645 625.3941908713693,363.1907814130813 630.5394190871369,365.6602312506506 635.6846473029045,376.07022671002403 640.8298755186722,379.4328202471716 645.9751037344398,381.89248267648765 651.1203319502075,384.3830243933835 656.2655601659751,385.24601611234914 661.4107883817427,385.11772870727805 666.5560165975104,385.51033080765274 671.701244813278,385.7425273826357 676.8464730290457,385.9659402419648 681.9917012448133,385.02460577614903 687.1369294605809,378.6997921787923 692.2821576763486,363.4441516189412 697.4273858921161,359.037349898576 702.5726141078839,357.3952251899313 707.7178423236514,356.55843285536184 712.8630705394191,356.17182974707595 718.0082987551867,355.90723558655395 723.1535269709543,355.8646588114615 728.298755186722,356.13638765855893 733.4439834024896,356.2989779432968 738.5892116182573,356.53372301785856 743.7344398340249,357.78380526811304 748.8796680497925,364.39224638938435 754.0248962655602,378.9973256691956 759.1701244813278,383.4645837526084 764.3153526970955,385.58239197010414 769.4605809128631,386.8994606930963 774.6058091286307,388.09009277312987 779.7510373443984,388.2812042870869 784.896265560166,388.7745248442763 790.0414937759336,388.81189172477076 795.1867219917012,389.09487974607026 800.3319502074689,388.96689956741693 805.4771784232365,388.781353294301 810.6224066390041,388.6421574992079 815.7676348547718,389.68171189376113 820.9128630705394,389.9196987093991 826.0580912863071,389.6412127312384 831.2033195020747,386.87567119746717 836.3485477178423,382.143948807868 841.49377593361,381.8535901925368 846.6390041493776,379.7219012612624 851.7842323651453,378.8591353357599 856.9294605809129,378.61366139545726 862.0746887966804,374.31259832161993 867.2199170124481,362.30095437103864 872.3651452282157,351.6838187185126 877.5103734439834,346.61607730504187 882.655601659751,339.40504664963254 887.8008298755186,333.389136171476 892.9460580912863,334.5314078457191 898.0912863070539,338.85428029702723 903.2365145228216,338.69298640654455 908.3817427385892,339.98272678092303 913.5269709543569,340.9396613176577 918.6721991701245,341.25258812225456 923.8174273858921,345.42141241496915 928.9626556016598,355.892856099091 934.1078838174274,360.45600184983675 939.2531120331951,353.4804399257895 944.3983402489627,349.7034977867141 949.5435684647302,351.8485825317115 954.688796680498,349.0009819217182 959.8340248962655,346.8552086935041 964.9792531120332,345.4624734248607 970.1244813278008,344.42602831045 975.2697095435684,341.31282117347746 980.4149377593361,339.8563456691414 985.5601659751037,333.446048956822 990.7053941908714,332.4732885557053 995.850622406639,333.79134558524214 1000.9958506224067,340.89913320320363 1006.1410788381743,348.4095430869213 1011.2863070539419,349.18012812020663 1016.4315352697096,352.4770196643224 1021.5767634854772,353.90476209189586 1026.7219917012449,354.68913344995264 1031.8672199170123,354.87785563050255 1037.01244813278,356.41523903757405 1042.1576763485477,353.45798079125984 1047.3029045643152,358.2338179386836 1052.4481327800831,358.2371493099698 1057.5933609958506,360.6947018710972 1062.738589211618,363.22045236016106 1067.883817427386,362.4635648156028 1073.0290456431535,358.59583725769346 1078.1742738589212,359.6413881203554 1083.319502074689,360.2303856591499 1088.4647302904564,360.26436564544315 1093.609958506224,360.9882726146293 1098.7551867219918,362.6392557813731 1103.9004149377593,367.1724191910593 1109.045643153527,368.89638159632995 1114.1908713692947,370.63419140173346 1119.3360995850621,367.6844287406842 1124.4813278008298,364.8602944685688 1129.6265560165975,367.89200886181317 1134.7717842323652,370.75403430932596 1139.9170124481327,368.6324505372239 1145.0622406639004,367.55015464999286 1150.207468879668,367.2176838004824 1155.3526970954356,367.13040187412616 1160.4979253112033,366.3618822910073 1165.643153526971,366.09986994319337 1170.7883817427387,366.0962554054021 1175.9336099585062,366.2180170237703 1181.0788381742739,370.5666224668853 1186.2240663900416,372.01990957814115 1191.369294605809,367.7968968303994 1196.5145228215767,370.15701788745963 1201.6597510373444,369.8178842958931 1206.804979253112,370.37899825795665 1211.9502074688796,370.0686810272672 1217.0954356846473,370.358676893782 1222.240663900415,369.11596437729924 1227.3858921161825,367.8054029330273 1232.5311203319502,366.74186821848593 1237.676348547718,366.24616017853276 1242.8215767634854,366.38807659336334 1247.966804979253,368.998378269373 1253.1120331950208,373.54819853549026 1258.2572614107885,373.9346098372955 1263.402489626556,374.0701966465274 1268.5477178423237,373.3603702724779 1273.6929460580914,374.3189723457572 1278.8381742738588,371.9097246675054 1283.9834024896265,372.65070491472704 1289.1286307053942,373.9104629475296 1294.2738589211617,374.85919305715674 1299.4190871369294,375.3952106895182 1304.5643153526971,376.0603189567678 1309.7095435684648,377.05708307735745 1314.8547717842323,377.79847974618355 1320.0,379.5234175034954" stroke="#0B5CAD" stroke-width="4" fill="none" opacity="1.0" /><polyline points="80.0,418.19748744816343 85.14522821576763,418.7586206896552 90.29045643153528,402.2584911315094 95.4356846473029,418.15518289991917 100.58091286307054,414.84615303667977 105.72614107883817,409.55934317702565 110.87136929460581,417.19280291845314 116.01659751037344,418.7306691508355 121.16182572614107,418.7586206896552 126.30705394190872,418.7586206896552 131.45228215767634,418.7586206896552 136.59751037344398,418.6958409765878 141.74273858921163,418.1809309359487 146.88796680497927,418.5960660705944 152.0331950207469,418.6998912768589 157.1784232365145,417.90623625886997 162.32365145228215,418.61172720396564 167.4688796680498,418.6675901044683 172.61410788381744,418.12724561890207 177.75933609958506,418.7586206896552 182.9045643153527,418.72827716125954 188.04979253112032,418.7586206896552 193.19502074688796,418.7586206896552 198.3402489626556,418.7586206896552 203.48547717842325,416.81907903518186 208.63070539419087,418.7586206896552 213.7759336099585,417.472300300055 218.92116182572613,418.7586206896552 224.06639004149378,418.64116187025905 229.21161825726142,418.7381975184091 234.35684647302904,418.7350445736173 239.50207468879668,418.7586206896552 244.64730290456433,418.7586206896552 249.79253112033194,418.7586206896552 254.9377593360996,418.7586206896552 260.08298755186723,417.5272859150576 265.2282157676349,418.00213024183324 270.37344398340247,416.6812941847264 275.5186721991701,418.7586206896552 280.66390041493776,418.42011612525687 285.8091286307054,418.19695349624817 290.95435684647305,418.7586206896552 296.09958506224064,418.7586206896552 301.24481327800834,418.7586206896552 306.3900414937759,418.7586206896552 311.53526970954357,417.4394056783916 316.6804979253112,346.75567323411576 321.8257261410788,305.0697646766827 326.9709543568465,347.5361280798869 332.1161825726141,302.5723763188262 337.26141078838174,414.9118703341809 342.4066390041494,417.4185545561983 347.551867219917,413.53830332812777 352.6970954356847,412.69549792232857 357.84232365145226,418.16167461185785 362.9875518672199,418.6372121987201 368.13278008298755,418.7586206896552 373.2780082987552,418.7586206896552 378.42323651452284,418.64755004118086 383.56846473029043,415.8922629020692 388.7136929460581,418.5129074096345 393.8589211618257,418.7586206896552 399.00414937759336,413.3558328020546 404.149377593361,404.5937593150278 409.29460580912865,418.7292559863552 414.43983402489624,418.667517811647 419.5850622406639,418.7586206896552 424.73029045643153,416.9163497418881 429.8755186721992,418.7586206896552 435.0207468879668,418.7586206896552 440.16597510373447,418.7586206896552 445.31120331950206,418.7292559863552 450.4564315352697,418.7586206896552 455.60165975103735,418.72610976460373 460.746887966805,417.02569560521914 465.89211618257264,418.6673711688161 471.0373443983402,418.7586206896552 476.18257261410787,418.72827716125954 481.3278008298755,418.7586206896552 486.47302904564316,418.7586206896552 491.6182572614108,418.7586206896552 496.76348547717845,418.7586206896552 501.90871369294604,417.4573828092963 507.0539419087137,418.7586206896552 512.1991701244813,416.40402548788313 517.344398340249,417.989149030053 522.4896265560167,417.44963964523265 527.6348547717841,418.7586206896552 532.7800829875519,418.1699901142281 537.9253112033196,416.73308285465237 543.0705394190871,305.2387491495151 548.2157676348547,418.7292559863552 553.3609958506224,416.77623880004427 558.50622406639,418.6998912768589 563.6514522821576,406.3296048014177 568.7966804979253,418.6998912768589 573.941908713693,353.4169433595147 579.0871369294606,418.69797612123926 584.2323651452282,413.24663851384946 589.3775933609959,414.25781475549843 594.5228215767635,414.5450243937677 599.6680497925311,411.6552938419745 604.8132780082988,405.44453889722996 609.9585062240664,411.47996164180006 615.103734439834,418.667517811647 620.2489626556016,402.0191736191363 625.3941908713693,410.85383013351543 630.5394190871369,410.2329620965735 635.6846473029045,411.211009314816 640.8298755186722,412.86878815857045 645.9751037344398,414.71712799790714 651.1203319502075,418.7586206896552 656.2655601659751,418.7586206896552 661.4107883817427,403.2090505458037 666.5560165975104,401.94527063280793 671.701244813278,409.9456856306642 676.8464730290457,411.04838851873194 681.9917012448133,418.7586206896552 687.1369294605809,396.9829823493939 692.2821576763486,212.59253552669102 697.4273858921161,413.2338156993771 702.5726141078839,418.667517811647 707.7178423236514,418.7586206896552 712.8630705394191,416.8757636461169 718.0082987551867,417.76575260034724 723.1535269709543,417.1933366039253 728.298755186722,418.7586206896552 733.4439834024896,415.94094568228905 738.5892116182573,418.7292559863552 743.7344398340249,415.34053704045823 748.8796680497925,416.26376610007037 754.0248962655602,415.27885418676726 759.1701244813278,411.9255907522315 764.3153526970955,418.0119693090606 769.4605809128631,417.1485279307501 774.6058091286307,414.0437816186396 779.7510373443984,413.20856607299635 784.896265560166,413.4484462511729 790.0414937759336,415.98621556842096 795.1867219917012,418.7586206896552 800.3319502074689,417.497993169976 805.4771784232365,418.62368024291476 810.6224066390041,412.3994420890542 815.7676348547718,418.7586206896552 820.9128630705394,418.6624533299043 826.0580912863071,416.8979764287252 831.2033195020747,374.8730782132023 836.3485477178423,370.0636357227129 841.49377593361,418.7586206896552 846.6390041493776,412.96322404111953 851.7842323651453,416.7806154868816 856.9294605809129,415.15073964593336 862.0746887966804,369.6332936967583 867.2199170124481,284.9189410230672 872.3651452282157,295.9468658402601 877.5103734439834,391.0018207735078 882.655601659751,368.2274015942053 887.8008298755186,384.62683162693605 892.9460580912863,415.0491348646922 898.0912863070539,411.542524395851 903.2365145228216,402.3440724601766 908.3817427385892,415.5692867947852 913.5269709543569,416.988131265107 918.6721991701245,418.61130345414404 923.8174273858921,411.10688023952304 928.9626556016598,413.68924176663796 934.1078838174274,402.5511744832938 939.2531120331951,309.2843703022994 944.3983402489627,298.9240131107201 949.5435684647302,410.75222432987647 954.688796680498,412.1861880379328 959.8340248962655,396.3869099508207 964.9792531120332,411.0032823959474 970.1244813278008,407.96412727940907 975.2697095435684,405.7380517544556 980.4149377593361,408.93273389913577 985.5601659751037,344.790281892483 990.7053941908714,414.70133529742577 995.850622406639,418.7586206896552 1000.9958506224067,415.3523429780465 1006.1410788381743,411.9023423363862 1011.2863070539419,395.05921244554094 1016.4315352697096,416.4382006721262 1021.5767634854772,416.9018778554792 1026.7219917012449,415.437752599645 1031.8672199170123,401.96390437238597 1037.01244813278,417.9488506246392 1042.1576763485477,371.13772024550565 1047.3029045643152,415.0437248868383 1052.4481327800831,414.02888838659317 1057.5933609958506,408.92045113378754 1062.738589211618,414.5894131402695 1067.883817427386,374.7271724257824 1073.0290456431535,349.75988190046803 1078.1742738589212,418.0043645838598 1083.319502074689,409.330439660261 1088.4647302904564,403.20210586205445 1093.609958506224,412.5664517292153 1098.7551867219918,418.6977146972117 1103.9004149377593,417.91509750481043 1109.045643153527,417.1902688217748 1114.1908713692947,417.85629813521706 1119.3360995850621,344.74021174938633 1124.4813278008298,346.8837179544722 1129.6265560165975,388.04041269184626 1134.7717842323652,356.0623934381985 1139.9170124481327,372.70573964200366 1145.0622406639004,372.3056972928723 1150.207468879668,373.32029193096844 1155.3526970954356,375.68101769039026 1160.4979253112033,386.816038160034 1165.643153526971,393.18839868460054 1170.7883817427387,396.15659358558963 1175.9336099585062,396.34388834230765 1181.0788381742739,386.1454896189075 1186.2240663900416,349.3563256071648 1191.369294605809,333.5040120576574 1196.5145228215767,372.2065197026743 1201.6597510373444,368.39143349758126 1206.804979253112,381.8165107581602 1211.9502074688796,373.44864083636725 1217.0954356846473,383.6130870599686 1222.240663900415,395.8446718791309 1227.3858921161825,379.2378694579216 1232.5311203319502,382.8803711477202 1237.676348547718,386.5053906463066 1242.8215767634854,388.34198651775637 1247.966804979253,386.21875556463743 1253.1120331950208,384.07378252228324 1258.2572614107885,378.07553069294306 1263.402489626556,360.9540995701926 1268.5477178423237,369.5964610031241 1273.6929460580914,382.97392142926685 1278.8381742738588,362.94488029689165 1283.9834024896265,377.30572760294535 1289.1286307053942,391.41564266602137 1294.2738589211617,391.99072001357194 1299.4190871369294,387.89890789954666 1304.5643153526971,393.24121632668675 1309.7095435684648,394.7770409978993 1314.8547717842323,394.3968821922417 1320.0,395.53865968791064" stroke="#C27803" stroke-width="2" fill="none" opacity="0.3" /><polyline points="105.72614107883817,413.62921306382543 110.87136929460581,414.13829732877224 116.01659751037344,414.71234380653016 121.16182572614107,415.1619301268774 126.30705394190872,415.52159918315516 131.45228215767634,415.81587386556424 136.59751037344398,416.05587112481624 141.74273858921163,416.054491415465 146.88796680497927,416.0409451972099 152.0331950207469,417.41106187598905 157.1784232365145,417.3903163225683 162.32365145228215,417.7041141698421 167.4688796680498,418.463134747129 172.61410788381744,418.5410049721664 177.75933609958506,418.543334267068 182.9045643153527,418.5408056397017 188.04979253112032,418.5408056397017 193.19502074688796,418.5408056397017 198.3402489626556,418.54603728245735 203.48547717842325,418.43254962406013 208.63070539419087,418.4460958423152 213.7759336099585,418.3437965942482 218.92116182572613,418.4148286301469 224.06639004149378,418.41728151900475 229.21161825726142,418.42316547016645 234.35684647302904,418.4738153830594 239.50207468879668,418.4738153830594 244.64730290456433,418.4763440104257 249.79253112033194,418.4763440104257 254.9377593360996,418.4763440104257 260.08298755186723,418.37373277920926 265.2282157676349,418.4723203797635 270.37344398340247,418.29920983768613 275.5186721991701,418.40640320348615 280.66390041493776,418.37819448978627 285.8091286307054,418.3411771252854 290.95435684647305,418.34287905622256 296.09958506224064,418.34484373255907 301.24481327800834,418.34484373255907 306.3900414937759,418.34484373255907 311.53526970954357,418.2349091482871 316.6804979253112,412.2346635269921 321.8257261410788,402.86320342379423 326.9709543568465,396.99103657696537 332.1161825726141,387.48196008814034 337.26141078838174,387.1613975585175 342.4066390041494,387.0779340944293 347.551867219917,386.68971324708593 352.6970954356847,386.18445301647535 357.84232365145226,386.13470750999227 362.9875518672199,386.12459013574767 368.13278008298755,386.12459013574767 373.2780082987552,386.23452472001964 378.42323651452284,392.22551445394174 383.56846473029043,401.4607226393906 388.7136929460581,407.3754542502029 393.8589211618257,417.0576412811053 399.00414937759336,416.92797148676146 404.149377593361,415.85923854999726 409.29460580912865,416.2918179381829 414.43983402489624,416.7894862622927 419.5850622406639,416.83923176877585 424.73029045643153,416.6958265640398 429.8755186721992,416.6958265640398 435.0207468879668,416.6958265640398 440.16597510373447,416.7050824514127 445.31120331950206,416.9414985417699 450.4564315352697,416.96197464843823 455.60165975103735,416.95926540468395 460.746887966805,417.26508730494766 465.89211618257264,418.4378882927634 471.0373443983402,418.4403353513717 476.18257261410787,418.4453986305061 481.3278008298755,418.4453986305061 486.47302904564316,418.59892120948666 491.6182572614108,418.59892120948666 496.76348547717845,418.59892120948666 501.90871369294604,418.49048471945673 507.0539419087137,418.4929317780651 512.1991701244813,418.29671551125074 517.344398340249,418.2353021167049 522.4896265560167,418.27063078670596 527.6348547717841,418.2782349134426 532.7800829875519,418.2291823654903 537.9253112033196,418.06291617327304 543.0705394190871,408.60292687826137 548.2157676348547,408.60047981965306 553.3609958506224,408.4352813288521 558.50622406639,408.4303872111191 563.6514522821576,407.50307237712923 568.7966804979253,407.49817825939624 573.941908713693,402.24925474869883 579.0871369294606,402.3083236729644 584.2323651452282,401.95807357868244 589.3775933609959,401.5830064175027 594.5228215767635,401.28092594079766 599.6680497925311,400.85777685640784 604.8132780082988,409.20825933538407 609.9585062240664,408.6041514733378 615.103734439834,408.7617580576381 620.2489626556016,407.37169825282785 625.3941908713693,407.74871703050263 630.5394190871369,407.0431395988122 635.6846473029045,411.859311761754 640.8298755186722,411.37354609819823 645.9751037344398,411.49608688853635 651.1203319502075,411.8711540497161 656.2655601659751,412.2222870743734 661.4107883817427,411.51843346635917 666.5560165975104,411.2268277776573 671.701244813278,411.098971443396 676.8464730290457,410.4640440023197 681.9917012448133,411.858997924863 687.1369294605809,410.70309394285283 692.2821576763486,394.23305839536266 697.4273858921161,394.40162559407605 702.5726141078839,394.88485306516577 707.7178423236514,395.2216441228114 712.8630705394191,395.06473936918326 718.0082987551867,394.9820003617409 723.1535269709543,396.14735753325107 728.298755186722,397.54847003798835 733.4439834024896,398.0480750422904 738.5892116182573,398.688147331259 743.7344398340249,398.40330702715926 748.8796680497925,400.0100390063823 754.0248962655602,416.90056556138865 759.1701244813278,416.7915468157932 764.3153526970955,416.736917773911 769.4605809128631,416.60274337733557 774.6058091286307,416.3667448750458 779.7510373443984,415.9869793310999 784.896265560166,415.6749051350372 790.0414937759336,415.44387137493436 795.1867219917012,415.6786776255482 800.3319502074689,415.5760723908499 805.4771784232365,415.8496676577213 810.6224066390041,415.52764065680327 815.7676348547718,415.81762119871064 820.9128630705394,416.37902641351667 826.0580912863071,416.28619367348875 831.2033195020747,412.7632395303597 836.3485477178423,409.09822737236584 841.49377593361,409.5607319237541 846.6390041493776,409.520296739583 851.7842323651453,409.586496732788 856.9294605809129,409.28583997914455 862.0746887966804,405.2971150230431 867.2199170124481,394.1550534213891 872.3651452282157,384.4506720673229 877.5103734439834,382.137605407644 882.655601659751,377.93468442966906 887.8008298755186,375.2454223628533 892.9460580912863,378.5934270838108 898.0912863070539,382.05000113990565 903.2365145228216,380.6821221207824 908.3817427385892,380.8992940169212 913.5269709543569,380.91658699844004 918.6721991701245,381.2049673157909 923.8174273858921,384.66109952768795 928.9626556016598,395.3919579229855 934.1078838174274,404.27565030990496 939.2531120331951,397.4658627706376 944.3983402489627,391.69058039701383 949.5435684647302,393.86769645559224 954.688796680498,393.6291175533623 959.8340248962655,392.3661496829431 964.9792531120332,393.08775051092397 970.1244813278008,392.45398721797596 975.2697095435684,391.5164805920884 980.4149377593361,390.709933129171 985.5601659751037,385.18354993358435 990.7053941908714,385.26789106115 995.850622406639,386.6185115783468 1000.9958506224067,395.45750930132573 1006.1410788381743,404.8723700701312 1011.2863070539419,403.5646190797699 1016.4315352697096,403.9189534659527 1021.5767634854772,405.6285341246742 1026.7219917012449,405.9980733083157 1031.8672199170123,405.49805473273045 1037.01244813278,406.51562130524576 1042.1576763485477,403.3660368341099 1047.3029045643152,409.22049041697284 1052.4481327800831,409.16445317440343 1057.5933609958506,408.3446057114145 1062.738589211618,408.28102822493304 1067.883817427386,405.1830973990494 1073.0290456431535,401.40815318696 1078.1742738589212,401.53866684627116 1083.319502074689,400.90771366333627 1088.4647302904564,399.88807643520374 1093.609958506224,400.7716220482729 1098.7551867219918,400.8340273876539 1103.9004149377593,404.73214215926265 1109.045643153527,404.91102082050736 1114.1908713692947,405.22997163289267 1119.3360995850621,399.88161835085924 1124.4813278008298,394.23947708537617 1129.6265560165975,395.3489137742148 1134.7717842323652,395.87412306902564 1139.9170124481327,392.0992376572043 1145.0622406639004,389.01384245992193 1150.207468879668,386.5236912989981 1155.3526970954356,383.449905129096 1160.4979253112033,380.79309875099784 1165.643153526971,378.73254051598036 1170.7883817427387,376.9797342462983 1175.9336099585062,375.18703343022247 1181.0788381742739,378.6374732526826 1186.2240663900416,378.84352389040697 1191.369294605809,374.2988238375579 1196.5145228215767,375.64416769293086 1201.6597510373444,375.2846421808957 1206.804979253112,376.07720996966964 1211.9502074688796,376.0879057117862 1217.0954356846473,376.74891149258445 1222.240663900415,377.5012976358425 1227.3858921161825,376.33875353361924 1232.5311203319502,375.2324016637968 1237.676348547718,374.4125268557967 1242.8215767634854,374.5955682640341 1247.966804979253,377.66743742715687 1253.1120331950208,381.8815849658757 1258.2572614107885,382.3706692150647 1263.402489626556,381.7508913877823 1268.5477178423237,380.732553908196 1273.6929460580914,381.5263272909376 1278.8381742738588,379.8039767273479 1283.9834024896265,378.2590647043324 1289.1286307053942,379.2738791383407 1294.2738589211617,380.0330748771617 1299.4190871369294,380.1492013149317 1304.5643153526971,380.5574704656759 1309.7095435684648,381.27066091844773 1314.8547717842323,382.1309192242776 1320.0,383.58617997385824" stroke="#C27803" stroke-width="4" fill="none" opacity="1.0" /><line x1="80.0" y1="436" x2="1320.0" y2="436" stroke="#E2E8F0" stroke-width="2" /><line x1="80.0" y1="430" x2="80.0" y2="442" stroke="#E2E8F0" stroke-width="1" /><text x="80.0" y="458" font-family="Inter, Arial, sans-serif" font-size="11" font-weight="500" fill="#64748B" text-anchor="middle">2006</text><line x1="141.74273858921163" y1="430" x2="141.74273858921163" y2="442" stroke="#E2E8F0" stroke-width="1" /><text x="141.74273858921163" y="458" font-family="Inter, Arial, sans-serif" font-size="11" font-weight="500" fill="#64748B" text-anchor="middle">2007</text><line x1="203.48547717842325" y1="430" x2="203.48547717842325" y2="442" stroke="#E2E8F0" stroke-width="1" /><text x="203.48547717842325" y="458" font-family="Inter, Arial, sans-serif" font-size="11" font-weight="500" fill="#64748B" text-anchor="middle">2008</text><line x1="265.2282157676349" y1="430" x2="265.2282157676349" y2="442" stroke="#E2E8F0" stroke-width="1" /><text x="265.2282157676349" y="458" font-family="Inter, Arial, sans-serif" font-size="11" font-weight="500" fill="#64748B" text-anchor="middle">2009</text><line x1="326.9709543568465" y1="430" x2="326.9709543568465" y2="442" stroke="#E2E8F0" stroke-width="1" /><text x="326.9709543568465" y="458" font-family="Inter, Arial, sans-serif" font-size="11" font-weight="500" fill="#64748B" text-anchor="middle">2010</text><line x1="388.7136929460581" y1="430" x2="388.7136929460581" y2="442" stroke="#E2E8F0" stroke-width="1" /><text x="388.7136929460581" y="458" font-family="Inter, Arial, sans-serif" font-size="11" font-weight="500" fill="#64748B" text-anchor="middle">2011</text><line x1="450.4564315352697" y1="430" x2="450.4564315352697" y2="442" stroke="#E2E8F0" stroke-width="1" /><text x="450.4564315352697" y="458" font-family="Inter, Arial, sans-serif" font-size="11" font-weight="500" fill="#64748B" text-anchor="middle">2012</text><line x1="512.1991701244813" y1="430" x2="512.1991701244813" y2="442" stroke="#E2E8F0" stroke-width="1" /><text x="512.1991701244813" y="458" font-family="Inter, Arial, sans-serif" font-size="11" font-weight="500" fill="#64748B" text-anchor="middle">2013</text><line x1="573.941908713693" y1="430" x2="573.941908713693" y2="442" stroke="#E2E8F0" stroke-width="1" /><text x="573.941908713693" y="458" font-family="Inter, Arial, sans-serif" font-size="11" font-weight="500" fill="#64748B" text-anchor="middle">2014</text><line x1="635.6846473029045" y1="430" x2="635.6846473029045" y2="442" stroke="#E2E8F0" stroke-width="1" /><text x="635.6846473029045" y="458" font-family="Inter, Arial, sans-serif" font-size="11" font-weight="500" fill="#64748B" text-anchor="middle">2015</text><line x1="692.2821576763486" y1="430" x2="692.2821576763486" y2="442" stroke="#E2E8F0" stroke-width="1" /><text x="692.2821576763486" y="458" font-family="Inter, Arial, sans-serif" font-size="11" font-weight="500" fill="#64748B" text-anchor="middle">2016</text><line x1="754.0248962655602" y1="430" x2="754.0248962655602" y2="442" stroke="#E2E8F0" stroke-width="1" /><text x="754.0248962655602" y="458" font-family="Inter, Arial, sans-serif" font-size="11" font-weight="500" fill="#64748B" text-anchor="middle">2017</text><line x1="815.7676348547718" y1="430" x2="815.7676348547718" y2="442" stroke="#E2E8F0" stroke-width="1" /><text x="815.7676348547718" y="458" font-family="Inter, Arial, sans-serif" font-size="11" font-weight="500" fill="#64748B" text-anchor="middle">2018</text><line x1="872.3651452282157" y1="430" x2="872.3651452282157" y2="442" stroke="#E2E8F0" stroke-width="1" /><text x="872.3651452282157" y="458" font-family="Inter, Arial, sans-serif" font-size="11" font-weight="500" fill="#64748B" text-anchor="middle">2019</text><line x1="934.1078838174274" y1="430" x2="934.1078838174274" y2="442" stroke="#E2E8F0" stroke-width="1" /><text x="934.1078838174274" y="458" font-family="Inter, Arial, sans-serif" font-size="11" font-weight="500" fill="#64748B" text-anchor="middle">2020</text><line x1="995.850622406639" y1="430" x2="995.850622406639" y2="442" stroke="#E2E8F0" stroke-width="1" /><text x="995.850622406639" y="458" font-family="Inter, Arial, sans-serif" font-size="11" font-weight="500" fill="#64748B" text-anchor="middle">2021</text><line x1="1057.5933609958506" y1="430" x2="1057.5933609958506" y2="442" stroke="#E2E8F0" stroke-width="1" /><text x="1057.5933609958506" y="458" font-family="Inter, Arial, sans-serif" font-size="11" font-weight="500" fill="#64748B" text-anchor="middle">2022</text><line x1="1119.3360995850621" y1="430" x2="1119.3360995850621" y2="442" stroke="#E2E8F0" stroke-width="1" /><text x="1119.3360995850621" y="458" font-family="Inter, Arial, sans-serif" font-size="11" font-weight="500" fill="#64748B" text-anchor="middle">2023</text><line x1="1181.0788381742739" y1="430" x2="1181.0788381742739" y2="442" stroke="#E2E8F0" stroke-width="1" /><text x="1181.0788381742739" y="458" font-family="Inter, Arial, sans-serif" font-size="11" font-weight="500" fill="#64748B" text-anchor="middle">2024</text><line x1="1242.8215767634854" y1="430" x2="1242.8215767634854" y2="442" stroke="#E2E8F0" stroke-width="1" /><text x="1242.8215767634854" y="458" font-family="Inter, Arial, sans-serif" font-size="11" font-weight="500" fill="#64748B" text-anchor="middle">2025</text><line x1="1304.5643153526971" y1="430" x2="1304.5643153526971" y2="442" stroke="#E2E8F0" stroke-width="1" /><text x="1304.5643153526971" y="458" font-family="Inter, Arial, sans-serif" font-size="11" font-weight="500" fill="#64748B" text-anchor="middle">2026</text><line x1="1320.0" y1="430" x2="1320.0" y2="442" stroke="#E2E8F0" stroke-width="1" /><text x="1320.0" y="458" font-family="Inter, Arial, sans-serif" font-size="11" font-weight="500" fill="#64748B" text-anchor="middle">2026</text><rect x="62" y="474" width="1276" height="298" rx="18" fill="#FFFFFF" stroke="#E2E8F0" /><text x="80" y="502" font-family="Inter, Arial, sans-serif" font-size="17" font-weight="700" fill="#011E42" text-anchor="start">Thurmond storage context (ac·ft)</text><line x1="80" y1="526.0" x2="1320" y2="526.0" stroke="#E2E8F0" stroke-width="1" stroke-dasharray="4 6" /><line x1="80" y1="631.0" x2="1320" y2="631.0" stroke="#E2E8F0" stroke-width="1" stroke-dasharray="4 6" /><line x1="80" y1="736.0" x2="1320" y2="736.0" stroke="#E2E8F0" stroke-width="1" stroke-dasharray="4 6" /><text x="74" y="532" font-family="Inter, Arial, sans-serif" font-size="11" font-weight="500" fill="#64748B" text-anchor="end">991760436.8M</text><text x="74" y="635.0" font-family="Inter, Arial, sans-serif" font-size="11" font-weight="500" fill="#64748B" text-anchor="end">-6198502710.6M</text><text x="74" y="740" font-family="Inter, Arial, sans-serif" font-size="11" font-weight="500" fill="#64748B" text-anchor="end">-13388765857.9M</text><polygon points="80.0,736 80.0,540.4827586247978 85.14522821576763,540.4827586234278 90.29045643153528,540.4827586231097 95.4356846473029,540.4827586244159 100.58091286307054,540.482758624566 105.72614107883817,540.48275862548 110.87136929460581,540.48275862628 116.01659751037344,540.482758627919 121.16182572614107,540.4827586294477 126.30705394190872,540.482758631003 131.45228215767634,540.4827586307948 136.59751037344398,540.4827586305123 141.74273858921163,540.4827586280919 146.88796680497927,540.4827586270632 152.0331950207469,540.4827586232188 157.1784232365145,540.4827586239801 162.32365145228215,540.4827586248678 167.4688796680498,540.4827586261059 172.61410788381744,540.4827586273 177.75933609958506,540.4827586284246 182.9045643153527,540.4827586306034 188.04979253112032,540.4827586323792 193.19502074688796,540.4827586335437 198.3402489626556,540.482758634726 203.48547717842325,540.4827586343885 208.63070539419087,540.4827586339068 213.7759336099585,540.4827586327474 218.92116182572613,540.4827586307932 224.06639004149378,540.4827586309755 229.21161825726142,540.4827586320109 234.35684647302904,540.482758633438 239.50207468879668,540.4827586349529 244.64730290456433,540.4827586355718 249.79253112033194,540.4827586363699 254.9377593360996,540.48275863674 260.08298755186723,540.4827586353065 265.2282157676349,540.4827586349835 270.37344398340247,540.4827586355591 275.5186721991701,540.4827586313921 280.66390041493776,540.4827586269356 285.8091286307054,540.4827586263516 290.95435684647305,540.4827586261305 296.09958506224064,540.4827586268466 301.24481327800834,540.4827586281249 306.3900414937759,540.4827586287976 311.53526970954357,540.4827586261808 316.6804979253112,540.482758623968 321.8257261410788,540.482758625419 326.9709543568465,540.4827586250692 332.1161825726141,540.4827586236174 337.26141078838174,540.4827586251341 342.4066390041494,540.4827586250155 347.551867219917,540.4827586250725 352.6970954356847,540.4827586252691 357.84232365145226,540.4827586252807 362.9875518672199,540.4827586262173 368.13278008298755,540.4827586271782 373.2780082987552,540.4827586275891 378.42323651452284,540.4827586288225 383.56846473029043,540.4827586289899 388.7136929460581,540.482758628881 393.8589211618257,540.4827586273818 399.00414937759336,540.4827586260944 404.149377593361,540.4827586257262 409.29460580912865,540.4827586255839 414.43983402489624,540.4827586254323 419.5850622406639,540.482758626131 424.73029045643153,540.4827586278377 429.8755186721992,540.4827586295137 435.0207468879668,540.4827586307977 440.16597510373447,540.4827586322943 445.31120331950206,540.4827586327355 450.4564315352697,540.482758632085 455.60165975103735,540.4827586303059 460.746887966805,540.4827586302342 465.89211618257264,540.4827586305248 471.0373443983402,540.4827586309285 476.18257261410787,540.4827586312813 481.3278008298755,540.4827586327044 486.47302904564316,540.4827586328598 491.6182572614108,540.4827586338495 496.76348547717845,540.4827586347207 501.90871369294604,540.4827586361 507.0539419087137,540.4827586361084 512.1991701244813,540.482758634945 517.344398340249,540.4827586330025 522.4896265560167,540.4827586301657 527.6348547717841,540.4827586282775 532.7800829875519,540.482758624547 537.9253112033196,540.4827586225265 543.0705394190871,540.4827586223261 548.2157676348547,540.4827586227595 553.3609958506224,540.4827586228373 558.50622406639,540.4827586237535 563.6514522821576,540.4827586245158 568.7966804979253,540.4827586231672 573.941908713693,540.4827586226575 579.0871369294606,540.482758624443 584.2323651452282,540.4827586230807 589.3775933609959,540.4827586232059 594.5228215767635,540.4827586247891 599.6680497925311,540.4827586233016 604.8132780082988,540.4827586249072 609.9585062240664,540.4827586254537 615.103734439834,540.482758626693 620.2489626556016,540.4827586276856 625.3941908713693,540.482758628573 630.5394190871369,540.482758628618 635.6846473029045,540.4827586263154 640.8298755186722,540.4827586255069 645.9751037344398,540.4827586240353 651.1203319502075,540.4827586232699 656.2655601659751,540.4827586227507 661.4107883817427,540.4827586230037 666.5560165975104,540.4827586238972 671.701244813278,540.4827586258583 676.8464730290457,540.4827586274727 681.9917012448133,540.4827586267295 687.1369294605809,540.4827586239852 692.2821576763486,540.4827586226439 697.4273858921161,540.4827586242254 702.5726141078839,540.482758623565 707.7178423236514,540.4827586228587 712.8630705394191,540.4827586235217 718.0082987551867,540.4827586240966 723.1535269709543,540.4827586261076 728.298755186722,540.4827586273952 733.4439834024896,540.482758628162 738.5892116182573,540.482758630299 743.7344398340249,540.4827586318593 748.8796680497925,540.482758632584 754.0248962655602,540.482758632048 759.1701244813278,540.4827586319091 764.3153526970955,540.4827586322374 769.4605809128631,540.4827586309788 774.6058091286307,540.4827586299837 779.7510373443984,540.4827586296184 784.896265560166,540.4827586286385 790.0414937759336,540.4827586299399 795.1867219917012,540.4827586299427 800.3319502074689,540.4827586312126 805.4771784232365,540.4827586311965 810.6224066390041,540.4827586314364 815.7676348547718,540.4827586312988 820.9128630705394,540.4827586259811 826.0580912863071,540.4827586255606 831.2033195020747,540.482758623082 836.3485477178423,540.4827586248317 841.49377593361,540.4827586254007 846.6390041493776,540.4827586240433 851.7842323651453,540.482758625773 856.9294605809129,540.4827586264129 862.0746887966804,540.4827586254431 867.2199170124481,540.4827586256878 872.3651452282157,540.4827586252281 877.5103734439834,540.4827586261011 882.655601659751,540.4827586241665 887.8008298755186,540.4827586245483 892.9460580912863,540.4827586253446 898.0912863070539,540.4827586234858 903.2365145228216,540.4827586231916 908.3817427385892,540.4827586245361 913.5269709543569,540.4827586263049 918.6721991701245,540.4827586280597 923.8174273858921,540.4827586284412 928.9626556016598,540.4827586268989 934.1078838174274,540.4827586244164 939.2531120331951,540.4827586215333 944.3983402489627,540.4827586206897 949.5435684647302,540.4827586219265 954.688796680498,540.4827586225628 959.8340248962655,540.482758622536 964.9792531120332,540.4827586232569 970.1244813278008,540.4827586246295 975.2697095435684,540.4827586233562 980.4149377593361,540.4827586235538 985.5601659751037,540.4827586235924 990.7053941908714,540.4827586258557 995.850622406639,540.482758625348 1000.9958506224067,540.4827586240568 1006.1410788381743,540.4827586232896 1011.2863070539419,540.4827586221506 1016.4315352697096,540.482758622459 1021.5767634854772,540.4827586222325 1026.7219917012449,540.4827586227766 1031.8672199170123,540.4827586234844 1037.01244813278,540.4827586240259 1042.1576763485477,540.4827586219882 1047.3029045643152,540.4827586236655 1052.4481327800831,540.4827586259864 1057.5933609958506,540.4827586240318 1062.738589211618,540.4827586238764 1067.883817427386,540.4827586217309 1073.0290456431535,540.4827586215024 1078.1742738589212,540.48275862286 1083.319502074689,540.482758622451 1088.4647302904564,540.4827586236117 1093.609958506224,540.4827586258039 1098.7551867219918,540.4827586274342 1103.9004149377593,540.4827586280369 1109.045643153527,540.4827586287989 1114.1908713692947,540.482758627245 1119.3360995850621,540.4827586250713 1124.4813278008298,540.482758624157 1129.6265560165975,540.4827586234444 1134.7717842323652,540.4827586220051 1139.9170124481327,540.4827586217659 1145.0622406639004,540.48275862237 1150.207468879668,540.4827586232956 1155.3526970954356,540.482758625169 1160.4979253112033,540.4827586272311 1165.643153526971,540.4827586282671 1170.7883817427387,540.4827586297237 1175.9336099585062,540.4827586304523 1181.0788381742739,540.4827586265359 1186.2240663900416,540.4827586234517 1191.369294605809,540.4827586224419 1196.5145228215767,540.4827586225407 1201.6597510373444,540.4827586225044 1206.804979253112,540.4827586232509 1211.9502074688796,540.482758625132 1217.0954356846473,540.4827586270989 1222.240663900415,540.4827586284329 1227.3858921161825,540.4827586240543 1232.5311203319502,540.4827586257273 1237.676348547718,540.4827586265995 1242.8215767634854,540.4827586263616 1247.966804979253,540.4827586247537 1253.1120331950208,540.4827586232782 1258.2572614107885,540.4827586226259 1263.402489626556,540.482758622583 1268.5477178423237,540.482758622883 1273.6929460580914,540.4827586244387 1278.8381742738588,540.4827586229128 1283.9834024896265,540.4827586253296 1289.1286307053942,540.4827586268873 1294.2738589211617,540.4827586276937 1299.4190871369294,540.4827586288966 1304.5643153526971,540.4827586299801 1309.7095435684648,540.4827586294075 1314.8547717842323,721.5172413793103 1320.0,540.4827586291926 1320.0,736" fill="#87714D" opacity="0.1" /><polyline points="80.0,540.4827586247978 85.14522821576763,540.4827586234278 90.29045643153528,540.4827586231097 95.4356846473029,540.4827586244159 100.58091286307054,540.482758624566 105.72614107883817,540.48275862548 110.87136929460581,540.48275862628 116.01659751037344,540.482758627919 121.16182572614107,540.4827586294477 126.30705394190872,540.482758631003 131.45228215767634,540.4827586307948 136.59751037344398,540.4827586305123 141.74273858921163,540.4827586280919 146.88796680497927,540.4827586270632 152.0331950207469,540.4827586232188 157.1784232365145,540.4827586239801 162.32365145228215,540.4827586248678 167.4688796680498,540.4827586261059 172.61410788381744,540.4827586273 177.75933609958506,540.4827586284246 182.9045643153527,540.4827586306034 188.04979253112032,540.4827586323792 193.19502074688796,540.4827586335437 198.3402489626556,540.482758634726 203.48547717842325,540.4827586343885 208.63070539419087,540.4827586339068 213.7759336099585,540.4827586327474 218.92116182572613,540.4827586307932 224.06639004149378,540.4827586309755 229.21161825726142,540.4827586320109 234.35684647302904,540.482758633438 239.50207468879668,540.4827586349529 244.64730290456433,540.4827586355718 249.79253112033194,540.4827586363699 254.9377593360996,540.48275863674 260.08298755186723,540.4827586353065 265.2282157676349,540.4827586349835 270.37344398340247,540.4827586355591 275.5186721991701,540.4827586313921 280.66390041493776,540.4827586269356 285.8091286307054,540.4827586263516 290.95435684647305,540.4827586261305 296.09958506224064,540.4827586268466 301.24481327800834,540.4827586281249 306.3900414937759,540.4827586287976 311.53526970954357,540.4827586261808 316.6804979253112,540.482758623968 321.8257261410788,540.482758625419 326.9709543568465,540.4827586250692 332.1161825726141,540.4827586236174 337.26141078838174,540.4827586251341 342.4066390041494,540.4827586250155 347.551867219917,540.4827586250725 352.6970954356847,540.4827586252691 357.84232365145226,540.4827586252807 362.9875518672199,540.4827586262173 368.13278008298755,540.4827586271782 373.2780082987552,540.4827586275891 378.42323651452284,540.4827586288225 383.56846473029043,540.4827586289899 388.7136929460581,540.482758628881 393.8589211618257,540.4827586273818 399.00414937759336,540.4827586260944 404.149377593361,540.4827586257262 409.29460580912865,540.4827586255839 414.43983402489624,540.4827586254323 419.5850622406639,540.482758626131 424.73029045643153,540.4827586278377 429.8755186721992,540.4827586295137 435.0207468879668,540.4827586307977 440.16597510373447,540.4827586322943 445.31120331950206,540.4827586327355 450.4564315352697,540.482758632085 455.60165975103735,540.4827586303059 460.746887966805,540.4827586302342 465.89211618257264,540.4827586305248 471.0373443983402,540.4827586309285 476.18257261410787,540.4827586312813 481.3278008298755,540.4827586327044 486.47302904564316,540.4827586328598 491.6182572614108,540.4827586338495 496.76348547717845,540.4827586347207 501.90871369294604,540.4827586361 507.0539419087137,540.4827586361084 512.1991701244813,540.482758634945 517.344398340249,540.4827586330025 522.4896265560167,540.4827586301657 527.6348547717841,540.4827586282775 532.7800829875519,540.482758624547 537.9253112033196,540.4827586225265 543.0705394190871,540.4827586223261 548.2157676348547,540.4827586227595 553.3609958506224,540.4827586228373 558.50622406639,540.4827586237535 563.6514522821576,540.4827586245158 568.7966804979253,540.4827586231672 573.941908713693,540.4827586226575 579.0871369294606,540.482758624443 584.2323651452282,540.4827586230807 589.3775933609959,540.4827586232059 594.5228215767635,540.4827586247891 599.6680497925311,540.4827586233016 604.8132780082988,540.4827586249072 609.9585062240664,540.4827586254537 615.103734439834,540.482758626693 620.2489626556016,540.4827586276856 625.3941908713693,540.482758628573 630.5394190871369,540.482758628618 635.6846473029045,540.4827586263154 640.8298755186722,540.4827586255069 645.9751037344398,540.4827586240353 651.1203319502075,540.4827586232699 656.2655601659751,540.4827586227507 661.4107883817427,540.4827586230037 666.5560165975104,540.4827586238972 671.701244813278,540.4827586258583 676.8464730290457,540.4827586274727 681.9917012448133,540.4827586267295 687.1369294605809,540.4827586239852 692.2821576763486,540.4827586226439 697.4273858921161,540.4827586242254 702.5726141078839,540.482758623565 707.7178423236514,540.4827586228587 712.8630705394191,540.4827586235217 718.0082987551867,540.4827586240966 723.1535269709543,540.4827586261076 728.298755186722,540.4827586273952 733.4439834024896,540.482758628162 738.5892116182573,540.482758630299 743.7344398340249,540.4827586318593 748.8796680497925,540.482758632584 754.0248962655602,540.482758632048 759.1701244813278,540.4827586319091 764.3153526970955,540.4827586322374 769.4605809128631,540.4827586309788 774.6058091286307,540.4827586299837 779.7510373443984,540.4827586296184 784.896265560166,540.4827586286385 790.0414937759336,540.4827586299399 795.1867219917012,540.4827586299427 800.3319502074689,540.4827586312126 805.4771784232365,540.4827586311965 810.6224066390041,540.4827586314364 815.7676348547718,540.4827586312988 820.9128630705394,540.4827586259811 826.0580912863071,540.4827586255606 831.2033195020747,540.482758623082 836.3485477178423,540.4827586248317 841.49377593361,540.4827586254007 846.6390041493776,540.4827586240433 851.7842323651453,540.482758625773 856.9294605809129,540.4827586264129 862.0746887966804,540.4827586254431 867.2199170124481,540.4827586256878 872.3651452282157,540.4827586252281 877.5103734439834,540.4827586261011 882.655601659751,540.4827586241665 887.8008298755186,540.4827586245483 892.9460580912863,540.4827586253446 898.0912863070539,540.4827586234858 903.2365145228216,540.4827586231916 908.3817427385892,540.4827586245361 913.5269709543569,540.4827586263049 918.6721991701245,540.4827586280597 923.8174273858921,540.4827586284412 928.9626556016598,540.4827586268989 934.1078838174274,540.4827586244164 939.2531120331951,540.4827586215333 944.3983402489627,540.4827586206897 949.5435684647302,540.4827586219265 954.688796680498,540.4827586225628 959.8340248962655,540.482758622536 964.9792531120332,540.4827586232569 970.1244813278008,540.4827586246295 975.2697095435684,540.4827586233562 980.4149377593361,540.4827586235538 985.5601659751037,540.4827586235924 990.7053941908714,540.4827586258557 995.850622406639,540.482758625348 1000.9958506224067,540.4827586240568 1006.1410788381743,540.4827586232896 1011.2863070539419,540.4827586221506 1016.4315352697096,540.482758622459 1021.5767634854772,540.4827586222325 1026.7219917012449,540.4827586227766 1031.8672199170123,540.4827586234844 1037.01244813278,540.4827586240259 1042.1576763485477,540.4827586219882 1047.3029045643152,540.4827586236655 1052.4481327800831,540.4827586259864 1057.5933609958506,540.4827586240318 1062.738589211618,540.4827586238764 1067.883817427386,540.4827586217309 1073.0290456431535,540.4827586215024 1078.1742738589212,540.48275862286 1083.319502074689,540.482758622451 1088.4647302904564,540.4827586236117 1093.609958506224,540.4827586258039 1098.7551867219918,540.4827586274342 1103.9004149377593,540.4827586280369 1109.045643153527,540.4827586287989 1114.1908713692947,540.482758627245 1119.3360995850621,540.4827586250713 1124.4813278008298,540.482758624157 1129.6265560165975,540.4827586234444 1134.7717842323652,540.4827586220051 1139.9170124481327,540.4827586217659 1145.0622406639004,540.48275862237 1150.207468879668,540.4827586232956 1155.3526970954356,540.482758625169 1160.4979253112033,540.4827586272311 1165.643153526971,540.4827586282671 1170.7883817427387,540.4827586297237 1175.9336099585062,540.4827586304523 1181.0788381742739,540.4827586265359 1186.2240663900416,540.4827586234517 1191.369294605809,540.4827586224419 1196.5145228215767,540.4827586225407 1201.6597510373444,540.4827586225044 1206.804979253112,540.4827586232509 1211.9502074688796,540.482758625132 1217.0954356846473,540.4827586270989 1222.240663900415,540.4827586284329 1227.3858921161825,540.4827586240543 1232.5311203319502,540.4827586257273 1237.676348547718,540.4827586265995 1242.8215767634854,540.4827586263616 1247.966804979253,540.4827586247537 1253.1120331950208,540.4827586232782 1258.2572614107885,540.4827586226259 1263.402489626556,540.482758622583 1268.5477178423237,540.482758622883 1273.6929460580914,540.4827586244387 1278.8381742738588,540.4827586229128 1283.9834024896265,540.4827586253296 1289.1286307053942,540.4827586268873 1294.2738589211617,540.4827586276937 1299.4190871369294,540.4827586288966 1304.5643153526971,540.4827586299801 1309.7095435684648,540.4827586294075 1314.8547717842323,721.5172413793103 1320.0,540.4827586291926" stroke="#87714D" stroke-width="2" fill="none" opacity="0.4" /><polyline points="105.72614107883817,540.4827586242995 110.87136929460581,540.4827586245824 116.01659751037344,540.4827586249995 121.16182572614107,540.4827586254938 126.30705394190872,540.4827586260446 131.45228215767634,540.4827586264765 136.59751037344398,540.4827586268128 141.74273858921163,540.4827586270874 146.88796680497927,540.4827586273902 152.0331950207469,540.4827586273993 157.1784232365145,540.4827586273631 162.32365145228215,540.4827586273882 167.4688796680498,540.4827586274404 172.61410788381744,540.4827586275253 177.75933609958506,540.4827586275675 182.9045643153527,540.4827586276638 188.04979253112032,540.4827586277785 193.19502074688796,540.4827586280076 198.3402489626556,540.4827586283587 203.48547717842325,540.4827586288834 208.63070539419087,540.4827586294537 213.7759336099585,540.4827586302478 218.92116182572613,540.4827586308155 224.06639004149378,540.4827586313245 229.21161825726142,540.4827586318165 234.35684647302904,540.4827586323281 239.50207468879668,540.4827586328721 244.64730290456433,540.4827586332862 249.79253112033194,540.4827586336187 254.9377593360996,540.482758633885 260.08298755186723,540.4827586339335 265.2282157676349,540.482758633983 270.37344398340247,540.4827586341207 275.5186721991701,540.4827586340077 280.66390041493776,540.4827586336863 285.8091286307054,540.482758633301 290.95435684647305,540.4827586328109 296.09958506224064,540.4827586322617 301.24481327800834,540.4827586316927 306.3900414937759,540.4827586311281 311.53526970954357,540.482758630279 316.6804979253112,540.4827586292147 321.8257261410788,540.4827586283908 326.9709543568465,540.4827586275646 332.1161825726141,540.4827586265694 337.26141078838174,540.4827586260479 342.4066390041494,540.482758625888 347.551867219917,540.4827586257813 352.6970954356847,540.4827586257096 357.84232365145226,540.4827586255791 362.9875518672199,540.48275862542 368.13278008298755,540.4827586252852 373.2780082987552,540.4827586254025 378.42323651452284,540.482758625807 383.56846473029043,540.4827586261047 388.7136929460581,540.4827586264223 393.8589211618257,540.482758626736 399.00414937759336,540.482758626816 404.149377593361,540.4827586268752 409.29460580912865,540.4827586269179 414.43983402489624,540.4827586269314 419.5850622406639,540.4827586270023 424.73029045643153,540.4827586271374 429.8755186721992,540.482758627332 435.0207468879668,540.4827586275993 440.16597510373447,540.4827586278886 445.31120331950206,540.4827586282008 450.4564315352697,540.4827586284678 455.60165975103735,540.4827586287115 460.746887966805,540.4827586290564 465.89211618257264,540.4827586294564 471.0373443983402,540.4827586299017 476.18257261410787,540.4827586303892 481.3278008298755,540.4827586309369 486.47302904564316,540.4827586313554 491.6182572614108,540.4827586317167 496.76348547717845,540.4827586320437 501.90871369294604,540.4827586323609 507.0539419087137,540.4827586326419 512.1991701244813,540.4827586328802 517.344398340249,540.4827586331049 522.4896265560167,540.4827586330991 527.6348547717841,540.4827586329119 532.7800829875519,540.4827586323802 537.9253112033196,540.4827586316505 543.0705394190871,540.4827586307857 548.2157676348547,540.482758629944 553.3609958506224,540.4827586290263 558.50622406639,540.4827586281124 563.6514522821576,540.4827586271471 568.7966804979253,540.4827586260686 573.941908713693,540.4827586250447 579.0871369294606,540.4827586243314 584.2323651452282,540.482758623741 589.3775933609959,540.4827586233183 594.5228215767635,540.4827586233384 599.6680497925311,540.4827586234031 604.8132780082988,540.4827586236182 609.9585062240664,540.4827586238428 615.103734439834,540.482758624164 620.2489626556016,540.4827586244917 625.3941908713693,540.4827586248298 630.5394190871369,540.4827586252841 635.6846473029045,540.4827586255889 640.8298755186722,540.4827586256775 645.9751037344398,540.482758625757 651.1203319502075,540.4827586257624 656.2655601659751,540.4827586255925 661.4107883817427,540.4827586255677 666.5560165975104,540.4827586254835 671.701244813278,540.4827586255172 676.8464730290457,540.4827586255823 681.9917012448133,540.4827586255026 687.1369294605809,540.4827586251203 692.2821576763486,540.4827586246224 697.4273858921161,540.4827586244483 702.5726141078839,540.4827586242864 707.7178423236514,540.4827586241884 712.8630705394191,540.4827586242093 718.0082987551867,540.4827586243215 723.1535269709543,540.4827586245801 728.298755186722,540.4827586248716 733.4439834024896,540.4827586250636 738.5892116182573,540.4827586252991 743.7344398340249,540.4827586257265 748.8796680497925,540.4827586264432 754.0248962655602,540.4827586272269 759.1701244813278,540.4827586278672 764.3153526970955,540.4827586285899 769.4605809128631,540.4827586292665 774.6058091286307,540.4827586298051 779.7510373443984,540.4827586302652 784.896265560166,540.4827586304762 790.0414937759336,540.4827586306882 795.1867219917012,540.4827586308365 800.3319502074689,540.4827586309127 805.4771784232365,540.4827586308575 810.6224066390041,540.4827586307619 815.7676348547718,540.4827586306994 820.9128630705394,540.4827586302054 826.0580912863071,540.482758629649 831.2033195020747,540.482758628991 836.3485477178423,540.4827586285617 841.49377593361,540.4827586282101 846.6390041493776,540.4827586278271 851.7842323651453,540.4827586274799 856.9294605809129,540.4827586271858 862.0746887966804,540.482758626705 867.2199170124481,540.482758626246 872.3651452282157,540.4827586257286 877.5103734439834,540.4827586252954 882.655601659751,540.4827586251442 887.8008298755186,540.4827586250599 892.9460580912863,540.4827586252484 898.0912863070539,540.4827586251363 903.2365145228216,540.4827586249522 908.3817427385892,540.4827586249933 913.5269709543569,540.4827586250376 918.6721991701245,540.4827586251748 923.8174273858921,540.4827586254246 928.9626556016598,540.4827586255255 934.1078838174274,540.4827586254579 939.2531120331951,540.4827586250773 944.3983402489627,540.4827586247875 949.5435684647302,540.4827586245691 954.688796680498,540.4827586243372 959.8340248962655,540.482758624258 964.9792531120332,540.4827586242635 970.1244813278008,540.4827586242714 975.2697095435684,540.4827586240256 980.4149377593361,540.48275862365 985.5601659751037,540.482758623246 990.7053941908714,540.482758623159 995.850622406639,540.4827586232367 1000.9958506224067,540.482758623447 1006.1410788381743,540.4827586236637 1011.2863070539419,540.4827586236823 1016.4315352697096,540.4827586236737 1021.5767634854772,540.4827586236484 1026.7219917012449,540.4827586236083 1031.8672199170123,540.482758623513 1037.01244813278,540.4827586235688 1042.1576763485477,540.4827586234383 1047.3029045643152,540.4827586234444 1052.4481327800831,540.4827586234553 1057.5933609958506,540.4827586233456 1062.738589211618,540.4827586233306 1067.883817427386,540.4827586232007 1073.0290456431535,540.4827586231467 1078.1742738589212,540.4827586231801 1083.319502074689,540.4827586231983 1088.4647302904564,540.482758623268 1093.609958506224,540.4827586234612 1098.7551867219918,540.4827586237452 1103.9004149377593,540.4827586242493 1109.045643153527,540.482758624677 1114.1908713692947,540.4827586247819 1119.3360995850621,540.4827586248686 1124.4813278008298,540.4827586248919 1129.6265560165975,540.4827586250348 1134.7717842323652,540.4827586250766 1139.9170124481327,540.4827586249854 1145.0622406639004,540.4827586249787 1150.207468879668,540.4827586249523 1155.3526970954356,540.4827586248995 1160.4979253112033,540.4827586248825 1165.643153526971,540.4827586249017 1170.7883817427387,540.4827586249788 1175.9336099585062,540.4827586252461 1181.0788381742739,540.4827586253681 1186.2240663900416,540.4827586253093 1191.369294605809,540.4827586252258 1196.5145228215767,540.4827586252704 1201.6597510373444,540.4827586253319 1206.804979253112,540.4827586254053 1211.9502074688796,540.4827586255584 1217.0954356846473,540.4827586257192 1222.240663900415,540.4827586258193 1227.3858921161825,540.4827586254683 1232.5311203319502,540.4827586251353 1237.676348547718,540.4827586248142 1242.8215767634854,540.4827586247997 1247.966804979253,540.4827586249082 1253.1120331950208,540.4827586249779 1258.2572614107885,540.482758624985 1263.402489626556,540.4827586249916 1268.5477178423237,540.4827586249609 1273.6929460580914,540.4827586249031 1278.8381742738588,540.4827586245542 1283.9834024896265,540.4827586242957 1289.1286307053942,540.4827586245317 1294.2738589211617,540.4827586246956 1299.4190871369294,540.482758624887 1304.5643153526971,540.4827586251886 1309.7095435684648,540.4827586255764 1314.8547717842323,555.5689655219123 1320.0,555.5689655224596" stroke="#87714D" stroke-width="4" fill="none" opacity="1.0" /><line x1="80.0" y1="736" x2="1320.0" y2="736" stroke="#E2E8F0" stroke-width="2" /><line x1="80.0" y1="730" x2="80.0" y2="742" stroke="#E2E8F0" stroke-width="1" /><text x="80.0" y="758" font-family="Inter, Arial, sans-serif" font-size="11" font-weight="500" fill="#64748B" text-anchor="middle">2006</text><line x1="141.74273858921163" y1="730" x2="141.74273858921163" y2="742" stroke="#E2E8F0" stroke-width="1" /><text x="141.74273858921163" y="758" font-family="Inter, Arial, sans-serif" font-size="11" font-weight="500" fill="#64748B" text-anchor="middle">2007</text><line x1="203.48547717842325" y1="730" x2="203.48547717842325" y2="742" stroke="#E2E8F0" stroke-width="1" /><text x="203.48547717842325" y="758" font-family="Inter, Arial, sans-serif" font-size="11" font-weight="500" fill="#64748B" text-anchor="middle">2008</text><line x1="265.2282157676349" y1="730" x2="265.2282157676349" y2="742" stroke="#E2E8F0" stroke-width="1" /><text x="265.2282157676349" y="758" font-family="Inter, Arial, sans-serif" font-size="11" font-weight="500" fill="#64748B" text-anchor="middle">2009</text><line x1="326.9709543568465" y1="730" x2="326.9709543568465" y2="742" stroke="#E2E8F0" stroke-width="1" /><text x="326.9709543568465" y="758" font-family="Inter, Arial, sans-serif" font-size="11" font-weight="500" fill="#64748B" text-anchor="middle">2010</text><line x1="388.7136929460581" y1="730" x2="388.7136929460581" y2="742" stroke="#E2E8F0" stroke-width="1" /><text x="388.7136929460581" y="758" font-family="Inter, Arial, sans-serif" font-size="11" font-weight="500" fill="#64748B" text-anchor="middle">2011</text><line x1="450.4564315352697" y1="730" x2="450.4564315352697" y2="742" stroke="#E2E8F0" stroke-width="1" /><text x="450.4564315352697" y="758" font-family="Inter, Arial, sans-serif" font-size="11" font-weight="500" fill="#64748B" text-anchor="middle">2012</text><line x1="512.1991701244813" y1="730" x2="512.1991701244813" y2="742" stroke="#E2E8F0" stroke-width="1" /><text x="512.1991701244813" y="758" font-family="Inter, Arial, sans-serif" font-size="11" font-weight="500" fill="#64748B" text-anchor="middle">2013</text><line x1="573.941908713693" y1="730" x2="573.941908713693" y2="742" stroke="#E2E8F0" stroke-width="1" /><text x="573.941908713693" y="758" font-family="Inter, Arial, sans-serif" font-size="11" font-weight="500" fill="#64748B" text-anchor="middle">2014</text><line x1="635.6846473029045" y1="730" x2="635.6846473029045" y2="742" stroke="#E2E8F0" stroke-width="1" /><text x="635.6846473029045" y="758" font-family="Inter, Arial, sans-serif" font-size="11" font-weight="500" fill="#64748B" text-anchor="middle">2015</text><line x1="692.2821576763486" y1="730" x2="692.2821576763486" y2="742" stroke="#E2E8F0" stroke-width="1" /><text x="692.2821576763486" y="758" font-family="Inter, Arial, sans-serif" font-size="11" font-weight="500" fill="#64748B" text-anchor="middle">2016</text><line x1="754.0248962655602" y1="730" x2="754.0248962655602" y2="742" stroke="#E2E8F0" stroke-width="1" /><text x="754.0248962655602" y="758" font-family="Inter, Arial, sans-serif" font-size="11" font-weight="500" fill="#64748B" text-anchor="middle">2017</text><line x1="815.7676348547718" y1="730" x2="815.7676348547718" y2="742" stroke="#E2E8F0" stroke-width="1" /><text x="815.7676348547718" y="758" font-family="Inter, Arial, sans-serif" font-size="11" font-weight="500" fill="#64748B" text-anchor="middle">2018</text><line x1="872.3651452282157" y1="730" x2="872.3651452282157" y2="742" stroke="#E2E8F0" stroke-width="1" /><text x="872.3651452282157" y="758" font-family="Inter, Arial, sans-serif" font-size="11" font-weight="500" fill="#64748B" text-anchor="middle">2019</text><line x1="934.1078838174274" y1="730" x2="934.1078838174274" y2="742" stroke="#E2E8F0" stroke-width="1" /><text x="934.1078838174274" y="758" font-family="Inter, Arial, sans-serif" font-size="11" font-weight="500" fill="#64748B" text-anchor="middle">2020</text><line x1="995.850622406639" y1="730" x2="995.850622406639" y2="742" stroke="#E2E8F0" stroke-width="1" /><text x="995.850622406639" y="758" font-family="Inter, Arial, sans-serif" font-size="11" font-weight="500" fill="#64748B" text-anchor="middle">2021</text><line x1="1057.5933609958506" y1="730" x2="1057.5933609958506" y2="742" stroke="#E2E8F0" stroke-width="1" /><text x="1057.5933609958506" y="758" font-family="Inter, Arial, sans-serif" font-size="11" font-weight="500" fill="#64748B" text-anchor="middle">2022</text><line x1="1119.3360995850621" y1="730" x2="1119.3360995850621" y2="742" stroke="#E2E8F0" stroke-width="1" /><text x="1119.3360995850621" y="758" font-family="Inter, Arial, sans-serif" font-size="11" font-weight="500" fill="#64748B" text-anchor="middle">2023</text><line x1="1181.0788381742739" y1="730" x2="1181.0788381742739" y2="742" stroke="#E2E8F0" stroke-width="1" /><text x="1181.0788381742739" y="758" font-family="Inter, Arial, sans-serif" font-size="11" font-weight="500" fill="#64748B" text-anchor="middle">2024</text><line x1="1242.8215767634854" y1="730" x2="1242.8215767634854" y2="742" stroke="#E2E8F0" stroke-width="1" /><text x="1242.8215767634854" y="758" font-family="Inter, Arial, sans-serif" font-size="11" font-weight="500" fill="#64748B" text-anchor="middle">2025</text><line x1="1304.5643153526971" y1="730" x2="1304.5643153526971" y2="742" stroke="#E2E8F0" stroke-width="1" /><text x="1304.5643153526971" y="758" font-family="Inter, Arial, sans-serif" font-size="11" font-weight="500" fill="#64748B" text-anchor="middle">2026</text><line x1="1320.0" y1="730" x2="1320.0" y2="742" stroke="#E2E8F0" stroke-width="1" /><text x="1320.0" y="758" font-family="Inter, Arial, sans-serif" font-size="11" font-weight="500" fill="#64748B" text-anchor="middle">2026</text></svg>