<svg xmlns="http://www.w3.org/2000/svg" width="1400" height="840" viewBox="0 0 1400 840" role="img" aria-label="Savannah River analytical figure"><rect x="0" y="0" width="1400" height="840" rx="12" fill="#F8FAFC" stroke="none" /><text x="70" y="72" font-family="Inter, Arial, sans-serif" font-size="32" font-weight="700" fill="#011E42" text-anchor="start">Cascade operations as regulating annex: Hartwell, Russell, and Thurmond</text><text x="70" y="102" font-family="Inter, Arial, sans-serif" font-size="15" font-weight="400" fill="#64748B" text-anchor="start">Monthly operation is now shown as behavior, not snapshot. Each card uses normalized storage and outflow to keep different scales legible.</text><rect x="70" y="160" width="390" height="560" rx="20" fill="#FFFFFF" stroke="#E2E8F0" /><text x="94" y="198" font-family="Inter, Arial, sans-serif" font-size="24" font-weight="700" fill="#011E42" text-anchor="start">Hartwell</text><rect x="290" y="178" width="72" height="24" rx="12" fill="#DBEAFE" stroke="none" /><text x="302" y="195" font-family="Inter, Arial, sans-serif" font-size="11" font-weight="700" fill="#011E42" text-anchor="start">2023-2026</text><rect x="290" y="208" width="72" height="24" rx="12" fill="#D1FAE5" stroke="none" /><text x="302" y="225" font-family="Inter, Arial, sans-serif" font-size="11" font-weight="700" fill="#0F7B5F" text-anchor="start">40 months</text><text x="94" y="252" font-family="Inter, Arial, sans-serif" font-size="13" font-weight="600" fill="#64748B" text-anchor="start">Normalized outflow and storage</text><line x1="94" y1="506" x2="434" y2="506" stroke="#E2E8F0" stroke-width="2" /><line x1="94" y1="286" x2="94" y2="506" stroke="#E2E8F0" stroke-width="2" /><polyline points="318.695652173913,342.9156483771086 321.6521739130435,434.90608877592183 324.6086956521739,438.5899907933059 327.5652173913044,426.04357784045413 330.52173913043475,391.2955758654417 333.47826086956525,403.9009772284196 336.4347826086956,422.00134016919935 339.3913043478261,411.213245536688 342.3478260869565,454.6683409684351 345.304347826087,477.1983574212588 348.2608695652174,493.73459590388995 351.2173913043478,496.649748838675 354.17391304347825,416.9148186475589 357.1304347826087,367.5996750872979 360.0869565217391,294.0 363.04347826086956,408.9883776379392 366.0,382.9954075838186 368.95652173913044,427.76443469147483 371.9130434782609,419.3556478059245 374.8695652173913,459.5300796551401 377.82608695652175,456.51607810872565 380.7826086956522,437.3637881668825 383.7391304347826,453.4428167840694 386.69565217391306,451.3587520176952 389.6521739130435,424.75315953911434 392.60869565217394,442.3168934896978 395.5652173913044,455.9520095484411 398.5217391304348,433.39136846580885 401.4782608695652,396.2098613980902 404.4347826086956,453.9527162107922 407.39130434782606,430.73191500057317 410.3478260869565,486.47468509776024 413.30434782608694,433.32068924036315 416.2608695652174,467.4699303770109 419.2173913043478,482.7867806074726 422.17391304347825,454.07767872465274 425.1304347826087,463.61128853936077 428.0869565217391,458.0837505972315 431.04347826086956,498.0 434.0,431.9788358185465" stroke="#0B5CAD" stroke-width="3" fill="none" opacity="1.0" /><line x1="94" y1="533" x2="118" y2="533" stroke="#0B5CAD" stroke-width="4" /><text x="128" y="538" font-family="Inter, Arial, sans-serif" font-size="12" font-weight="600" fill="#64748B" text-anchor="start">Outflow</text><polyline points="318.695652173913,294.00000000170735 321.6521739130435,294.0000000015675 324.6086956521739,294.000000000727 327.5652173913044,294.00000000022874 330.52173913043475,294.0000000000091 333.47826086956525,294.0000000002792 336.4347826086956,294.0000000007849 339.3913043478261,294.00000000166267 342.3478260869565,294.0000000023738 345.304347826087,294.00000000295654 348.2608695652174,294.0000000036474 351.2173913043478,294.0000000037534 354.17391304347825,294.0000000020427 357.1304347826087,294.0000000007193 360.0869565217391,294.0 363.04347826086956,294.0000000004169 366.0,294.0000000003686 368.95652173913044,294.0000000008331 371.9130434782609,294.0000000017651 374.8695652173913,294.00000000247906 377.82608695652175,294.0000000028791 380.7826086956522,294.00000000112897 383.7391304347826,294.00000000195377 386.69565217391306,294.00000000226055 389.6521739130435,294.00000000176476 392.60869565217394,294.00000000144377 395.5652173913044,294.00000000069895 398.5217391304348,294.0000000005547 401.4782608695652,294.0000000004611 404.4347826086956,294.0000000006063 407.39130434782606,294.0000000012117 410.3478260869565,294.0000000013556 413.30434782608694,294.00000000156535 416.2608695652174,294.0000000023024 419.2173913043478,294.00000000270154 422.17391304347825,294.0000000032925 425.1304347826087,294.00000000340697 428.0869565217391,294.0000000036438 431.04347826086956,498.0 434.0,294.0000000034245" stroke="#87714D" stroke-width="2" fill="none" opacity="1.0" /><line x1="94" y1="559" x2="118" y2="559" stroke="#87714D" stroke-width="4" /><text x="128" y="564" font-family="Inter, Arial, sans-serif" font-size="12" font-weight="600" fill="#64748B" text-anchor="start">Storage</text><polyline points="94.0,319.8487227475608 96.95652173913044,340.07430987849534 99.91304347826087,375.8286490321107 102.86956521739131,391.37060710367865 105.82608695652173,409.0657491537971 108.78260869565217,441.5290412561586 111.73913043478261,481.8139521930939 114.69565217391305,496.3660546078028 117.65217391304347,498.0 120.6086956521739,483.40412659306486 123.56521739130434,490.4245120162175 126.52173913043478,471.6614242012863 129.47826086956522,442.44813242463636 132.43478260869566,430.2809759936219 135.3913043478261,429.8105416483187 138.34782608695653,444.6815992135976 141.30434782608694,455.3776682439885 144.26086956521738,461.98874920851625 147.2173913043478,445.0961528690133 150.17391304347825,460.7678458359501 153.1304347826087,470.52570399689347 156.08695652173913,402.4398840590651 159.04347826086956,341.52725764970484 162.0,324.80672200754117 164.95652173913044,313.5849193403386 167.91304347826087,303.90300841903854 170.8695652173913,323.8555542599397 173.82608695652175,309.1090488387658 176.7826086956522,316.05441725968063 179.73913043478262,345.5024943130439 182.69565217391306,347.717954363647 185.6521739130435,332.41576498346586 188.6086956521739,330.313694228098 191.56521739130434,339.502330153501 194.52173913043478,300.8340223256968 197.47826086956522,313.51584921294625 200.43478260869566,382.4650457431868 203.3913043478261,393.5148209358126 206.3478260869565,386.91714535676033 209.30434782608694,393.8027460243416 212.26086956521738,333.0164823997508 215.2173913043478,295.17553768764236 218.17391304347825,304.22448849971164 221.1304347826087,311.3964860086551 224.08695652173913,294.0 227.04347826086956,314.00781190964324 230.0,316.20681008043715 232.95652173913044,317.9562211906511 235.91304347826087,317.2980283917829 238.8695652173913,310.5717308799734 241.82608695652175,337.89285332735784 244.7826086956522,361.36334108965485 247.7391304347826,348.68322517477657 250.69565217391303,360.5241340584149 253.65217391304347,326.85520444377175 256.6086956521739,306.93073183887304 259.5652173913044,302.5827523692384 262.52173913043475,304.7681624293526 265.47826086956525,316.6164467667081 268.4347826086956,316.0266928627065 271.3913043478261,328.58091111151526 274.3478260869565,308.2673999343357 277.304347826087,336.52552062026274 280.2608695652174,378.9854262806398 283.2173913043478,357.38655956776483 286.17391304347825,340.1410876351374 289.1304347826087,314.71859634471434 292.0869565217391,316.6173105585848 295.04347826086956,315.81710705286616 298.0,309.4185188900726 300.95652173913044,338.2094496616487 303.9130434782609,376.2118570092216 306.8695652173913,375.59117271147227 309.82608695652175,406.0398862087736 312.7826086956522,423.20761687247375 315.7391304347826,402.0683704950585 318.695652173913,369.4587985606079 321.6521739130435,363.94828811563144 324.6086956521739,332.74148096661315 327.5652173913044,314.5685125060903 330.52173913043475,306.1001793377859 333.47826086956525,315.653966667795 336.4347826086956,333.41173362899417 339.3913043478261,365.5251734098024 342.3478260869565,392.98925341282495 345.304347826087,415.2235221081209 348.2608695652174,445.8477846930345 351.2173913043478,450.4739715925823 354.17391304347825,382.92682555833727 357.1304347826087,332.0157130647532 360.0869565217391,305.95350083252197 363.04347826086956,320.6250889197513 366.0,318.71155735291404 368.95652173913044,335.04933352528644 371.9130434782609,369.12612240829867 374.8695652173913,396.437028855599 377.82608695652175,413.87268450359943 380.7826086956522,346.03666653203766 383.7391304347826,378.09228209123626 386.69565217391306,390.6113174324409 389.6521739130435,371.2248542758353 392.60869565217394,359.46349730179054 395.5652173913044,331.09713684912583 398.5217391304348,325.84745832823 401.4782608695652,322.4390186386214 404.4347826086956,326.9942251018173 407.39130434782606,348.44815750456576 410.3478260869565,353.8608102967107 413.30434782608694,361.62913981702684 416.2608695652174,390.7336270399423 419.2173913043478,407.20891223457556 422.17391304347825,430.38966426767917 425.1304347826087,435.37832813929003 428.0869565217391,444.9990095056185 431.04347826086956,433.87828709940527 434.0,434.65498549923984" stroke="#0F7B5F" stroke-width="2" fill="none" opacity="1.0" /><line x1="94" y1="585" x2="118" y2="585" stroke="#0F7B5F" stroke-width="4" /><text x="128" y="590" font-family="Inter, Arial, sans-serif" font-size="12" font-weight="600" fill="#64748B" text-anchor="start">Elevation</text><line x1="94.0" y1="506" x2="434.0" y2="506" stroke="#E2E8F0" stroke-width="2" /><line x1="94.0" y1="500" x2="94.0" y2="512" stroke="#E2E8F0" stroke-width="1" /><text x="94.0" y="528" font-family="Inter, Arial, sans-serif" font-size="11" font-weight="500" fill="#64748B" text-anchor="middle">2016</text><line x1="117.65217391304347" y1="500" x2="117.65217391304347" y2="512" stroke="#E2E8F0" stroke-width="1" /><text x="117.65217391304347" y="528" font-family="Inter, Arial, sans-serif" font-size="11" font-weight="500" fill="#64748B" text-anchor="middle">2017</text><line x1="153.1304347826087" y1="500" x2="153.1304347826087" y2="512" stroke="#E2E8F0" stroke-width="1" /><text x="153.1304347826087" y="528" font-family="Inter, Arial, sans-serif" font-size="11" font-weight="500" fill="#64748B" text-anchor="middle">2018</text><line x1="188.6086956521739" y1="500" x2="188.6086956521739" y2="512" stroke="#E2E8F0" stroke-width="1" /><text x="188.6086956521739" y="528" font-family="Inter, Arial, sans-serif" font-size="11" font-weight="500" fill="#64748B" text-anchor="middle">2019</text><line x1="212.26086956521738" y1="500" x2="212.26086956521738" y2="512" stroke="#E2E8F0" stroke-width="1" /><text x="212.26086956521738" y="528" font-family="Inter, Arial, sans-serif" font-size="11" font-weight="500" fill="#64748B" text-anchor="middle">2020</text><line x1="247.7391304347826" y1="500" x2="247.7391304347826" y2="512" stroke="#E2E8F0" stroke-width="1" /><text x="247.7391304347826" y="528" font-family="Inter, Arial, sans-serif" font-size="11" font-weight="500" fill="#64748B" text-anchor="middle">2021</text><line x1="283.2173913043478" y1="500" x2="283.2173913043478" y2="512" stroke="#E2E8F0" stroke-width="1" /><text x="283.2173913043478" y="528" font-family="Inter, Arial, sans-serif" font-size="11" font-weight="500" fill="#64748B" text-anchor="middle">2022</text><line x1="318.695652173913" y1="500" x2="318.695652173913" y2="512" stroke="#E2E8F0" stroke-width="1" /><text x="318.695652173913" y="528" font-family="Inter, Arial, sans-serif" font-size="11" font-weight="500" fill="#64748B" text-anchor="middle">2023</text><line x1="354.17391304347825" y1="500" x2="354.17391304347825" y2="512" stroke="#E2E8F0" stroke-width="1" /><text x="354.17391304347825" y="528" font-family="Inter, Arial, sans-serif" font-size="11" font-weight="500" fill="#64748B" text-anchor="middle">2024</text><line x1="389.6521739130435" y1="500" x2="389.6521739130435" y2="512" stroke="#E2E8F0" stroke-width="1" /><text x="389.6521739130435" y="528" font-family="Inter, Arial, sans-serif" font-size="11" font-weight="500" fill="#64748B" text-anchor="middle">2025</text><line x1="425.1304347826087" y1="500" x2="425.1304347826087" y2="512" stroke="#E2E8F0" stroke-width="1" /><text x="425.1304347826087" y="528" font-family="Inter, Arial, sans-serif" font-size="11" font-weight="500" fill="#64748B" text-anchor="middle">2026</text><line x1="434.0" y1="500" x2="434.0" y2="512" stroke="#E2E8F0" stroke-width="1" /><text x="434.0" y="528" font-family="Inter, Arial, sans-serif" font-size="11" font-weight="500" fill="#64748B" text-anchor="middle">2026</text><text x="94" y="630" font-family="Inter, Arial, sans-serif" font-size="15" font-weight="700" fill="#011E42" text-anchor="start">Support role in the report</text><text x="94" y="658" font-family="Inter, Arial, sans-serif" font-size="13" font-weight="500" fill="#64748B" text-anchor="start">This reservoir explains river modulation</text><text x="94" y="682" font-family="Inter, Arial, sans-serif" font-size="13" font-weight="500" fill="#64748B" text-anchor="start">but does not replace the mainstem as</text><text x="94" y="706" font-family="Inter, Arial, sans-serif" font-size="13" font-weight="500" fill="#64748B" text-anchor="start">the protagonist of the narrative.</text><rect x="500" y="160" width="390" height="560" rx="20" fill="#FFFFFF" stroke="#E2E8F0" /><text x="524" y="198" font-family="Inter, Arial, sans-serif" font-size="24" font-weight="700" fill="#011E42" text-anchor="start">Russell</text><rect x="720" y="178" width="72" height="24" rx="12" fill="#DBEAFE" stroke="none" /><text x="732" y="195" font-family="Inter, Arial, sans-serif" font-size="11" font-weight="700" fill="#011E42" text-anchor="start">2023-2026</text><rect x="720" y="208" width="72" height="24" rx="12" fill="#D1FAE5" stroke="none" /><text x="732" y="225" font-family="Inter, Arial, sans-serif" font-size="11" font-weight="700" fill="#0F7B5F" text-anchor="start">40 months</text><text x="524" y="252" font-family="Inter, Arial, sans-serif" font-size="13" font-weight="600" fill="#64748B" text-anchor="start">Normalized outflow and storage</text><line x1="524" y1="506" x2="864" y2="506" stroke="#E2E8F0" stroke-width="2" /><line x1="524" y1="286" x2="524" y2="506" stroke="#E2E8F0" stroke-width="2" /><polyline points="524.0,307.86182303346305 532.7179487179487,427.73084764308896 541.4358974358975,454.61139965533016 550.1538461538462,408.9892208801048 558.8717948717949,408.72188182660784 567.5897435897436,396.7762677465977 576.3076923076923,380.17835228020834 585.025641025641,330.1121782089904 593.7435897435897,382.5854787013778 602.4615384615385,498.0 611.1794871794872,397.83051211825995 619.8974358974359,371.13118929441623 628.6153846153846,349.7583652459723 637.3333333333334,360.23266604324215 646.0512820512821,315.8077385867837 654.7692307692307,420.68167810180927 663.4871794871794,402.13351924534516 672.2051282051282,388.0253818448188 680.9230769230769,361.91816604832763 689.6410256410256,294.0 698.3589743589744,323.6678633394009 707.0769230769231,347.68781562457025 715.7948717948718,372.3669676631457 724.5128205128206,389.72527253911693 733.2307692307693,323.4262221153064 741.948717948718,363.88458840069177 750.6666666666666,420.4089557577799 759.3846153846154,445.25645708074103 768.1025641025641,426.68397686088326 776.8205128205128,380.70534835273963 785.5384615384615,319.7931195693308 794.2564102564103,363.91864648959114 802.9743589743589,349.71537744083855 811.6923076923076,321.4706588935988 820.4102564102564,334.66080992549587 829.1282051282051,410.8320711847726 837.8461538461538,374.6293349056996 846.5641025641025,351.4055592774845 855.2820512820513,393.1221429276859 864.0,437.74165207158353" stroke="#0B5CAD" stroke-width="3" fill="none" opacity="1.0" /><line x1="524" y1="533" x2="548" y2="533" stroke="#0B5CAD" stroke-width="4" /><text x="558" y="538" font-family="Inter, Arial, sans-serif" font-size="12" font-weight="600" fill="#64748B" text-anchor="start">Outflow</text><polyline points="524.0,294.00000000033117 532.7179487179487,294.00000000064733 541.4358974358975,294.00000000084094 550.1538461538462,294.0000000002202 558.8717948717949,294.0000000004162 567.5897435897436,294.0000000004631 576.3076923076923,294.0000000005614 585.025641025641,294.00000000036846 593.7435897435897,294.0000000002994 602.4615384615385,294.00000000085345 611.1794871794872,294.00000000048146 619.8974358974359,294.00000000044463 628.6153846153846,294.0000000003828 637.3333333333334,294.0000000007893 646.0512820512821,294.0 654.7692307692307,294.0000000002939 663.4871794871794,294.00000000030616 672.2051282051282,294.00000000047794 680.9230769230769,294.00000000049846 689.6410256410256,294.0000000007204 698.3589743589744,294.00000000037585 707.0769230769231,294.00000000039455 715.7948717948718,294.00000000036056 724.5128205128206,294.00000000045867 733.2307692307693,294.0000000005428 741.948717948718,294.00000000037585 750.6666666666666,294.00000000045054 759.3846153846154,294.00000000037795 768.1025641025641,294.00000000031514 776.8205128205128,294.0000000003836 785.5384615384615,294.0000000006383 794.2564102564103,294.0000000006796 802.9743589743589,294.0000000005415 811.6923076923076,294.00000000077364 820.4102564102564,294.0000000010923 829.1282051282051,294.0000000010058 837.8461538461538,294.0000000008203 846.5641025641025,294.0000000009602 855.2820512820513,498.0 864.0,294.0000000005118" stroke="#87714D" stroke-width="2" fill="none" opacity="1.0" /><line x1="524" y1="559" x2="548" y2="559" stroke="#87714D" stroke-width="4" /><text x="558" y="564" font-family="Inter, Arial, sans-serif" font-size="12" font-weight="600" fill="#64748B" text-anchor="start">Storage</text><line x1="524.0" y1="506" x2="864.0" y2="506" stroke="#E2E8F0" stroke-width="2" /><line x1="524.0" y1="500" x2="524.0" y2="512" stroke="#E2E8F0" stroke-width="1" /><text x="524.0" y="528" font-family="Inter, Arial, sans-serif" font-size="11" font-weight="500" fill="#64748B" text-anchor="middle">2023</text><line x1="628.6153846153846" y1="500" x2="628.6153846153846" y2="512" stroke="#E2E8F0" stroke-width="1" /><text x="628.6153846153846" y="528" font-family="Inter, Arial, sans-serif" font-size="11" font-weight="500" fill="#64748B" text-anchor="middle">2024</text><line x1="733.2307692307693" y1="500" x2="733.2307692307693" y2="512" stroke="#E2E8F0" stroke-width="1" /><text x="733.2307692307693" y="528" font-family="Inter, Arial, sans-serif" font-size="11" font-weight="500" fill="#64748B" text-anchor="middle">2025</text><line x1="837.8461538461538" y1="500" x2="837.8461538461538" y2="512" stroke="#E2E8F0" stroke-width="1" /><text x="837.8461538461538" y="528" font-family="Inter, Arial, sans-serif" font-size="11" font-weight="500" fill="#64748B" text-anchor="middle">2026</text><line x1="864.0" y1="500" x2="864.0" y2="512" stroke="#E2E8F0" stroke-width="1" /><text x="864.0" y="528" font-family="Inter, Arial, sans-serif" font-size="11" font-weight="500" fill="#64748B" text-anchor="middle">2026</text><text x="524" y="630" font-family="Inter, Arial, sans-serif" font-size="15" font-weight="700" fill="#011E42" text-anchor="start">Support role in the report</text><text x="524" y="658" font-family="Inter, Arial, sans-serif" font-size="13" font-weight="500" fill="#64748B" text-anchor="start">This reservoir explains river modulation</text><text x="524" y="682" font-family="Inter, Arial, sans-serif" font-size="13" font-weight="500" fill="#64748B" text-anchor="start">but does not replace the mainstem as</text><text x="524" y="706" font-family="Inter, Arial, sans-serif" font-size="13" font-weight="500" fill="#64748B" text-anchor="start">the protagonist of the narrative.</text><rect x="930" y="160" width="390" height="560" rx="20" fill="#FFFFFF" stroke="#E2E8F0" /><text x="954" y="198" font-family="Inter, Arial, sans-serif" font-size="24" font-weight="700" fill="#011E42" text-anchor="start">Thurmond</text><rect x="1150" y="178" width="72" height="24" rx="12" fill="#DBEAFE" stroke="none" /><text x="1162" y="195" font-family="Inter, Arial, sans-serif" font-size="11" font-weight="700" fill="#011E42" text-anchor="start">2006-2026</text><rect x="1150" y="208" width="74.0" height="24" rx="12" fill="#D1FAE5" stroke="none" /><text x="1162" y="225" font-family="Inter, Arial, sans-serif" font-size="11" font-weight="700" fill="#0F7B5F" text-anchor="start">242 months</text><text x="954" y="252" font-family="Inter, Arial, sans-serif" font-size="13" font-weight="600" fill="#64748B" text-anchor="start">Normalized outflow and storage</text><line x1="954" y1="506" x2="1294" y2="506" stroke="#E2E8F0" stroke-width="2" /><line x1="954" y1="286" x2="954" y2="506" stroke="#E2E8F0" stroke-width="2" /><polyline points="954.0,497.44476230814666 955.404958677686,498.0 956.8099173553719,481.67322914823234 958.2148760330579,497.4029022328826 959.6198347107438,494.12863871098835 961.0247933884298,488.89737474961987 962.4297520661157,496.45063350224297 963.8347107438017,497.9723421341842 965.2396694214876,498.0 966.6446280991736,498.0 968.0495867768595,498.0 969.4545454545455,497.93787988235016 970.8595041322315,497.42837974702303 972.2644628099174,497.83915326198206 973.6694214876034,497.9418876281181 975.0743801652893,497.15657115115357 976.4793388429752,497.85464985156517 977.8842975206611,497.90992582818143 979.2892561983471,497.3752584750696 980.694214876033,498.0 982.099173553719,497.9699752760605 983.5041322314049,498.0 984.9090909090909,498.0 986.3140495867768,498.0 987.7190082644628,496.080836151107 989.1239669421487,498.0 990.5289256198347,496.72719434299285 991.9338842975206,498.0 993.3388429752066,497.8837752623674 994.7438016528926,497.97979140492043 996.1487603305785,497.9766715865613 997.5537190082645,498.0 998.9586776859504,498.0 1000.3636363636364,498.0 1001.7685950413223,498.0 1003.1735537190083,496.78160225131427 1004.5785123966942,497.25145762343163 1005.9834710743802,495.94449893797764 1007.3884297520661,498.0 1008.7933884297521,497.6650519357601 1010.198347107438,497.44423396620033 1011.603305785124,498.0 1013.00826446281,498.0 1014.4132231404959,498.0 1015.8181818181819,498.0 1017.2231404958677,496.6946453288617 1018.6280991735537,426.7535519272269 1020.0330578512396,385.50561660850366 1021.4380165289256,427.5258069196592 1022.8429752066115,383.03446707583424 1024.2479338842975,494.19366554932424 1025.6528925619834,496.674013279104 1027.0578512396694,492.83452993294316 1028.4628099173553,492.0005794670014 1029.8677685950413,497.40932573961237 1031.2727272727273,497.87986708807523 1032.6776859504132,498.0 1034.0826446280992,498.0 1035.4876033057851,497.89009631593456 1036.892561983471,495.16375761704296 1038.297520661157,497.7568683079732 1039.702479338843,498.0 1041.107438016529,492.65397653450464 1042.5123966942149,483.98396182311035 1043.9173553719008,497.97094381712463 1045.3223140495868,497.90985429490513 1046.7272727272727,498.0 1048.1322314049587,496.17708488257216 1049.5371900826447,498.0 1050.9421487603306,498.0 1052.3471074380166,498.0 1053.7520661157025,497.97094381712463 1055.1570247933885,498.0 1056.5619834710744,497.9678306511702 1057.9669421487604,496.28528190295935 1059.3719008264463,497.90970919277794 1060.7768595041323,498.0 1062.1818181818182,497.9699752760605 1063.5867768595042,498.0 1064.9917355371902,498.0 1066.396694214876,498.0 1067.801652892562,498.0 1069.206611570248,496.71243358293685 1070.611570247934,498.0 1072.01652892562,495.6701433662971 1073.4214876033059,497.2386127988279 1074.8264462809918,496.70477177247113 1076.2314049586778,498.0 1077.6363636363637,497.4175538751089 1079.0413223140495,495.9957434899443 1080.4462809917354,385.6728256449975 1081.8512396694214,497.97094381712463 1083.2561983471073,496.038446017147 1084.6611570247933,497.9418876281181 1086.0661157024792,485.70156963888485 1087.4710743801652,497.9418876281181 1088.8760330578511,433.34483537963 1090.280991735537,497.93999259409196 1091.685950413223,492.54592949671843 1093.090909090909,493.54648180935186 1094.495867768595,493.8306738778999 1095.900826446281,490.97130429681766 1097.3057851239669,484.8258026847247 1098.7107438016528,490.79781422541566 1100.1157024793388,497.90985429490513 1101.5206611570247,481.4364260266834 1102.9256198347107,490.1782611714345 1104.3305785123966,489.56391628810394 1105.7355371900826,490.5316876476065 1107.1404958677685,492.1720490283766 1108.5454545454545,494.0009692745298 1109.9504132231405,498.0 1111.3553719008264,498.0 1112.7603305785124,482.61380150455733 1114.1652892561983,481.3632995025071 1115.5702479338843,489.2796580940407 1116.9752066115702,490.3707754278544 1118.3801652892562,498.0 1119.7851239669421,476.45314752956614 1121.190082644628,294.0 1122.595041322314,492.5332414052202 1124.0,497.90985429490513 1125.404958677686,498.0 1126.809917355372,496.13692520485034 1128.2148760330579,497.0175634849994 1129.6198347107438,496.45116158054566 1131.0247933884298,498.0 1132.4297520661157,495.2119289113516 1133.8347107438017,497.97094381712463 1135.2396694214876,494.6178284663794 1136.6446280991736,495.53135761455144 1138.0495867768595,494.5567936839465 1139.4545454545455,491.23876133102794 1140.8595041322315,497.2611933164424 1142.2644628099174,496.4068236899536 1143.6694214876034,493.3346974128801 1145.0743801652893,492.5082570641847 1146.4793388429753,492.7456169398856 1147.8842975206612,495.25672316916376 1149.2892561983472,498.0 1150.6942148760331,496.75261727062787 1152.099173553719,497.8664773058416 1153.504132231405,491.70763414604704 1154.909090909091,498.0 1157.719008264463,497.904843023169 1159.1239669421489,496.15890460873 1160.5289256198348,454.57554122871494 1161.9338842975208,449.8166291734935 1163.3388429752067,498.0 1164.7438016528927,492.265492719781 1166.1487603305786,496.0427767202988 1167.5537190082646,494.4300251792749 1168.9586776859505,449.3908085385169 1170.3636363636365,365.56650769983804 1171.7685950413224,376.4785675613283 1173.1735537190082,470.5348270622774 1174.5785123966941,447.99968744944874 1175.98347107438,464.2268167759461 1177.388429752066,494.3294879092539 1178.793388429752,490.8597196635303 1180.198347107438,481.75791131617626 1181.603305785124,494.8441748600931 1183.0082644628098,496.2481122328033 1184.4132231404958,497.8542305538735 1185.8181818181818,490.4286526050436 1187.2231404958677,492.9838825358784 1188.6280991735537,481.9628374206929 1190.0330578512396,389.67594145580426 1191.4380165289256,379.42443541681854 1192.8429752066115,490.07772288975747 1194.2479338842975,491.4966206498438 1195.6528925619834,475.86333776908674 1197.0578512396694,490.3261432128091 1198.4628099173553,487.31891899703305 1199.8677685950413,485.1162317474229 1201.2727272727273,488.2773489457225 1202.6776859504132,424.8088099810617 1204.0826446280992,493.98534250014717 1205.4876033057851,498.0 1206.892561983471,494.6295103648163 1208.297520661157,491.2157571747978 1209.702479338843,474.5495897253046 1211.107438016529,495.7039594887697 1212.5123966942149,496.16276504512126 1213.9173553719008,494.7140226297328 1215.3223140495868,481.3817374665928 1216.7272727272727,497.198737788843 1218.1322314049587,450.87942882105204 1219.5371900826447,494.32413477136356 1220.9421487603306,493.319960656662 1222.3471074380166,488.26519522931926 1223.7520661157025,493.8745962537806 1225.1570247933885,454.4311684012921 1226.5619834710744,429.72619685789743 1227.9669421487604,497.2536684903308 1229.3719008264463,488.67087620897445 1230.7768595041323,482.60692978516795 1232.1818181818182,491.87288909846046 1233.5867768595042,497.93973391671744 1234.9917355371902,497.16533929636245 1236.396694214876,496.448126030066 1237.801652892562,497.10715770268484 1239.206611570248,424.7592659002123 1240.611570247934,426.88025134499037 1242.0165289256197,467.60453303170766 1243.4214876033056,435.9624910218028 1244.8264462809916,452.43097381271616 1246.2314049586776,452.0351345108334 1247.6363636363635,453.03906930451205 1249.0413223140495,455.3749920851255 1250.4462809917354,466.3930223979763 1251.8512396694214,472.6984316799347 1253.2561983471073,475.63544122407546 1254.6611570247933,475.8207681673517 1256.0661157024792,465.729518978965 1257.4710743801652,429.3268805311175 1258.8760330578511,413.64111940535673 1260.280991735537,451.93699893055896 1261.685950413223,448.16199595068576 1263.090909090909,461.44602255958836 1264.495867768595,453.16606971139595 1265.900826446281,463.2237231221189 1267.3057851239669,475.3267967248249 1268.7107438016528,458.89447376904474 1270.1157024793388,462.49870549382894 1271.5206611570247,466.0856387041437 1272.9256198347107,467.90293837047636 1274.3305785123966,465.8020151556135 1275.7355371900826,463.6795782849013 1277.1404958677685,457.744347123005 1278.5454545454545,440.80280241510496 1279.9504132231405,449.3543628277908 1281.3553719008264,462.5912728888029 1282.7603305785124,442.77266699261577 1284.1652892561983,456.98263197361274 1285.5702479338843,470.94430113269027 1286.9752066115702,471.5133364267716 1288.3801652892562,467.46451496032455 1289.7851239669421,472.7506943931596 1291.190082644628,474.2703829136052 1292.595041322314,473.89421824863206 1294.0,475.0239996524568" stroke="#0B5CAD" stroke-width="3" fill="none" opacity="1.0" /><line x1="954" y1="533" x2="978" y2="533" stroke="#0B5CAD" stroke-width="4" /><text x="988" y="538" font-family="Inter, Arial, sans-serif" font-size="12" font-weight="600" fill="#64748B" text-anchor="start">Outflow</text><polyline points="954.0,294.0000000046293 955.404958677686,294.0000000030856 956.8099173553719,294.0000000027271 958.2148760330579,294.0000000041989 959.6198347107438,294.0000000043681 961.0247933884298,294.000000005398 962.4297520661157,294.0000000062996 963.8347107438017,294.00000000814646 965.2396694214876,294.00000000986904 966.6446280991736,294.00000001162164 968.0495867768595,294.0000000113871 969.4545454545455,294.0000000110688 970.8595041322315,294.0000000083413 972.2644628099174,294.00000000718205 973.6694214876034,294.00000000285013 975.0743801652893,294.00000000370784 976.4793388429752,294.0000000047081 977.8842975206611,294.0000000061034 979.2892561983471,294.0000000074489 980.694214876033,294.0000000087162 982.099173553719,294.0000000111714 983.5041322314049,294.0000000131724 984.9090909090909,294.0000000144846 986.3140495867768,294.000000015817 987.7190082644628,294.0000000154366 989.1239669421487,294.0000000148939 990.5289256198347,294.00000001358745 991.9338842975206,294.0000000113853 993.3388429752066,294.0000000115906 994.7438016528926,294.0000000127575 996.1487603305785,294.0000000143657 997.5537190082645,294.00000001607265 998.9586776859504,294.00000001677006 1000.3636363636364,294.00000001766955 1001.7685950413223,294.00000001808644 1003.1735537190083,294.00000001647106 1004.5785123966942,294.00000001610715 1005.9834710743802,294.00000001675585 1007.3884297520661,294.0000000120602 1008.7933884297521,294.0000000070383 1010.198347107438,294.0000000063802 1011.603305785124,294.000000006131 1013.00826446281,294.00000000693797 1014.4132231404959,294.00000000837844 1015.8181818181819,294.00000000913644 1017.2231404958677,294.00000000618775 1018.6280991735537,294.00000000369437 1020.0330578512396,294.00000000532935 1021.4380165289256,294.00000000493515 1022.8429752066115,294.00000000329925 1024.2479338842975,294.00000000500836 1025.6528925619834,294.0000000048747 1027.0578512396694,294.0000000049389 1028.4628099173553,294.00000000516036 1029.8677685950413,294.00000000517343 1031.2727272727273,294.00000000622896 1032.6776859504132,294.0000000073117 1034.0826446280992,294.0000000077747 1035.4876033057851,294.0000000091646 1036.892561983471,294.00000000935336 1038.297520661157,294.0000000092305 1039.702479338843,294.00000000754113 1041.107438016529,294.0000000060904 1042.5123966942149,294.0000000056755 1043.9173553719008,294.0000000055152 1045.3223140495868,294.0000000053443 1046.7272727272727,294.0000000061316 1048.1322314049587,294.00000000805494 1049.5371900826447,294.00000000994345 1050.9421487603306,294.0000000113903 1052.3471074380166,294.0000000130769 1053.7520661157025,294.00000001357387 1055.1570247933885,294.000000012841 1056.5619834710744,294.0000000108361 1057.9669421487604,294.00000001075534 1059.3719008264463,294.0000000110829 1060.7768595041323,294.00000001153774 1062.1818181818182,294.00000001193524 1063.5867768595042,294.000000013539 1064.9917355371902,294.00000001371404 1066.396694214876,294.00000001482925 1067.801652892562,294.00000001581094 1069.206611570248,294.00000001736527 1070.611570247934,294.00000001737476 1072.01652892562,294.0000000160638 1073.4214876033059,294.0000000138748 1074.8264462809918,294.00000001067815 1076.2314049586778,294.00000000855033 1077.6363636363637,294.0000000043467 1079.0413223140495,294.00000000206984 1080.4462809917354,294.00000000184406 1081.8512396694214,294.0000000023324 1083.2561983471073,294.00000000242017 1084.6611570247933,294.00000000345256 1086.0661157024792,294.0000000043116 1087.4710743801652,294.0000000027919 1088.8760330578511,294.00000000221746 1090.280991735537,294.0000000042295 1091.685950413223,294.00000000269443 1093.090909090909,294.00000000283546 1094.495867768595,294.00000000461944 1095.900826446281,294.00000000294335 1097.3057851239669,294.0000000047527 1098.7107438016528,294.0000000053684 1100.1157024793388,294.00000000676494 1101.5206611570247,294.00000000788344 1102.9256198347107,294.00000000888355 1104.3305785123966,294.0000000089341 1105.7355371900826,294.0000000063395 1107.1404958677685,294.00000000542826 1108.5454545454545,294.0000000037702 1109.9504132231405,294.0000000029076 1111.3553719008264,294.00000000232245 1112.7603305785124,294.0000000026077 1114.1652892561983,294.00000000361445 1115.5702479338843,294.00000000582435 1116.9752066115702,294.0000000076435 1118.3801652892562,294.00000000680603 1119.7851239669421,294.0000000037136 1121.190082644628,294.0000000022022 1122.595041322314,294.00000000398427 1124.0,294.0000000032402 1125.404958677686,294.00000000244415 1126.809917355372,294.00000000319136 1128.2148760330579,294.00000000383915 1129.6198347107438,294.00000000610527 1131.0247933884298,294.0000000075562 1132.4297520661157,294.00000000842016 1133.8347107438017,294.00000001082844 1135.2396694214876,294.0000000125865 1136.6446280991736,294.0000000134033 1138.0495867768595,294.00000001279926 1139.4545454545455,294.0000000126428 1140.8595041322315,294.0000000130127 1142.2644628099174,294.00000001159435 1143.6694214876034,294.00000001047306 1145.0743801652893,294.0000000100614 1146.4793388429753,294.0000000089573 1147.8842975206612,294.0000000104237 1149.2892561983472,294.0000000104269 1150.6942148760331,294.0000000118578 1152.099173553719,294.0000000118398 1153.504132231405,294.0000000121101 1154.909090909091,294.00000001195497 1157.719008264463,294.0000000059627 1159.1239669421489,294.0000000054888 1160.5289256198348,294.00000000269586 1161.9338842975208,294.0000000046675 1163.3388429752067,294.0000000053087 1164.7438016528927,294.0000000037792 1166.1487603305786,294.0000000057282 1167.5537190082646,294.00000000644934 1168.9586776859505,294.00000000535647 1170.3636363636365,294.0000000056322 1171.7685950413224,294.0000000051142 1173.1735537190082,294.00000000609805 1174.5785123966941,294.000000003918 1175.98347107438,294.0000000043481 1177.388429752066,294.0000000052454 1178.793388429752,294.00000000315083 1180.198347107438,294.0000000028193 1181.603305785124,294.0000000043344 1183.0082644628098,294.0000000063276 1184.4132231404958,294.00000000830505 1185.8181818181818,294.0000000087349 1187.2231404958677,294.00000000699697 1188.6280991735537,294.00000000419953 1190.0330578512396,294.0000000009507 1191.4380165289256,294.0 1192.8429752066115,294.0000000013937 1194.2479338842975,294.0000000021107 1195.6528925619834,294.0000000020806 1197.0578512396694,294.00000000289293 1198.4628099173553,294.0000000044396 1199.8677685950413,294.00000000300486 1201.2727272727273,294.00000000322757 1202.6776859504132,294.000000003271 1204.0826446280992,294.00000000582133 1205.4876033057851,294.00000000524926 1206.892561983471,294.0000000037944 1208.297520661157,294.0000000029298 1209.702479338843,294.0000000016464 1211.107438016529,294.0000000019937 1212.5123966942149,294.00000000173867 1213.9173553719008,294.00000000235167 1215.3223140495868,294.0000000031493 1216.7272727272727,294.0000000037595 1218.1322314049587,294.00000000146326 1219.5371900826447,294.0000000033533 1220.9421487603306,294.0000000059687 1222.3471074380166,294.00000000376616 1223.7520661157025,294.000000003591 1225.1570247933885,294.00000000117336 1226.5619834710744,294.000000000916 1227.9669421487604,294.00000000244574 1229.3719008264463,294.00000000198474 1230.7768595041323,294.00000000329277 1232.1818181818182,294.000000005763 1233.5867768595042,294.0000000076002 1234.9917355371902,294.00000000827936 1236.396694214876,294.0000000091381 1237.801652892562,294.0000000073869 1239.206611570248,294.00000000493753 1240.611570247934,294.0000000039072 1242.0165289256197,294.0000000031043 1243.4214876033056,294.0000000014825 1244.8264462809916,294.0000000012128 1246.2314049586776,294.0000000018937 1247.6363636363635,294.00000000293653 1249.0413223140495,294.0000000050477 1250.4462809917354,294.00000000737134 1251.8512396694214,294.0000000085387 1253.2561983471073,294.0000000101801 1254.6611570247933,294.000000011001 1256.0661157024792,294.0000000065879 1257.4710743801652,294.0000000031125 1258.8760330578511,294.0000000019745 1260.280991735537,294.0000000020858 1261.685950413223,294.0000000020451 1263.090909090909,294.00000000288617 1264.495867768595,294.00000000500586 1265.900826446281,294.0000000072223 1267.3057851239669,294.0000000087255 1268.7107438016528,294.0000000037915 1270.1157024793388,294.0000000056768 1271.5206611570247,294.00000000665966 1272.9256198347107,294.0000000063915 1274.3305785123966,294.0000000045797 1275.7355371900826,294.000000002917 1277.1404958677685,294.0000000021819 1278.5454545454545,294.00000000213356 1279.9504132231405,294.00000000247155 1281.3553719008264,294.0000000042247 1282.7603305785124,294.0000000025052 1284.1652892561983,294.00000000522857 1285.5702479338843,294.00000000698384 1286.9752066115702,294.0000000078926 1288.3801652892562,294.000000009248 1289.7851239669421,294.0000000104691 1291.190082644628,294.0000000098238 1292.595041322314,498.0 1294.0,294.00000000958164" stroke="#87714D" stroke-width="2" fill="none" opacity="1.0" /><line x1="954" y1="559" x2="978" y2="559" stroke="#87714D" stroke-width="4" /><text x="988" y="564" font-family="Inter, Arial, sans-serif" font-size="12" font-weight="600" fill="#64748B" text-anchor="start">Storage</text><polyline points="1126.809917355372,351.7209603448871 1128.2148760330579,347.87169707577937 1129.6198347107438,377.665205174679 1131.0247933884298,399.5524415197536 1132.4297520661157,411.42812899986427 1133.8347107438017,455.18042841846545 1135.2396694214876,481.1549822765842 1136.6446280991736,498.0 1138.0495867768595,487.043703050762 1139.4545454545455,483.89588205767893 1140.8595041322315,490.26672977914893 1142.2644628099174,465.65926647757976 1143.6694214876034,446.95517831537137 1145.0743801652893,430.8453129093846 1146.4793388429753,421.5403578549622 1147.8842975206612,437.16897991019283 1149.2892561983472,447.42623529852176 1150.6942148760331,471.54693693889556 1152.099173553719,471.2976960293894 1153.504132231405,475.51121780229704 1154.909090909091,455.03205088705397 1156.314049586777,410.7608135560645 1157.719008264463,379.91634240068566 1159.1239669421489,356.53487762776393 1160.5289256198348,328.6011901911303 1161.9338842975208,346.5928661429705 1163.3388429752067,347.0035718155914 1164.7438016528927,345.56576019294585 1166.1487603305786,374.58752174054445 1167.5537190082646,384.08781831581484 1168.9586776859505,368.87485340813146 1170.3636363636365,371.89113521887265 1171.7685950413224,363.66511822067247 1173.1735537190082,377.8442585103376 1174.5785123966941,346.02344652663703 1175.98347107438,352.3430956639531 1177.388429752066,353.71783849993227 1178.793388429752,335.709690974942 1180.198347107438,331.6336768288984 1181.603305785124,353.49115430952713 1183.0082644628098,383.1188296775331 1184.4132231404958,413.4722879053684 1185.8181818181818,420.07123690602594 1187.2231404958677,391.3311759368845 1188.6280991735537,351.86552007240056 1190.0330578512396,299.2049004139625 1191.4380165289256,294.0 1192.8429752066115,311.55106137007726 1194.2479338842975,307.79054120206047 1195.6528925619834,320.84838081670364 1197.0578512396694,318.7235645519894 1198.4628099173553,330.58543124855606 1199.8677685950413,321.8399928606182 1201.2727272727273,325.1483283337502 1202.6776859504132,336.437707833559 1204.0826446280992,374.31297329253493 1205.4876033057851,354.93211687076064 1206.892561983471,349.98189231857805 1208.297520661157,331.51194056661006 1209.702479338843,313.5251327315309 1211.107438016529,306.87350137140515 1212.5123966942149,315.48211566942166 1213.9173553719008,323.0170268038992 1215.3223140495868,324.1725043260431 1216.7272727272727,332.4330649472875 1218.1322314049587,311.62199916739826 1219.5371900826447,338.72897367957785 1220.9421487603306,375.3002507119359 1222.3471074380166,344.03785506695874 1223.7520661157025,327.43470939137546 1225.1570247933885,309.936463753827 1226.5619834710744,302.59802781122494 1227.9669421487604,324.3015260918406 1229.3719008264463,318.64859221954435 1230.7768595041323,337.9077457222957 1232.1818181818182,373.4999311069297 1233.5867768595042,389.43147672909765 1234.9917355371902,403.95870403880133 1236.396694214876,424.99061893763434 1237.801652892562,392.07251343006254 1239.206611570248,360.45272799397617 1240.611570247934,341.640757696287 1242.0165289256197,332.1246397415437 1243.4214876033056,310.3064572992903 1244.8264462809916,307.64097998472346 1246.2314049586776,316.57319067428034 1247.6363636363635,330.904576314153 1249.0413223140495,362.15341792171125 1250.4462809917354,395.9765096694654 1251.8512396694214,413.84224810756524 1253.2561983471073,440.7321079465337 1254.6611570247933,455.0713792686937 1256.0661157024792,386.9659756492821 1257.4710743801652,333.77073007204535 1258.8760330578511,317.9798596869621 1260.280991735537,318.8540867647337 1261.685950413223,318.46718818366924 1263.090909090909,330.6475330805239 1264.495867768595,362.1380633479549 1265.900826446281,393.9749467856189 1267.3057851239669,418.5627875754499 1268.7107438016528,343.641070207678 1270.1157024793388,370.44295384066163 1271.5206611570247,385.3099490256652 1272.9256198347107,381.0163867439601 1274.3305785123966,354.7169527785811 1275.7355371900826,330.2503147587911 1277.1404958677685,320.10099152084 1278.5454545454545,319.381710597781 1279.9504132231405,323.99433458691954 1281.3553719008264,350.3238941926656 1282.7603305785124,326.64407388017696 1284.1652892561983,364.5542163948511 1285.5702479338843,390.17621523535524 1286.9752066115702,403.4397494547802 1288.3801652892562,425.13071066757357 1289.7851239669421,445.96495001697383 1291.190082644628,434.4054067085672 1292.595041322314,428.32629588846487 1294.0,430.5355706446546" stroke="#0F7B5F" stroke-width="2" fill="none" opacity="1.0" /><line x1="954" y1="585" x2="978" y2="585" stroke="#0F7B5F" stroke-width="4" /><text x="988" y="590" font-family="Inter, Arial, sans-serif" font-size="12" font-weight="600" fill="#64748B" text-anchor="start">Elevation</text><line x1="954.0" y1="506" x2="1294.0" y2="506" stroke="#E2E8F0" stroke-width="2" /><line x1="954.0" y1="500" x2="954.0" y2="512" stroke="#E2E8F0" stroke-width="1" /><text x="954.0" y="528" font-family="Inter, Arial, sans-serif" font-size="11" font-weight="500" fill="#64748B" text-anchor="middle">2006</text><line x1="970.8595041322315" y1="500" x2="970.8595041322315" y2="512" stroke="#E2E8F0" stroke-width="1" /><text x="970.8595041322315" y="528" font-family="Inter, Arial, sans-serif" font-size="11" font-weight="500" fill="#64748B" text-anchor="middle">2007</text><line x1="987.7190082644628" y1="500" x2="987.7190082644628" y2="512" stroke="#E2E8F0" stroke-width="1" /><text x="987.7190082644628" y="528" font-family="Inter, Arial, sans-serif" font-size="11" font-weight="500" fill="#64748B" text-anchor="middle">2008</text><line x1="1004.5785123966942" y1="500" x2="1004.5785123966942" y2="512" stroke="#E2E8F0" stroke-width="1" /><text x="1004.5785123966942" y="528" font-family="Inter, Arial, sans-serif" font-size="11" font-weight="500" fill="#64748B" text-anchor="middle">2009</text><line x1="1021.4380165289256" y1="500" x2="1021.4380165289256" y2="512" stroke="#E2E8F0" stroke-width="1" /><text x="1021.4380165289256" y="528" font-family="Inter, Arial, sans-serif" font-size="11" font-weight="500" fill="#64748B" text-anchor="middle">2010</text><line x1="1038.297520661157" y1="500" x2="1038.297520661157" y2="512" stroke="#E2E8F0" stroke-width="1" /><text x="1038.297520661157" y="528" font-family="Inter, Arial, sans-serif" font-size="11" font-weight="500" fill="#64748B" text-anchor="middle">2011</text><line x1="1055.1570247933885" y1="500" x2="1055.1570247933885" y2="512" stroke="#E2E8F0" stroke-width="1" /><text x="1055.1570247933885" y="528" font-family="Inter, Arial, sans-serif" font-size="11" font-weight="500" fill="#64748B" text-anchor="middle">2012</text><line x1="1072.01652892562" y1="500" x2="1072.01652892562" y2="512" stroke="#E2E8F0" stroke-width="1" /><text x="1072.01652892562" y="528" font-family="Inter, Arial, sans-serif" font-size="11" font-weight="500" fill="#64748B" text-anchor="middle">2013</text><line x1="1088.8760330578511" y1="500" x2="1088.8760330578511" y2="512" stroke="#E2E8F0" stroke-width="1" /><text x="1088.8760330578511" y="528" font-family="Inter, Arial, sans-serif" font-size="11" font-weight="500" fill="#64748B" text-anchor="middle">2014</text><line x1="1105.7355371900826" y1="500" x2="1105.7355371900826" y2="512" stroke="#E2E8F0" stroke-width="1" /><text x="1105.7355371900826" y="528" font-family="Inter, Arial, sans-serif" font-size="11" font-weight="500" fill="#64748B" text-anchor="middle">2015</text><line x1="1121.190082644628" y1="500" x2="1121.190082644628" y2="512" stroke="#E2E8F0" stroke-width="1" /><text x="1121.190082644628" y="528" font-family="Inter, Arial, sans-serif" font-size="11" font-weight="500" fill="#64748B" text-anchor="middle">2016</text><line x1="1138.0495867768595" y1="500" x2="1138.0495867768595" y2="512" stroke="#E2E8F0" stroke-width="1" /><text x="1138.0495867768595" y="528" font-family="Inter, Arial, sans-serif" font-size="11" font-weight="500" fill="#64748B" text-anchor="middle">2017</text><line x1="1154.909090909091" y1="500" x2="1154.909090909091" y2="512" stroke="#E2E8F0" stroke-width="1" /><text x="1154.909090909091" y="528" font-family="Inter, Arial, sans-serif" font-size="11" font-weight="500" fill="#64748B" text-anchor="middle">2018</text><line x1="1171.7685950413224" y1="500" x2="1171.7685950413224" y2="512" stroke="#E2E8F0" stroke-width="1" /><text x="1171.7685950413224" y="528" font-family="Inter, Arial, sans-serif" font-size="11" font-weight="500" fill="#64748B" text-anchor="middle">2019</text><line x1="1188.6280991735537" y1="500" x2="1188.6280991735537" y2="512" stroke="#E2E8F0" stroke-width="1" /><text x="1188.6280991735537" y="528" font-family="Inter, Arial, sans-serif" font-size="11" font-weight="500" fill="#64748B" text-anchor="middle">2020</text><line x1="1205.4876033057851" y1="500" x2="1205.4876033057851" y2="512" stroke="#E2E8F0" stroke-width="1" /><text x="1205.4876033057851" y="528" font-family="Inter, Arial, sans-serif" font-size="11" font-weight="500" fill="#64748B" text-anchor="middle">2021</text><line x1="1222.3471074380166" y1="500" x2="1222.3471074380166" y2="512" stroke="#E2E8F0" stroke-width="1" /><text x="1222.3471074380166" y="528" font-family="Inter, Arial, sans-serif" font-size="11" font-weight="500" fill="#64748B" text-anchor="middle">2022</text><line x1="1239.206611570248" y1="500" x2="1239.206611570248" y2="512" stroke="#E2E8F0" stroke-width="1" /><text x="1239.206611570248" y="528" font-family="Inter, Arial, sans-serif" font-size="11" font-weight="500" fill="#64748B" text-anchor="middle">2023</text><line x1="1256.0661157024792" y1="500" x2="1256.0661157024792" y2="512" stroke="#E2E8F0" stroke-width="1" /><text x="1256.0661157024792" y="528" font-family="Inter, Arial, sans-serif" font-size="11" font-weight="500" fill="#64748B" text-anchor="middle">2024</text><line x1="1272.9256198347107" y1="500" x2="1272.9256198347107" y2="512" stroke="#E2E8F0" stroke-width="1" /><text x="1272.9256198347107" y="528" font-family="Inter, Arial, sans-serif" font-size="11" font-weight="500" fill="#64748B" text-anchor="middle">2025</text><line x1="1289.7851239669421" y1="500" x2="1289.7851239669421" y2="512" stroke="#E2E8F0" stroke-width="1" /><text x="1289.7851239669421" y="528" font-family="Inter, Arial, sans-serif" font-size="11" font-weight="500" fill="#64748B" text-anchor="middle">2026</text><line x1="1294.0" y1="500" x2="1294.0" y2="512" stroke="#E2E8F0" stroke-width="1" /><text x="1294.0" y="528" font-family="Inter, Arial, sans-serif" font-size="11" font-weight="500" fill="#64748B" text-anchor="middle">2026</text><text x="954" y="630" font-family="Inter, Arial, sans-serif" font-size="15" font-weight="700" fill="#011E42" text-anchor="start">Support role in the report</text><text x="954" y="658" font-family="Inter, Arial, sans-serif" font-size="13" font-weight="500" fill="#64748B" text-anchor="start">This reservoir explains river modulation</text><text x="954" y="682" font-family="Inter, Arial, sans-serif" font-size="13" font-weight="500" fill="#64748B" text-anchor="start">but does not replace the mainstem as</text><text x="954" y="706" font-family="Inter, Arial, sans-serif" font-size="13" font-weight="500" fill="#64748B" text-anchor="start">the protagonist of the narrative.</text></svg>