<svg xmlns="http://www.w3.org/2000/svg" width="1400" height="800" viewBox="0 0 1400 800" role="img" aria-label="Savannah River analytical figure"><rect x="0" y="0" width="1400" height="800" rx="12" fill="#F8FAFC" stroke="none" /><text x="70" y="72" font-family="Inter, Arial, sans-serif" font-size="32" font-weight="700" fill="#011E42" text-anchor="start">Reservoir forebay water-quality monitoring: 1990–2025</text><text x="70" y="102" font-family="Inter, Arial, sans-serif" font-size="15" font-weight="400" fill="#64748B" text-anchor="start">WQP activity at Hartwell, Russell, and Thurmond dam forebays shows when each reservoir was monitored and how densely — the annex data foundation.</text><rect x="70" y="155" width="390" height="560" rx="20" fill="#FFFFFF" stroke="#E2E8F0" /><text x="94" y="193" font-family="Inter, Arial, sans-serif" font-size="24" font-weight="700" fill="#011E42" text-anchor="start">Hartwell</text><rect x="94" y="211" width="6" height="6" rx="3" fill="#0F7B5F" stroke="none" /><text x="94" y="235" font-family="Inter, Arial, sans-serif" font-size="11" font-weight="500" fill="#64748B" text-anchor="start">Forebay: Lake Hartwell - Dam Forebay</text><text x="94" y="253" font-family="Inter, Arial, sans-serif" font-size="12" font-weight="700" fill="#011E42" text-anchor="start">1990–2025  |  19 active years  |  12,604 results</text><text x="94" y="271" font-family="Inter, Arial, sans-serif" font-size="11" font-weight="500" fill="#64748B" text-anchor="start">Lat 34.3587  Lon -82.8244</text><line x1="94" y1="575" x2="434" y2="575" stroke="#E2E8F0" stroke-width="2" /><rect x="95.78947368421052" y="570.1243781094528" width="14.315789473684212" height="4.875621890547264" rx="2" fill="#E2E8F0" stroke="none" /><text x="102.94736842105263" y="593" font-family="Inter, Arial, sans-serif" font-size="10" font-weight="500" fill="#64748B" text-anchor="middle">1990</text><rect x="113.68421052631578" y="570.1243781094528" width="14.315789473684212" height="4.875621890547264" rx="2" fill="#E2E8F0" stroke="none" /><rect x="131.57894736842104" y="572.4461028192371" width="14.315789473684212" height="2.5538971807628523" rx="2" fill="#E2E8F0" stroke="none" /><rect x="149.4736842105263" y="572.2139303482587" width="14.315789473684212" height="2.7860696517412933" rx="2" fill="#E2E8F0" stroke="none" /><rect x="167.36842105263156" y="447.53731343283584" width="14.315789473684212" height="127.46268656716417" rx="2" fill="#E2E8F0" stroke="none" /><rect x="185.26315789473682" y="564.5522388059702" width="14.315789473684212" height="10.44776119402985" rx="2" fill="#E2E8F0" stroke="none" /><rect x="203.1578947368421" y="547.8358208955224" width="14.315789473684212" height="27.16417910447761" rx="2" fill="#E2E8F0" stroke="none" /><rect x="221.05263157894737" y="350.95356550580436" width="14.315789473684212" height="224.04643449419567" rx="2" fill="#0F7B5F" stroke="none" /><rect x="238.94736842105263" y="337.0232172470978" width="14.315789473684212" height="237.97678275290215" rx="2" fill="#0F7B5F" stroke="none" /><text x="246.10526315789474" y="593" font-family="Inter, Arial, sans-serif" font-size="10" font-weight="500" fill="#64748B" text-anchor="middle">2015</text><rect x="256.8421052631579" y="311.2520729684909" width="14.315789473684212" height="263.7479270315091" rx="2" fill="#0F7B5F" stroke="none" /><rect x="274.7368421052631" y="450.32338308457713" width="14.315789473684212" height="124.6766169154229" rx="2" fill="#E2E8F0" stroke="none" /><rect x="292.63157894736844" y="380.2072968490879" width="14.315789473684212" height="194.7927031509121" rx="2" fill="#0F7B5F" stroke="none" /><rect x="310.5263157894737" y="386.4759535655058" width="14.315789473684212" height="188.5240464344942" rx="2" fill="#0F7B5F" stroke="none" /><rect x="328.42105263157896" y="393.6733001658375" width="14.315789473684212" height="181.32669983416253" rx="2" fill="#0F7B5F" stroke="none" /><text x="335.57894736842104" y="593" font-family="Inter, Arial, sans-serif" font-size="10" font-weight="500" fill="#64748B" text-anchor="middle">2020</text><rect x="346.3157894736842" y="303.82255389718074" width="14.315789473684212" height="271.17744610281926" rx="2" fill="#0F7B5F" stroke="none" /><rect x="364.2105263157895" y="309.6268656716418" width="14.315789473684212" height="265.3731343283582" rx="2" fill="#0F7B5F" stroke="none" /><rect x="382.10526315789474" y="309.6268656716418" width="14.315789473684212" height="265.3731343283582" rx="2" fill="#0F7B5F" stroke="none" /><rect x="400.0" y="295.0" width="14.315789473684212" height="280.0" rx="2" fill="#0F7B5F" stroke="none" /><rect x="417.89473684210526" y="325.8789386401327" width="14.315789473684212" height="249.12106135986733" rx="2" fill="#0F7B5F" stroke="none" /><text x="425.05263157894734" y="593" font-family="Inter, Arial, sans-serif" font-size="10" font-weight="500" fill="#64748B" text-anchor="middle">2025</text><text x="94" y="277" font-family="Inter, Arial, sans-serif" font-size="12" font-weight="600" fill="#64748B" text-anchor="start">Results per year</text><text x="430" y="289" font-family="Inter, Arial, sans-serif" font-size="11" font-weight="600" fill="#0F7B5F" text-anchor="end">max 1,206</text><rect x="94" y="603" width="340" height="22" rx="11" fill="#E2E8F0" stroke="none" /><rect x="94" y="603" width="264.03943314849045" height="22" rx="11" fill="#0F7B5F" stroke="none" /><text x="264.0" y="619" font-family="Inter, Arial, sans-serif" font-size="12" font-weight="700" fill="#FFFFFF" text-anchor="middle">12,604 total results</text><text x="94" y="651" font-family="Inter, Arial, sans-serif" font-size="12" font-weight="600" fill="#011E42" text-anchor="start">Monitoring spans 1990–2025</text><text x="94" y="673" font-family="Inter, Arial, sans-serif" font-size="12" font-weight="500" fill="#64748B" text-anchor="start">with forebay depth profiles and</text><text x="94" y="693" font-family="Inter, Arial, sans-serif" font-size="12" font-weight="500" fill="#64748B" text-anchor="start">multi-parameter chemical surveys.</text><rect x="500" y="155" width="390" height="560" rx="20" fill="#FFFFFF" stroke="#E2E8F0" /><text x="524" y="193" font-family="Inter, Arial, sans-serif" font-size="24" font-weight="700" fill="#011E42" text-anchor="start">Russell</text><rect x="524" y="211" width="6" height="6" rx="3" fill="#6D28D9" stroke="none" /><text x="524" y="235" font-family="Inter, Arial, sans-serif" font-size="11" font-weight="500" fill="#64748B" text-anchor="start">Forebay: Lake Richard B. Russell - Dam Foreb</text><text x="524" y="253" font-family="Inter, Arial, sans-serif" font-size="12" font-weight="700" fill="#011E42" text-anchor="start">1990–2025  |  21 active years  |  15,810 results</text><text x="524" y="271" font-family="Inter, Arial, sans-serif" font-size="11" font-weight="500" fill="#64748B" text-anchor="start">Lat 34.0263  Lon -82.5942</text><line x1="524" y1="575" x2="864" y2="575" stroke="#E2E8F0" stroke-width="2" /><rect x="525.6190476190476" y="571.1432506887053" width="12.952380952380953" height="3.8567493112947657" rx="2" fill="#E2E8F0" stroke="none" /><text x="532.0952380952381" y="593" font-family="Inter, Arial, sans-serif" font-size="10" font-weight="500" fill="#64748B" text-anchor="middle">1990</text><rect x="541.8095238095237" y="392.7685950413223" width="12.952380952380953" height="182.23140495867767" rx="2" fill="#6D28D9" stroke="none" /><rect x="558.0" y="572.8787878787879" width="12.952380952380953" height="2.121212121212121" rx="2" fill="#E2E8F0" stroke="none" /><rect x="574.1904761904761" y="572.4931129476583" width="12.952380952380953" height="2.506887052341598" rx="2" fill="#E2E8F0" stroke="none" /><rect x="590.3809523809524" y="295.0" width="12.952380952380953" height="280.0" rx="2" fill="#6D28D9" stroke="none" /><rect x="606.5714285714286" y="498.6363636363636" width="12.952380952380953" height="76.36363636363636" rx="2" fill="#E2E8F0" stroke="none" /><rect x="622.7619047619047" y="469.1322314049587" width="12.952380952380953" height="105.86776859504133" rx="2" fill="#E2E8F0" stroke="none" /><rect x="638.952380952381" y="566.1294765840221" width="12.952380952380953" height="8.870523415977962" rx="2" fill="#E2E8F0" stroke="none" /><rect x="655.1428571428571" y="554.1735537190083" width="12.952380952380953" height="20.826446280991735" rx="2" fill="#E2E8F0" stroke="none" /><rect x="671.3333333333334" y="395.08264462809916" width="12.952380952380953" height="179.91735537190084" rx="2" fill="#6D28D9" stroke="none" /><rect x="687.5238095238095" y="350.73002754820936" width="12.952380952380953" height="224.26997245179064" rx="2" fill="#6D28D9" stroke="none" /><text x="694.0" y="593" font-family="Inter, Arial, sans-serif" font-size="10" font-weight="500" fill="#64748B" text-anchor="middle">2015</text><rect x="703.7142857142857" y="357.28650137741045" width="12.952380952380953" height="217.71349862258953" rx="2" fill="#6D28D9" stroke="none" /><rect x="719.9047619047618" y="407.2314049586777" width="12.952380952380953" height="167.76859504132233" rx="2" fill="#6D28D9" stroke="none" /><rect x="736.0952380952381" y="414.75206611570246" width="12.952380952380953" height="160.24793388429754" rx="2" fill="#6D28D9" stroke="none" /><rect x="752.2857142857142" y="418.22314049586777" width="12.952380952380953" height="156.77685950413223" rx="2" fill="#6D28D9" stroke="none" /><rect x="768.4761904761905" y="410.702479338843" width="12.952380952380953" height="164.29752066115702" rx="2" fill="#6D28D9" stroke="none" /><text x="774.952380952381" y="593" font-family="Inter, Arial, sans-serif" font-size="10" font-weight="500" fill="#64748B" text-anchor="middle">2020</text><rect x="784.6666666666666" y="320.8402203856749" width="12.952380952380953" height="254.15977961432506" rx="2" fill="#6D28D9" stroke="none" /><rect x="800.8571428571428" y="385.633608815427" width="12.952380952380953" height="189.366391184573" rx="2" fill="#6D28D9" stroke="none" /><rect x="817.047619047619" y="349.9586776859504" width="12.952380952380953" height="225.0413223140496" rx="2" fill="#6D28D9" stroke="none" /><rect x="833.2380952380952" y="348.03030303030306" width="12.952380952380953" height="226.96969696969694" rx="2" fill="#6D28D9" stroke="none" /><rect x="849.4285714285714" y="375.41322314049586" width="12.952380952380953" height="199.58677685950414" rx="2" fill="#6D28D9" stroke="none" /><text x="855.9047619047619" y="593" font-family="Inter, Arial, sans-serif" font-size="10" font-weight="500" fill="#64748B" text-anchor="middle">2025</text><text x="524" y="277" font-family="Inter, Arial, sans-serif" font-size="12" font-weight="600" fill="#64748B" text-anchor="start">Results per year</text><text x="860" y="289" font-family="Inter, Arial, sans-serif" font-size="11" font-weight="600" fill="#6D28D9" text-anchor="end">max 1,452</text><rect x="524" y="603" width="340" height="22" rx="11" fill="#E2E8F0" stroke="none" /><rect x="524" y="603" width="331.2014787430684" height="22" rx="11" fill="#6D28D9" stroke="none" /><text x="694.0" y="619" font-family="Inter, Arial, sans-serif" font-size="12" font-weight="700" fill="#FFFFFF" text-anchor="middle">15,810 total results</text><text x="524" y="651" font-family="Inter, Arial, sans-serif" font-size="12" font-weight="600" fill="#011E42" text-anchor="start">Monitoring spans 1990–2025</text><text x="524" y="673" font-family="Inter, Arial, sans-serif" font-size="12" font-weight="500" fill="#64748B" text-anchor="start">with forebay depth profiles and</text><text x="524" y="693" font-family="Inter, Arial, sans-serif" font-size="12" font-weight="500" fill="#64748B" text-anchor="start">multi-parameter chemical surveys.</text><rect x="930" y="155" width="390" height="560" rx="20" fill="#FFFFFF" stroke="#E2E8F0" /><text x="954" y="193" font-family="Inter, Arial, sans-serif" font-size="24" font-weight="700" fill="#011E42" text-anchor="start">Thurmond</text><rect x="954" y="211" width="6" height="6" rx="3" fill="#C27803" stroke="none" /><text x="954" y="235" font-family="Inter, Arial, sans-serif" font-size="11" font-weight="500" fill="#64748B" text-anchor="start">Forebay: Clarks Hill Lake  - Dam Forebay</text><text x="954" y="253" font-family="Inter, Arial, sans-serif" font-size="12" font-weight="700" fill="#011E42" text-anchor="start">1990–2025  |  21 active years  |  16,230 results</text><text x="954" y="271" font-family="Inter, Arial, sans-serif" font-size="11" font-weight="500" fill="#64748B" text-anchor="start">Lat 33.6627  Lon -82.1985</text><line x1="954" y1="575" x2="1294" y2="575" stroke="#E2E8F0" stroke-width="2" /><rect x="955.6190476190476" y="571.3541666666666" width="12.952380952380953" height="3.6458333333333335" rx="2" fill="#E2E8F0" stroke="none" /><text x="962.0952380952381" y="593" font-family="Inter, Arial, sans-serif" font-size="10" font-weight="500" fill="#64748B" text-anchor="middle">1990</text><rect x="971.8095238095237" y="418.77604166666663" width="12.952380952380953" height="156.22395833333334" rx="2" fill="#C27803" stroke="none" /><rect x="988.0" y="526.875" width="12.952380952380953" height="48.125" rx="2" fill="#E2E8F0" stroke="none" /><rect x="1004.1904761904761" y="438.6458333333333" width="12.952380952380953" height="136.35416666666669" rx="2" fill="#E2E8F0" stroke="none" /><rect x="1020.3809523809524" y="414.58333333333337" width="12.952380952380953" height="160.41666666666666" rx="2" fill="#C27803" stroke="none" /><text x="1026.857142857143" y="593" font-family="Inter, Arial, sans-serif" font-size="10" font-weight="500" fill="#64748B" text-anchor="middle">2000</text><rect x="1036.5714285714287" y="481.484375" width="12.952380952380953" height="93.515625" rx="2" fill="#E2E8F0" stroke="none" /><rect x="1052.7619047619048" y="566.796875" width="12.952380952380953" height="8.203125" rx="2" fill="#E2E8F0" stroke="none" /><rect x="1068.952380952381" y="550.9375" width="12.952380952380953" height="24.0625" rx="2" fill="#E2E8F0" stroke="none" /><text x="1075.4285714285713" y="593" font-family="Inter, Arial, sans-serif" font-size="10" font-weight="500" fill="#64748B" text-anchor="middle">2010</text><rect x="1085.1428571428573" y="555.859375" width="12.952380952380953" height="19.140625" rx="2" fill="#E2E8F0" stroke="none" /><rect x="1101.3333333333335" y="413.85416666666663" width="12.952380952380953" height="161.14583333333334" rx="2" fill="#C27803" stroke="none" /><rect x="1117.5238095238096" y="368.46354166666663" width="12.952380952380953" height="206.53645833333334" rx="2" fill="#C27803" stroke="none" /><text x="1124.0" y="593" font-family="Inter, Arial, sans-serif" font-size="10" font-weight="500" fill="#64748B" text-anchor="middle">2015</text><rect x="1133.7142857142858" y="393.61979166666663" width="12.952380952380953" height="181.38020833333334" rx="2" fill="#C27803" stroke="none" /><rect x="1149.904761904762" y="430.44270833333337" width="12.952380952380953" height="144.55729166666666" rx="2" fill="#C27803" stroke="none" /><rect x="1166.095238095238" y="295.0" width="12.952380952380953" height="280.0" rx="2" fill="#C27803" stroke="none" /><rect x="1182.2857142857144" y="430.98958333333337" width="12.952380952380953" height="144.01041666666666" rx="2" fill="#C27803" stroke="none" /><rect x="1198.4761904761906" y="368.28125" width="12.952380952380953" height="206.71875" rx="2" fill="#C27803" stroke="none" /><text x="1204.952380952381" y="593" font-family="Inter, Arial, sans-serif" font-size="10" font-weight="500" fill="#64748B" text-anchor="middle">2020</text><rect x="1214.6666666666667" y="368.09895833333337" width="12.952380952380953" height="206.90104166666666" rx="2" fill="#C27803" stroke="none" /><rect x="1230.857142857143" y="399.453125" width="12.952380952380953" height="175.546875" rx="2" fill="#C27803" stroke="none" /><rect x="1247.0476190476193" y="372.109375" width="12.952380952380953" height="202.890625" rx="2" fill="#C27803" stroke="none" /><rect x="1263.2380952380954" y="356.97916666666663" width="12.952380952380953" height="218.02083333333334" rx="2" fill="#C27803" stroke="none" /><rect x="1279.4285714285716" y="393.80208333333337" width="12.952380952380953" height="181.19791666666666" rx="2" fill="#C27803" stroke="none" /><text x="1285.904761904762" y="593" font-family="Inter, Arial, sans-serif" font-size="10" font-weight="500" fill="#64748B" text-anchor="middle">2025</text><text x="954" y="277" font-family="Inter, Arial, sans-serif" font-size="12" font-weight="600" fill="#64748B" text-anchor="start">Results per year</text><text x="1290" y="289" font-family="Inter, Arial, sans-serif" font-size="11" font-weight="600" fill="#C27803" text-anchor="end">max 1,536</text><rect x="954" y="603" width="340" height="22" rx="11" fill="#E2E8F0" stroke="none" /><rect x="954" y="603" width="340" height="22" rx="11" fill="#C27803" stroke="none" /><text x="1124.0" y="619" font-family="Inter, Arial, sans-serif" font-size="12" font-weight="700" fill="#FFFFFF" text-anchor="middle">16,230 total results</text><text x="954" y="651" font-family="Inter, Arial, sans-serif" font-size="12" font-weight="600" fill="#011E42" text-anchor="start">Monitoring spans 1990–2025</text><text x="954" y="673" font-family="Inter, Arial, sans-serif" font-size="12" font-weight="500" fill="#64748B" text-anchor="start">with forebay depth profiles and</text><text x="954" y="693" font-family="Inter, Arial, sans-serif" font-size="12" font-weight="500" fill="#64748B" text-anchor="start">multi-parameter chemical surveys.</text><rect x="70" y="740" width="1260" height="44" rx="16" fill="#F0F9FF" stroke="#BAE6FD" /><text x="100" y="769" font-family="Inter, Arial, sans-serif" font-size="14" font-weight="600" fill="#011E42" text-anchor="start">Combined: 44,644 WQP results across 3 dam forebays from 1990 to 2025 — the reservoir water-quality foundation that pairs with the river sensor layer.</text></svg>