<svg xmlns="http://www.w3.org/2000/svg" width="1400" height="940" viewBox="0 0 1400 940" role="img" aria-label="Savannah River analytical figure"><rect x="0" y="0" width="1400" height="940" rx="12" fill="#F8FAFC" stroke="none" /><text x="70" y="70" font-family="Inter, Arial, sans-serif" font-size="30" font-weight="700" fill="#011E42" text-anchor="start">Pollutants and pressure indicators in the lower basin</text><text x="70" y="98" font-family="Inter, Arial, sans-serif" font-size="14" font-weight="400" fill="#64748B" text-anchor="start">Savannah Main annual reports provide the clearest modern pollutant-like slice currently available in the lower basin.</text><rect x="80" y="150" width="1240" height="120" rx="18" fill="#FFFFFF" stroke="#E2E8F0" /><text x="100" y="180" font-family="Inter, Arial, sans-serif" font-size="16" font-weight="700" fill="#011E42" text-anchor="start">Source-water share from the Savannah River (%)</text><text x="164" y="208" font-family="Inter, Arial, sans-serif" font-size="11" font-weight="600" fill="#64748B" text-anchor="middle">2020</text><rect x="104" y="222" width="120" height="16" rx="8" fill="#E2E8F0" stroke="none" /><rect x="104" y="222" width="58.94736842105263" height="16" rx="8" fill="#011E42" stroke="none" /><text x="234" y="235" font-family="Inter, Arial, sans-serif" font-size="11" font-weight="700" fill="#011E42" text-anchor="start">14.0%</text><rect x="104" y="246" width="72" height="24" rx="12" fill="#FEE2E2" stroke="none" /><text x="114" y="263" font-family="Inter, Arial, sans-serif" font-size="11" font-weight="700" fill="#B91C1C" text-anchor="start">Violation</text><text x="394" y="208" font-family="Inter, Arial, sans-serif" font-size="11" font-weight="600" fill="#64748B" text-anchor="middle">2021</text><rect x="334" y="222" width="120" height="16" rx="8" fill="#E2E8F0" stroke="none" /><rect x="334" y="222" width="75.78947368421052" height="16" rx="8" fill="#011E42" stroke="none" /><text x="464" y="235" font-family="Inter, Arial, sans-serif" font-size="11" font-weight="700" fill="#011E42" text-anchor="start">18.0%</text><text x="624" y="208" font-family="Inter, Arial, sans-serif" font-size="11" font-weight="600" fill="#64748B" text-anchor="middle">2022</text><rect x="564" y="222" width="120" height="16" rx="8" fill="#E2E8F0" stroke="none" /><rect x="564" y="222" width="88.42105263157895" height="16" rx="8" fill="#011E42" stroke="none" /><text x="694" y="235" font-family="Inter, Arial, sans-serif" font-size="11" font-weight="700" fill="#011E42" text-anchor="start">21.0%</text><text x="854" y="208" font-family="Inter, Arial, sans-serif" font-size="11" font-weight="600" fill="#64748B" text-anchor="middle">2023</text><rect x="794" y="222" width="120" height="16" rx="8" fill="#E2E8F0" stroke="none" /><rect x="794" y="222" width="120.0" height="16" rx="8" fill="#011E42" stroke="none" /><text x="924" y="235" font-family="Inter, Arial, sans-serif" font-size="11" font-weight="700" fill="#011E42" text-anchor="start">28.5%</text><text x="1084" y="208" font-family="Inter, Arial, sans-serif" font-size="11" font-weight="600" fill="#64748B" text-anchor="middle">2024</text><rect x="1024" y="222" width="120" height="16" rx="8" fill="#E2E8F0" stroke="none" /><rect x="1024" y="222" width="92.63157894736842" height="16" rx="8" fill="#011E42" stroke="none" /><text x="1154" y="235" font-family="Inter, Arial, sans-serif" font-size="11" font-weight="700" fill="#011E42" text-anchor="start">22.0%</text><rect x="62" y="296" width="596" height="262" rx="18" fill="#FFFFFF" stroke="#E2E8F0" /><text x="80" y="322" font-family="Inter, Arial, sans-serif" font-size="16" font-weight="700" fill="#011E42" text-anchor="start">TTHMs (ppb)</text><line x1="80" y1="510" x2="640" y2="510" stroke="#E2E8F0" stroke-width="2" /><text x="128" y="534" font-family="Inter, Arial, sans-serif" font-size="11" font-weight="500" fill="#64748B" text-anchor="middle">2020</text><rect x="106" y="395.64356435643566" width="44" height="114.35643564356435" rx="8" fill="#C27803" stroke="none" /><text x="128" y="387.64356435643566" font-family="Inter, Arial, sans-serif" font-size="11" font-weight="700" fill="#C27803" text-anchor="middle">75.0</text><text x="228" y="534" font-family="Inter, Arial, sans-serif" font-size="11" font-weight="500" fill="#64748B" text-anchor="middle">2021</text><rect x="206" y="356.0" width="44" height="154.0" rx="8" fill="#C27803" stroke="none" /><text x="228" y="348.0" font-family="Inter, Arial, sans-serif" font-size="11" font-weight="700" fill="#C27803" text-anchor="middle">101.0</text><text x="328" y="534" font-family="Inter, Arial, sans-serif" font-size="11" font-weight="500" fill="#64748B" text-anchor="middle">2022</text><rect x="306" y="411.1960396039604" width="44" height="98.8039603960396" rx="8" fill="#C27803" stroke="none" /><text x="328" y="403.1960396039604" font-family="Inter, Arial, sans-serif" font-size="11" font-weight="700" fill="#C27803" text-anchor="middle">64.8</text><text x="428" y="534" font-family="Inter, Arial, sans-serif" font-size="11" font-weight="500" fill="#64748B" text-anchor="middle">2023</text><rect x="406" y="412.41584158415844" width="44" height="97.58415841584159" rx="8" fill="#C27803" stroke="none" /><text x="428" y="404.41584158415844" font-family="Inter, Arial, sans-serif" font-size="11" font-weight="700" fill="#C27803" text-anchor="middle">64.0</text><text x="528" y="534" font-family="Inter, Arial, sans-serif" font-size="11" font-weight="500" fill="#64748B" text-anchor="middle">2024</text><rect x="506" y="413.8262376237624" width="44" height="96.17376237623762" rx="8" fill="#C27803" stroke="none" /><text x="528" y="405.8262376237624" font-family="Inter, Arial, sans-serif" font-size="11" font-weight="700" fill="#C27803" text-anchor="middle">63.1</text><rect x="702" y="296" width="596" height="262" rx="18" fill="#FFFFFF" stroke="#E2E8F0" /><text x="720" y="322" font-family="Inter, Arial, sans-serif" font-size="16" font-weight="700" fill="#011E42" text-anchor="start">THAAs (ppb)</text><line x1="720" y1="510" x2="1280" y2="510" stroke="#E2E8F0" stroke-width="2" /><text x="768" y="534" font-family="Inter, Arial, sans-serif" font-size="11" font-weight="500" fill="#64748B" text-anchor="middle">2020</text><rect x="746" y="504" width="44" height="6" rx="4" fill="#E2E8F0" stroke="none" /><text x="868" y="534" font-family="Inter, Arial, sans-serif" font-size="11" font-weight="500" fill="#64748B" text-anchor="middle">2021</text><rect x="846" y="356.0" width="44" height="154.0" rx="8" fill="#DB2777" stroke="none" /><text x="868" y="348.0" font-family="Inter, Arial, sans-serif" font-size="11" font-weight="700" fill="#DB2777" text-anchor="middle">109.0</text><text x="968" y="534" font-family="Inter, Arial, sans-serif" font-size="11" font-weight="500" fill="#64748B" text-anchor="middle">2022</text><rect x="946" y="459.13761467889907" width="44" height="50.86238532110092" rx="8" fill="#DB2777" stroke="none" /><text x="968" y="451.13761467889907" font-family="Inter, Arial, sans-serif" font-size="11" font-weight="700" fill="#DB2777" text-anchor="middle">36.0</text><text x="1068" y="534" font-family="Inter, Arial, sans-serif" font-size="11" font-weight="500" fill="#64748B" text-anchor="middle">2023</text><rect x="1046" y="433.70642201834863" width="44" height="76.29357798165138" rx="8" fill="#DB2777" stroke="none" /><text x="1068" y="425.70642201834863" font-family="Inter, Arial, sans-serif" font-size="11" font-weight="700" fill="#DB2777" text-anchor="middle">54.0</text><text x="1168" y="534" font-family="Inter, Arial, sans-serif" font-size="11" font-weight="500" fill="#64748B" text-anchor="middle">2024</text><rect x="1146" y="452.0380733944954" width="44" height="57.96192660550459" rx="8" fill="#DB2777" stroke="none" /><text x="1168" y="444.0380733944954" font-family="Inter, Arial, sans-serif" font-size="11" font-weight="700" fill="#DB2777" text-anchor="middle">41.0</text><rect x="62" y="586" width="596" height="262" rx="18" fill="#FFFFFF" stroke="#E2E8F0" /><text x="80" y="612" font-family="Inter, Arial, sans-serif" font-size="16" font-weight="700" fill="#011E42" text-anchor="start">Nitrate (ppm)</text><line x1="80" y1="800" x2="640" y2="800" stroke="#E2E8F0" stroke-width="2" /><text x="128" y="824" font-family="Inter, Arial, sans-serif" font-size="11" font-weight="500" fill="#64748B" text-anchor="middle">2020</text><rect x="106" y="794" width="44" height="6" rx="4" fill="#E2E8F0" stroke="none" /><text x="228" y="824" font-family="Inter, Arial, sans-serif" font-size="11" font-weight="500" fill="#64748B" text-anchor="middle">2021</text><rect x="206" y="794" width="44" height="6" rx="4" fill="#E2E8F0" stroke="none" /><text x="328" y="824" font-family="Inter, Arial, sans-serif" font-size="11" font-weight="500" fill="#64748B" text-anchor="middle">2022</text><rect x="306" y="794" width="44" height="6" rx="4" fill="#E2E8F0" stroke="none" /><text x="428" y="824" font-family="Inter, Arial, sans-serif" font-size="11" font-weight="500" fill="#64748B" text-anchor="middle">2023</text><rect x="406" y="794" width="44" height="6" rx="4" fill="#E2E8F0" stroke="none" /><text x="528" y="824" font-family="Inter, Arial, sans-serif" font-size="11" font-weight="500" fill="#64748B" text-anchor="middle">2024</text><rect x="506" y="646.0" width="44" height="154.0" rx="8" fill="#0F7B5F" stroke="none" /><text x="528" y="638.0" font-family="Inter, Arial, sans-serif" font-size="11" font-weight="700" fill="#0F7B5F" text-anchor="middle">0.3</text><rect x="702" y="586" width="596" height="262" rx="18" fill="#FFFFFF" stroke="#E2E8F0" /><text x="720" y="612" font-family="Inter, Arial, sans-serif" font-size="16" font-weight="700" fill="#011E42" text-anchor="start">Lead (ppb)</text><line x1="720" y1="800" x2="1280" y2="800" stroke="#E2E8F0" stroke-width="2" /><text x="768" y="824" font-family="Inter, Arial, sans-serif" font-size="11" font-weight="500" fill="#64748B" text-anchor="middle">2020</text><rect x="746" y="721.025641025641" width="44" height="78.97435897435898" rx="8" fill="#6D28D9" stroke="none" /><text x="768" y="713.025641025641" font-family="Inter, Arial, sans-serif" font-size="11" font-weight="700" fill="#6D28D9" text-anchor="middle">2.0</text><text x="868" y="824" font-family="Inter, Arial, sans-serif" font-size="11" font-weight="500" fill="#64748B" text-anchor="middle">2021</text><rect x="846" y="709.1794871794872" width="44" height="90.82051282051282" rx="8" fill="#6D28D9" stroke="none" /><text x="868" y="701.1794871794872" font-family="Inter, Arial, sans-serif" font-size="11" font-weight="700" fill="#6D28D9" text-anchor="middle">2.3</text><text x="968" y="824" font-family="Inter, Arial, sans-serif" font-size="11" font-weight="500" fill="#64748B" text-anchor="middle">2022</text><rect x="946" y="709.1794871794872" width="44" height="90.82051282051282" rx="8" fill="#6D28D9" stroke="none" /><text x="968" y="701.1794871794872" font-family="Inter, Arial, sans-serif" font-size="11" font-weight="700" fill="#6D28D9" text-anchor="middle">2.3</text><text x="1068" y="824" font-family="Inter, Arial, sans-serif" font-size="11" font-weight="500" fill="#64748B" text-anchor="middle">2023</text><rect x="1046" y="709.1794871794872" width="44" height="90.82051282051282" rx="8" fill="#6D28D9" stroke="none" /><text x="1068" y="701.1794871794872" font-family="Inter, Arial, sans-serif" font-size="11" font-weight="700" fill="#6D28D9" text-anchor="middle">2.3</text><text x="1168" y="824" font-family="Inter, Arial, sans-serif" font-size="11" font-weight="500" fill="#64748B" text-anchor="middle">2024</text><rect x="1146" y="646.0" width="44" height="154.0" rx="8" fill="#6D28D9" stroke="none" /><text x="1168" y="638.0" font-family="Inter, Arial, sans-serif" font-size="11" font-weight="700" fill="#6D28D9" text-anchor="middle">3.9</text></svg>