<svg xmlns="http://www.w3.org/2000/svg" width="1400" height="980" viewBox="0 0 1400 980" role="img" aria-label="Savannah River analytical figure"><rect x="0" y="0" width="1400" height="980" rx="12" fill="#F8FAFC" stroke="none" /><text x="70" y="60" font-family="Inter, Arial, sans-serif" font-size="30" font-weight="700" fill="#011E42" text-anchor="start">Environmental pressures in the Savannah River basin</text><text x="70" y="88" font-family="Inter, Arial, sans-serif" font-size="14" font-weight="400" fill="#64748B" text-anchor="start">NPDES facility inventory, sediment and bacteria loading targets, and dissolved-oxygen deficit zones.</text><rect x="56" y="97" width="608" height="352" rx="18" fill="#FFFFFF" stroke="#E2E8F0" /><text x="70" y="121" font-family="Inter, Arial, sans-serif" font-size="16" font-weight="700" fill="#011E42" text-anchor="start">NPDES dischargers by basin segment</text><text x="70" y="165" font-family="Inter, Arial, sans-serif" font-size="13" font-weight="600" fill="#011E42" text-anchor="start">Seneca</text><rect x="70" y="171" width="430" height="20" rx="6" fill="#E2E8F0" stroke="none" /><rect x="70" y="171" width="430.0" height="20" rx="6" fill="#0F7B5F" stroke="none" /><text x="508.0" y="186" font-family="Inter, Arial, sans-serif" font-size="13" font-weight="700" fill="#0F7B5F" text-anchor="start">588</text><text x="560.0" y="186" font-family="Inter, Arial, sans-serif" font-size="11" font-weight="500" fill="#B91C1C" text-anchor="start">(57 violations)</text><text x="70" y="229" font-family="Inter, Arial, sans-serif" font-size="13" font-weight="600" fill="#011E42" text-anchor="start">Tugaloo</text><rect x="70" y="235" width="430" height="20" rx="6" fill="#E2E8F0" stroke="none" /><rect x="70" y="235" width="189.4047619047619" height="20" rx="6" fill="#6D28D9" stroke="none" /><text x="267.4047619047619" y="250" font-family="Inter, Arial, sans-serif" font-size="13" font-weight="700" fill="#6D28D9" text-anchor="start">259</text><text x="319.4047619047619" y="250" font-family="Inter, Arial, sans-serif" font-size="11" font-weight="500" fill="#B91C1C" text-anchor="start">(30 violations)</text><text x="70" y="293" font-family="Inter, Arial, sans-serif" font-size="13" font-weight="600" fill="#011E42" text-anchor="start">Upper Savannah</text><rect x="70" y="299" width="430" height="20" rx="6" fill="#E2E8F0" stroke="none" /><rect x="70" y="299" width="336.3945578231292" height="20" rx="6" fill="#C27803" stroke="none" /><text x="414.3945578231292" y="314" font-family="Inter, Arial, sans-serif" font-size="13" font-weight="700" fill="#C27803" text-anchor="start">460</text><text x="466.3945578231292" y="314" font-family="Inter, Arial, sans-serif" font-size="11" font-weight="500" fill="#B91C1C" text-anchor="start">(40 violations)</text><text x="70" y="357" font-family="Inter, Arial, sans-serif" font-size="13" font-weight="600" fill="#011E42" text-anchor="start">Broad</text><rect x="70" y="363" width="430" height="20" rx="6" fill="#E2E8F0" stroke="none" /><rect x="70" y="363" width="393.4353741496599" height="20" rx="6" fill="#0B5CAD" stroke="none" /><text x="471.4353741496599" y="378" font-family="Inter, Arial, sans-serif" font-size="13" font-weight="700" fill="#0B5CAD" text-anchor="start">538</text><text x="523.4353741496599" y="378" font-family="Inter, Arial, sans-serif" font-size="11" font-weight="500" fill="#B91C1C" text-anchor="start">(52 violations)</text><rect x="70" y="395" width="170" height="50" rx="10" fill="#F8FAFC" stroke="#E2E8F0" /><text x="82" y="415" font-family="Inter, Arial, sans-serif" font-size="14" font-weight="700" fill="#011E42" text-anchor="start">1,845 facilities</text><text x="82" y="433" font-family="Inter, Arial, sans-serif" font-size="11" font-weight="500" fill="#B91C1C" text-anchor="start">179 in noncompliance  ·  24 significant</text><rect x="686" y="97" width="658" height="352" rx="18" fill="#FFFFFF" stroke="#E2E8F0" /><text x="700" y="121" font-family="Inter, Arial, sans-serif" font-size="16" font-weight="700" fill="#011E42" text-anchor="start">Sediment loads: current vs. TMDL allowable (ton/yr)</text><text x="700" y="164" font-family="Inter, Arial, sans-serif" font-size="11" font-weight="500" fill="#64748B" text-anchor="start">Dove Creek</text><rect x="700" y="167" width="490" height="10" rx="4" fill="#E2E8F0" stroke="none" /><rect x="700" y="167" width="490.0" height="10" rx="4" fill="#C27803" stroke="none" /><rect x="700" y="167" width="221.9599226577606" height="4" rx="3" fill="#0F7B5F" stroke="none" /><text x="1196.0" y="176" font-family="Inter, Arial, sans-serif" font-size="10" font-weight="700" fill="#B91C1C" text-anchor="start">−55%</text><text x="700" y="196" font-family="Inter, Arial, sans-serif" font-size="11" font-weight="500" fill="#64748B" text-anchor="start">Mattox Creek</text><rect x="700" y="199" width="490" height="10" rx="4" fill="#E2E8F0" stroke="none" /><rect x="700" y="199" width="337.80629284584285" height="10" rx="4" fill="#C27803" stroke="none" /><rect x="700" y="199" width="337.80629284584285" height="4" rx="3" fill="#0F7B5F" stroke="none" /><text x="700" y="228" font-family="Inter, Arial, sans-serif" font-size="11" font-weight="500" fill="#64748B" text-anchor="start">Big Toms Creek/Toms …</text><rect x="700" y="231" width="490" height="10" rx="4" fill="#E2E8F0" stroke="none" /><rect x="700" y="231" width="269.28897873088414" height="10" rx="4" fill="#C27803" stroke="none" /><rect x="700" y="231" width="99.13693091931799" height="4" rx="3" fill="#0F7B5F" stroke="none" /><text x="975.2889787308841" y="240" font-family="Inter, Arial, sans-serif" font-size="10" font-weight="700" fill="#B91C1C" text-anchor="start">−63%</text><text x="700" y="260" font-family="Inter, Arial, sans-serif" font-size="11" font-weight="500" fill="#64748B" text-anchor="start">Eastanollee Creek</text><rect x="700" y="263" width="490" height="10" rx="4" fill="#E2E8F0" stroke="none" /><rect x="700" y="263" width="261.1495869221304" height="10" rx="4" fill="#C27803" stroke="none" /><rect x="700" y="263" width="93.36614519247671" height="4" rx="3" fill="#0F7B5F" stroke="none" /><text x="967.1495869221304" y="272" font-family="Inter, Arial, sans-serif" font-size="10" font-weight="700" fill="#B91C1C" text-anchor="start">−64%</text><text x="700" y="292" font-family="Inter, Arial, sans-serif" font-size="11" font-weight="500" fill="#64748B" text-anchor="start">Little Shoal Creek</text><rect x="700" y="295" width="490" height="10" rx="4" fill="#E2E8F0" stroke="none" /><rect x="700" y="295" width="202.1066971348216" height="10" rx="4" fill="#C27803" stroke="none" /><rect x="700" y="295" width="161.668131481807" height="4" rx="3" fill="#0F7B5F" stroke="none" /><text x="908.1066971348216" y="304" font-family="Inter, Arial, sans-serif" font-size="10" font-weight="700" fill="#B91C1C" text-anchor="start">−20%</text><text x="700" y="324" font-family="Inter, Arial, sans-serif" font-size="11" font-weight="500" fill="#64748B" text-anchor="start">Panther Creek (Big P…</text><rect x="700" y="327" width="490" height="10" rx="4" fill="#E2E8F0" stroke="none" /><rect x="700" y="327" width="150.729477939884" height="10" rx="4" fill="#C27803" stroke="none" /><rect x="700" y="327" width="120.02373000527334" height="4" rx="3" fill="#0F7B5F" stroke="none" /><text x="856.729477939884" y="336" font-family="Inter, Arial, sans-serif" font-size="10" font-weight="700" fill="#B91C1C" text-anchor="start">−20%</text><text x="700" y="356" font-family="Inter, Arial, sans-serif" font-size="11" font-weight="500" fill="#64748B" text-anchor="start">Little Coldwater Creek</text><rect x="700" y="359" width="490" height="10" rx="4" fill="#E2E8F0" stroke="none" /><rect x="700" y="359" width="134.40762875725085" height="10" rx="4" fill="#C27803" stroke="none" /><rect x="700" y="359" width="68.30198628933029" height="4" rx="3" fill="#0F7B5F" stroke="none" /><text x="840.4076287572509" y="368" font-family="Inter, Arial, sans-serif" font-size="10" font-weight="700" fill="#B91C1C" text-anchor="start">−49%</text><text x="700" y="388" font-family="Inter, Arial, sans-serif" font-size="11" font-weight="500" fill="#64748B" text-anchor="start">Grove Creek</text><rect x="700" y="391" width="490" height="10" rx="4" fill="#E2E8F0" stroke="none" /><rect x="700" y="391" width="106.19968359992968" height="10" rx="4" fill="#C27803" stroke="none" /><rect x="700" y="391" width="104.43399542977677" height="4" rx="3" fill="#0F7B5F" stroke="none" /><text x="812.1996835999297" y="400" font-family="Inter, Arial, sans-serif" font-size="10" font-weight="700" fill="#B91C1C" text-anchor="start">−2%</text><rect x="700" y="429" width="14" height="10" rx="3" fill="#C27803" stroke="none" /><text x="718" y="438" font-family="Inter, Arial, sans-serif" font-size="11" font-weight="500" fill="#64748B" text-anchor="start">Current load</text><rect x="820" y="429" width="14" height="6" rx="3" fill="#0F7B5F" stroke="none" /><text x="838" y="438" font-family="Inter, Arial, sans-serif" font-size="11" font-weight="500" fill="#64748B" text-anchor="start">TMDL allowable</text><text x="980" y="438" font-family="Inter, Arial, sans-serif" font-size="11" font-weight="400" fill="#64748B" text-anchor="start">% = required reduction</text><rect x="56" y="447" width="608" height="302" rx="18" fill="#FFFFFF" stroke="#E2E8F0" /><text x="70" y="471" font-family="Inter, Arial, sans-serif" font-size="16" font-weight="700" fill="#011E42" text-anchor="start">Bacteria TMDL — impaired reaches (2023)</text><rect x="70" y="493" width="170" height="56" rx="10" fill="#F8FAFC" stroke="#E2E8F0" /><text x="84" y="519" font-family="Inter, Arial, sans-serif" font-size="28" font-weight="700" fill="#B91C1C" text-anchor="start">14</text><text x="84" y="537" font-family="Inter, Arial, sans-serif" font-size="11" font-weight="500" fill="#64748B" text-anchor="start">impaired segments</text><rect x="260" y="493" width="170" height="56" rx="10" fill="#F8FAFC" stroke="#E2E8F0" /><text x="274" y="519" font-family="Inter, Arial, sans-serif" font-size="28" font-weight="700" fill="#C27803" text-anchor="start">15</text><text x="274" y="537" font-family="Inter, Arial, sans-serif" font-size="11" font-weight="500" fill="#64748B" text-anchor="start">impaired reaches</text><text x="70" y="587" font-family="Inter, Arial, sans-serif" font-size="12" font-weight="600" fill="#011E42" text-anchor="start">Fecal coliform</text><rect x="70" y="591" width="520" height="14" rx="5" fill="#E2E8F0" stroke="none" /><rect x="70" y="591" width="520.0" height="14" rx="5" fill="#C27803" stroke="none" /><text x="598.0" y="602" font-family="Inter, Arial, sans-serif" font-size="11" font-weight="700" fill="#C27803" text-anchor="start">31</text><text x="70" y="621" font-family="Inter, Arial, sans-serif" font-size="12" font-weight="600" fill="#011E42" text-anchor="start">E. coli</text><rect x="70" y="625" width="520" height="14" rx="5" fill="#E2E8F0" stroke="none" /><rect x="70" y="625" width="369.03225806451616" height="14" rx="5" fill="#B91C1C" stroke="none" /><text x="447.03225806451616" y="636" font-family="Inter, Arial, sans-serif" font-size="11" font-weight="700" fill="#B91C1C" text-anchor="start">22</text><text x="70" y="655" font-family="Inter, Arial, sans-serif" font-size="12" font-weight="600" fill="#011E42" text-anchor="start">enterococci</text><rect x="70" y="659" width="520" height="14" rx="5" fill="#E2E8F0" stroke="none" /><rect x="70" y="659" width="150.96774193548387" height="14" rx="5" fill="#6D28D9" stroke="none" /><text x="228.96774193548387" y="670" font-family="Inter, Arial, sans-serif" font-size="11" font-weight="700" fill="#6D28D9" text-anchor="start">9</text><rect x="686" y="447" width="658" height="302" rx="18" fill="#FFFFFF" stroke="#E2E8F0" /><text x="700" y="471" font-family="Inter, Arial, sans-serif" font-size="16" font-weight="700" fill="#011E42" text-anchor="start">Dissolved-oxygen deficit — Savannah Harbor zones</text><rect x="700" y="493" width="170" height="56" rx="10" fill="#F8FAFC" stroke="#E2E8F0" /><text x="714" y="519" font-family="Inter, Arial, sans-serif" font-size="24" font-weight="700" fill="#0B5CAD" text-anchor="start">5.0 mg/L</text><text x="714" y="537" font-family="Inter, Arial, sans-serif" font-size="11" font-weight="500" fill="#64748B" text-anchor="start">daily avg DO criterion</text><rect x="890" y="493" width="170" height="56" rx="10" fill="#F8FAFC" stroke="#E2E8F0" /><text x="904" y="519" font-family="Inter, Arial, sans-serif" font-size="24" font-weight="700" fill="#0F7B5F" text-anchor="start">4.0 mg/L</text><text x="904" y="537" font-family="Inter, Arial, sans-serif" font-size="11" font-weight="500" fill="#64748B" text-anchor="start">minimum DO criterion</text><text x="700" y="592" font-family="Inter, Arial, sans-serif" font-size="12" font-weight="700" fill="#011E42" text-anchor="start">Zone FR15</text><rect x="700" y="596" width="430" height="10" rx="4" fill="#E2E8F0" stroke="none" /><rect x="700" y="596" width="422.6994906621392" height="10" rx="4" fill="#B91C1C" stroke="none" /><rect x="700" y="596" width="112.42784380305604" height="6" rx="3" fill="#0F7B5F" stroke="none" /><text x="1138" y="605" font-family="Inter, Arial, sans-serif" font-size="11" font-weight="600" fill="#0F7B5F" text-anchor="start">99% attained</text><text x="700" y="634" font-family="Inter, Arial, sans-serif" font-size="12" font-weight="700" fill="#011E42" text-anchor="start">Zone FR17</text><rect x="700" y="638" width="430" height="10" rx="4" fill="#E2E8F0" stroke="none" /><rect x="700" y="638" width="430.0" height="10" rx="4" fill="#B91C1C" stroke="none" /><rect x="700" y="638" width="114.61799660441427" height="6" rx="3" fill="#0F7B5F" stroke="none" /><text x="1138" y="647" font-family="Inter, Arial, sans-serif" font-size="11" font-weight="600" fill="#0F7B5F" text-anchor="start">98% attained</text><text x="700" y="676" font-family="Inter, Arial, sans-serif" font-size="12" font-weight="700" fill="#011E42" text-anchor="start">Zone FR19</text><rect x="700" y="680" width="430" height="10" rx="4" fill="#E2E8F0" stroke="none" /><rect x="700" y="680" width="426.34974533106964" height="10" rx="4" fill="#B91C1C" stroke="none" /><rect x="700" y="680" width="114.61799660441427" height="6" rx="3" fill="#0F7B5F" stroke="none" /><text x="1138" y="689" font-family="Inter, Arial, sans-serif" font-size="11" font-weight="600" fill="#0F7B5F" text-anchor="start">98% attained</text><text x="700" y="741" font-family="Inter, Arial, sans-serif" font-size="10" font-weight="400" fill="#64748B" text-anchor="start">March-October 1999 critical-condition model runs using 7Q10 low flow and Thurm…</text><text x="70" y="958" font-family="Inter, Arial, sans-serif" font-size="10" font-weight="400" fill="#64748B" text-anchor="start">Sources: EPA ECHO (2026 snapshot, HUC8 03060101–03060104) · Georgia EPD Sediment TMDL 2010 · Georgia EPD Bacteria TMDL 2023 · Savannah Harbor 5R DO Restoration Plan 2015</text></svg>