<svg xmlns="http://www.w3.org/2000/svg" width="1400" height="900" viewBox="0 0 1400 900" role="img" aria-label="Savannah River analytical figure"><rect x="0" y="0" width="1400" height="900" rx="12" fill="#F8FAFC" stroke="none" /><text x="70" y="72" font-family="Inter, Arial, sans-serif" font-size="32" font-weight="700" fill="#011E42" text-anchor="start">Thurmond-to-Augusta bridge: release and downstream river response</text><text x="70" y="102" font-family="Inter, Arial, sans-serif" font-size="15" font-weight="400" fill="#64748B" text-anchor="start">The strongest river-reservoir connection is shown directly through monthly Thurmond outflow, Augusta discharge, and the storage backdrop that shapes release decisions.</text><rect x="70" y="150" width="1260" height="320" rx="20" fill="#FFFFFF" stroke="#E2E8F0" /><text x="98" y="186" font-family="Inter, Arial, sans-serif" font-size="18" font-weight="700" fill="#011E42" text-anchor="start">Normalized monthly Thurmond outflow vs Augusta discharge</text><line x1="110" y1="392" x2="1280" y2="392" stroke="#E2E8F0" stroke-width="2" /><line x1="110" y1="212" x2="110" y2="392" stroke="#E2E8F0" stroke-width="2" /><polyline points="110.0,362.13206080875307 114.85477178423237,360.26505425174 119.70954356846472,349.25973824400853 124.5643153526971,373.4266505003939 129.41908713692945,377.7358783878907 134.27385892116183,376.3607299417568 139.1286307053942,376.33444212987536 143.98340248962654,369.668480120922 148.83817427385893,377.1522657825552 153.69294605809128,376.68436596659916 158.54771784232366,377.38792758556855 163.40248962655602,378.2163708176683 168.25726141078837,373.5280877916045 173.11203319502076,367.75509061972434 177.9668049792531,359.58336183434966 182.8215767634855,379.4333281513467 187.67634854771785,376.74529797992903 192.5311203319502,377.94020373137744 197.38589211618256,382.0881648931754 202.24066390041494,381.91233251385665 207.0954356846473,381.6820095139396 211.95020746887968,382.29533372662394 216.80497925311204,383.4665630436646 221.6597510373444,381.30301240754216 226.51452282157675,379.9833991394723 231.36929460580913,377.0978632005307 236.22406639004151,376.9733577899931 241.07883817427387,381.1063470837774 245.93360995850622,383.8778251027151 250.78838174273858,383.8119605006826 255.64315352697096,383.4321509654979 260.4979253112033,383.7228837000119 265.3526970954357,383.5547113512088 270.20746887966806,382.7862716447093 275.0622406639004,381.261056363199 279.91701244813277,377.5321913766823 284.7717842323651,385.9947772558461 289.62655601659753,383.16305530388445 294.4813278008299,366.5087201182904 299.33609958506224,378.65978176503256 304.1908713692946,382.801939877171 309.04564315352695,381.8619040210042 313.90041493775936,381.9784872713404 318.75518672199166,381.05232070434556 323.6099585062241,382.62285779349685 328.46473029045643,379.9294307868132 333.3195020746888,306.69658138615944 338.1742738589212,266.5715173931491 343.0290456431535,295.5403363716336 347.8838174273859,268.35116734755786 352.73858921161826,349.183137998217 357.5933609958506,369.7460088490464 362.44813278008303,371.97693288043666 367.3029045643153,370.0248453395838 372.15767634854774,372.64718500547787 377.0124481327801,363.93738925075445 381.86721991701245,379.14729588225373 386.7219917012448,380.1940498059546 391.57676348547716,380.5576688353416 396.43153526970957,380.35769577505187 401.2863070539419,379.88764883358203 406.1410788381743,376.0045388142071 410.99585062240664,368.23222557574314 415.850622406639,363.1816582224157 420.70539419087135,378.12758417244885 425.56016597510376,379.816503455226 430.4149377593361,375.12624740015735 435.26970954356847,381.607672458001 440.1244813278008,381.6550253376101 444.9792531120332,380.62231479419324 449.83402489626553,381.1783048909207 454.68879668049794,381.85488233356057 459.5435684647303,382.14387415695455 464.39834024896265,381.7298366404477 469.253112033195,383.21801846598174 474.10788381742736,385.00825898102704 478.9626556016598,386.0 483.81742738589213,384.3840250388686 488.6721991701245,382.6731121952373 493.52697095435684,378.059688503845 498.3817427385892,381.1297333735276 503.23651452282155,382.03071470748256 508.09128630705396,384.9488937931021 512.9460580912863,385.2879659271245 517.8008298755187,385.7771629340898 522.655601659751,374.7709764654015 527.5103734439833,375.46920757621035 532.3651452282159,378.7353374587552 537.2199170124481,378.8100226969179 542.0746887966804,366.8065325778145 546.9294605809129,271.96138900378065 551.7842323651453,334.00062175744085 556.6390041493776,364.7071636593773 561.49377593361,381.8531414170437 566.3485477178424,380.2194671568792 571.2033195020747,353.86097553597295 576.058091286307,265.28324059000266 580.9128630705394,340.18497217869697 585.7676348547718,345.52373550570906 590.6224066390041,344.6039522938794 595.4771784232365,371.12040289856265 600.3319502074689,374.50781650226156 605.1867219917012,371.59567258418633 610.0414937759335,372.36515683735786 614.8962655601661,377.6145946667366 619.7510373443984,380.59794198994064 624.6058091286307,378.5968186851314 629.4605809128631,376.3605558506448 634.3153526970955,376.68610688311605 639.1701244813278,375.33957161025893 644.0248962655602,370.7931109549713 648.8796680497925,370.812783288406 653.7344398340249,379.66307085115494 658.5892116182573,373.5040051428031 663.4439834024896,376.1394596958547 668.298755186722,375.36301178201234 673.1535269709543,379.9244401605441 678.0082987551867,371.10299375498084 682.8630705394191,312.46028538580725 687.7178423236514,218.0 692.5726141078839,333.9045712957636 697.4273858921161,357.5256007726348 702.2821576763486,361.85403674700297 707.1369294605809,366.8830167592668 711.9917012448133,377.134276328071 716.8464730290457,373.32962352994684 721.701244813278,378.7299406234893 726.5560165975104,376.9040113603236 731.4107883817427,382.59999378247954 736.2655601659751,383.60508181189164 741.1203319502075,381.6546771553861 745.9751037344398,369.0226008055303 750.8298755186722,376.9740417201327 755.6846473029045,379.5725432894186 760.5394190871369,375.42347954877897 765.3941908713693,378.689899586775 770.2489626556016,379.017771835872 775.103734439834,377.77243759157113 779.9585062240664,378.7664998325666 784.8132780082988,379.4009471397513 789.6680497925311,381.0070569234774 794.5228215767635,381.40497197208873 799.3775933609959,380.0356265756144 804.2323651452282,380.11919047667993 809.0871369294606,379.58995243839723 813.9419087136929,376.79247676302924 818.7966804979253,346.6779618881648 823.6514522821577,329.6547186073213 828.50622406639,377.2362358926176 833.3609958506224,356.81182578324234 838.2157676348547,370.43860271176885 843.0705394190871,376.7470388910491 847.9253112033196,336.0931430795465 852.7800829875519,255.93452918055834 857.6348547717843,269.18288929739936 862.4896265560166,327.39832748237575 867.344398340249,305.00568906358376 872.1991701244814,314.17839400799414 877.0539419087137,358.90614605403454 881.9087136929461,374.7650656463385 886.7634854771784,374.5743774687421 891.6182572614108,369.15142848206716 896.4730290456431,379.78772033560676 901.3278008298755,380.12093138780006 906.1825726141079,379.6527994539592 911.0373443983402,365.40149843321973 915.8921161825726,316.6854851256752 920.7468879668049,254.29566818932173 925.6016597510373,264.6042838931706 930.4564315352698,336.26404285936894 935.311203319502,328.62119563511715 940.1659751037345,351.9382514202449 945.0207468879668,359.8044579837429 949.8755186721992,358.22893027371936 954.7302904564316,347.3257562111854 959.5850622406639,364.89837411030965 964.4398340248963,312.6546875197191 969.2946058091286,355.2345571567019 974.149377593361,330.46134236967896 979.0041493775933,328.58370379893756 983.8589211618257,343.1003823802055 988.7136929460581,344.3179200247864 993.5684647302904,363.0791183523635 998.4232365145228,366.8605009304735 1003.2780082987551,368.00242484916214 1008.1327800829876,360.2013865178518 1012.98755186722,363.39393374107567 1017.8423236514523,333.99017626913303 1022.6970954356847,362.57001689407866 1027.5518672199169,355.26937544926227 1032.4066390041494,356.14679640775194 1037.261410788382,354.98193801156793 1042.116182572614,335.189666432457 1046.9709543568465,303.893824934468 1051.8257261410788,374.006839310262 1056.680497925311,373.01649102018513 1061.5352697095436,368.357571424643 1066.390041493776,367.76740137303045 1071.2448132780082,380.649415034862 1076.0995850622407,381.3691671596291 1080.954356846473,380.58825089825046 1085.8091286307053,373.43233749111107 1090.6639004149379,325.31693972348694 1095.5186721991702,325.4651039909398 1100.3734439834025,366.876053098596 1105.228215767635,333.8066838700923 1110.082987551867,351.83281002266455 1114.9377593360996,361.7047243028473 1119.7925311203321,364.88270587784797 1124.6473029045642,366.8551621219804 1129.5020746887967,372.6171252105081 1134.356846473029,378.6307084899621 1139.2116182572613,380.55047305138913 1144.0663900414938,374.7049460617959 1148.9211618257261,370.7669972342018 1153.7759336099584,340.6543373325708 1158.630705394191,322.73864519528024 1163.4854771784233,358.47381892725645 1168.3402489626556,348.2883078961455 1173.195020746888,367.5692852935968 1178.0497925311204,361.6393819741508 1182.9045643153527,369.8860944480752 1187.759336099585,359.6287416741602 1192.6141078838175,364.93319240287 1197.4688796680498,369.4347913523104 1202.323651452282,369.5239842065267 1207.1784232365146,372.2502564767658 1212.033195020747,367.9362700916784 1216.8879668049792,370.29172754857814 1221.7427385892115,362.5124506494434 1226.597510373444,349.70541238122576 1231.4522821576763,360.1504357462665 1236.3070539419086,371.6583455086363 1241.1618257261412,344.70550564403237 1246.0165975103735,367.3732002807345 1250.8713692946058,378.09972953516245 1255.7261410788383,379.35057667906847 1260.5809128630706,375.12624740015735 1265.4356846473029,379.20172848147604 1270.2904564315352,378.3540895968133 1275.1452282157677,378.0405384437463 1280.0,380.5408786817806" stroke="#0B5CAD" stroke-width="3" fill="none" opacity="1.0" /><line x1="980" y1="426" x2="1010" y2="426" stroke="#0B5CAD" stroke-width="4" /><text x="1020" y="430" font-family="Inter, Arial, sans-serif" font-size="13" font-weight="600" fill="#64748B" text-anchor="start">Augusta discharge</text><polyline points="110.0,385.5427454302384 114.85477178423237,386.0 119.70954356846472,372.5544240044266 124.5643153526971,385.5082724270798 129.41908713692945,382.81182011493155 134.27385892116183,378.5037203820399 139.1286307053942,384.7240511194942 143.98340248962654,385.97722293403405 148.83817427385893,386.0 153.69294605809128,386.0 158.54771784232366,386.0 163.40248962655602,385.94884225605307 168.25726141078837,385.52925390931307 173.11203319502076,385.8675379804558 177.9668049792531,385.9521427525678 182.8215767634855,385.3054115362441 187.67634854771785,385.8802998777595 192.5311203319502,385.9258212702671 197.38589211618256,385.4855069794691 202.24066390041494,386.0 207.0954356846473,385.9752737567557 211.95020746887968,386.0 216.80497925311204,386.0 221.6597510373444,386.0 226.51452282157675,384.41951212444104 231.36929460580913,386.0 236.22406639004151,384.95180710599413 241.07883817427387,386.0 245.93360995850622,385.90428551018493 250.78838174273858,385.98335762758154 255.64315352697096,385.98078836540344 260.4979253112033,386.0 265.3526970954357,386.0 270.20746887966806,386.0 275.0622406639004,386.0 279.91701244813277,384.9966136187294 284.7717842323651,385.3835533369437 289.62655601659753,384.307234419511 294.4813278008299,386.0 299.33609958506224,385.7241604176848 304.1908713692946,385.54231032510614 309.04564315352695,386.0 313.90041493775936,386.0 318.75518672199166,386.0 323.6099585062241,386.0 328.46473029045643,384.92500203553317 333.3195020746888,327.3264545283045 338.1742738589212,293.3575666187677 343.0290456431535,327.9624292279546 347.8838174273859,291.32250229774587 352.73858921161826,382.86537162885526 357.5933609958506,384.9080109357327 362.44813278008303,381.7460834741885 367.3029045643153,381.0593007375305 372.15767634854774,385.5135623737984 377.0124481327801,385.901067013709 381.86721991701245,386.0 386.7219917012448,386.0 391.57676348547716,385.9094910837108 396.43153526970957,383.66427097874123 401.2863070539419,385.7997739006838 406.1410788381743,386.0 410.99585062240664,381.5973924401803 415.850622406639,374.4573803249144 420.70539419087135,385.97607137880857 425.56016597510376,385.9257623605101 430.4149377593361,386.0 435.26970954356847,384.49877578564764 440.1244813278008,386.0 444.9792531120332,386.0 449.83402489626553,386.0 454.68879668049794,385.97607137880857 459.5435684647303,386.0 464.39834024896265,385.9735075950813 469.253112033195,384.58787921420185 474.10788381742736,385.9256428646407 478.9626556016598,386.0 483.81742738589213,385.9752737567557 488.6721991701245,386.0 493.52697095435684,386.0 498.3817427385892,386.0 503.23651452282155,386.0 508.09128630705396,384.939651185948 512.9460580912863,386.0 517.8008298755187,384.08129453695057 522.655601659751,385.3729752460936 527.5103734439833,384.9333414596821 532.3651452282159,386.0 537.2199170124481,385.52033848538383 542.0746887966804,384.3494358152482 546.9294605809129,293.49526817823323 551.7842323651453,385.97607137880857 556.6390041493776,384.3846026023563 561.49377593361,385.9521427525678 566.3485477178424,375.8718808790817 571.2033195020747,385.9521427525678 576.058091286307,332.7545703126365 580.9128630705394,385.950582136311 585.7676348547718,381.50841252670926 590.6224066390041,382.33239678417215 595.4771784232365,382.5664373112117 600.3319502074689,380.2116623620851 605.1867219917012,375.1506610344791 610.0414937759335,380.06878818563644 614.8962655601661,385.9257623605101 619.7510373443984,372.35940966903337 624.6058091286307,379.5585680235343 629.4605809128631,379.0526369431444 634.3153526970955,379.84962512155823 639.1701244813278,381.20051096454546 644.0248962655602,382.7066805790245 648.8796680497925,386.0 653.7344398340249,386.0 658.5892116182573,373.32901300375306 663.4439834024896,372.2991878255941 668.298755186722,378.8185419597982 673.1535269709543,379.7171091758801 678.0082987551867,386.0 682.8630705394191,368.25553325964273 687.7178423236514,218.0 692.5726141078839,381.49796351018136 697.4273858921161,385.9257623605101 702.2821576763486,386.0 707.1369294605809,384.46570310987676 711.9917012448133,385.1909346347054 716.8464730290457,384.7244860075082 721.701244813278,386.0 726.5560165975104,383.70394145640716 731.4107883817427,385.97607137880857 736.2655601659751,383.2146822664301 741.1203319502075,383.9670003884541 745.9751037344398,383.16441832795596 750.8298755186722,380.4319210961406 755.6846473029045,385.391570966482 760.5394190871369,384.68797245055003 765.3941908713693,382.1579861047248 770.2489626556016,381.4773881705051 775.103734439834,381.67286100931756 779.9585062240664,383.74083084519367 784.8132780082988,386.0 789.6680497925311,384.9727436346347 794.5228215767635,385.89004013422255 799.3775933609959,380.8180516496858 804.2323651452282,386.0 809.0871369294606,385.9216354308451 813.9419087136929,384.4838037954247 818.7966804979253,350.2386810118829 823.6514522821577,346.3195769664064 828.50622406639,386.0 833.3609958506224,381.2774645927608 838.2157676348547,384.3881690637755 843.0705394190871,383.0600207358734 847.9253112033196,345.96890114936684 852.7800829875519,276.9371239881019 857.6348547717843,285.92352622697626 862.4896265560166,363.3816222865814 867.344398340249,344.82327201719306 872.1991701244814,358.18679028607323 877.0539419087137,382.9772253370326 881.9087136929461,380.119769134672 886.7634854771784,372.62416226038044 891.6182572614108,383.4010851789002 896.4730290456431,384.5572688976027 901.3278008298755,385.87995457377815 906.1825726141079,379.76477273356534 911.0373443983402,381.8690797354293 915.8921161825726,372.7929249346883 920.7468879668049,296.7919517871329 925.6016597510373,288.34953504914466 930.4564315352698,379.47577179156497 935.311203319502,380.6442758292831 940.1659751037345,367.769807574542 945.0207468879668,379.6803532340781 949.8755186721992,377.2038156446154 954.7302904564316,375.3898379096424 959.5850622406639,377.9931108964774 964.4398340248963,325.72490233734493 969.2946058091286,382.6938114707094 974.149377593361,386.0 979.0041493775933,383.2243026533781 983.8589211618257,380.41297649689227 988.7136929460581,366.6878974208391 993.5684647302904,384.1091431083986 998.4232365145228,384.48698297833516 1003.2780082987551,383.29390098919174 1008.1327800829876,372.31437203131173 1012.98755186722,385.34013700257657 1017.8423236514523,347.194823734984 1022.6970954356847,382.9728168705347 1027.5518672199169,382.1458499525451 1032.4066390041494,377.983101953557 1037.261410788382,382.602608679584 1042.116182572614,350.1197857422406 1046.9709543568465,329.7745150594449 1051.8257261410788,385.3853740508607 1056.680497925311,378.3171921720966 1061.5352697095436,373.3233539407266 1066.390041493776,380.954143963438 1071.2448132780082,385.95036910788497 1076.0995850622407,385.31263236171026 1080.954356846473,384.7219861424073 1085.8091286307053,385.2647181080934 1090.6639004149379,325.6841013295866 1095.5186721991702,327.4307952252862 1100.3734439834025,360.9684389672887 1105.228215767635,334.9102867238376 1110.082987551867,348.47256666929565 1114.9377593360996,348.14658136186284 1119.7925311203321,348.9733511919511 1124.6473029045642,350.89705230539744 1129.5020746887967,359.9707243277452 1134.356846473029,365.1634143246521 1139.2116182572613,367.5821280668857 1144.0663900414938,367.7347502554661 1148.9211618257261,359.42430974738295 1153.7759336099584,329.44566631974385 1158.630705394191,316.52798068676435 1163.4854771784233,348.0657638251662 1168.3402489626556,344.9569378417412 1173.195020746888,355.89672446083745 1178.0497925311204,349.0779397623261 1182.9045643153527,357.36071315939205 1187.759336099585,367.3279502439734 1192.6141078838175,353.79544898627216 1197.4688796680498,356.76363981844736 1202.323651452282,359.7175848151772 1207.1784232365146,361.2141845403923 1212.033195020747,359.48401248109343 1216.8879668049792,357.73612329344814 1221.7427385892115,352.8482858660041 1226.597510373444,338.89642551832173 1231.4522821576763,345.9388870346512 1236.3070539419086,356.8398717907789 1241.1618257261412,340.5186669350953 1246.0165975103735,352.22099103709286 1250.8713692946058,363.7188362269214 1255.7261410788383,364.18745352792956 1260.5809128630706,360.85312996732614 1265.4356846473029,365.20645420613147 1270.2904564315352,366.45796239943957 1275.1452282157677,366.14817973416757 1280.0,367.0785879490821" stroke="#C27803" stroke-width="3" fill="none" opacity="1.0" /><line x1="980" y1="450" x2="1010" y2="450" stroke="#C27803" stroke-width="4" /><text x="1020" y="454" font-family="Inter, Arial, sans-serif" font-size="13" font-weight="600" fill="#64748B" text-anchor="start">Thurmond outflow</text><line x1="110.0" y1="392" x2="1280.0" y2="392" stroke="#E2E8F0" stroke-width="2" /><line x1="110.0" y1="386" x2="110.0" y2="398" stroke="#E2E8F0" stroke-width="1" /><text x="110.0" y="414" font-family="Inter, Arial, sans-serif" font-size="11" font-weight="500" fill="#64748B" text-anchor="middle">2006</text><line x1="168.25726141078837" y1="386" x2="168.25726141078837" y2="398" stroke="#E2E8F0" stroke-width="1" /><text x="168.25726141078837" y="414" font-family="Inter, Arial, sans-serif" font-size="11" font-weight="500" fill="#64748B" text-anchor="middle">2007</text><line x1="226.51452282157675" y1="386" x2="226.51452282157675" y2="398" stroke="#E2E8F0" stroke-width="1" /><text x="226.51452282157675" y="414" font-family="Inter, Arial, sans-serif" font-size="11" font-weight="500" fill="#64748B" text-anchor="middle">2008</text><line x1="284.7717842323651" y1="386" x2="284.7717842323651" y2="398" stroke="#E2E8F0" stroke-width="1" /><text x="284.7717842323651" y="414" font-family="Inter, Arial, sans-serif" font-size="11" font-weight="500" fill="#64748B" text-anchor="middle">2009</text><line x1="343.0290456431535" y1="386" x2="343.0290456431535" y2="398" stroke="#E2E8F0" stroke-width="1" /><text x="343.0290456431535" y="414" font-family="Inter, Arial, sans-serif" font-size="11" font-weight="500" fill="#64748B" text-anchor="middle">2010</text><line x1="401.2863070539419" y1="386" x2="401.2863070539419" y2="398" stroke="#E2E8F0" stroke-width="1" /><text x="401.2863070539419" y="414" font-family="Inter, Arial, sans-serif" font-size="11" font-weight="500" fill="#64748B" text-anchor="middle">2011</text><line x1="459.5435684647303" y1="386" x2="459.5435684647303" y2="398" stroke="#E2E8F0" stroke-width="1" /><text x="459.5435684647303" y="414" font-family="Inter, Arial, sans-serif" font-size="11" font-weight="500" fill="#64748B" text-anchor="middle">2012</text><line x1="517.8008298755187" y1="386" x2="517.8008298755187" y2="398" stroke="#E2E8F0" stroke-width="1" /><text x="517.8008298755187" y="414" font-family="Inter, Arial, sans-serif" font-size="11" font-weight="500" fill="#64748B" text-anchor="middle">2013</text><line x1="576.058091286307" y1="386" x2="576.058091286307" y2="398" stroke="#E2E8F0" stroke-width="1" /><text x="576.058091286307" y="414" font-family="Inter, Arial, sans-serif" font-size="11" font-weight="500" fill="#64748B" text-anchor="middle">2014</text><line x1="634.3153526970955" y1="386" x2="634.3153526970955" y2="398" stroke="#E2E8F0" stroke-width="1" /><text x="634.3153526970955" y="414" font-family="Inter, Arial, sans-serif" font-size="11" font-weight="500" fill="#64748B" text-anchor="middle">2015</text><line x1="687.7178423236514" y1="386" x2="687.7178423236514" y2="398" stroke="#E2E8F0" stroke-width="1" /><text x="687.7178423236514" y="414" font-family="Inter, Arial, sans-serif" font-size="11" font-weight="500" fill="#64748B" text-anchor="middle">2016</text><line x1="745.9751037344398" y1="386" x2="745.9751037344398" y2="398" stroke="#E2E8F0" stroke-width="1" /><text x="745.9751037344398" y="414" font-family="Inter, Arial, sans-serif" font-size="11" font-weight="500" fill="#64748B" text-anchor="middle">2017</text><line x1="804.2323651452282" y1="386" x2="804.2323651452282" y2="398" stroke="#E2E8F0" stroke-width="1" /><text x="804.2323651452282" y="414" font-family="Inter, Arial, sans-serif" font-size="11" font-weight="500" fill="#64748B" text-anchor="middle">2018</text><line x1="857.6348547717843" y1="386" x2="857.6348547717843" y2="398" stroke="#E2E8F0" stroke-width="1" /><text x="857.6348547717843" y="414" font-family="Inter, Arial, sans-serif" font-size="11" font-weight="500" fill="#64748B" text-anchor="middle">2019</text><line x1="915.8921161825726" y1="386" x2="915.8921161825726" y2="398" stroke="#E2E8F0" stroke-width="1" /><text x="915.8921161825726" y="414" font-family="Inter, Arial, sans-serif" font-size="11" font-weight="500" fill="#64748B" text-anchor="middle">2020</text><line x1="974.149377593361" y1="386" x2="974.149377593361" y2="398" stroke="#E2E8F0" stroke-width="1" /><text x="974.149377593361" y="414" font-family="Inter, Arial, sans-serif" font-size="11" font-weight="500" fill="#64748B" text-anchor="middle">2021</text><line x1="1032.4066390041494" y1="386" x2="1032.4066390041494" y2="398" stroke="#E2E8F0" stroke-width="1" /><text x="1032.4066390041494" y="414" font-family="Inter, Arial, sans-serif" font-size="11" font-weight="500" fill="#64748B" text-anchor="middle">2022</text><line x1="1090.6639004149379" y1="386" x2="1090.6639004149379" y2="398" stroke="#E2E8F0" stroke-width="1" /><text x="1090.6639004149379" y="414" font-family="Inter, Arial, sans-serif" font-size="11" font-weight="500" fill="#64748B" text-anchor="middle">2023</text><line x1="1148.9211618257261" y1="386" x2="1148.9211618257261" y2="398" stroke="#E2E8F0" stroke-width="1" /><text x="1148.9211618257261" y="414" font-family="Inter, Arial, sans-serif" font-size="11" font-weight="500" fill="#64748B" text-anchor="middle">2024</text><line x1="1207.1784232365146" y1="386" x2="1207.1784232365146" y2="398" stroke="#E2E8F0" stroke-width="1" /><text x="1207.1784232365146" y="414" font-family="Inter, Arial, sans-serif" font-size="11" font-weight="500" fill="#64748B" text-anchor="middle">2025</text><line x1="1265.4356846473029" y1="386" x2="1265.4356846473029" y2="398" stroke="#E2E8F0" stroke-width="1" /><text x="1265.4356846473029" y="414" font-family="Inter, Arial, sans-serif" font-size="11" font-weight="500" fill="#64748B" text-anchor="middle">2026</text><line x1="1280.0" y1="386" x2="1280.0" y2="398" stroke="#E2E8F0" stroke-width="1" /><text x="1280.0" y="414" font-family="Inter, Arial, sans-serif" font-size="11" font-weight="500" fill="#64748B" text-anchor="middle">2026</text><rect x="70" y="500" width="600" height="320" rx="20" fill="#FFFFFF" stroke="#E2E8F0" /><text x="98" y="536" font-family="Inter, Arial, sans-serif" font-size="18" font-weight="700" fill="#011E42" text-anchor="start">Monthly outflow vs monthly discharge</text><line x1="110" y1="564.0" x2="630" y2="564.0" stroke="#E2E8F0" stroke-width="1" stroke-dasharray="4 6" /><line x1="110" y1="664.0" x2="630" y2="664.0" stroke="#E2E8F0" stroke-width="1" stroke-dasharray="4 6" /><line x1="110" y1="764.0" x2="630" y2="764.0" stroke="#E2E8F0" stroke-width="1" stroke-dasharray="4 6" /><text x="104" y="570" font-family="Inter, Arial, sans-serif" font-size="11" font-weight="500" fill="#64748B" text-anchor="end">37,023</text><text x="104" y="668.0" font-family="Inter, Arial, sans-serif" font-size="11" font-weight="500" fill="#64748B" text-anchor="end">18,968</text><text x="104" y="768" font-family="Inter, Arial, sans-serif" font-size="11" font-weight="500" fill="#64748B" text-anchor="end">912.6</text><line x1="110" y1="564" x2="110" y2="764" stroke="#E2E8F0" stroke-width="2" /><line x1="110" y1="764" x2="630" y2="764" stroke="#E2E8F0" stroke-width="2" /><circle cx="147.08216531340318" cy="725.7118850664543" r="4.2" fill="#C27803" opacity="0.7" /><circle cx="145.86206896551724" cy="723.7958274340517" r="4.2" fill="#C27803" opacity="0.7" /><circle cx="181.73901640854965" cy="712.5013734031286" r="4.2" fill="#C27803" opacity="0.7" /><circle cx="147.17414992774275" cy="737.3032127467097" r="4.2" fill="#C27803" opacity="0.7" /><circle cx="154.36911709891" cy="741.7256551599863" r="4.2" fill="#C27803" opacity="0.7" /><circle cx="165.8644571086785" cy="740.3143780190444" r="4.2" fill="#C27803" opacity="0.7" /><circle cx="149.26669446768784" cy="740.2873995585749" r="4.2" fill="#C27803" opacity="0.7" /><circle cx="145.92284520885826" cy="733.4463055428182" r="4.2" fill="#C27803" opacity="0.7" /><circle cx="145.86206896551724" cy="741.1267095469574" r="4.2" fill="#C27803" opacity="0.7" /><circle cx="145.86206896551724" cy="740.6465167965919" r="4.2" fill="#C27803" opacity="0.7" /><circle cx="145.86206896551724" cy="741.3685627930712" r="4.2" fill="#C27803" opacity="0.7" /><circle cx="145.99857361890605" cy="742.218771364602" r="4.2" fill="#C27803" opacity="0.7" /><circle cx="147.1181648561022" cy="737.4073150570654" r="4.2" fill="#C27803" opacity="0.7" /><circle cx="146.21551852505635" cy="731.4826463667122" r="4.2" fill="#C27803" opacity="0.7" /><circle cx="145.98976687533215" cy="723.0962251994557" r="4.2" fill="#C27803" opacity="0.7" /><circle cx="147.71544540821566" cy="743.4677013047483" r="4.2" fill="#C27803" opacity="0.7" /><circle cx="146.18146584341667" cy="740.7090496509944" r="4.2" fill="#C27803" opacity="0.7" /><circle cx="146.06000071562562" cy="741.9353486569966" r="4.2" fill="#C27803" opacity="0.7" /><circle cx="147.23489516972532" cy="746.1922874519452" r="4.2" fill="#C27803" opacity="0.7" /><circle cx="145.86206896551724" cy="746.0118355027264" r="4.2" fill="#C27803" opacity="0.7" /><circle cx="145.92804621555337" cy="745.7754613238296" r="4.2" fill="#C27803" opacity="0.7" /><circle cx="145.86206896551724" cy="746.404899144729" r="4.2" fill="#C27803" opacity="0.7" /><circle cx="145.86206896551724" cy="747.6068996753537" r="4.2" fill="#C27803" opacity="0.7" /><circle cx="145.86206896551724" cy="745.3865069863939" r="4.2" fill="#C27803" opacity="0.7" /><circle cx="150.07929851852754" cy="744.0322240758131" r="4.2" fill="#C27803" opacity="0.7" /><circle cx="145.86206896551724" cy="741.0708776688533" r="4.2" fill="#C27803" opacity="0.7" /><circle cx="148.6589711867973" cy="740.9431011802063" r="4.2" fill="#C27803" opacity="0.7" /><circle cx="145.86206896551724" cy="745.1846747575712" r="4.2" fill="#C27803" opacity="0.7" /><circle cx="146.1174647716741" cy="748.0289666489276" r="4.2" fill="#C27803" opacity="0.7" /><circle cx="145.90647595267654" cy="747.961371614001" r="4.2" fill="#C27803" opacity="0.7" /><circle cx="145.91333153730614" cy="747.5715835031792" r="4.2" fill="#C27803" opacity="0.7" /><circle cx="145.86206896551724" cy="747.869954536137" r="4.2" fill="#C27803" opacity="0.7" /><circle cx="145.86206896551724" cy="747.6973638661831" r="4.2" fill="#C27803" opacity="0.7" /><circle cx="145.86206896551724" cy="746.9087352675588" r="4.2" fill="#C27803" opacity="0.7" /><circle cx="145.86206896551724" cy="745.3434486486033" r="4.2" fill="#C27803" opacity="0.7" /><circle cx="148.53941357892404" cy="741.5166167658891" r="4.2" fill="#C27803" opacity="0.7" /><circle cx="147.5069389613571" cy="750.2015365926171" r="4.2" fill="#C27803" opacity="0.7" /><circle cx="150.37889009572183" cy="747.2954180048075" r="4.2" fill="#C27803" opacity="0.7" /><circle cx="145.86206896551724" cy="730.2035304990665" r="4.2" fill="#C27803" opacity="0.7" /><circle cx="146.59809412358328" cy="742.6738318606656" r="4.2" fill="#C27803" opacity="0.7" /><circle cx="147.0833263082143" cy="746.92481514488" r="4.2" fill="#C27803" opacity="0.7" /><circle cx="145.86206896551724" cy="745.9600821233622" r="4.2" fill="#C27803" opacity="0.7" /><circle cx="145.86206896551724" cy="746.079728316236" r="4.2" fill="#C27803" opacity="0.7" /><circle cx="145.86206896551724" cy="745.1292289658719" r="4.2" fill="#C27803" opacity="0.7" /><circle cx="145.86206896551724" cy="746.7410281131946" r="4.2" fill="#C27803" opacity="0.7" /><circle cx="148.73049538958716" cy="743.9768378353995" r="4.2" fill="#C27803" opacity="0.7" /><circle cx="302.4212009712728" cy="668.8199726869452" r="4.2" fill="#C27803" opacity="0.7" /><circle cx="393.0606802044375" cy="627.6407198205554" r="4.2" fill="#C27803" opacity="0.7" /><circle cx="300.72422414544127" cy="657.3706243551247" r="4.2" fill="#C27803" opacity="0.7" /><circle cx="398.4908600429605" cy="629.4671257671982" r="4.2" fill="#C27803" opacity="0.7" /><circle cx="154.22622512825984" cy="712.422760671405" r="4.2" fill="#C27803" opacity="0.7" /><circle cx="148.77583288905475" cy="733.5258711504991" r="4.2" fill="#C27803" opacity="0.7" /><circle cx="157.21283145228858" cy="735.815407307509" r="4.2" fill="#C27803" opacity="0.7" /><circle cx="159.04537980543984" cy="733.8120333944826" r="4.2" fill="#C27803" opacity="0.7" /><circle cx="147.16003471687617" cy="736.5032686837827" r="4.2" fill="#C27803" opacity="0.7" /><circle cx="146.12605271383066" cy="727.5646441407579" r="4.2" fill="#C27803" opacity="0.7" /><circle cx="145.86206896551724" cy="743.1741542305559" r="4.2" fill="#C27803" opacity="0.7" /><circle cx="145.86206896551724" cy="744.2484090783606" r="4.2" fill="#C27803" opacity="0.7" /><circle cx="146.10357469453186" cy="744.6215813170583" r="4.2" fill="#C27803" opacity="0.7" /><circle cx="152.09451504030457" cy="744.4163544489448" r="4.2" fill="#C27803" opacity="0.7" /><circle cx="146.39633400884858" cy="743.9339581625431" r="4.2" fill="#C27803" opacity="0.7" /><circle cx="145.86206896551724" cy="739.9488288323143" r="4.2" fill="#C27803" opacity="0.7" /><circle cx="157.60958503235963" cy="731.972316888078" r="4.2" fill="#C27803" opacity="0.7" /><circle cx="176.6613414975601" cy="726.7890581100326" r="4.2" fill="#C27803" opacity="0.7" /><circle cx="145.9259179136882" cy="742.1276520653211" r="4.2" fill="#C27803" opacity="0.7" /><circle cx="146.06015790504284" cy="743.8609436116851" r="4.2" fill="#C27803" opacity="0.7" /><circle cx="145.86206896551724" cy="739.0474624385852" r="4.2" fill="#C27803" opacity="0.7" /><circle cx="149.86779860151486" cy="745.6991712417909" r="4.2" fill="#C27803" opacity="0.7" /><circle cx="145.86206896551724" cy="745.7477682036229" r="4.2" fill="#C27803" opacity="0.7" /><circle cx="145.86206896551724" cy="744.687925691906" r="4.2" fill="#C27803" opacity="0.7" /><circle cx="145.86206896551724" cy="745.2585230818152" r="4.2" fill="#C27803" opacity="0.7" /><circle cx="145.9259179136882" cy="745.9528759580876" r="4.2" fill="#C27803" opacity="0.7" /><circle cx="145.86206896551724" cy="746.2494603417022" r="4.2" fill="#C27803" opacity="0.7" /><circle cx="145.93275888011965" cy="745.8245449922492" r="4.2" fill="#C27803" opacity="0.7" /><circle cx="149.6300431476552" cy="747.351825190868" r="4.2" fill="#C27803" opacity="0.7" /><circle cx="146.0604767569112" cy="749.1890999394777" r="4.2" fill="#C27803" opacity="0.7" /><circle cx="145.86206896551724" cy="750.2068965517242" r="4.2" fill="#C27803" opacity="0.7" /><circle cx="145.92804621555337" cy="748.5484657623856" r="4.2" fill="#C27803" opacity="0.7" /><circle cx="145.86206896551724" cy="746.7926028276245" r="4.2" fill="#C27803" opacity="0.7" /><circle cx="145.86206896551724" cy="742.0579726024682" r="4.2" fill="#C27803" opacity="0.7" /><circle cx="145.86206896551724" cy="745.2086754654429" r="4.2" fill="#C27803" opacity="0.7" /><circle cx="145.86206896551724" cy="746.1333279017678" r="4.2" fill="#C27803" opacity="0.7" /><circle cx="148.69140693404682" cy="749.1281750750227" r="4.2" fill="#C27803" opacity="0.7" /><circle cx="145.86206896551724" cy="749.4761555081327" r="4.2" fill="#C27803" opacity="0.7" /><circle cx="150.98176745066564" cy="749.9782049816192" r="4.2" fill="#C27803" opacity="0.7" /><circle cx="147.5351645732315" cy="738.682857620486" r="4.2" fill="#C27803" opacity="0.7" /><circle cx="148.70824323155435" cy="739.3994330626133" r="4.2" fill="#C27803" opacity="0.7" /><circle cx="145.86206896551724" cy="742.7513725972447" r="4.2" fill="#C27803" opacity="0.7" /><circle cx="147.14195395936167" cy="742.8280200091522" r="4.2" fill="#C27803" opacity="0.7" /><circle cx="150.26628374420625" cy="730.5091672596618" r="4.2" fill="#C27803" opacity="0.7" /><circle cx="392.6932499349277" cy="633.1721972534694" r="4.2" fill="#C27803" opacity="0.7" /><circle cx="145.9259179136882" cy="696.8413605885066" r="4.2" fill="#C27803" opacity="0.7" /><circle cx="150.17244790011648" cy="728.354642507571" r="4.2" fill="#C27803" opacity="0.7" /><circle cx="145.98976687533215" cy="745.9510893032058" r="4.2" fill="#C27803" opacity="0.7" /><circle cx="172.88701735877225" cy="744.2744942086199" r="4.2" fill="#C27803" opacity="0.7" /><circle cx="145.98976687533215" cy="717.2234970607276" r="4.2" fill="#C27803" opacity="0.7" /><circle cx="287.9373123841801" cy="626.3185966646168" r="4.2" fill="#C27803" opacity="0.7" /><circle cx="145.99393108127185" cy="703.1881898385642" r="4.2" fill="#C27803" opacity="0.7" /><circle cx="157.84701090984797" cy="708.6672162414912" r="4.2" fill="#C27803" opacity="0.7" /><circle cx="155.64836654469673" cy="707.7232679534887" r="4.2" fill="#C27803" opacity="0.7" /><circle cx="155.02387416959107" cy="734.9363740748795" r="4.2" fill="#C27803" opacity="0.7" /><circle cx="161.3071406594608" cy="738.4127837666888" r="4.2" fill="#C27803" opacity="0.7" /><circle cx="174.81145454675104" cy="735.4241303203883" r="4.2" fill="#C27803" opacity="0.7" /><circle cx="161.6883730678831" cy="736.2138309086185" r="4.2" fill="#C27803" opacity="0.7" /><circle cx="146.06015790504284" cy="741.6011850028085" r="4.2" fill="#C27803" opacity="0.7" /><circle cx="182.25937485684852" cy="744.6629125512527" r="4.2" fill="#C27803" opacity="0.7" /><circle cx="163.04979796675997" cy="742.6092145783368" r="4.2" fill="#C27803" opacity="0.7" /><circle cx="164.39977827157688" cy="740.3141993541101" r="4.2" fill="#C27803" opacity="0.7" /><circle cx="162.2731677790933" cy="740.6483034514738" r="4.2" fill="#C27803" opacity="0.7" /><circle cx="158.66858732777283" cy="739.2663912256352" r="4.2" fill="#C27803" opacity="0.7" /><circle cx="154.64966183757818" cy="734.6004833281726" r="4.2" fill="#C27803" opacity="0.7" /><circle cx="145.86206896551724" cy="734.6206725045217" r="4.2" fill="#C27803" opacity="0.7" /><circle cx="145.86206896551724" cy="743.7034799375564" r="4.2" fill="#C27803" opacity="0.7" /><circle cx="179.6721738405603" cy="737.3825996949951" r="4.2" fill="#C27803" opacity="0.7" /><circle cx="182.42006532579566" cy="740.0872944333485" r="4.2" fill="#C27803" opacity="0.7" /><circle cx="165.02441595291933" cy="739.2904472311293" r="4.2" fill="#C27803" opacity="0.7" /><circle cx="162.6267612302049" cy="743.9717160925125" r="4.2" fill="#C27803" opacity="0.7" /><circle cx="145.86206896551724" cy="734.9185075482152" r="4.2" fill="#C27803" opacity="0.7" /><circle cx="193.20978399520624" cy="674.7351040494738" r="4.2" fill="#C27803" opacity="0.7" /><circle cx="594.1379310344828" cy="577.7931034482758" r="4.2" fill="#C27803" opacity="0.7" /><circle cx="157.874892111585" cy="696.7427866335834" r="4.2" fill="#C27803" opacity="0.7" /><circle cx="146.06015790504284" cy="720.9844014497484" r="4.2" fill="#C27803" opacity="0.7" /><circle cx="145.86206896551724" cy="725.4265565958569" r="4.2" fill="#C27803" opacity="0.7" /><circle cx="149.95604671009903" cy="730.5876608777369" r="4.2" fill="#C27803" opacity="0.7" /><circle cx="148.02090512085994" cy="741.1082474631271" r="4.2" fill="#C27803" opacity="0.7" /><circle cx="149.26553405221546" cy="737.2036366276138" r="4.2" fill="#C27803" opacity="0.7" /><circle cx="145.86206896551724" cy="742.7458339732033" r="4.2" fill="#C27803" opacity="0.7" /><circle cx="151.9886619595046" cy="740.8719328410546" r="4.2" fill="#C27803" opacity="0.7" /><circle cx="145.9259179136882" cy="746.7175634056646" r="4.2" fill="#C27803" opacity="0.7" /><circle cx="153.29415651404122" cy="747.7490576887229" r="4.2" fill="#C27803" opacity="0.7" /><circle cx="151.28673952177678" cy="745.7474108737541" r="4.2" fill="#C27803" opacity="0.7" /><circle cx="153.4282762185083" cy="732.7834573127363" r="4.2" fill="#C27803" opacity="0.7" /><circle cx="160.71942236251468" cy="740.9438030789539" r="4.2" fill="#C27803" opacity="0.7" /><circle cx="147.4855454506843" cy="743.6105739833935" r="4.2" fill="#C27803" opacity="0.7" /><circle cx="149.3629634940167" cy="739.3525036420145" r="4.2" fill="#C27803" opacity="0.7" /><circle cx="156.11374807852587" cy="742.7047409552289" r="4.2" fill="#C27803" opacity="0.7" /><circle cx="157.9297934695062" cy="743.0412272535632" r="4.2" fill="#C27803" opacity="0.7" /><circle cx="157.40821159254347" cy="741.763174868197" r="4.2" fill="#C27803" opacity="0.7" /><circle cx="151.890229682365" cy="742.7833536869526" r="4.2" fill="#C27803" opacity="0.7" /><circle cx="145.86206896551724" cy="743.4344695605001" r="4.2" fill="#C27803" opacity="0.7" /><circle cx="148.60310606521944" cy="745.0827759887904" r="4.2" fill="#C27803" opacity="0.7" /><circle cx="146.15547583232907" cy="745.4911452915525" r="4.2" fill="#C27803" opacity="0.7" /><circle cx="159.68910684607644" cy="744.0858236613449" r="4.2" fill="#C27803" opacity="0.7" /><circle cx="145.86206896551724" cy="744.1715830015188" r="4.2" fill="#C27803" opacity="0.7" /><circle cx="146.07116982738384" cy="743.6284405155965" r="4.2" fill="#C27803" opacity="0.7" /><circle cx="149.90774849332493" cy="740.7574679423535" r="4.2" fill="#C27803" opacity="0.7" /><circle cx="241.2843076448117" cy="709.8517671266059" r="4.2" fill="#C27803" opacity="0.7" /><circle cx="251.74168707650185" cy="692.3812793589094" r="4.2" fill="#C27803" opacity="0.7" /><circle cx="145.86206896551724" cy="741.2128857682857" r="4.2" fill="#C27803" opacity="0.7" /><circle cx="158.46325129189438" cy="720.251873751275" r="4.2" fill="#C27803" opacity="0.7" /><circle cx="150.16293148007367" cy="734.2366612395" r="4.2" fill="#C27803" opacity="0.7" /><circle cx="153.7068412220126" cy="740.7108363003377" r="4.2" fill="#C27803" opacity="0.7" /><circle cx="252.67739841096687" cy="698.9888578402571" r="4.2" fill="#C27803" opacity="0.7" /><circle cx="436.8754901795309" cy="616.7242705054991" r="4.2" fill="#C27803" opacity="0.7" /><circle cx="412.8969948787579" cy="630.3206991968384" r="4.2" fill="#C27803" opacity="0.7" /><circle cx="206.21488306125664" cy="690.0656070221426" r="4.2" fill="#C27803" opacity="0.7" /><circle cx="255.73429059451766" cy="667.0846562639406" r="4.2" fill="#C27803" opacity="0.7" /><circle cx="220.07629849775208" cy="676.4983518144438" r="4.2" fill="#C27803" opacity="0.7" /><circle cx="153.9277649052906" cy="722.4012172147317" r="4.2" fill="#C27803" opacity="0.7" /><circle cx="161.5523401578949" cy="738.6767915089681" r="4.2" fill="#C27803" opacity="0.7" /><circle cx="181.5529332132706" cy="738.4810934613528" r="4.2" fill="#C27803" opacity="0.7" /><circle cx="152.79677600047154" cy="732.9156696244531" r="4.2" fill="#C27803" opacity="0.7" /><circle cx="149.7117209218319" cy="743.8314042853108" r="4.2" fill="#C27803" opacity="0.7" /><circle cx="146.18238722103524" cy="744.1733696508621" r="4.2" fill="#C27803" opacity="0.7" /><circle cx="162.49958014442743" cy="743.6929386842767" r="4.2" fill="#C27803" opacity="0.7" /><circle cx="156.88463945800882" cy="729.0672192459152" r="4.2" fill="#C27803" opacity="0.7" /><circle cx="181.10262230070862" cy="679.0713106790591" r="4.2" fill="#C27803" opacity="0.7" /><circle cx="383.8966803709506" cy="615.0423524110445" r="4.2" fill="#C27803" opacity="0.7" /><circle cx="406.4236544255171" cy="625.6218020250109" r="4.2" fill="#C27803" opacity="0.7" /><circle cx="163.27072387308192" cy="699.1642475978746" r="4.2" fill="#C27803" opacity="0.7" /><circle cx="160.15279437999163" cy="691.3206030738066" r="4.2" fill="#C27803" opacity="0.7" /><circle cx="194.5058500679297" cy="715.2502580257029" r="4.2" fill="#C27803" opacity="0.7" /><circle cx="162.72483742959463" cy="723.3231301146787" r="4.2" fill="#C27803" opacity="0.7" /><circle cx="169.33300423234795" cy="721.7062092300075" r="4.2" fill="#C27803" opacity="0.7" /><circle cx="174.17325680924648" cy="710.516580676504" r="4.2" fill="#C27803" opacity="0.7" /><circle cx="167.2269208427328" cy="728.5508765499894" r="4.2" fill="#C27803" opacity="0.7" /><circle cx="306.6946366203849" cy="674.9346136286115" r="4.2" fill="#C27803" opacity="0.7" /><circle cx="154.6840005912926" cy="718.633166211722" r="4.2" fill="#C27803" opacity="0.7" /><circle cx="145.86206896551724" cy="693.2090952069775" r="4.2" fill="#C27803" opacity="0.7" /><circle cx="153.2684863518235" cy="691.2821262304368" r="4.2" fill="#C27803" opacity="0.7" /><circle cx="160.76997240155998" cy="706.1801953819843" r="4.2" fill="#C27803" opacity="0.7" /><circle cx="197.39272034669375" cy="707.4297208792964" r="4.2" fill="#C27803" opacity="0.7" /><circle cx="150.9074588651105" cy="726.6838242532466" r="4.2" fill="#C27803" opacity="0.7" /><circle cx="149.89926545189712" cy="730.5645535000755" r="4.2" fill="#C27803" opacity="0.7" /><circle cx="153.08277650667225" cy="731.7364787039842" r="4.2" fill="#C27803" opacity="0.7" /><circle cx="182.37954917753433" cy="723.7304869846591" r="4.2" fill="#C27803" opacity="0.7" /><circle cx="147.62278714419222" cy="727.0069106538133" r="4.2" fill="#C27803" opacity="0.7" /><circle cx="249.406258506816" cy="696.8306406702925" r="4.2" fill="#C27803" opacity="0.7" /><circle cx="153.93952805481302" cy="726.1613473871907" r="4.2" fill="#C27803" opacity="0.7" /><circle cx="156.14613107900516" cy="718.6688992705893" r="4.2" fill="#C27803" opacity="0.7" /><circle cx="167.25362779223292" cy="719.5693723396469" r="4.2" fill="#C27803" opacity="0.7" /><circle cx="154.9273577925713" cy="718.373910110394" r="4.2" fill="#C27803" opacity="0.7" /><circle cx="241.601556927519" cy="698.0616445324887" r="4.2" fill="#C27803" opacity="0.7" /><circle cx="295.8890197510706" cy="665.943580597771" r="4.2" fill="#C27803" opacity="0.7" /><circle cx="147.5020807345671" cy="737.8986446123379" r="4.2" fill="#C27803" opacity="0.7" /><circle cx="166.36217195458624" cy="736.882277319566" r="4.2" fill="#C27803" opacity="0.7" /><circle cx="179.68727396768367" cy="732.1009558955697" r="4.2" fill="#C27803" opacity="0.7" /><circle cx="159.32597054090843" cy="731.4952805552447" r="4.2" fill="#C27803" opacity="0.7" /><circle cx="145.9944995068751" cy="744.7157379257615" r="4.2" fill="#C27803" opacity="0.7" /><circle cx="147.69617801678305" cy="745.4543997943648" r="4.2" fill="#C27803" opacity="0.7" /><circle cx="149.27220446401995" cy="744.6529668496003" r="4.2" fill="#C27803" opacity="0.7" /><circle cx="147.82402803669657" cy="737.309049149334" r="4.2" fill="#C27803" opacity="0.7" /><circle cx="306.8035063044692" cy="687.929535841017" r="4.2" fill="#C27803" opacity="0.7" /><circle cx="302.14278778146127" cy="688.0815927657428" r="4.2" fill="#C27803" opacity="0.7" /><circle cx="212.65400111355643" cy="730.5805142637479" r="4.2" fill="#C27803" opacity="0.7" /><circle cx="282.18519552342184" cy="696.6423274528861" r="4.2" fill="#C27803" opacity="0.7" /><circle cx="245.99684591526199" cy="715.1420464107805" r="4.2" fill="#C27803" opacity="0.7" /><circle cx="246.8666753480672" cy="725.2733213288662" r="4.2" fill="#C27803" opacity="0.7" /><circle cx="244.6605982152372" cy="728.5347966726682" r="4.2" fill="#C27803" opacity="0.7" /><circle cx="239.52756979265868" cy="730.5590744273197" r="4.2" fill="#C27803" opacity="0.7" /><circle cx="215.3162117691528" cy="736.472419140505" r="4.2" fill="#C27803" opacity="0.7" /><circle cx="201.46051185950802" cy="742.6439947557083" r="4.2" fill="#C27803" opacity="0.7" /><circle cx="195.00663693154473" cy="744.6141964813107" r="4.2" fill="#C27803" opacity="0.7" /><circle cx="194.59939381751659" cy="738.6150924279515" r="4.2" fill="#C27803" opacity="0.7" /><circle cx="216.77421454926554" cy="734.5736835326373" r="4.2" fill="#C27803" opacity="0.7" /><circle cx="296.766489705117" cy="703.6698864250521" r="4.2" fill="#C27803" opacity="0.7" /><circle cx="331.23486269952036" cy="685.2835028687194" r="4.2" fill="#C27803" opacity="0.7" /><circle cx="247.082321484573" cy="721.9575317397952" r="4.2" fill="#C27803" opacity="0.7" /><circle cx="255.37762891161006" cy="711.504421075683" r="4.2" fill="#C27803" opacity="0.7" /><circle cx="226.18690106919394" cy="731.2919594556618" r="4.2" fill="#C27803" opacity="0.7" /><circle cx="244.3815236226931" cy="725.2062622887426" r="4.2" fill="#C27803" opacity="0.7" /><circle cx="222.28052728405248" cy="733.6696371593547" r="4.2" fill="#C27803" opacity="0.7" /><circle cx="195.68486182847812" cy="723.1427972846471" r="4.2" fill="#C27803" opacity="0.7" /><circle cx="231.79375270493884" cy="728.5866096088567" r="4.2" fill="#C27803" opacity="0.7" /><circle cx="223.8737032758999" cy="733.2064771678063" r="4.2" fill="#C27803" opacity="0.7" /><circle cx="215.9916661335584" cy="733.2980133482416" r="4.2" fill="#C27803" opacity="0.7" /><circle cx="211.99827606217167" cy="736.0959118193409" r="4.2" fill="#C27803" opacity="0.7" /><circle cx="216.61490922532533" cy="731.6685858904746" r="4.2" fill="#C27803" opacity="0.7" /><circle cx="221.2788171562344" cy="734.0859272871286" r="4.2" fill="#C27803" opacity="0.7" /><circle cx="234.32107630171316" cy="726.1022687289034" r="4.2" fill="#C27803" opacity="0.7" /><circle cx="271.54894668756515" cy="712.958756548877" r="4.2" fill="#C27803" opacity="0.7" /><circle cx="252.75748533446918" cy="723.6781976049533" r="4.2" fill="#C27803" opacity="0.7" /><circle cx="223.67029284069673" cy="735.4884498241341" r="4.2" fill="#C27803" opacity="0.7" /><circle cx="267.2203057971594" cy="707.8274893719544" r="4.2" fill="#C27803" opacity="0.7" /><circle cx="235.9948925529132" cy="731.090722784005" r="4.2" fill="#C27803" opacity="0.7" /><circle cx="205.31509216954473" cy="742.099065614904" r="4.2" fill="#C27803" opacity="0.7" /><circle cx="204.064676546986" cy="743.3827757379602" r="4.2" fill="#C27803" opacity="0.7" /><circle cx="212.96168112166674" cy="739.0474624385852" r="4.2" fill="#C27803" opacity="0.7" /><circle cx="201.34566816918945" cy="743.2300169144869" r="4.2" fill="#C27803" opacity="0.7" /><circle cx="198.00625796537054" cy="742.3601083711138" r="4.2" fill="#C27803" opacity="0.7" /><circle cx="198.83285374708979" cy="742.0383194209219" r="4.2" fill="#C27803" opacity="0.7" /><circle cx="196.3502374100848" cy="744.6043500428783" r="4.2" fill="#C27803" opacity="0.7" /><line x1="110.0" y1="754.2233290172867" x2="630.0" y2="557.9052565510377" stroke="#011E42" stroke-width="3" /><text x="370.0" y="806" font-family="Inter, Arial, sans-serif" font-size="12" font-weight="600" fill="#64748B" text-anchor="middle">Thurmond outflow</text><text x="118" y="550" font-family="Inter, Arial, sans-serif" font-size="12" font-weight="600" fill="#64748B" text-anchor="start">Augusta discharge</text><text x="622" y="582" font-family="Inter, Arial, sans-serif" font-size="13" font-weight="700" fill="#011E42" text-anchor="end">r = 0.84</text><rect x="730" y="500" width="600" height="320" rx="20" fill="#FFFFFF" stroke="#E2E8F0" /><text x="758" y="536" font-family="Inter, Arial, sans-serif" font-size="18" font-weight="700" fill="#011E42" text-anchor="start">Thurmond storage context</text><line x1="770" y1="566.0" x2="1290" y2="566.0" stroke="#E2E8F0" stroke-width="1" stroke-dasharray="4 6" /><line x1="770" y1="665.0" x2="1290" y2="665.0" stroke="#E2E8F0" stroke-width="1" stroke-dasharray="4 6" /><line x1="770" y1="764.0" x2="1290" y2="764.0" stroke="#E2E8F0" stroke-width="1" stroke-dasharray="4 6" /><text x="764" y="572" font-family="Inter, Arial, sans-serif" font-size="11" font-weight="500" fill="#64748B" text-anchor="end">991,760,436,772,333</text><text x="764" y="669.0" font-family="Inter, Arial, sans-serif" font-size="11" font-weight="500" fill="#64748B" text-anchor="end">-6,198,502,710,574,712</text><text x="764" y="768" font-family="Inter, Arial, sans-serif" font-size="11" font-weight="500" fill="#64748B" text-anchor="end">-13,388,765,857,921,756</text><polygon points="770.0,764 770.0,579.6551724176666 772.1576763485477,579.6551724163749 774.3153526970955,579.655172416075 776.4730290456431,579.6551724173064 778.6307053941908,579.655172417448 780.7883817427386,579.6551724183097 782.9460580912863,579.655172419064 785.103734439834,579.6551724206093 787.2614107883818,579.6551724220507 789.4190871369294,579.6551724235171 791.5767634854772,579.6551724233209 793.7344398340249,579.6551724230545 795.8921161825726,579.6551724207724 798.0497925311204,579.6551724198024 800.207468879668,579.6551724161778 802.3651452282157,579.6551724168955 804.5228215767635,579.6551724177324 806.6804979253112,579.6551724188998 808.838174273859,579.6551724200256 810.9958506224066,579.655172421086 813.1535269709543,579.6551724231404 815.311203319502,579.6551724248146 817.4688796680498,579.6551724259125 819.6265560165975,579.6551724270274 821.7842323651453,579.6551724267091 823.9419087136929,579.6551724262549 826.0995850622406,579.6551724251619 828.2572614107884,579.6551724233193 830.4149377593361,579.6551724234911 832.5726141078839,579.6551724244674 834.7302904564315,579.655172425813 836.8879668049792,579.6551724272413 839.045643153527,579.6551724278248 841.2033195020747,579.6551724285774 843.3609958506224,579.6551724289262 845.5186721991702,579.6551724275746 847.6763485477178,579.6551724272701 849.8340248962655,579.6551724278129 851.9917012448133,579.6551724238841 854.149377593361,579.6551724196821 856.3070539419087,579.6551724191315 858.4647302904564,579.655172418923 860.6224066390041,579.6551724195981 862.7800829875519,579.6551724208034 864.9377593360996,579.6551724214377 867.0954356846473,579.6551724189704 869.2531120331951,579.6551724168842 871.4107883817427,579.6551724182523 873.5684647302904,579.6551724179224 875.7261410788382,579.6551724165536 877.8838174273859,579.6551724179836 880.0414937759336,579.6551724178719 882.1991701244813,579.6551724179255 884.356846473029,579.6551724181109 886.5145228215767,579.6551724181218 888.6721991701245,579.6551724190049 890.8298755186722,579.6551724199109 892.98755186722,579.6551724202983 895.1452282157676,579.6551724214612 897.3029045643153,579.6551724216191 899.4605809128631,579.6551724215163 901.6182572614108,579.6551724201029 903.7759336099585,579.6551724188889 905.9336099585062,579.6551724185418 908.0912863070539,579.6551724184077 910.2489626556016,579.6551724182647 912.4066390041494,579.6551724189235 914.5643153526971,579.6551724205327 916.7219917012449,579.6551724221129 918.8796680497926,579.6551724233235 921.0373443983402,579.6551724247347 923.195020746888,579.6551724251506 925.3526970954357,579.6551724245373 927.5103734439834,579.6551724228598 929.6680497925311,579.6551724227922 931.8257261410788,579.6551724230662 933.9834024896265,579.6551724234469 936.1410788381743,579.6551724237795 938.298755186722,579.6551724251213 940.4564315352698,579.6551724252678 942.6141078838175,579.6551724262009 944.7717842323651,579.6551724270223 946.9294605809129,579.6551724283229 949.0871369294606,579.6551724283308 951.2448132780083,579.6551724272339 953.402489626556,579.6551724254023 955.5601659751037,579.6551724227277 957.7178423236514,579.6551724209472 959.8755186721992,579.6551724174301 962.0331950207469,579.6551724155249 964.1908713692947,579.655172415336 966.3485477178424,579.6551724157447 968.50622406639,579.655172415818 970.6639004149378,579.6551724166819 972.8215767634855,579.6551724174006 974.9792531120332,579.6551724161292 977.1369294605809,579.6551724156485 979.2946058091286,579.655172417332 981.4522821576763,579.6551724160475 983.6099585062241,579.6551724161656 985.7676348547718,579.6551724176583 987.9253112033196,579.6551724162558 990.0829875518673,579.6551724177697 992.2406639004149,579.6551724182849 994.3983402489627,579.6551724194534 996.5560165975104,579.6551724203892 998.7136929460581,579.6551724212261 1000.8713692946058,579.6551724212684 1003.0290456431535,579.6551724190974 1005.1867219917012,579.655172418335 1007.344398340249,579.6551724169476 1009.5020746887967,579.6551724162259 1011.6597510373444,579.6551724157363 1013.8174273858921,579.6551724159749 1015.9751037344398,579.6551724168173 1018.1327800829876,579.6551724186663 1020.2904564315353,579.6551724201886 1022.448132780083,579.6551724194878 1024.6058091286307,579.6551724169003 1026.7634854771784,579.6551724156357 1028.9211618257261,579.6551724171268 1031.0788381742739,579.6551724165042 1033.2365145228216,579.6551724158381 1035.3941908713693,579.6551724164633 1037.551867219917,579.6551724170054 1039.7095435684646,579.6551724189014 1041.8672199170123,579.6551724201155 1044.02489626556,579.6551724208383 1046.1825726141078,579.6551724228534 1048.3402489626556,579.6551724243244 1050.4979253112033,579.6551724250078 1052.655601659751,579.6551724245023 1054.8132780082988,579.6551724243715 1056.9709543568465,579.655172424681 1059.1286307053942,579.6551724234943 1061.286307053942,579.655172422556 1063.4439834024897,579.6551724222116 1065.6016597510375,579.6551724212877 1067.7593360995852,579.6551724225147 1069.9170124481327,579.6551724225174 1072.0746887966804,579.6551724237147 1074.2323651452282,579.6551724236996 1076.390041493776,579.6551724239257 1078.5477178423237,579.655172423796 1080.7053941908714,579.6551724187822 1082.8630705394191,579.6551724183856 1085.0207468879669,579.6551724160488 1087.1784232365144,579.6551724176984 1089.3360995850621,579.655172418235 1091.4937759336099,579.6551724169551 1093.6514522821576,579.6551724185861 1095.8091286307053,579.6551724191893 1097.966804979253,579.6551724182749 1100.1244813278008,579.6551724185056 1102.2821576763486,579.6551724180722 1104.4398340248963,579.6551724188954 1106.597510373444,579.6551724170713 1108.7551867219918,579.6551724174312 1110.9128630705395,579.655172418182 1113.0705394190873,579.6551724164294 1115.228215767635,579.655172416152 1117.3858921161825,579.6551724174197 1119.5435684647302,579.6551724190874 1121.701244813278,579.655172420742 1123.8589211618257,579.6551724211017 1126.0165975103735,579.6551724196476 1128.1742738589212,579.6551724173069 1130.331950207469,579.6551724145886 1132.4896265560167,579.655172413793 1134.6473029045642,579.6551724149592 1136.804979253112,579.6551724155592 1138.9626556016597,579.6551724155339 1141.1203319502074,579.6551724162136 1143.2780082987551,579.6551724175077 1145.4356846473029,579.6551724163073 1147.5933609958506,579.6551724164935 1149.7510373443984,579.6551724165299 1151.908713692946,579.6551724186638 1154.0663900414938,579.6551724181852 1156.2240663900416,579.6551724169678 1158.3817427385893,579.6551724162446 1160.539419087137,579.6551724151707 1162.6970954356848,579.6551724154613 1164.8547717842323,579.6551724152479 1167.01244813278,579.6551724157607 1169.1701244813278,579.6551724164282 1171.3278008298755,579.6551724169387 1173.4854771784233,579.6551724150174 1175.643153526971,579.6551724165988 1177.8008298755187,579.6551724187872 1179.9585062240665,579.6551724169443 1182.116182572614,579.6551724167978 1184.2738589211617,579.6551724147748 1186.4315352697095,579.6551724145595 1188.5892116182572,579.6551724158394 1190.746887966805,579.6551724154538 1192.9045643153527,579.6551724165482 1195.0622406639004,579.655172418615 1197.2199170124481,579.6551724201523 1199.377593360996,579.6551724207205 1201.5352697095436,579.655172421439 1203.6929460580914,579.6551724199738 1205.850622406639,579.6551724179244 1208.0082987551868,579.6551724170623 1210.1659751037346,579.6551724163905 1212.323651452282,579.6551724150335 1214.4813278008298,579.6551724148078 1216.6390041493776,579.6551724153775 1218.7966804979253,579.65517241625 1220.954356846473,579.6551724180165 1223.1120331950208,579.6551724199608 1225.2697095435685,579.6551724209376 1227.4273858921163,579.6551724223109 1229.5850622406638,579.6551724229978 1231.7427385892115,579.6551724193052 1233.9004149377593,579.6551724163974 1236.058091286307,579.6551724154451 1238.2157676348547,579.6551724155383 1240.3734439834025,579.6551724155042 1242.5311203319502,579.655172416208 1244.688796680498,579.6551724179816 1246.8464730290457,579.6551724198362 1249.0041493775934,579.6551724210939 1251.1618257261412,579.6551724169655 1253.319502074689,579.6551724185429 1255.4771784232366,579.6551724193653 1257.6348547717841,579.6551724191409 1259.792531120332,579.655172417625 1261.9502074688796,579.6551724162338 1264.1078838174274,579.6551724156186 1266.265560165975,579.6551724155782 1268.4232365145228,579.6551724158611 1270.5809128630706,579.6551724173279 1272.7385892116183,579.6551724158892 1274.896265560166,579.6551724181679 1277.0539419087136,579.6551724196365 1279.2116182572613,579.6551724203969 1281.369294605809,579.655172421531 1283.5269709543568,579.6551724225527 1285.6846473029045,579.6551724220128 1287.8423236514523,750.3448275862069 1290.0,579.6551724218102 1290.0,764" fill="#87714D" opacity="0.12" /><polyline points="770.0,579.6551724176666 772.1576763485477,579.6551724163749 774.3153526970955,579.655172416075 776.4730290456431,579.6551724173064 778.6307053941908,579.655172417448 780.7883817427386,579.6551724183097 782.9460580912863,579.655172419064 785.103734439834,579.6551724206093 787.2614107883818,579.6551724220507 789.4190871369294,579.6551724235171 791.5767634854772,579.6551724233209 793.7344398340249,579.6551724230545 795.8921161825726,579.6551724207724 798.0497925311204,579.6551724198024 800.207468879668,579.6551724161778 802.3651452282157,579.6551724168955 804.5228215767635,579.6551724177324 806.6804979253112,579.6551724188998 808.838174273859,579.6551724200256 810.9958506224066,579.655172421086 813.1535269709543,579.6551724231404 815.311203319502,579.6551724248146 817.4688796680498,579.6551724259125 819.6265560165975,579.6551724270274 821.7842323651453,579.6551724267091 823.9419087136929,579.6551724262549 826.0995850622406,579.6551724251619 828.2572614107884,579.6551724233193 830.4149377593361,579.6551724234911 832.5726141078839,579.6551724244674 834.7302904564315,579.655172425813 836.8879668049792,579.6551724272413 839.045643153527,579.6551724278248 841.2033195020747,579.6551724285774 843.3609958506224,579.6551724289262 845.5186721991702,579.6551724275746 847.6763485477178,579.6551724272701 849.8340248962655,579.6551724278129 851.9917012448133,579.6551724238841 854.149377593361,579.6551724196821 856.3070539419087,579.6551724191315 858.4647302904564,579.655172418923 860.6224066390041,579.6551724195981 862.7800829875519,579.6551724208034 864.9377593360996,579.6551724214377 867.0954356846473,579.6551724189704 869.2531120331951,579.6551724168842 871.4107883817427,579.6551724182523 873.5684647302904,579.6551724179224 875.7261410788382,579.6551724165536 877.8838174273859,579.6551724179836 880.0414937759336,579.6551724178719 882.1991701244813,579.6551724179255 884.356846473029,579.6551724181109 886.5145228215767,579.6551724181218 888.6721991701245,579.6551724190049 890.8298755186722,579.6551724199109 892.98755186722,579.6551724202983 895.1452282157676,579.6551724214612 897.3029045643153,579.6551724216191 899.4605809128631,579.6551724215163 901.6182572614108,579.6551724201029 903.7759336099585,579.6551724188889 905.9336099585062,579.6551724185418 908.0912863070539,579.6551724184077 910.2489626556016,579.6551724182647 912.4066390041494,579.6551724189235 914.5643153526971,579.6551724205327 916.7219917012449,579.6551724221129 918.8796680497926,579.6551724233235 921.0373443983402,579.6551724247347 923.195020746888,579.6551724251506 925.3526970954357,579.6551724245373 927.5103734439834,579.6551724228598 929.6680497925311,579.6551724227922 931.8257261410788,579.6551724230662 933.9834024896265,579.6551724234469 936.1410788381743,579.6551724237795 938.298755186722,579.6551724251213 940.4564315352698,579.6551724252678 942.6141078838175,579.6551724262009 944.7717842323651,579.6551724270223 946.9294605809129,579.6551724283229 949.0871369294606,579.6551724283308 951.2448132780083,579.6551724272339 953.402489626556,579.6551724254023 955.5601659751037,579.6551724227277 957.7178423236514,579.6551724209472 959.8755186721992,579.6551724174301 962.0331950207469,579.6551724155249 964.1908713692947,579.655172415336 966.3485477178424,579.6551724157447 968.50622406639,579.655172415818 970.6639004149378,579.6551724166819 972.8215767634855,579.6551724174006 974.9792531120332,579.6551724161292 977.1369294605809,579.6551724156485 979.2946058091286,579.655172417332 981.4522821576763,579.6551724160475 983.6099585062241,579.6551724161656 985.7676348547718,579.6551724176583 987.9253112033196,579.6551724162558 990.0829875518673,579.6551724177697 992.2406639004149,579.6551724182849 994.3983402489627,579.6551724194534 996.5560165975104,579.6551724203892 998.7136929460581,579.6551724212261 1000.8713692946058,579.6551724212684 1003.0290456431535,579.6551724190974 1005.1867219917012,579.655172418335 1007.344398340249,579.6551724169476 1009.5020746887967,579.6551724162259 1011.6597510373444,579.6551724157363 1013.8174273858921,579.6551724159749 1015.9751037344398,579.6551724168173 1018.1327800829876,579.6551724186663 1020.2904564315353,579.6551724201886 1022.448132780083,579.6551724194878 1024.6058091286307,579.6551724169003 1026.7634854771784,579.6551724156357 1028.9211618257261,579.6551724171268 1031.0788381742739,579.6551724165042 1033.2365145228216,579.6551724158381 1035.3941908713693,579.6551724164633 1037.551867219917,579.6551724170054 1039.7095435684646,579.6551724189014 1041.8672199170123,579.6551724201155 1044.02489626556,579.6551724208383 1046.1825726141078,579.6551724228534 1048.3402489626556,579.6551724243244 1050.4979253112033,579.6551724250078 1052.655601659751,579.6551724245023 1054.8132780082988,579.6551724243715 1056.9709543568465,579.655172424681 1059.1286307053942,579.6551724234943 1061.286307053942,579.655172422556 1063.4439834024897,579.6551724222116 1065.6016597510375,579.6551724212877 1067.7593360995852,579.6551724225147 1069.9170124481327,579.6551724225174 1072.0746887966804,579.6551724237147 1074.2323651452282,579.6551724236996 1076.390041493776,579.6551724239257 1078.5477178423237,579.655172423796 1080.7053941908714,579.6551724187822 1082.8630705394191,579.6551724183856 1085.0207468879669,579.6551724160488 1087.1784232365144,579.6551724176984 1089.3360995850621,579.655172418235 1091.4937759336099,579.6551724169551 1093.6514522821576,579.6551724185861 1095.8091286307053,579.6551724191893 1097.966804979253,579.6551724182749 1100.1244813278008,579.6551724185056 1102.2821576763486,579.6551724180722 1104.4398340248963,579.6551724188954 1106.597510373444,579.6551724170713 1108.7551867219918,579.6551724174312 1110.9128630705395,579.655172418182 1113.0705394190873,579.6551724164294 1115.228215767635,579.655172416152 1117.3858921161825,579.6551724174197 1119.5435684647302,579.6551724190874 1121.701244813278,579.655172420742 1123.8589211618257,579.6551724211017 1126.0165975103735,579.6551724196476 1128.1742738589212,579.6551724173069 1130.331950207469,579.6551724145886 1132.4896265560167,579.655172413793 1134.6473029045642,579.6551724149592 1136.804979253112,579.6551724155592 1138.9626556016597,579.6551724155339 1141.1203319502074,579.6551724162136 1143.2780082987551,579.6551724175077 1145.4356846473029,579.6551724163073 1147.5933609958506,579.6551724164935 1149.7510373443984,579.6551724165299 1151.908713692946,579.6551724186638 1154.0663900414938,579.6551724181852 1156.2240663900416,579.6551724169678 1158.3817427385893,579.6551724162446 1160.539419087137,579.6551724151707 1162.6970954356848,579.6551724154613 1164.8547717842323,579.6551724152479 1167.01244813278,579.6551724157607 1169.1701244813278,579.6551724164282 1171.3278008298755,579.6551724169387 1173.4854771784233,579.6551724150174 1175.643153526971,579.6551724165988 1177.8008298755187,579.6551724187872 1179.9585062240665,579.6551724169443 1182.116182572614,579.6551724167978 1184.2738589211617,579.6551724147748 1186.4315352697095,579.6551724145595 1188.5892116182572,579.6551724158394 1190.746887966805,579.6551724154538 1192.9045643153527,579.6551724165482 1195.0622406639004,579.655172418615 1197.2199170124481,579.6551724201523 1199.377593360996,579.6551724207205 1201.5352697095436,579.655172421439 1203.6929460580914,579.6551724199738 1205.850622406639,579.6551724179244 1208.0082987551868,579.6551724170623 1210.1659751037346,579.6551724163905 1212.323651452282,579.6551724150335 1214.4813278008298,579.6551724148078 1216.6390041493776,579.6551724153775 1218.7966804979253,579.65517241625 1220.954356846473,579.6551724180165 1223.1120331950208,579.6551724199608 1225.2697095435685,579.6551724209376 1227.4273858921163,579.6551724223109 1229.5850622406638,579.6551724229978 1231.7427385892115,579.6551724193052 1233.9004149377593,579.6551724163974 1236.058091286307,579.6551724154451 1238.2157676348547,579.6551724155383 1240.3734439834025,579.6551724155042 1242.5311203319502,579.655172416208 1244.688796680498,579.6551724179816 1246.8464730290457,579.6551724198362 1249.0041493775934,579.6551724210939 1251.1618257261412,579.6551724169655 1253.319502074689,579.6551724185429 1255.4771784232366,579.6551724193653 1257.6348547717841,579.6551724191409 1259.792531120332,579.655172417625 1261.9502074688796,579.6551724162338 1264.1078838174274,579.6551724156186 1266.265560165975,579.6551724155782 1268.4232365145228,579.6551724158611 1270.5809128630706,579.6551724173279 1272.7385892116183,579.6551724158892 1274.896265560166,579.6551724181679 1277.0539419087136,579.6551724196365 1279.2116182572613,579.6551724203969 1281.369294605809,579.655172421531 1283.5269709543568,579.6551724225527 1285.6846473029045,579.6551724220128 1287.8423236514523,750.3448275862069 1290.0,579.6551724218102" stroke="#87714D" stroke-width="3" fill="none" opacity="1.0" /><line x1="770.0" y1="764" x2="1290.0" y2="764" stroke="#E2E8F0" stroke-width="2" /><line x1="770.0" y1="758" x2="770.0" y2="770" stroke="#E2E8F0" stroke-width="1" /><text x="770.0" y="786" font-family="Inter, Arial, sans-serif" font-size="11" font-weight="500" fill="#64748B" text-anchor="middle">2006</text><line x1="795.8921161825726" y1="758" x2="795.8921161825726" y2="770" stroke="#E2E8F0" stroke-width="1" /><text x="795.8921161825726" y="786" font-family="Inter, Arial, sans-serif" font-size="11" font-weight="500" fill="#64748B" text-anchor="middle">2007</text><line x1="821.7842323651453" y1="758" x2="821.7842323651453" y2="770" stroke="#E2E8F0" stroke-width="1" /><text x="821.7842323651453" y="786" font-family="Inter, Arial, sans-serif" font-size="11" font-weight="500" fill="#64748B" text-anchor="middle">2008</text><line x1="847.6763485477178" y1="758" x2="847.6763485477178" y2="770" stroke="#E2E8F0" stroke-width="1" /><text x="847.6763485477178" y="786" font-family="Inter, Arial, sans-serif" font-size="11" font-weight="500" fill="#64748B" text-anchor="middle">2009</text><line x1="873.5684647302904" y1="758" x2="873.5684647302904" y2="770" stroke="#E2E8F0" stroke-width="1" /><text x="873.5684647302904" y="786" font-family="Inter, Arial, sans-serif" font-size="11" font-weight="500" fill="#64748B" text-anchor="middle">2010</text><line x1="899.4605809128631" y1="758" x2="899.4605809128631" y2="770" stroke="#E2E8F0" stroke-width="1" /><text x="899.4605809128631" y="786" font-family="Inter, Arial, sans-serif" font-size="11" font-weight="500" fill="#64748B" text-anchor="middle">2011</text><line x1="925.3526970954357" y1="758" x2="925.3526970954357" y2="770" stroke="#E2E8F0" stroke-width="1" /><text x="925.3526970954357" y="786" font-family="Inter, Arial, sans-serif" font-size="11" font-weight="500" fill="#64748B" text-anchor="middle">2012</text><line x1="951.2448132780083" y1="758" x2="951.2448132780083" y2="770" stroke="#E2E8F0" stroke-width="1" /><text x="951.2448132780083" y="786" font-family="Inter, Arial, sans-serif" font-size="11" font-weight="500" fill="#64748B" text-anchor="middle">2013</text><line x1="977.1369294605809" y1="758" x2="977.1369294605809" y2="770" stroke="#E2E8F0" stroke-width="1" /><text x="977.1369294605809" y="786" font-family="Inter, Arial, sans-serif" font-size="11" font-weight="500" fill="#64748B" text-anchor="middle">2014</text><line x1="1003.0290456431535" y1="758" x2="1003.0290456431535" y2="770" stroke="#E2E8F0" stroke-width="1" /><text x="1003.0290456431535" y="786" font-family="Inter, Arial, sans-serif" font-size="11" font-weight="500" fill="#64748B" text-anchor="middle">2015</text><line x1="1026.7634854771784" y1="758" x2="1026.7634854771784" y2="770" stroke="#E2E8F0" stroke-width="1" /><text x="1026.7634854771784" y="786" font-family="Inter, Arial, sans-serif" font-size="11" font-weight="500" fill="#64748B" text-anchor="middle">2016</text><line x1="1052.655601659751" y1="758" x2="1052.655601659751" y2="770" stroke="#E2E8F0" stroke-width="1" /><text x="1052.655601659751" y="786" font-family="Inter, Arial, sans-serif" font-size="11" font-weight="500" fill="#64748B" text-anchor="middle">2017</text><line x1="1078.5477178423237" y1="758" x2="1078.5477178423237" y2="770" stroke="#E2E8F0" stroke-width="1" /><text x="1078.5477178423237" y="786" font-family="Inter, Arial, sans-serif" font-size="11" font-weight="500" fill="#64748B" text-anchor="middle">2018</text><line x1="1102.2821576763486" y1="758" x2="1102.2821576763486" y2="770" stroke="#E2E8F0" stroke-width="1" /><text x="1102.2821576763486" y="786" font-family="Inter, Arial, sans-serif" font-size="11" font-weight="500" fill="#64748B" text-anchor="middle">2019</text><line x1="1128.1742738589212" y1="758" x2="1128.1742738589212" y2="770" stroke="#E2E8F0" stroke-width="1" /><text x="1128.1742738589212" y="786" font-family="Inter, Arial, sans-serif" font-size="11" font-weight="500" fill="#64748B" text-anchor="middle">2020</text><line x1="1154.0663900414938" y1="758" x2="1154.0663900414938" y2="770" stroke="#E2E8F0" stroke-width="1" /><text x="1154.0663900414938" y="786" font-family="Inter, Arial, sans-serif" font-size="11" font-weight="500" fill="#64748B" text-anchor="middle">2021</text><line x1="1179.9585062240665" y1="758" x2="1179.9585062240665" y2="770" stroke="#E2E8F0" stroke-width="1" /><text x="1179.9585062240665" y="786" font-family="Inter, Arial, sans-serif" font-size="11" font-weight="500" fill="#64748B" text-anchor="middle">2022</text><line x1="1205.850622406639" y1="758" x2="1205.850622406639" y2="770" stroke="#E2E8F0" stroke-width="1" /><text x="1205.850622406639" y="786" font-family="Inter, Arial, sans-serif" font-size="11" font-weight="500" fill="#64748B" text-anchor="middle">2023</text><line x1="1231.7427385892115" y1="758" x2="1231.7427385892115" y2="770" stroke="#E2E8F0" stroke-width="1" /><text x="1231.7427385892115" y="786" font-family="Inter, Arial, sans-serif" font-size="11" font-weight="500" fill="#64748B" text-anchor="middle">2024</text><line x1="1257.6348547717841" y1="758" x2="1257.6348547717841" y2="770" stroke="#E2E8F0" stroke-width="1" /><text x="1257.6348547717841" y="786" font-family="Inter, Arial, sans-serif" font-size="11" font-weight="500" fill="#64748B" text-anchor="middle">2025</text><line x1="1283.5269709543568" y1="758" x2="1283.5269709543568" y2="770" stroke="#E2E8F0" stroke-width="1" /><text x="1283.5269709543568" y="786" font-family="Inter, Arial, sans-serif" font-size="11" font-weight="500" fill="#64748B" text-anchor="middle">2026</text><line x1="1290.0" y1="758" x2="1290.0" y2="770" stroke="#E2E8F0" stroke-width="1" /><text x="1290.0" y="786" font-family="Inter, Arial, sans-serif" font-size="11" font-weight="500" fill="#64748B" text-anchor="middle">2026</text><text x="770" y="796" font-family="Inter, Arial, sans-serif" font-size="13" font-weight="500" fill="#64748B" text-anchor="start">Storage helps frame the release regime that imprints on the downstream river signal.</text></svg>