<svg xmlns="http://www.w3.org/2000/svg" width="1400" height="800" viewBox="0 0 1400 800" role="img" aria-label="Savannah River analytical figure"><rect x="0" y="0" width="1400" height="800" rx="12" fill="#F8FAFC" stroke="none" /><text x="70" y="70" font-family="Inter, Arial, sans-serif" font-size="30" font-weight="700" fill="#011E42" text-anchor="start">Sediment texture and depositional score</text><text x="70" y="98" font-family="Inter, Arial, sans-serif" font-size="14" font-weight="400" fill="#64748B" text-anchor="start">Once the river context is clear, the report closes on the site-level sediment response at Thurmond.</text><text x="80" y="152" font-family="Inter, Arial, sans-serif" font-size="17" font-weight="700" fill="#011E42" text-anchor="start">Texture composition by site</text><text x="80" y="170" font-family="Inter, Arial, sans-serif" font-size="11" font-weight="700" fill="#0F7B5F" text-anchor="start">Clay</text><text x="130" y="170" font-family="Inter, Arial, sans-serif" font-size="11" font-weight="700" fill="#0891B2" text-anchor="start">Silt</text><text x="174" y="170" font-family="Inter, Arial, sans-serif" font-size="11" font-weight="700" fill="#C27803" text-anchor="start">Sand</text><rect x="80" y="394.28571428571433" width="34" height="145.7142857142857" rx="3" fill="#0F7B5F" stroke="none" /><rect x="80" y="200.67932067932077" width="34" height="193.60639360639357" rx="3" fill="#0891B2" stroke="none" /><rect x="80" y="200.00000000000009" width="34" height="0.6793206793206793" rx="3" fill="#C27803" stroke="none" /><text x="97.0" y="566" font-family="Inter, Arial, sans-serif" font-size="10" font-weight="600" fill="#64748B" text-anchor="middle">1</text><rect x="120" y="422.8171828171828" width="34" height="117.1828171828172" rx="3" fill="#0F7B5F" stroke="none" /><rect x="120" y="220.37962037962035" width="34" height="202.43756243756246" rx="3" fill="#0891B2" stroke="none" /><rect x="120" y="199.99999999999997" width="34" height="20.37962037962038" rx="3" fill="#C27803" stroke="none" /><text x="137.0" y="566" font-family="Inter, Arial, sans-serif" font-size="10" font-weight="600" fill="#64748B" text-anchor="middle">2</text><rect x="160" y="369.6606786427146" width="34" height="170.33932135728543" rx="3" fill="#0F7B5F" stroke="none" /><rect x="160" y="201.01796407185628" width="34" height="168.6427145708583" rx="3" fill="#0891B2" stroke="none" /><rect x="160" y="200.0" width="34" height="1.0179640718562872" rx="3" fill="#C27803" stroke="none" /><text x="177.0" y="566" font-family="Inter, Arial, sans-serif" font-size="10" font-weight="600" fill="#64748B" text-anchor="middle">3</text><rect x="200" y="394.48" width="34" height="145.52" rx="3" fill="#0F7B5F" stroke="none" /><rect x="200" y="205.44" width="34" height="189.04000000000002" rx="3" fill="#0891B2" stroke="none" /><rect x="200" y="200.0" width="34" height="5.44" rx="3" fill="#C27803" stroke="none" /><text x="217.0" y="566" font-family="Inter, Arial, sans-serif" font-size="10" font-weight="600" fill="#64748B" text-anchor="middle">4</text><rect x="240" y="335.1848151848152" width="34" height="204.81518481518484" rx="3" fill="#0F7B5F" stroke="none" /><rect x="240" y="200.00000000000003" width="34" height="135.18481518481516" rx="3" fill="#0891B2" stroke="none" /><rect x="240" y="200.00000000000003" width="34" height="0.0" rx="3" fill="#C27803" stroke="none" /><text x="257.0" y="566" font-family="Inter, Arial, sans-serif" font-size="10" font-weight="600" fill="#64748B" text-anchor="middle">5</text><rect x="280" y="369.8298298298298" width="34" height="170.1701701701702" rx="3" fill="#0F7B5F" stroke="none" /><rect x="280" y="201.02102102102097" width="34" height="168.80880880880883" rx="3" fill="#0891B2" stroke="none" /><rect x="280" y="199.99999999999994" width="34" height="1.021021021021021" rx="3" fill="#C27803" stroke="none" /><text x="297.0" y="566" font-family="Inter, Arial, sans-serif" font-size="10" font-weight="600" fill="#64748B" text-anchor="middle">6</text><rect x="320" y="354.51451451451453" width="34" height="185.48548548548547" rx="3" fill="#0F7B5F" stroke="none" /><rect x="320" y="200.00000000000003" width="34" height="154.5145145145145" rx="3" fill="#0891B2" stroke="none" /><rect x="320" y="200.00000000000003" width="34" height="0.0" rx="3" fill="#C27803" stroke="none" /><text x="337.0" y="566" font-family="Inter, Arial, sans-serif" font-size="10" font-weight="600" fill="#64748B" text-anchor="middle">7</text><rect x="360" y="417.94" width="34" height="122.06" rx="3" fill="#0F7B5F" stroke="none" /><rect x="360" y="211.56" width="34" height="206.38" rx="3" fill="#0891B2" stroke="none" /><rect x="360" y="200.0" width="34" height="11.56" rx="3" fill="#C27803" stroke="none" /><text x="377.0" y="566" font-family="Inter, Arial, sans-serif" font-size="10" font-weight="600" fill="#64748B" text-anchor="middle">8</text><rect x="400" y="357.9420579420579" width="34" height="182.05794205794209" rx="3" fill="#0F7B5F" stroke="none" /><rect x="400" y="199.99999999999994" width="34" height="157.94205794205794" rx="3" fill="#0891B2" stroke="none" /><rect x="400" y="199.99999999999994" width="34" height="0.0" rx="3" fill="#C27803" stroke="none" /><text x="417.0" y="566" font-family="Inter, Arial, sans-serif" font-size="10" font-weight="600" fill="#64748B" text-anchor="middle">9</text><rect x="440" y="381.038961038961" width="34" height="158.96103896103895" rx="3" fill="#0F7B5F" stroke="none" /><rect x="440" y="202.037962037962" width="34" height="179.00099900099903" rx="3" fill="#0891B2" stroke="none" /><rect x="440" y="199.99999999999994" width="34" height="2.037962037962038" rx="3" fill="#C27803" stroke="none" /><text x="457.0" y="566" font-family="Inter, Arial, sans-serif" font-size="10" font-weight="600" fill="#64748B" text-anchor="middle">10</text><rect x="480" y="394.14" width="34" height="145.85999999999999" rx="3" fill="#0F7B5F" stroke="none" /><rect x="480" y="205.43999999999997" width="34" height="188.70000000000002" rx="3" fill="#0891B2" stroke="none" /><rect x="480" y="199.99999999999997" width="34" height="5.44" rx="3" fill="#C27803" stroke="none" /><text x="497.0" y="566" font-family="Inter, Arial, sans-serif" font-size="10" font-weight="600" fill="#64748B" text-anchor="middle">12</text><rect x="520" y="429.95004995004996" width="34" height="110.04995004995006" rx="3" fill="#0F7B5F" stroke="none" /><rect x="520" y="210.18981018981017" width="34" height="219.76023976023978" rx="3" fill="#0891B2" stroke="none" /><rect x="520" y="199.99999999999997" width="34" height="10.18981018981019" rx="3" fill="#C27803" stroke="none" /><text x="537.0" y="566" font-family="Inter, Arial, sans-serif" font-size="10" font-weight="600" fill="#64748B" text-anchor="middle">13</text><rect x="560" y="447.18" width="34" height="92.82000000000001" rx="3" fill="#0F7B5F" stroke="none" /><rect x="560" y="200.0" width="34" height="247.18" rx="3" fill="#0891B2" stroke="none" /><rect x="560" y="200.0" width="34" height="0.0" rx="3" fill="#C27803" stroke="none" /><text x="577.0" y="566" font-family="Inter, Arial, sans-serif" font-size="10" font-weight="600" fill="#64748B" text-anchor="middle">14</text><rect x="600" y="429.15999999999997" width="34" height="110.84" rx="3" fill="#0F7B5F" stroke="none" /><rect x="600" y="199.99999999999994" width="34" height="229.16000000000003" rx="3" fill="#0891B2" stroke="none" /><rect x="600" y="199.99999999999994" width="34" height="0.0" rx="3" fill="#C27803" stroke="none" /><text x="617.0" y="566" font-family="Inter, Arial, sans-serif" font-size="10" font-weight="600" fill="#64748B" text-anchor="middle">15</text><rect x="640" y="404.8151848151848" width="34" height="135.18481518481516" rx="3" fill="#0F7B5F" stroke="none" /><rect x="640" y="199.99999999999997" width="34" height="204.81518481518484" rx="3" fill="#0891B2" stroke="none" /><rect x="640" y="199.99999999999997" width="34" height="0.0" rx="3" fill="#C27803" stroke="none" /><text x="657.0" y="566" font-family="Inter, Arial, sans-serif" font-size="10" font-weight="600" fill="#64748B" text-anchor="middle">16</text><rect x="680" y="417.042957042957" width="34" height="122.95704295704296" rx="3" fill="#0F7B5F" stroke="none" /><rect x="680" y="201.01898101898104" width="34" height="216.023976023976" rx="3" fill="#0891B2" stroke="none" /><rect x="680" y="200.00000000000003" width="34" height="1.018981018981019" rx="3" fill="#C27803" stroke="none" /><text x="697.0" y="566" font-family="Inter, Arial, sans-serif" font-size="10" font-weight="600" fill="#64748B" text-anchor="middle">19</text><rect x="720" y="437.9601406799531" width="34" height="102.0398593200469" rx="3" fill="#0F7B5F" stroke="none" /><rect x="720" y="216.34232121922622" width="34" height="221.61781946072688" rx="3" fill="#0891B2" stroke="none" /><rect x="720" y="199.99999999999997" width="34" height="16.34232121922626" rx="3" fill="#C27803" stroke="none" /><text x="737.0" y="566" font-family="Inter, Arial, sans-serif" font-size="10" font-weight="600" fill="#64748B" text-anchor="middle">20</text><rect x="760" y="377.48" width="34" height="162.52" rx="3" fill="#0F7B5F" stroke="none" /><rect x="760" y="201.02" width="34" height="176.46" rx="3" fill="#0891B2" stroke="none" /><rect x="760" y="200.0" width="34" height="1.0200000000000002" rx="3" fill="#C27803" stroke="none" /><text x="777.0" y="566" font-family="Inter, Arial, sans-serif" font-size="10" font-weight="600" fill="#64748B" text-anchor="middle">21</text><rect x="800" y="414.88" width="34" height="125.12" rx="3" fill="#0F7B5F" stroke="none" /><rect x="800" y="202.38" width="34" height="212.5" rx="3" fill="#0891B2" stroke="none" /><rect x="800" y="200.0" width="34" height="2.38" rx="3" fill="#C27803" stroke="none" /><text x="817.0" y="566" font-family="Inter, Arial, sans-serif" font-size="10" font-weight="600" fill="#64748B" text-anchor="middle">23</text><text x="810" y="152" font-family="Inter, Arial, sans-serif" font-size="17" font-weight="700" fill="#011E42" text-anchor="start">Fine-depositional score (ranked)</text><text x="810" y="196" font-family="Inter, Arial, sans-serif" font-size="11" font-weight="600" fill="#64748B" text-anchor="start">Site 9</text><rect x="850" y="182" width="340" height="18" rx="6" fill="#F1F5F9" stroke="none" /><rect x="1020" y="182" width="94.35070820526305" height="18" rx="6" fill="#0F7B5F" stroke="none" /><text x="1196" y="196" font-family="Inter, Arial, sans-serif" font-size="11" font-weight="700" fill="#0F7B5F" text-anchor="end">5.70</text><text x="810" y="224" font-family="Inter, Arial, sans-serif" font-size="11" font-weight="600" fill="#64748B" text-anchor="start">Site 3</text><rect x="850" y="210" width="340" height="18" rx="6" fill="#F1F5F9" stroke="none" /><rect x="1020" y="210" width="94.18150653671795" height="18" rx="6" fill="#0F7B5F" stroke="none" /><text x="1196" y="224" font-family="Inter, Arial, sans-serif" font-size="11" font-weight="700" fill="#0F7B5F" text-anchor="end">5.69</text><text x="810" y="252" font-family="Inter, Arial, sans-serif" font-size="11" font-weight="600" fill="#64748B" text-anchor="start">Site 7</text><rect x="850" y="238" width="340" height="18" rx="6" fill="#F1F5F9" stroke="none" /><rect x="1020" y="238" width="77.41647981200938" height="18" rx="6" fill="#0F7B5F" stroke="none" /><text x="1196" y="252" font-family="Inter, Arial, sans-serif" font-size="11" font-weight="700" fill="#0F7B5F" text-anchor="end">4.68</text><text x="810" y="280" font-family="Inter, Arial, sans-serif" font-size="11" font-weight="600" fill="#64748B" text-anchor="start">Site 5</text><rect x="850" y="266" width="340" height="18" rx="6" fill="#F1F5F9" stroke="none" /><rect x="1020" y="266" width="75.1241843091133" height="18" rx="6" fill="#0F7B5F" stroke="none" /><text x="1196" y="280" font-family="Inter, Arial, sans-serif" font-size="11" font-weight="700" fill="#0F7B5F" text-anchor="end">4.54</text><text x="810" y="308" font-family="Inter, Arial, sans-serif" font-size="11" font-weight="600" fill="#64748B" text-anchor="start">Site 21</text><rect x="850" y="294" width="340" height="18" rx="6" fill="#F1F5F9" stroke="none" /><rect x="1020" y="294" width="72.89898716050142" height="18" rx="6" fill="#0F7B5F" stroke="none" /><text x="1196" y="308" font-family="Inter, Arial, sans-serif" font-size="11" font-weight="700" fill="#0F7B5F" text-anchor="end">4.41</text><text x="810" y="336" font-family="Inter, Arial, sans-serif" font-size="11" font-weight="600" fill="#64748B" text-anchor="start">Site 6</text><rect x="850" y="322" width="340" height="18" rx="6" fill="#F1F5F9" stroke="none" /><rect x="1020" y="322" width="68.16286239602003" height="18" rx="6" fill="#0F7B5F" stroke="none" /><text x="1196" y="336" font-family="Inter, Arial, sans-serif" font-size="11" font-weight="700" fill="#0F7B5F" text-anchor="end">4.12</text><text x="810" y="364" font-family="Inter, Arial, sans-serif" font-size="11" font-weight="600" fill="#64748B" text-anchor="start">Site 10</text><rect x="850" y="350" width="340" height="18" rx="6" fill="#F1F5F9" stroke="none" /><rect x="1020" y="350" width="59.60529114780886" height="18" rx="6" fill="#0F7B5F" stroke="none" /><text x="1196" y="364" font-family="Inter, Arial, sans-serif" font-size="11" font-weight="700" fill="#0F7B5F" text-anchor="end">3.60</text><text x="810" y="392" font-family="Inter, Arial, sans-serif" font-size="11" font-weight="600" fill="#64748B" text-anchor="start">Site 4</text><rect x="850" y="378" width="340" height="18" rx="6" fill="#F1F5F9" stroke="none" /><rect x="1020" y="378" width="53.992106854460054" height="18" rx="6" fill="#0F7B5F" stroke="none" /><text x="1196" y="392" font-family="Inter, Arial, sans-serif" font-size="11" font-weight="700" fill="#0F7B5F" text-anchor="end">3.26</text><text x="810" y="420" font-family="Inter, Arial, sans-serif" font-size="11" font-weight="600" fill="#64748B" text-anchor="start">Site 1</text><rect x="850" y="406" width="340" height="18" rx="6" fill="#F1F5F9" stroke="none" /><rect x="1020" y="406" width="50.977428748869485" height="18" rx="6" fill="#0F7B5F" stroke="none" /><text x="1196" y="420" font-family="Inter, Arial, sans-serif" font-size="11" font-weight="700" fill="#0F7B5F" text-anchor="end">3.08</text><text x="810" y="448" font-family="Inter, Arial, sans-serif" font-size="11" font-weight="600" fill="#64748B" text-anchor="start">Site 16</text><rect x="850" y="434" width="340" height="18" rx="6" fill="#F1F5F9" stroke="none" /><rect x="1014.0864116101405" y="434" width="5.913588389859422" height="18" rx="6" fill="#B91C1C" stroke="none" /><text x="1196" y="448" font-family="Inter, Arial, sans-serif" font-size="11" font-weight="700" fill="#B91C1C" text-anchor="end">-0.36</text><text x="810" y="476" font-family="Inter, Arial, sans-serif" font-size="11" font-weight="600" fill="#64748B" text-anchor="start">Site 12</text><rect x="850" y="462" width="340" height="18" rx="6" fill="#F1F5F9" stroke="none" /><rect x="1006.7302747751176" y="462" width="13.269725224882443" height="18" rx="6" fill="#B91C1C" stroke="none" /><text x="1196" y="476" font-family="Inter, Arial, sans-serif" font-size="11" font-weight="700" fill="#B91C1C" text-anchor="end">-0.80</text><text x="810" y="504" font-family="Inter, Arial, sans-serif" font-size="11" font-weight="600" fill="#64748B" text-anchor="start">Site 8</text><rect x="850" y="490" width="340" height="18" rx="6" fill="#F1F5F9" stroke="none" /><rect x="1003.9561316969659" y="490" width="16.043868303034042" height="18" rx="6" fill="#B91C1C" stroke="none" /><text x="1196" y="504" font-family="Inter, Arial, sans-serif" font-size="11" font-weight="700" fill="#B91C1C" text-anchor="end">-0.97</text><text x="810" y="532" font-family="Inter, Arial, sans-serif" font-size="11" font-weight="600" fill="#64748B" text-anchor="start">Site 19</text><rect x="850" y="518" width="340" height="18" rx="6" fill="#F1F5F9" stroke="none" /><rect x="993.1953820155157" y="518" width="26.804617984484235" height="18" rx="6" fill="#B91C1C" stroke="none" /><text x="1196" y="532" font-family="Inter, Arial, sans-serif" font-size="11" font-weight="700" fill="#B91C1C" text-anchor="end">-1.62</text><text x="810" y="560" font-family="Inter, Arial, sans-serif" font-size="11" font-weight="600" fill="#64748B" text-anchor="start">Site 23</text><rect x="850" y="546" width="340" height="18" rx="6" fill="#F1F5F9" stroke="none" /><rect x="992.8549769770281" y="546" width="27.145023022971984" height="18" rx="6" fill="#B91C1C" stroke="none" /><text x="1196" y="560" font-family="Inter, Arial, sans-serif" font-size="11" font-weight="700" fill="#B91C1C" text-anchor="end">-1.64</text><text x="810" y="588" font-family="Inter, Arial, sans-serif" font-size="11" font-weight="600" fill="#64748B" text-anchor="start">Site 15</text><rect x="850" y="574" width="340" height="18" rx="6" fill="#F1F5F9" stroke="none" /><rect x="981.5067196639088" y="574" width="38.49328033609121" height="18" rx="6" fill="#B91C1C" stroke="none" /><text x="1196" y="588" font-family="Inter, Arial, sans-serif" font-size="11" font-weight="700" fill="#B91C1C" text-anchor="end">-2.33</text><text x="810" y="616" font-family="Inter, Arial, sans-serif" font-size="11" font-weight="600" fill="#64748B" text-anchor="start">Site 14</text><rect x="850" y="602" width="340" height="18" rx="6" fill="#F1F5F9" stroke="none" /><rect x="938.8622414890713" y="602" width="81.13775851092879" height="18" rx="6" fill="#B91C1C" stroke="none" /><text x="1196" y="616" font-family="Inter, Arial, sans-serif" font-size="11" font-weight="700" fill="#B91C1C" text-anchor="end">-4.90</text><text x="810" y="644" font-family="Inter, Arial, sans-serif" font-size="11" font-weight="600" fill="#64748B" text-anchor="start">Site 20</text><rect x="850" y="630" width="340" height="18" rx="6" fill="#F1F5F9" stroke="none" /><rect x="887.9349710760473" y="630" width="132.06502892395267" height="18" rx="6" fill="#B91C1C" stroke="none" /><text x="1196" y="644" font-family="Inter, Arial, sans-serif" font-size="11" font-weight="700" fill="#B91C1C" text-anchor="end">-7.98</text><text x="810" y="672" font-family="Inter, Arial, sans-serif" font-size="11" font-weight="600" fill="#64748B" text-anchor="start">Site 13</text><rect x="850" y="658" width="340" height="18" rx="6" fill="#F1F5F9" stroke="none" /><rect x="884.1633686114147" y="658" width="135.83663138858523" height="18" rx="6" fill="#B91C1C" stroke="none" /><text x="1196" y="672" font-family="Inter, Arial, sans-serif" font-size="11" font-weight="700" fill="#B91C1C" text-anchor="end">-8.21</text><text x="810" y="700" font-family="Inter, Arial, sans-serif" font-size="11" font-weight="600" fill="#64748B" text-anchor="start">Site 2</text><rect x="850" y="686" width="340" height="18" rx="6" fill="#F1F5F9" stroke="none" /><rect x="850.0" y="686" width="170.0" height="18" rx="6" fill="#B91C1C" stroke="none" /><text x="1196" y="700" font-family="Inter, Arial, sans-serif" font-size="11" font-weight="700" fill="#B91C1C" text-anchor="end">-10.28</text><line x1="1020" y1="175" x2="1020" y2="707" stroke="#E2E8F0" stroke-width="1" stroke-dasharray="4 4" /></svg>