<svg xmlns="http://www.w3.org/2000/svg" width="1400" height="860" viewBox="0 0 1400 860" role="img" aria-label="Savannah River analytical figure"><rect x="0" y="0" width="1400" height="860" rx="12" fill="#F8FAFC" stroke="none" /><text x="70" y="72" font-family="Inter, Arial, sans-serif" font-size="32" font-weight="700" fill="#011E42" text-anchor="start">Data coverage across analytical layers: what is available and where gaps remain</text><text x="70" y="102" font-family="Inter, Arial, sans-serif" font-size="15" font-weight="400" fill="#64748B" text-anchor="start">Coverage target matrix (left) and cross-layer parameter depth by entity (right) — the honest accounting of what the report can and cannot claim.</text><text x="80" y="150" font-family="Inter, Arial, sans-serif" font-size="18" font-weight="700" fill="#011E42" text-anchor="start">Coverage vs 20-year target by layer</text><rect x="80" y="172" width="580" height="50" rx="10" fill="#FFFFFF" stroke="#E2E8F0" /><text x="96" y="190" font-family="Inter, Arial, sans-serif" font-size="13" font-weight="700" fill="#011E42" text-anchor="start">River hydrology — Augusta</text><text x="96" y="208" font-family="Inter, Arial, sans-serif" font-size="11" font-weight="500" fill="#64748B" text-anchor="start">USGS daily values · 2006–2026</text><rect x="360" y="182" width="240" height="18" rx="9" fill="#E2E8F0" stroke="none" /><rect x="360" y="182" width="240" height="18" rx="9" fill="#0F7B5F" stroke="none" /><text x="608" y="196" font-family="Inter, Arial, sans-serif" font-size="11" font-weight="700" fill="#0F7B5F" text-anchor="start">21/20 yr</text><rect x="560" y="182" width="88.80000000000001" height="24" rx="12" fill="#0F7B5F22" stroke="none" /><text x="570" y="199" font-family="Inter, Arial, sans-serif" font-size="11" font-weight="700" fill="#0F7B5F" text-anchor="start">MEETS TARGET</text><rect x="80" y="234" width="580" height="50" rx="10" fill="#FFFFFF" stroke="#E2E8F0" /><text x="96" y="252" font-family="Inter, Arial, sans-serif" font-size="13" font-weight="700" fill="#011E42" text-anchor="start">River hydrology — USACE Dock</text><text x="96" y="270" font-family="Inter, Arial, sans-serif" font-size="11" font-weight="500" fill="#64748B" text-anchor="start">USGS daily values · 2007–2026</text><rect x="360" y="244" width="240" height="18" rx="9" fill="#E2E8F0" stroke="none" /><rect x="360" y="244" width="240" height="18" rx="9" fill="#0F7B5F" stroke="none" /><text x="608" y="258" font-family="Inter, Arial, sans-serif" font-size="11" font-weight="700" fill="#0F7B5F" text-anchor="start">20/20 yr</text><rect x="560" y="244" width="88.80000000000001" height="24" rx="12" fill="#0F7B5F22" stroke="none" /><text x="570" y="261" font-family="Inter, Arial, sans-serif" font-size="11" font-weight="700" fill="#0F7B5F" text-anchor="start">MEETS TARGET</text><rect x="80" y="296" width="580" height="50" rx="10" fill="#FFFFFF" stroke="#E2E8F0" /><text x="96" y="314" font-family="Inter, Arial, sans-serif" font-size="13" font-weight="700" fill="#011E42" text-anchor="start">River chemistry — Calhoun Falls</text><text x="96" y="332" font-family="Inter, Arial, sans-serif" font-size="11" font-weight="500" fill="#64748B" text-anchor="start">WQP results · 1956–1974</text><rect x="360" y="306" width="240" height="18" rx="9" fill="#E2E8F0" stroke="none" /><rect x="360" y="306" width="132.0" height="18" rx="9" fill="#D97706" stroke="none" /><text x="608" y="320" font-family="Inter, Arial, sans-serif" font-size="11" font-weight="700" fill="#D97706" text-anchor="start">11/20 yr</text><rect x="560" y="306" width="88.80000000000001" height="24" rx="12" fill="#D9770622" stroke="none" /><text x="570" y="323" font-family="Inter, Arial, sans-serif" font-size="11" font-weight="700" fill="#D97706" text-anchor="start">BELOW TARGET</text><rect x="80" y="358" width="580" height="50" rx="10" fill="#FFFFFF" stroke="#E2E8F0" /><text x="96" y="376" font-family="Inter, Arial, sans-serif" font-size="13" font-weight="700" fill="#011E42" text-anchor="start">River chemistry — Augusta Intake</text><text x="96" y="394" font-family="Inter, Arial, sans-serif" font-size="11" font-weight="500" fill="#64748B" text-anchor="start">WQP results · 1970–1970</text><rect x="360" y="368" width="240" height="18" rx="9" fill="#E2E8F0" stroke="none" /><rect x="360" y="368" width="12.0" height="18" rx="9" fill="#B91C1C" stroke="none" /><text x="608" y="382" font-family="Inter, Arial, sans-serif" font-size="11" font-weight="700" fill="#B91C1C" text-anchor="start">1/20 yr</text><rect x="560" y="368" width="88.80000000000001" height="24" rx="12" fill="#B91C1C22" stroke="none" /><text x="570" y="385" font-family="Inter, Arial, sans-serif" font-size="11" font-weight="700" fill="#B91C1C" text-anchor="start">BELOW TARGET</text><rect x="80" y="420" width="580" height="50" rx="10" fill="#FFFFFF" stroke="#E2E8F0" /><text x="96" y="438" font-family="Inter, Arial, sans-serif" font-size="13" font-weight="700" fill="#011E42" text-anchor="start">River chemistry — US 1 Augusta</text><text x="96" y="456" font-family="Inter, Arial, sans-serif" font-size="11" font-weight="500" fill="#64748B" text-anchor="start">WQP results · 1997–1998</text><rect x="360" y="430" width="240" height="18" rx="9" fill="#E2E8F0" stroke="none" /><rect x="360" y="430" width="24.0" height="18" rx="9" fill="#B91C1C" stroke="none" /><text x="608" y="444" font-family="Inter, Arial, sans-serif" font-size="11" font-weight="700" fill="#B91C1C" text-anchor="start">2/20 yr</text><rect x="560" y="430" width="88.80000000000001" height="24" rx="12" fill="#B91C1C22" stroke="none" /><text x="570" y="447" font-family="Inter, Arial, sans-serif" font-size="11" font-weight="700" fill="#B91C1C" text-anchor="start">BELOW TARGET</text><rect x="80" y="482" width="580" height="50" rx="10" fill="#FFFFFF" stroke="#E2E8F0" /><text x="96" y="500" font-family="Inter, Arial, sans-serif" font-size="13" font-weight="700" fill="#011E42" text-anchor="start">Reservoir water quality — Hartwell</text><text x="96" y="518" font-family="Inter, Arial, sans-serif" font-size="11" font-weight="500" fill="#64748B" text-anchor="start">WQP forebay · 1990–2025</text><rect x="360" y="492" width="240" height="18" rx="9" fill="#E2E8F0" stroke="none" /><rect x="360" y="492" width="228.0" height="18" rx="9" fill="#D97706" stroke="none" /><text x="608" y="506" font-family="Inter, Arial, sans-serif" font-size="11" font-weight="700" fill="#D97706" text-anchor="start">19/20 yr</text><rect x="560" y="492" width="88.80000000000001" height="24" rx="12" fill="#D9770622" stroke="none" /><text x="570" y="509" font-family="Inter, Arial, sans-serif" font-size="11" font-weight="700" fill="#D97706" text-anchor="start">BELOW TARGET</text><rect x="80" y="544" width="580" height="50" rx="10" fill="#FFFFFF" stroke="#E2E8F0" /><text x="96" y="562" font-family="Inter, Arial, sans-serif" font-size="13" font-weight="700" fill="#011E42" text-anchor="start">Reservoir water quality — Russell</text><text x="96" y="580" font-family="Inter, Arial, sans-serif" font-size="11" font-weight="500" fill="#64748B" text-anchor="start">WQP forebay · 1990–2025</text><rect x="360" y="554" width="240" height="18" rx="9" fill="#E2E8F0" stroke="none" /><rect x="360" y="554" width="240" height="18" rx="9" fill="#0F7B5F" stroke="none" /><text x="608" y="568" font-family="Inter, Arial, sans-serif" font-size="11" font-weight="700" fill="#0F7B5F" text-anchor="start">21/20 yr</text><rect x="560" y="554" width="88.80000000000001" height="24" rx="12" fill="#0F7B5F22" stroke="none" /><text x="570" y="571" font-family="Inter, Arial, sans-serif" font-size="11" font-weight="700" fill="#0F7B5F" text-anchor="start">MEETS TARGET</text><rect x="80" y="606" width="580" height="50" rx="10" fill="#FFFFFF" stroke="#E2E8F0" /><text x="96" y="624" font-family="Inter, Arial, sans-serif" font-size="13" font-weight="700" fill="#011E42" text-anchor="start">Reservoir water quality — Thurmond</text><text x="96" y="642" font-family="Inter, Arial, sans-serif" font-size="11" font-weight="500" fill="#64748B" text-anchor="start">WQP forebay · 1990–2025</text><rect x="360" y="616" width="240" height="18" rx="9" fill="#E2E8F0" stroke="none" /><rect x="360" y="616" width="240" height="18" rx="9" fill="#0F7B5F" stroke="none" /><text x="608" y="630" font-family="Inter, Arial, sans-serif" font-size="11" font-weight="700" fill="#0F7B5F" text-anchor="start">21/20 yr</text><rect x="560" y="616" width="88.80000000000001" height="24" rx="12" fill="#0F7B5F22" stroke="none" /><text x="570" y="633" font-family="Inter, Arial, sans-serif" font-size="11" font-weight="700" fill="#0F7B5F" text-anchor="start">MEETS TARGET</text><rect x="80" y="668" width="580" height="50" rx="10" fill="#FFFFFF" stroke="#E2E8F0" /><text x="96" y="686" font-family="Inter, Arial, sans-serif" font-size="13" font-weight="700" fill="#011E42" text-anchor="start">Treated water compliance — Savannah Main System</text><text x="96" y="704" font-family="Inter, Arial, sans-serif" font-size="11" font-weight="500" fill="#64748B" text-anchor="start">City of Savannah annual reports · 2020–2024</text><rect x="360" y="678" width="240" height="18" rx="9" fill="#E2E8F0" stroke="none" /><rect x="360" y="678" width="60.0" height="18" rx="9" fill="#B91C1C" stroke="none" /><text x="608" y="692" font-family="Inter, Arial, sans-serif" font-size="11" font-weight="700" fill="#B91C1C" text-anchor="start">5/20 yr</text><rect x="560" y="678" width="88.80000000000001" height="24" rx="12" fill="#B91C1C22" stroke="none" /><text x="570" y="695" font-family="Inter, Arial, sans-serif" font-size="11" font-weight="700" fill="#B91C1C" text-anchor="start">BELOW TARGET</text><text x="720" y="150" font-family="Inter, Arial, sans-serif" font-size="18" font-weight="700" fill="#011E42" text-anchor="start">Parameter coverage by entity and group</text><text x="922.0" y="189" font-family="Inter, Arial, sans-serif" font-size="9" font-weight="600" fill="#64748B" text-anchor="middle">Water temp</text><text x="986.0" y="189" font-family="Inter, Arial, sans-serif" font-size="9" font-weight="600" fill="#64748B" text-anchor="middle">pH</text><text x="1050.0" y="189" font-family="Inter, Arial, sans-serif" font-size="9" font-weight="600" fill="#64748B" text-anchor="middle">Specific c</text><text x="1114.0" y="189" font-family="Inter, Arial, sans-serif" font-size="9" font-weight="600" fill="#64748B" text-anchor="middle">Turbidity </text><text x="1178.0" y="189" font-family="Inter, Arial, sans-serif" font-size="9" font-weight="600" fill="#64748B" text-anchor="middle">Nitrogen</text><text x="1242.0" y="189" font-family="Inter, Arial, sans-serif" font-size="9" font-weight="600" fill="#64748B" text-anchor="middle">Phosphorus</text><text x="1306.0" y="189" font-family="Inter, Arial, sans-serif" font-size="9" font-weight="600" fill="#64748B" text-anchor="middle">Organic ca</text><text x="1370.0" y="189" font-family="Inter, Arial, sans-serif" font-size="9" font-weight="600" fill="#64748B" text-anchor="middle">Metals / t</text><text x="1434.0" y="189" font-family="Inter, Arial, sans-serif" font-size="9" font-weight="600" fill="#64748B" text-anchor="middle">Microbiolo</text><text x="1498.0" y="189" font-family="Inter, Arial, sans-serif" font-size="9" font-weight="600" fill="#64748B" text-anchor="middle">Drinking-w</text><text x="728" y="219" font-family="Inter, Arial, sans-serif" font-size="12" font-weight="600" fill="#011E42" text-anchor="start">Calhoun Falls</text><rect x="892" y="201" width="60" height="28" rx="6" fill="#0F7B5Fb8" stroke="none" /><text x="922.0" y="217" font-family="Inter, Arial, sans-serif" font-size="9" font-weight="700" fill="#FFFFFF" text-anchor="middle">18yr</text><rect x="956" y="201" width="60" height="28" rx="6" fill="#0F7B5Fc0" stroke="none" /><text x="986.0" y="217" font-family="Inter, Arial, sans-serif" font-size="9" font-weight="700" fill="#FFFFFF" text-anchor="middle">19yr</text><rect x="1020" y="201" width="60" height="28" rx="6" fill="#0F7B5Fc0" stroke="none" /><text x="1050.0" y="217" font-family="Inter, Arial, sans-serif" font-size="9" font-weight="700" fill="#FFFFFF" text-anchor="middle">19yr</text><rect x="1084" y="201" width="60" height="28" rx="6" fill="#B91C1C58" stroke="none" /><text x="1114.0" y="217" font-family="Inter, Arial, sans-serif" font-size="9" font-weight="700" fill="#FFFFFF" text-anchor="middle">6yr</text><rect x="1148" y="201" width="60" height="28" rx="6" fill="#0F7B5Fc0" stroke="none" /><text x="1178.0" y="217" font-family="Inter, Arial, sans-serif" font-size="9" font-weight="700" fill="#FFFFFF" text-anchor="middle">19yr</text><rect x="1212" y="201" width="60" height="28" rx="6" fill="#B91C1C58" stroke="none" /><text x="1242.0" y="217" font-family="Inter, Arial, sans-serif" font-size="9" font-weight="700" fill="#FFFFFF" text-anchor="middle">6yr</text><rect x="1276" y="201" width="60" height="28" rx="6" fill="#B91C1C48" stroke="none" /><text x="1306.0" y="217" font-family="Inter, Arial, sans-serif" font-size="9" font-weight="700" fill="#FFFFFF" text-anchor="middle">4yr</text><rect x="1340" y="201" width="60" height="28" rx="6" fill="#B91C1C48" stroke="none" /><text x="1370.0" y="217" font-family="Inter, Arial, sans-serif" font-size="9" font-weight="700" fill="#FFFFFF" text-anchor="middle">4yr</text><rect x="1404" y="201" width="60" height="28" rx="6" fill="#B91C1C58" stroke="none" /><text x="1434.0" y="217" font-family="Inter, Arial, sans-serif" font-size="9" font-weight="700" fill="#FFFFFF" text-anchor="middle">6yr</text><rect x="1468" y="201" width="60" height="28" rx="6" fill="#B91C1C58" stroke="none" /><text x="1498.0" y="217" font-family="Inter, Arial, sans-serif" font-size="9" font-weight="700" fill="#FFFFFF" text-anchor="middle">6yr</text><text x="728" y="253" font-family="Inter, Arial, sans-serif" font-size="12" font-weight="600" fill="#011E42" text-anchor="start">Augusta Intake</text><rect x="892" y="235" width="60" height="28" rx="6" fill="#F1F5F9" stroke="none" /><text x="922.0" y="251" font-family="Inter, Arial, sans-serif" font-size="9" font-weight="500" fill="#E2E8F0" text-anchor="middle">—</text><rect x="956" y="235" width="60" height="28" rx="6" fill="#F1F5F9" stroke="none" /><text x="986.0" y="251" font-family="Inter, Arial, sans-serif" font-size="9" font-weight="500" fill="#E2E8F0" text-anchor="middle">—</text><rect x="1020" y="235" width="60" height="28" rx="6" fill="#F1F5F9" stroke="none" /><text x="1050.0" y="251" font-family="Inter, Arial, sans-serif" font-size="9" font-weight="500" fill="#E2E8F0" text-anchor="middle">—</text><rect x="1084" y="235" width="60" height="28" rx="6" fill="#F1F5F9" stroke="none" /><text x="1114.0" y="251" font-family="Inter, Arial, sans-serif" font-size="9" font-weight="500" fill="#E2E8F0" text-anchor="middle">—</text><rect x="1148" y="235" width="60" height="28" rx="6" fill="#F1F5F9" stroke="none" /><text x="1178.0" y="251" font-family="Inter, Arial, sans-serif" font-size="9" font-weight="500" fill="#E2E8F0" text-anchor="middle">—</text><rect x="1212" y="235" width="60" height="28" rx="6" fill="#F1F5F9" stroke="none" /><text x="1242.0" y="251" font-family="Inter, Arial, sans-serif" font-size="9" font-weight="500" fill="#E2E8F0" text-anchor="middle">—</text><rect x="1276" y="235" width="60" height="28" rx="6" fill="#F1F5F9" stroke="none" /><text x="1306.0" y="251" font-family="Inter, Arial, sans-serif" font-size="9" font-weight="500" fill="#E2E8F0" text-anchor="middle">—</text><rect x="1340" y="235" width="60" height="28" rx="6" fill="#B91C1C30" stroke="none" /><text x="1370.0" y="251" font-family="Inter, Arial, sans-serif" font-size="9" font-weight="700" fill="#FFFFFF" text-anchor="middle">1yr</text><rect x="1404" y="235" width="60" height="28" rx="6" fill="#F1F5F9" stroke="none" /><text x="1434.0" y="251" font-family="Inter, Arial, sans-serif" font-size="9" font-weight="500" fill="#E2E8F0" text-anchor="middle">—</text><rect x="1468" y="235" width="60" height="28" rx="6" fill="#F1F5F9" stroke="none" /><text x="1498.0" y="251" font-family="Inter, Arial, sans-serif" font-size="9" font-weight="500" fill="#E2E8F0" text-anchor="middle">—</text><text x="728" y="287" font-family="Inter, Arial, sans-serif" font-size="12" font-weight="600" fill="#011E42" text-anchor="start">US 1 Augusta</text><rect x="892" y="269" width="60" height="28" rx="6" fill="#B91C1C38" stroke="none" /><text x="922.0" y="285" font-family="Inter, Arial, sans-serif" font-size="9" font-weight="700" fill="#FFFFFF" text-anchor="middle">2yr</text><rect x="956" y="269" width="60" height="28" rx="6" fill="#B91C1C38" stroke="none" /><text x="986.0" y="285" font-family="Inter, Arial, sans-serif" font-size="9" font-weight="700" fill="#FFFFFF" text-anchor="middle">2yr</text><rect x="1020" y="269" width="60" height="28" rx="6" fill="#B91C1C38" stroke="none" /><text x="1050.0" y="285" font-family="Inter, Arial, sans-serif" font-size="9" font-weight="700" fill="#FFFFFF" text-anchor="middle">2yr</text><rect x="1084" y="269" width="60" height="28" rx="6" fill="#B91C1C30" stroke="none" /><text x="1114.0" y="285" font-family="Inter, Arial, sans-serif" font-size="9" font-weight="700" fill="#FFFFFF" text-anchor="middle">1yr</text><rect x="1148" y="269" width="60" height="28" rx="6" fill="#B91C1C30" stroke="none" /><text x="1178.0" y="285" font-family="Inter, Arial, sans-serif" font-size="9" font-weight="700" fill="#FFFFFF" text-anchor="middle">1yr</text><rect x="1212" y="269" width="60" height="28" rx="6" fill="#B91C1C30" stroke="none" /><text x="1242.0" y="285" font-family="Inter, Arial, sans-serif" font-size="9" font-weight="700" fill="#FFFFFF" text-anchor="middle">1yr</text><rect x="1276" y="269" width="60" height="28" rx="6" fill="#B91C1C30" stroke="none" /><text x="1306.0" y="285" font-family="Inter, Arial, sans-serif" font-size="9" font-weight="700" fill="#FFFFFF" text-anchor="middle">1yr</text><rect x="1340" y="269" width="60" height="28" rx="6" fill="#B91C1C38" stroke="none" /><text x="1370.0" y="285" font-family="Inter, Arial, sans-serif" font-size="9" font-weight="700" fill="#FFFFFF" text-anchor="middle">2yr</text><rect x="1404" y="269" width="60" height="28" rx="6" fill="#B91C1C30" stroke="none" /><text x="1434.0" y="285" font-family="Inter, Arial, sans-serif" font-size="9" font-weight="700" fill="#FFFFFF" text-anchor="middle">1yr</text><rect x="1468" y="269" width="60" height="28" rx="6" fill="#F1F5F9" stroke="none" /><text x="1498.0" y="285" font-family="Inter, Arial, sans-serif" font-size="9" font-weight="500" fill="#E2E8F0" text-anchor="middle">—</text><text x="728" y="321" font-family="Inter, Arial, sans-serif" font-size="12" font-weight="600" fill="#011E42" text-anchor="start">Hartwell</text><rect x="892" y="303" width="60" height="28" rx="6" fill="#0F7B5Fc8" stroke="none" /><text x="922.0" y="319" font-family="Inter, Arial, sans-serif" font-size="9" font-weight="700" fill="#FFFFFF" text-anchor="middle">36yr</text><rect x="956" y="303" width="60" height="28" rx="6" fill="#0F7B5Fc8" stroke="none" /><text x="986.0" y="319" font-family="Inter, Arial, sans-serif" font-size="9" font-weight="700" fill="#FFFFFF" text-anchor="middle">36yr</text><rect x="1020" y="303" width="60" height="28" rx="6" fill="#0F7B5Fc8" stroke="none" /><text x="1050.0" y="319" font-family="Inter, Arial, sans-serif" font-size="9" font-weight="700" fill="#FFFFFF" text-anchor="middle">36yr</text><rect x="1084" y="303" width="60" height="28" rx="6" fill="#0F7B5Fc8" stroke="none" /><text x="1114.0" y="319" font-family="Inter, Arial, sans-serif" font-size="9" font-weight="700" fill="#FFFFFF" text-anchor="middle">36yr</text><rect x="1148" y="303" width="60" height="28" rx="6" fill="#0F7B5Fc8" stroke="none" /><text x="1178.0" y="319" font-family="Inter, Arial, sans-serif" font-size="9" font-weight="700" fill="#FFFFFF" text-anchor="middle">36yr</text><rect x="1212" y="303" width="60" height="28" rx="6" fill="#0F7B5Fc8" stroke="none" /><text x="1242.0" y="319" font-family="Inter, Arial, sans-serif" font-size="9" font-weight="700" fill="#FFFFFF" text-anchor="middle">36yr</text><rect x="1276" y="303" width="60" height="28" rx="6" fill="#0F7B5Fc8" stroke="none" /><text x="1306.0" y="319" font-family="Inter, Arial, sans-serif" font-size="9" font-weight="700" fill="#FFFFFF" text-anchor="middle">36yr</text><rect x="1340" y="303" width="60" height="28" rx="6" fill="#F1F5F9" stroke="none" /><text x="1370.0" y="319" font-family="Inter, Arial, sans-serif" font-size="9" font-weight="500" fill="#E2E8F0" text-anchor="middle">—</text><rect x="1404" y="303" width="60" height="28" rx="6" fill="#0F7B5Fc8" stroke="none" /><text x="1434.0" y="319" font-family="Inter, Arial, sans-serif" font-size="9" font-weight="700" fill="#FFFFFF" text-anchor="middle">36yr</text><rect x="1468" y="303" width="60" height="28" rx="6" fill="#F1F5F9" stroke="none" /><text x="1498.0" y="319" font-family="Inter, Arial, sans-serif" font-size="9" font-weight="500" fill="#E2E8F0" text-anchor="middle">—</text><text x="728" y="355" font-family="Inter, Arial, sans-serif" font-size="12" font-weight="600" fill="#011E42" text-anchor="start">Russell</text><rect x="892" y="337" width="60" height="28" rx="6" fill="#0F7B5Fc8" stroke="none" /><text x="922.0" y="353" font-family="Inter, Arial, sans-serif" font-size="9" font-weight="700" fill="#FFFFFF" text-anchor="middle">36yr</text><rect x="956" y="337" width="60" height="28" rx="6" fill="#0F7B5Fc8" stroke="none" /><text x="986.0" y="353" font-family="Inter, Arial, sans-serif" font-size="9" font-weight="700" fill="#FFFFFF" text-anchor="middle">36yr</text><rect x="1020" y="337" width="60" height="28" rx="6" fill="#0F7B5Fc8" stroke="none" /><text x="1050.0" y="353" font-family="Inter, Arial, sans-serif" font-size="9" font-weight="700" fill="#FFFFFF" text-anchor="middle">36yr</text><rect x="1084" y="337" width="60" height="28" rx="6" fill="#0F7B5Fc8" stroke="none" /><text x="1114.0" y="353" font-family="Inter, Arial, sans-serif" font-size="9" font-weight="700" fill="#FFFFFF" text-anchor="middle">36yr</text><rect x="1148" y="337" width="60" height="28" rx="6" fill="#0F7B5Fc8" stroke="none" /><text x="1178.0" y="353" font-family="Inter, Arial, sans-serif" font-size="9" font-weight="700" fill="#FFFFFF" text-anchor="middle">36yr</text><rect x="1212" y="337" width="60" height="28" rx="6" fill="#0F7B5Fc8" stroke="none" /><text x="1242.0" y="353" font-family="Inter, Arial, sans-serif" font-size="9" font-weight="700" fill="#FFFFFF" text-anchor="middle">36yr</text><rect x="1276" y="337" width="60" height="28" rx="6" fill="#0F7B5Fc8" stroke="none" /><text x="1306.0" y="353" font-family="Inter, Arial, sans-serif" font-size="9" font-weight="700" fill="#FFFFFF" text-anchor="middle">36yr</text><rect x="1340" y="337" width="60" height="28" rx="6" fill="#0F7B5Fc8" stroke="none" /><text x="1370.0" y="353" font-family="Inter, Arial, sans-serif" font-size="9" font-weight="700" fill="#FFFFFF" text-anchor="middle">30yr</text><rect x="1404" y="337" width="60" height="28" rx="6" fill="#0F7B5Fc8" stroke="none" /><text x="1434.0" y="353" font-family="Inter, Arial, sans-serif" font-size="9" font-weight="700" fill="#FFFFFF" text-anchor="middle">36yr</text><rect x="1468" y="337" width="60" height="28" rx="6" fill="#F1F5F9" stroke="none" /><text x="1498.0" y="353" font-family="Inter, Arial, sans-serif" font-size="9" font-weight="500" fill="#E2E8F0" text-anchor="middle">—</text><text x="728" y="389" font-family="Inter, Arial, sans-serif" font-size="12" font-weight="600" fill="#011E42" text-anchor="start">Thurmond</text><rect x="892" y="371" width="60" height="28" rx="6" fill="#0F7B5Fc8" stroke="none" /><text x="922.0" y="387" font-family="Inter, Arial, sans-serif" font-size="9" font-weight="700" fill="#FFFFFF" text-anchor="middle">36yr</text><rect x="956" y="371" width="60" height="28" rx="6" fill="#0F7B5Fc8" stroke="none" /><text x="986.0" y="387" font-family="Inter, Arial, sans-serif" font-size="9" font-weight="700" fill="#FFFFFF" text-anchor="middle">36yr</text><rect x="1020" y="371" width="60" height="28" rx="6" fill="#0F7B5Fc8" stroke="none" /><text x="1050.0" y="387" font-family="Inter, Arial, sans-serif" font-size="9" font-weight="700" fill="#FFFFFF" text-anchor="middle">36yr</text><rect x="1084" y="371" width="60" height="28" rx="6" fill="#0F7B5Fc8" stroke="none" /><text x="1114.0" y="387" font-family="Inter, Arial, sans-serif" font-size="9" font-weight="700" fill="#FFFFFF" text-anchor="middle">36yr</text><rect x="1148" y="371" width="60" height="28" rx="6" fill="#0F7B5Fc8" stroke="none" /><text x="1178.0" y="387" font-family="Inter, Arial, sans-serif" font-size="9" font-weight="700" fill="#FFFFFF" text-anchor="middle">36yr</text><rect x="1212" y="371" width="60" height="28" rx="6" fill="#0F7B5Fc8" stroke="none" /><text x="1242.0" y="387" font-family="Inter, Arial, sans-serif" font-size="9" font-weight="700" fill="#FFFFFF" text-anchor="middle">36yr</text><rect x="1276" y="371" width="60" height="28" rx="6" fill="#0F7B5Fc8" stroke="none" /><text x="1306.0" y="387" font-family="Inter, Arial, sans-serif" font-size="9" font-weight="700" fill="#FFFFFF" text-anchor="middle">36yr</text><rect x="1340" y="371" width="60" height="28" rx="6" fill="#0F7B5Fc8" stroke="none" /><text x="1370.0" y="387" font-family="Inter, Arial, sans-serif" font-size="9" font-weight="700" fill="#FFFFFF" text-anchor="middle">30yr</text><rect x="1404" y="371" width="60" height="28" rx="6" fill="#0F7B5Fc8" stroke="none" /><text x="1434.0" y="387" font-family="Inter, Arial, sans-serif" font-size="9" font-weight="700" fill="#FFFFFF" text-anchor="middle">36yr</text><rect x="1468" y="371" width="60" height="28" rx="6" fill="#F1F5F9" stroke="none" /><text x="1498.0" y="387" font-family="Inter, Arial, sans-serif" font-size="9" font-weight="500" fill="#E2E8F0" text-anchor="middle">—</text><text x="720" y="720" font-family="Inter, Arial, sans-serif" font-size="12" font-weight="600" fill="#64748B" text-anchor="start">Coverage ratio:</text><rect x="860" y="706" width="16" height="16" rx="4" fill="#0F7B5F" stroke="none" /><text x="880" y="720" font-family="Inter, Arial, sans-serif" font-size="11" font-weight="500" fill="#64748B" text-anchor="start">≥80%</text><rect x="950" y="706" width="16" height="16" rx="4" fill="#D97706" stroke="none" /><text x="970" y="720" font-family="Inter, Arial, sans-serif" font-size="11" font-weight="500" fill="#64748B" text-anchor="start">40–79%</text><rect x="1040" y="706" width="16" height="16" rx="4" fill="#B91C1C" stroke="none" /><text x="1060" y="720" font-family="Inter, Arial, sans-serif" font-size="11" font-weight="500" fill="#64748B" text-anchor="start">&lt;40%</text><rect x="70" y="800" width="1260" height="44" rx="16" fill="#FFFBEB" stroke="#FDE68A" /><text x="100" y="829" font-family="Inter, Arial, sans-serif" font-size="14" font-weight="600" fill="#D97706" text-anchor="start">River hydrology and lower-river sensor layers meet the 20-year target. River chemistry and reservoir operations are the structural gaps — documented here, not papered over.</text></svg>