<svg xmlns="http://www.w3.org/2000/svg" width="1400" height="740" viewBox="0 0 1400 740" role="img" aria-label="Savannah River analytical figure"><rect x="0" y="0" width="1400" height="740" rx="12" fill="#F8FAFC" stroke="none" /><text x="70" y="62" font-family="Inter, Arial, sans-serif" font-size="30" font-weight="700" fill="#011E42" text-anchor="start">Water quality — specific conductance and turbidity (USACE Dock)</text><text x="70" y="90" font-family="Inter, Arial, sans-serif" font-size="14" font-weight="400" fill="#64748B" text-anchor="start">Conductance is the cleanest dilution tracer in the dataset. Turbidity responds to discharge pulses that mobilize fine particles.</text><line x1="70" y1="113" x2="94" y2="113" stroke="#64748B" stroke-width="2"  opacity="0.35" /><text x="100" y="118" font-family="Inter, Arial, sans-serif" font-size="11" font-weight="500" fill="#64748B" text-anchor="start">Monthly</text><line x1="149.6" y1="113" x2="173.6" y2="113" stroke="#011E42" stroke-width="4" /><text x="179.6" y="118" font-family="Inter, Arial, sans-serif" font-size="11" font-weight="500" fill="#64748B" text-anchor="start">12-month average</text><rect x="62" y="120" width="1286" height="304" rx="18" fill="#FFFFFF" stroke="#E2E8F0" /><text x="80" y="144" font-family="Inter, Arial, sans-serif" font-size="15" font-weight="700" fill="#011E42" text-anchor="start">Specific conductance (µS/cm)</text><rect x="1190" y="126" width="72" height="24" rx="12" fill="#DBEAFE" stroke="none" /><text x="1200" y="143" font-family="Inter, Arial, sans-serif" font-size="11" font-weight="700" fill="#C27803" text-anchor="start">2007–2026</text><line x1="80" y1="164.0" x2="1330" y2="164.0" stroke="#E2E8F0" stroke-width="1" stroke-dasharray="4 6" /><line x1="80" y1="274.0" x2="1330" y2="274.0" stroke="#E2E8F0" stroke-width="1" stroke-dasharray="4 6" /><line x1="80" y1="384.0" x2="1330" y2="384.0" stroke="#E2E8F0" stroke-width="1" stroke-dasharray="4 6" /><text x="74" y="170" font-family="Inter, Arial, sans-serif" font-size="11" font-weight="500" fill="#64748B" text-anchor="end">26,877</text><text x="74" y="278.0" font-family="Inter, Arial, sans-serif" font-size="11" font-weight="500" fill="#64748B" text-anchor="end">13,716</text><text x="74" y="388" font-family="Inter, Arial, sans-serif" font-size="11" font-weight="500" fill="#64748B" text-anchor="end">554.9</text><polygon points="80.0,384 80.0,238.9810148299586 85.50660792951541,244.9273639270662 91.01321585903084,244.3973263179761 96.51982378854626,224.22815667951545 102.02643171806167,228.36432533860176 107.53303964757708,213.44975673164927 113.03964757709251,202.40024164293908 118.54625550660793,228.44047723921642 124.05286343612335,250.32710893016014 129.55947136563876,258.09360499027787 135.06607929515417,279.3666869304993 140.5726872246696,247.95208031002767 146.07929515418502,223.87585677002795 151.58590308370043,221.1503256908873 157.09251101321587,201.2001451878752 162.59911894273128,204.61529734592608 168.1057268722467,199.73492508799322 173.61233480176213,217.7510509981409 179.1189427312775,222.49041341891902 184.62555066079295,258.3077802826392 190.13215859030836,228.3658831279028 195.63876651982378,238.88715164731235 201.14537444933922,275.52553948524513 206.65198237885463,303.8535196003209 212.15859030837004,265.76809028968614 217.66519823788545,242.74774791396197 223.1718061674009,227.15080794113234 228.6784140969163,239.77608621719355 234.1850220264317,210.33118358508972 239.69162995594715,211.8680020482724 245.19823788546256,269.90704499952295 250.70484581497797,347.40577470509345 256.2114537444934,354.2801164994335 261.7180616740088,362.13731276460874 267.22466960352426,327.695763279241 272.73127753303964,288.95542161883554 278.237885462555,285.21468562945216 283.74449339207047,275.0658719863644 289.2511013215859,231.11238444313406 294.75770925110135,267.66979079899585 300.26431718061673,218.0671023591792 305.77092511013217,212.53305799849136 311.27753303964755,215.38321217156786 316.784140969163,219.37234955027387 322.29074889867843,228.97252199604839 327.79735682819387,253.30991052549078 333.30396475770925,244.32003603094338 338.8105726872247,310.1361443476772 344.3171806167401,259.736751834072 349.8237885462555,220.27736487203197 355.3303964757709,229.1217102270337 360.83700440528634,203.47391754522954 366.3436123348018,199.57704919362098 371.85022026431716,202.0629204735163 377.3568281938326,204.45262825306153 382.86343612334804,214.66588559513417 388.3700440528634,221.12576056219604 393.87665198237886,219.4847830474057 399.3832599118943,236.827371957058 404.8898678414097,211.54775664168758 410.3964757709251,216.8019981897864 415.9030837004405,234.089648180245 421.40969162995594,215.52580975358146 426.9162995594714,234.55449832494338 432.42290748898677,224.96813626889968 437.9295154185022,202.69202744757987 443.43612334801765,185.34035833470534 448.942731277533,204.8309911694259 454.44933920704847,208.91119926933766 459.95594713656385,255.60839779768335 465.4625550660793,281.56604491824476 470.96916299559473,280.19683852420775 476.4757709251101,260.2112782424283 481.98237885462555,290.4448413712163 487.488986784141,354.2337423288855 492.9955947136564,346.0657768437351 498.5022026431718,314.50048412245064 504.00881057268725,242.82725505435712 509.51541850220264,241.35844005351632 515.0220264317181,261.04978797167195 520.5286343612335,341.50690820939417 526.0352422907489,326.56070985998684 531.5418502202643,306.6302060712936 537.0484581497797,321.8050302356775 542.5550660792951,287.2945132940479 548.0616740088105,263.46849458663337 553.568281938326,263.24627004199357 559.0748898678414,260.0288372193648 564.5814977973569,255.7994408968258 570.0881057268723,237.87438570788387 575.5947136563877,233.0216641933285 581.1013215859031,256.1121969375573 586.6079295154185,283.23569483310973 592.114537444934,274.0400766831802 597.6211453744494,307.66931104502504 603.1277533039647,281.42269839713833 608.6343612334801,282.2803509564355 614.1409691629956,261.211797992117 619.647577092511,236.10479765836337 625.1541850220265,240.93813668168693 630.6607929515418,229.52332013560854 636.1674008810572,261.38501211832147 641.6740088105727,330.7932763230367 647.1806167400881,356.3437671264309 652.6872246696036,365.0962628572182 658.193832599119,359.0084845284309 663.7004405286343,325.81527265884216 669.2070484581498,308.9203142373889 674.7136563876652,285.3333172357203 680.2202643171806,288.4372172156503 685.7268722466961,259.48421032589334 691.2334801762114,219.57006888569597 696.7400881057268,230.81233036963124 702.2466960352423,265.1344896894241 707.7533039647577,229.61154489494825 713.2599118942732,258.06871962798164 718.7665198237886,299.44715248726357 724.2731277533039,285.0807757191836 729.7797356828194,258.7220921584427 735.2863436123348,263.1128094901657 740.7929515418502,252.83365086549412 746.2995594713657,233.45628724116125 751.806167400881,247.46107729177916 757.3127753303964,253.69283125017643 762.8193832599119,253.39415522427 768.3259911894273,223.3420145627166 773.8325991189428,215.32749126521352 779.3392070484582,235.1620359183286 784.8458149779735,234.9292663319908 790.352422907489,258.45613397886575 795.8590308370044,246.32868473512144 801.3656387665199,251.16160435556196 806.8722466960353,282.5348696567982 812.3788546255506,330.1119025424263 817.885462555066,258.7391679212807 823.3920704845815,301.3009510006401 828.8986784140969,251.79682265624064 834.4052863436124,238.61313704417677 839.9118942731277,275.3040788491189 845.4185022026431,356.7906128191357 850.9251101321586,365.07415424306765 856.431718061674,336.0029154748745 861.9383259911895,331.6952659412241 867.4449339207049,322.6388935603632 872.9515418502202,299.6175506071597 878.4581497797357,254.45656711804364 883.9647577092511,244.77802986333202 889.4713656387665,243.40153984730605 894.977973568282,212.8311947909256 900.4845814977973,218.6551675946593 905.9911894273127,240.48668105096954 911.4977973568282,268.5571012577705 917.0044052863436,309.2626592731285 922.5110132158591,351.2678903136207 928.0176211453745,368.82758620689657 933.5242290748898,333.67739029451815 939.0308370044053,316.971826020722 944.5374449339207,310.71452732671617 950.0440528634361,261.5494786533073 955.5506607929516,252.77163889082001 961.0572687224669,261.56562573534785 966.5638766519824,262.30979937027854 972.0704845814978,301.29880904453023 977.5770925110132,290.7481308455523 983.0837004405287,305.8925332019451 988.590308370044,322.7402458999094 994.0969162995594,323.21948739998146 999.6035242290749,319.9639187201089 1005.1101321585903,291.64865254947006 1010.6167400881058,260.6954509505267 1016.1233480176212,272.23441127654246 1021.6299559471365,271.14695493172087 1027.136563876652,250.2171350400792 1032.6431718061674,265.52633346766765 1038.1497797356828,254.23554087093743 1043.6563876651983,262.28373636340166 1049.1629955947137,265.9073925430348 1054.669603524229,265.57845947306316 1060.1762114537446,259.6765373098773 1065.6828193832598,320.7272022289647 1071.1894273127755,232.40474991693725 1076.6960352422907,225.54299025923672 1082.2026431718061,235.3175152092756 1087.7092511013216,234.57876387298265 1093.215859030837,214.3338018256749 1098.7224669603524,179.17241379310343 1104.229074889868,182.23856137033175 1109.7356828193833,214.64505998822082 1115.2422907488988,275.7807771691429 1120.7488986784142,313.62032601278827 1126.2555066079294,246.3915954350352 1131.7621145374449,291.48867963232453 1137.2687224669603,256.2173476735881 1142.7753303964757,258.8189374402665 1148.2819383259912,262.39787434347136 1153.7885462555066,246.28824214112566 1159.295154185022,235.5244614499149 1164.8017621145375,194.71135609510083 1170.308370044053,184.93701497389495 1175.8149779735684,204.91187634905924 1181.3215859030836,237.0960905028349 1186.828193832599,292.9969868486438 1192.3348017621145,304.39795477487945 1197.84140969163,277.6485358667553 1203.3480176211453,262.0778570220472 1208.8546255506608,233.99399396616747 1214.3612334801762,242.30738392193226 1219.8678414096917,279.0970696594827 1225.374449339207,211.13654501566566 1230.8810572687225,258.3581088375554 1236.387665198238,252.91867017955846 1241.8942731277532,238.4360883641933 1247.4008810572686,232.90713676593356 1252.907488986784,237.75862352476818 1258.4140969162995,246.31430514800255 1263.920704845815,259.0572563856186 1269.4273127753304,278.1704849486881 1274.9339207048458,274.7491915168225 1280.4405286343613,235.79629205551888 1285.9471365638767,264.6222168711492 1291.4537444933922,241.9583684504591 1296.9603524229076,192.63530308152676 1302.4669603524228,187.45775266751485 1307.9735682819382,211.3737037097171 1313.4801762114537,206.63742691198334 1318.9867841409691,207.31628469320236 1324.4933920704846,218.60394031450346 1330.0,205.19247803224275 1330.0,384" fill="#C27803" opacity="0.08" /><polyline points="80.0,238.9810148299586 85.50660792951541,244.9273639270662 91.01321585903084,244.3973263179761 96.51982378854626,224.22815667951545 102.02643171806167,228.36432533860176 107.53303964757708,213.44975673164927 113.03964757709251,202.40024164293908 118.54625550660793,228.44047723921642 124.05286343612335,250.32710893016014 129.55947136563876,258.09360499027787 135.06607929515417,279.3666869304993 140.5726872246696,247.95208031002767 146.07929515418502,223.87585677002795 151.58590308370043,221.1503256908873 157.09251101321587,201.2001451878752 162.59911894273128,204.61529734592608 168.1057268722467,199.73492508799322 173.61233480176213,217.7510509981409 179.1189427312775,222.49041341891902 184.62555066079295,258.3077802826392 190.13215859030836,228.3658831279028 195.63876651982378,238.88715164731235 201.14537444933922,275.52553948524513 206.65198237885463,303.8535196003209 212.15859030837004,265.76809028968614 217.66519823788545,242.74774791396197 223.1718061674009,227.15080794113234 228.6784140969163,239.77608621719355 234.1850220264317,210.33118358508972 239.69162995594715,211.8680020482724 245.19823788546256,269.90704499952295 250.70484581497797,347.40577470509345 256.2114537444934,354.2801164994335 261.7180616740088,362.13731276460874 267.22466960352426,327.695763279241 272.73127753303964,288.95542161883554 278.237885462555,285.21468562945216 283.74449339207047,275.0658719863644 289.2511013215859,231.11238444313406 294.75770925110135,267.66979079899585 300.26431718061673,218.0671023591792 305.77092511013217,212.53305799849136 311.27753303964755,215.38321217156786 316.784140969163,219.37234955027387 322.29074889867843,228.97252199604839 327.79735682819387,253.30991052549078 333.30396475770925,244.32003603094338 338.8105726872247,310.1361443476772 344.3171806167401,259.736751834072 349.8237885462555,220.27736487203197 355.3303964757709,229.1217102270337 360.83700440528634,203.47391754522954 366.3436123348018,199.57704919362098 371.85022026431716,202.0629204735163 377.3568281938326,204.45262825306153 382.86343612334804,214.66588559513417 388.3700440528634,221.12576056219604 393.87665198237886,219.4847830474057 399.3832599118943,236.827371957058 404.8898678414097,211.54775664168758 410.3964757709251,216.8019981897864 415.9030837004405,234.089648180245 421.40969162995594,215.52580975358146 426.9162995594714,234.55449832494338 432.42290748898677,224.96813626889968 437.9295154185022,202.69202744757987 443.43612334801765,185.34035833470534 448.942731277533,204.8309911694259 454.44933920704847,208.91119926933766 459.95594713656385,255.60839779768335 465.4625550660793,281.56604491824476 470.96916299559473,280.19683852420775 476.4757709251101,260.2112782424283 481.98237885462555,290.4448413712163 487.488986784141,354.2337423288855 492.9955947136564,346.0657768437351 498.5022026431718,314.50048412245064 504.00881057268725,242.82725505435712 509.51541850220264,241.35844005351632 515.0220264317181,261.04978797167195 520.5286343612335,341.50690820939417 526.0352422907489,326.56070985998684 531.5418502202643,306.6302060712936 537.0484581497797,321.8050302356775 542.5550660792951,287.2945132940479 548.0616740088105,263.46849458663337 553.568281938326,263.24627004199357 559.0748898678414,260.0288372193648 564.5814977973569,255.7994408968258 570.0881057268723,237.87438570788387 575.5947136563877,233.0216641933285 581.1013215859031,256.1121969375573 586.6079295154185,283.23569483310973 592.114537444934,274.0400766831802 597.6211453744494,307.66931104502504 603.1277533039647,281.42269839713833 608.6343612334801,282.2803509564355 614.1409691629956,261.211797992117 619.647577092511,236.10479765836337 625.1541850220265,240.93813668168693 630.6607929515418,229.52332013560854 636.1674008810572,261.38501211832147 641.6740088105727,330.7932763230367 647.1806167400881,356.3437671264309 652.6872246696036,365.0962628572182 658.193832599119,359.0084845284309 663.7004405286343,325.81527265884216 669.2070484581498,308.9203142373889 674.7136563876652,285.3333172357203 680.2202643171806,288.4372172156503 685.7268722466961,259.48421032589334 691.2334801762114,219.57006888569597 696.7400881057268,230.81233036963124 702.2466960352423,265.1344896894241 707.7533039647577,229.61154489494825 713.2599118942732,258.06871962798164 718.7665198237886,299.44715248726357 724.2731277533039,285.0807757191836 729.7797356828194,258.7220921584427 735.2863436123348,263.1128094901657 740.7929515418502,252.83365086549412 746.2995594713657,233.45628724116125 751.806167400881,247.46107729177916 757.3127753303964,253.69283125017643 762.8193832599119,253.39415522427 768.3259911894273,223.3420145627166 773.8325991189428,215.32749126521352 779.3392070484582,235.1620359183286 784.8458149779735,234.9292663319908 790.352422907489,258.45613397886575 795.8590308370044,246.32868473512144 801.3656387665199,251.16160435556196 806.8722466960353,282.5348696567982 812.3788546255506,330.1119025424263 817.885462555066,258.7391679212807 823.3920704845815,301.3009510006401 828.8986784140969,251.79682265624064 834.4052863436124,238.61313704417677 839.9118942731277,275.3040788491189 845.4185022026431,356.7906128191357 850.9251101321586,365.07415424306765 856.431718061674,336.0029154748745 861.9383259911895,331.6952659412241 867.4449339207049,322.6388935603632 872.9515418502202,299.6175506071597 878.4581497797357,254.45656711804364 883.9647577092511,244.77802986333202 889.4713656387665,243.40153984730605 894.977973568282,212.8311947909256 900.4845814977973,218.6551675946593 905.9911894273127,240.48668105096954 911.4977973568282,268.5571012577705 917.0044052863436,309.2626592731285 922.5110132158591,351.2678903136207 928.0176211453745,368.82758620689657 933.5242290748898,333.67739029451815 939.0308370044053,316.971826020722 944.5374449339207,310.71452732671617 950.0440528634361,261.5494786533073 955.5506607929516,252.77163889082001 961.0572687224669,261.56562573534785 966.5638766519824,262.30979937027854 972.0704845814978,301.29880904453023 977.5770925110132,290.7481308455523 983.0837004405287,305.8925332019451 988.590308370044,322.7402458999094 994.0969162995594,323.21948739998146 999.6035242290749,319.9639187201089 1005.1101321585903,291.64865254947006 1010.6167400881058,260.6954509505267 1016.1233480176212,272.23441127654246 1021.6299559471365,271.14695493172087 1027.136563876652,250.2171350400792 1032.6431718061674,265.52633346766765 1038.1497797356828,254.23554087093743 1043.6563876651983,262.28373636340166 1049.1629955947137,265.9073925430348 1054.669603524229,265.57845947306316 1060.1762114537446,259.6765373098773 1065.6828193832598,320.7272022289647 1071.1894273127755,232.40474991693725 1076.6960352422907,225.54299025923672 1082.2026431718061,235.3175152092756 1087.7092511013216,234.57876387298265 1093.215859030837,214.3338018256749 1098.7224669603524,179.17241379310343 1104.229074889868,182.23856137033175 1109.7356828193833,214.64505998822082 1115.2422907488988,275.7807771691429 1120.7488986784142,313.62032601278827 1126.2555066079294,246.3915954350352 1131.7621145374449,291.48867963232453 1137.2687224669603,256.2173476735881 1142.7753303964757,258.8189374402665 1148.2819383259912,262.39787434347136 1153.7885462555066,246.28824214112566 1159.295154185022,235.5244614499149 1164.8017621145375,194.71135609510083 1170.308370044053,184.93701497389495 1175.8149779735684,204.91187634905924 1181.3215859030836,237.0960905028349 1186.828193832599,292.9969868486438 1192.3348017621145,304.39795477487945 1197.84140969163,277.6485358667553 1203.3480176211453,262.0778570220472 1208.8546255506608,233.99399396616747 1214.3612334801762,242.30738392193226 1219.8678414096917,279.0970696594827 1225.374449339207,211.13654501566566 1230.8810572687225,258.3581088375554 1236.387665198238,252.91867017955846 1241.8942731277532,238.4360883641933 1247.4008810572686,232.90713676593356 1252.907488986784,237.75862352476818 1258.4140969162995,246.31430514800255 1263.920704845815,259.0572563856186 1269.4273127753304,278.1704849486881 1274.9339207048458,274.7491915168225 1280.4405286343613,235.79629205551888 1285.9471365638767,264.6222168711492 1291.4537444933922,241.9583684504591 1296.9603524229076,192.63530308152676 1302.4669603524228,187.45775266751485 1307.9735682819382,211.3737037097171 1313.4801762114537,206.63742691198334 1318.9867841409691,207.31628469320236 1324.4933920704846,218.60394031450346 1330.0,205.19247803224275" stroke="#C27803" stroke-width="2" fill="none" opacity="0.35" /><polyline points="107.53303964757708,232.39132397079456 113.03964757709251,228.10688363824377 118.54625550660793,228.14858283836537 124.05286343612335,230.61286351523145 129.55947136563876,233.3609376627361 135.06607929515417,237.54327850526002 140.5726872246696,238.4106786556573 146.07929515418502,237.15191548399642 151.58590308370043,235.17049563098152 157.09251101321587,231.57073053680645 162.59911894273128,229.93632559234067 168.1057268722467,227.55054223812328 173.61233480176213,227.9089834269976 179.1189427312775,229.58316440832922 184.62555066079295,232.07210632861447 190.13215859030836,230.24200417842636 195.63876651982378,228.6414663998459 201.14537444933922,228.32137077940808 206.65198237885463,232.97982405359917 212.15859030837004,236.47084351357066 217.66519823788545,238.2706286988269 223.1718061674009,240.433183928265 228.6784140969163,243.3632496675373 234.1850220264317,244.246271208962 239.69162995594715,243.75601712980628 245.19823788546256,247.70740309485663 250.70484581497797,255.1322359633945 256.2114537444934,265.62508874435537 261.7180616740088,275.8959355041301 267.22466960352426,280.2434541536297 272.73127753303964,279.00194598850595 278.237885462555,280.6224956001531 283.74449339207047,283.31567260618664 289.2511013215859,283.6458039813535 294.75770925110135,285.97027936317033 300.26431718061673,286.61493926101116 305.77092511013217,286.670360590196 311.27753303964755,282.1267078545331 316.784140969163,271.4572557582981 322.29074889867843,261.0149562163494 327.79735682819387,251.9460060297562 333.30396475770925,244.99802875906474 338.8105726872247,246.7630889864682 344.3171806167401,244.63992783685316 349.8237885462555,240.0742189106588 355.3303964757709,239.90832939265044 360.83700440528634,234.5586732881699 366.3436123348018,233.0178355243734 371.85022026431716,232.14532406395884 377.3568281938326,231.23444207074996 382.86343612334804,230.842236741155 388.3700440528634,230.18833995500063 393.87665198237886,227.36957933182688 399.3832599118943,226.74519065900307 404.8898678414097,218.52949168350395 410.3964757709251,214.95159554648015 415.9030837004405,216.1026191554979 421.40969162995594,214.96962744937687 426.9162995594714,217.55967584768638 432.42290748898677,219.67559977062626 437.9295154185022,219.7280253517982 443.43612334801765,218.13533619193524 448.942731277533,217.3157616564595 454.44933920704847,216.2978815487213 459.95594713656385,219.30818277791116 465.4625550660793,223.0364055246767 470.96916299559473,228.75716234822005 476.4757709251101,232.3746023526069 481.98237885462555,237.07086845185447 487.488986784141,248.62986283312983 492.9955947136564,257.92246937636247 498.5022026431718,265.3834983641584 504.00881057268725,268.7281006647232 509.51541850220264,273.39627414129075 515.0220264317181,278.0811738748112 520.5286343612335,289.1308162864826 526.0352422907489,295.04350895834125 531.5418502202643,297.13218905442864 537.0484581497797,300.5995383637178 542.5550660792951,302.85647461801943 548.0616740088105,300.60844571930414 553.568281938326,293.02615636206315 559.0748898678414,285.85641139336565 564.5814977973569,280.96465779123025 570.0881057268723,280.55191867902414 575.5947136563877,279.85718735734184 581.1013215859031,279.4457214378323 586.6079295154185,274.58978698980854 592.114537444934,270.213067558408 597.6211453744494,270.29965963955226 603.1277533039647,266.934465319674 608.6343612334801,266.5166184582063 614.1409691629956,266.3285604086633 619.647577092511,264.0667710433608 625.1541850220265,262.47587933188765 630.6607929515418,260.2862026017862 636.1674008810572,262.24542146932265 641.6740088105727,270.393055813465 647.1806167400881,278.7456866625378 652.6872246696036,285.5674006645469 658.193832599119,292.64810131831774 663.7004405286343,294.1602647861358 669.2070484581498,296.4517327728234 674.7136563876652,296.70614662943046 680.2202643171806,298.9749315647249 685.7268722466961,300.9232159536857 691.2334801762114,299.1425436373531 696.7400881057268,299.2499611568551 702.2466960352423,299.5624176211136 707.7533039647577,291.1306066687729 713.2599118942732,282.9410193772355 718.7665198237886,277.4702601797392 724.2731277533039,271.30961777896863 729.7797356828194,265.7185194039353 735.2863436123348,261.90122734166675 740.7929515418502,259.19292181081454 746.2995594713657,254.6111776462738 751.806167400881,253.60924989343096 757.3127753303964,256.45281342380434 762.8193832599119,258.3346321616909 768.3259911894273,254.85192590113192 773.8325991189428,253.66158809865402 779.3392070484582,251.75269778951628 784.8458149779735,246.37620727657688 790.352422907489,244.15748713155037 795.8590308370044,243.12470317960694 801.3656387665199,242.12876941838994 806.8722466960353,244.603870984332 812.3788546255506,252.65850559277072 817.885462555066,253.59834647856255 823.3920704845815,257.5656897911012 828.8986784140969,257.43257874376536 834.4052863436124,258.70517228388707 839.9118942731277,263.70322124921256 845.4185022026431,273.8389359909464 850.9251101321586,284.6843433168695 856.431718061674,291.1465751082036 861.9383259911895,298.2604568753788 867.4449339207049,304.2168976424456 872.9515418502202,305.640454388309 878.4581497797357,299.33584310294384 883.9647577092511,298.1724149314481 889.4713656387665,293.34746400200356 894.977973568282,290.1003283465607 900.4845814977973,288.43716422576756 905.9911894273127,285.5357144092551 911.4977973568282,278.18292177914134 917.0044052863436,273.53196386497973 922.5110132158591,274.80404510154193 928.0176211453745,277.8984051236813 933.5242290748898,278.81827985152756 939.0308370044053,280.2644694693244 944.5374449339207,284.9526328200471 950.0440528634361,286.35025355254504 955.5506607929516,287.1310951395045 961.0572687224669,291.19229771820636 966.5638766519824,294.830183699508 972.0704845814978,299.8978610323047 977.5770925110132,301.7471134979532 983.0837004405287,301.4662696586879 988.590308370044,299.08896595754527 994.0969162995594,295.288291056969 999.6035242290749,294.1455017591016 1005.1101321585903,292.0352373031639 1010.6167400881058,287.8669809384815 1016.1233480176212,288.7573919904178 1021.6299559471365,290.2886683271595 1027.136563876652,289.34296076922044 1032.6431718061674,289.6110052773362 1038.1497797356828,285.68906626287014 1043.6563876651983,283.31703338935756 1049.1629955947137,279.9849383344484 1054.669603524229,275.2214561322112 1060.1762114537446,269.92621029136916 1065.6828193832598,269.9898172504405 1071.1894273127755,265.0528253643961 1076.6960352422907,262.12345364012197 1082.2026431718061,259.0470456345164 1087.7092511013216,255.99969637962153 1093.215859030837,253.0094186117545 1098.7224669603524,245.81325863887415 1104.229074889868,239.813510347157 1109.7356828193833,235.84362064922522 1115.2422907488988,236.6664027014009 1120.7488986784142,240.66989157971133 1126.2555066079294,239.5628130901412 1131.7621145374449,237.12626954042116 1137.2687224669603,239.11065268680872 1142.7753303964757,241.88364828522788 1148.2819383259912,244.1403448797442 1153.7885462555066,245.11613473542278 1159.295154185022,246.8820230374428 1164.8017621145375,248.17693489594257 1170.308370044053,248.40180602957284 1175.8149779735684,247.59070739297604 1181.3215859030836,244.36698350411706 1186.828193832599,242.648371907105 1192.3348017621145,247.48223518542534 1197.84140969163,246.32888987162792 1203.3480176211453,246.81726565066617 1208.8546255506608,244.7485203611579 1214.3612334801762,243.07431282602968 1219.8678414096917,245.80838178589275 1225.374449339207,243.77605541637197 1230.8810572687225,249.0799514782432 1236.387665198238,254.74508941204851 1241.8942731277532,257.538773746643 1247.4008810572686,257.1896942685679 1252.907488986784,252.5864973249116 1258.4140969162995,247.7461931893385 1263.920704845815,246.19691989924377 1269.4273127753304,247.53797222646386 1274.9339207048458,250.93423868901843 1280.4405286343613,250.39164770015066 1285.9471365638767,249.18540996778952 1291.4537444933922,251.75389525402232 1296.9603524229076,246.27699477435328 1302.4669603524228,240.82191831501632 1307.9735682819382,238.56671959380992 1313.4801762114537,236.37757710598075 1318.9867841409691,233.84071553668358 1324.4933920704846,231.53151846722534 1330.0,227.04278693777735" stroke="#011E42" stroke-width="4" fill="none" opacity="1.0" /><line x1="80.0" y1="384" x2="1330.0" y2="384" stroke="#E2E8F0" stroke-width="2" /><line x1="80.0" y1="378" x2="80.0" y2="390" stroke="#E2E8F0" stroke-width="1" /><text x="80.0" y="406" font-family="Inter, Arial, sans-serif" font-size="11" font-weight="500" fill="#64748B" text-anchor="middle">2007</text><line x1="124.05286343612335" y1="378" x2="124.05286343612335" y2="390" stroke="#E2E8F0" stroke-width="1" /><text x="124.05286343612335" y="406" font-family="Inter, Arial, sans-serif" font-size="11" font-weight="500" fill="#64748B" text-anchor="middle">2008</text><line x1="190.13215859030836" y1="378" x2="190.13215859030836" y2="390" stroke="#E2E8F0" stroke-width="1" /><text x="190.13215859030836" y="406" font-family="Inter, Arial, sans-serif" font-size="11" font-weight="500" fill="#64748B" text-anchor="middle">2009</text><line x1="256.2114537444934" y1="378" x2="256.2114537444934" y2="390" stroke="#E2E8F0" stroke-width="1" /><text x="256.2114537444934" y="406" font-family="Inter, Arial, sans-serif" font-size="11" font-weight="500" fill="#64748B" text-anchor="middle">2010</text><line x1="322.29074889867843" y1="378" x2="322.29074889867843" y2="390" stroke="#E2E8F0" stroke-width="1" /><text x="322.29074889867843" y="406" font-family="Inter, Arial, sans-serif" font-size="11" font-weight="500" fill="#64748B" text-anchor="middle">2011</text><line x1="388.3700440528634" y1="378" x2="388.3700440528634" y2="390" stroke="#E2E8F0" stroke-width="1" /><text x="388.3700440528634" y="406" font-family="Inter, Arial, sans-serif" font-size="11" font-weight="500" fill="#64748B" text-anchor="middle">2012</text><line x1="454.44933920704847" y1="378" x2="454.44933920704847" y2="390" stroke="#E2E8F0" stroke-width="1" /><text x="454.44933920704847" y="406" font-family="Inter, Arial, sans-serif" font-size="11" font-weight="500" fill="#64748B" text-anchor="middle">2013</text><line x1="520.5286343612335" y1="378" x2="520.5286343612335" y2="390" stroke="#E2E8F0" stroke-width="1" /><text x="520.5286343612335" y="406" font-family="Inter, Arial, sans-serif" font-size="11" font-weight="500" fill="#64748B" text-anchor="middle">2014</text><line x1="586.6079295154185" y1="378" x2="586.6079295154185" y2="390" stroke="#E2E8F0" stroke-width="1" /><text x="586.6079295154185" y="406" font-family="Inter, Arial, sans-serif" font-size="11" font-weight="500" fill="#64748B" text-anchor="middle">2015</text><line x1="652.6872246696036" y1="378" x2="652.6872246696036" y2="390" stroke="#E2E8F0" stroke-width="1" /><text x="652.6872246696036" y="406" font-family="Inter, Arial, sans-serif" font-size="11" font-weight="500" fill="#64748B" text-anchor="middle">2016</text><line x1="718.7665198237886" y1="378" x2="718.7665198237886" y2="390" stroke="#E2E8F0" stroke-width="1" /><text x="718.7665198237886" y="406" font-family="Inter, Arial, sans-serif" font-size="11" font-weight="500" fill="#64748B" text-anchor="middle">2017</text><line x1="784.8458149779735" y1="378" x2="784.8458149779735" y2="390" stroke="#E2E8F0" stroke-width="1" /><text x="784.8458149779735" y="406" font-family="Inter, Arial, sans-serif" font-size="11" font-weight="500" fill="#64748B" text-anchor="middle">2018</text><line x1="850.9251101321586" y1="378" x2="850.9251101321586" y2="390" stroke="#E2E8F0" stroke-width="1" /><text x="850.9251101321586" y="406" font-family="Inter, Arial, sans-serif" font-size="11" font-weight="500" fill="#64748B" text-anchor="middle">2019</text><line x1="917.0044052863436" y1="378" x2="917.0044052863436" y2="390" stroke="#E2E8F0" stroke-width="1" /><text x="917.0044052863436" y="406" font-family="Inter, Arial, sans-serif" font-size="11" font-weight="500" fill="#64748B" text-anchor="middle">2020</text><line x1="983.0837004405287" y1="378" x2="983.0837004405287" y2="390" stroke="#E2E8F0" stroke-width="1" /><text x="983.0837004405287" y="406" font-family="Inter, Arial, sans-serif" font-size="11" font-weight="500" fill="#64748B" text-anchor="middle">2021</text><line x1="1049.1629955947137" y1="378" x2="1049.1629955947137" y2="390" stroke="#E2E8F0" stroke-width="1" /><text x="1049.1629955947137" y="406" font-family="Inter, Arial, sans-serif" font-size="11" font-weight="500" fill="#64748B" text-anchor="middle">2022</text><line x1="1115.2422907488988" y1="378" x2="1115.2422907488988" y2="390" stroke="#E2E8F0" stroke-width="1" /><text x="1115.2422907488988" y="406" font-family="Inter, Arial, sans-serif" font-size="11" font-weight="500" fill="#64748B" text-anchor="middle">2023</text><line x1="1181.3215859030836" y1="378" x2="1181.3215859030836" y2="390" stroke="#E2E8F0" stroke-width="1" /><text x="1181.3215859030836" y="406" font-family="Inter, Arial, sans-serif" font-size="11" font-weight="500" fill="#64748B" text-anchor="middle">2024</text><line x1="1247.4008810572686" y1="378" x2="1247.4008810572686" y2="390" stroke="#E2E8F0" stroke-width="1" /><text x="1247.4008810572686" y="406" font-family="Inter, Arial, sans-serif" font-size="11" font-weight="500" fill="#64748B" text-anchor="middle">2025</text><line x1="1313.4801762114537" y1="378" x2="1313.4801762114537" y2="390" stroke="#E2E8F0" stroke-width="1" /><text x="1313.4801762114537" y="406" font-family="Inter, Arial, sans-serif" font-size="11" font-weight="500" fill="#64748B" text-anchor="middle">2026</text><line x1="1330.0" y1="378" x2="1330.0" y2="390" stroke="#E2E8F0" stroke-width="1" /><text x="1330.0" y="406" font-family="Inter, Arial, sans-serif" font-size="11" font-weight="500" fill="#64748B" text-anchor="middle">2026</text><rect x="62" y="432" width="1286" height="304" rx="18" fill="#FFFFFF" stroke="#E2E8F0" /><text x="80" y="456" font-family="Inter, Arial, sans-serif" font-size="15" font-weight="700" fill="#011E42" text-anchor="start">Turbidity (FNU)</text><rect x="1190" y="438" width="72" height="24" rx="12" fill="#DBEAFE" stroke="none" /><text x="1200" y="455" font-family="Inter, Arial, sans-serif" font-size="11" font-weight="700" fill="#B91C1C" text-anchor="start">2013–2026</text><line x1="80" y1="476.0" x2="1330" y2="476.0" stroke="#E2E8F0" stroke-width="1" stroke-dasharray="4 6" /><line x1="80" y1="586.0" x2="1330" y2="586.0" stroke="#E2E8F0" stroke-width="1" stroke-dasharray="4 6" /><line x1="80" y1="696.0" x2="1330" y2="696.0" stroke="#E2E8F0" stroke-width="1" stroke-dasharray="4 6" /><text x="74" y="482" font-family="Inter, Arial, sans-serif" font-size="11" font-weight="500" fill="#64748B" text-anchor="end">103.7</text><text x="74" y="590.0" font-family="Inter, Arial, sans-serif" font-size="11" font-weight="500" fill="#64748B" text-anchor="end">52.2</text><text x="74" y="700" font-family="Inter, Arial, sans-serif" font-size="11" font-weight="500" fill="#64748B" text-anchor="end">0.6</text><polygon points="80.0,696 80.0,623.2845027923079 88.27814569536423,613.0890351651118 96.55629139072848,645.0257851832533 104.83443708609272,635.1867214573102 113.11258278145695,581.8113206127647 121.3907284768212,560.349767465332 129.66887417218544,557.2654758521212 137.94701986754967,594.5063441002459 146.2251655629139,605.6963716375561 154.50331125827813,640.8743153994932 162.7814569536424,629.4231058071899 171.05960264900662,620.6514869796569 179.33774834437088,621.5347680262985 187.6158940397351,621.8055864254419 195.89403973509934,618.5758662473011 204.17218543046357,603.3604010411327 212.4503311258278,590.0712807197276 220.72847682119206,609.7452258787584 229.0066225165563,592.2372261748213 237.28476821192052,609.8935777810414 245.56291390728478,612.0726014365996 253.841059602649,625.7952996315531 262.11920529801324,641.4184018264525 270.3973509933775,619.2495888160157 278.67549668874176,634.0721617495911 286.95364238410593,619.8163129699659 295.2317880794702,567.4542112681139 303.50993377483445,580.5723270234848 311.7880794701987,533.9494449747046 320.0662251655629,510.0485716532181 328.34437086092714,559.0161281619712 336.6225165562914,570.6573162734054 344.9006622516556,608.1812425287441 353.1788079470199,580.2121014454441 361.4569536423841,598.1614525397011 369.73509933774835,631.21046840596 378.0132450331126,634.9162081948394 386.2913907284768,583.7983002086389 394.56953642384104,607.5866783876083 402.8476821192053,578.0392722777221 411.12582781456956,572.3123669165219 419.4039735099338,575.5989790804326 427.682119205298,608.0964252028732 435.96026490066225,617.9855078710724 444.2384105960265,633.3167585746472 452.5165562913907,645.205975856809 460.79470198675494,638.5320052152773 469.07284768211923,656.2748577336248 477.35099337748346,602.3090238290497 485.6291390728477,616.3287736416994 493.9072847682119,629.0576779689546 502.18543046357615,632.8968777102 510.4635761589404,628.6223482268173 518.7417218543046,618.7580883202437 527.0198675496689,613.0587476830767 535.2980132450332,618.883350125084 543.5761589403974,607.4136018795525 551.8543046357615,593.0482325065125 560.1324503311258,640.3560802367903 568.4105960264901,597.8241698253239 576.6887417218543,605.0023820190762 584.9668874172185,615.5142507698932 593.2450331125827,583.9652590464824 601.523178807947,491.1724137931035 609.8013245033112,541.2069137518885 618.0794701986755,595.2301496259032 626.3576158940398,597.0968349566143 634.635761589404,615.8018964963107 642.9139072847682,614.4289841827446 651.1920529801324,626.2007259797748 659.4701986754967,627.5531429245269 667.7483443708609,633.2135092866924 676.0264900662252,625.6886084872842 684.3046357615895,622.6866482962828 692.5827814569536,622.1772855691373 700.8609271523179,618.8205282455156 709.1390728476821,620.4243372658626 717.4172185430464,572.0692370031392 725.6953642384105,588.8735872723943 733.9735099337748,599.430733611016 742.2516556291391,615.7046880609445 750.5298013245033,630.7528828911281 758.8079470198676,663.387599973608 767.0860927152318,665.8311707228494 775.364238410596,665.7049017536073 783.6423841059602,668.8024614775193 791.9205298013245,658.5637071192705 800.1986754966888,656.9058248931851 808.476821192053,651.773178536448 816.7549668874173,661.5384141243799 825.0331125827814,636.2100388984505 833.3112582781457,662.9001089310375 841.5894039735099,673.7859706851517 849.8675496688742,673.7754936147845 858.1456953642385,670.6609529283505 866.4238410596026,674.2356802597136 874.7019867549669,673.5929322640031 882.9801324503311,674.7312776954255 891.2582781456954,668.9957303515395 899.5364238410596,670.9798783644449 907.8145695364238,670.0001570586755 916.0927152317881,667.6429549245427 924.3708609271523,670.3236723477963 932.6490066225166,665.1761873867142 940.9271523178808,674.2287965470854 949.205298013245,678.2873426118331 957.4834437086092,680.8275862068965 965.7615894039735,678.1018003104808 974.0397350993378,678.3039394862355 982.317880794702,677.7943463062184 990.5960264900663,670.8165918357871 998.8741721854304,666.8957883059363 1007.1523178807947,647.8542869119024 1015.4304635761589,637.5916145329313 1023.7086092715232,666.815484015468 1031.9867549668875,657.2834133880441 1040.2649006622516,672.957680388089 1048.5430463576158,669.6702018920869 1056.8211920529802,671.3768163652285 1065.0993377483444,672.3198273820776 1073.3774834437086,665.8021080551506 1081.655629139073,650.396519229895 1089.933774834437,663.6397260842755 1098.2119205298013,663.7225866945604 1106.4900662251655,655.4626265875975 1114.76821192053,643.4125019892952 1123.046357615894,646.0439793156459 1131.3245033112582,657.0297253190245 1139.6026490066224,654.1601005557284 1147.8807947019868,673.8537323646997 1156.158940397351,674.5704728027835 1164.4370860927152,656.5524830277726 1172.7152317880796,647.1049096527868 1180.9933774834437,648.2787576293761 1189.271523178808,631.3574653307107 1197.549668874172,639.6493943721424 1205.8278145695365,647.4596449045434 1214.1059602649007,649.6862528104455 1222.3841059602648,646.9938740451233 1230.6622516556292,656.9420017263838 1238.9403973509934,656.6281995990373 1247.2185430463576,671.8408268207681 1255.4966887417218,665.4718157445459 1263.7748344370862,654.5219094303501 1272.0529801324503,645.5402754867923 1280.3311258278145,647.2003726210328 1288.609271523179,646.6498633871886 1296.887417218543,652.7159420298424 1305.1655629139073,653.7762194171804 1313.4437086092714,648.2048441384495 1321.7218543046358,655.632414874587 1330.0,653.4180316399952 1330.0,696" fill="#B91C1C" opacity="0.08" /><polyline points="80.0,623.2845027923079 88.27814569536423,613.0890351651118 96.55629139072848,645.0257851832533 104.83443708609272,635.1867214573102 113.11258278145695,581.8113206127647 121.3907284768212,560.349767465332 129.66887417218544,557.2654758521212 137.94701986754967,594.5063441002459 146.2251655629139,605.6963716375561 154.50331125827813,640.8743153994932 162.7814569536424,629.4231058071899 171.05960264900662,620.6514869796569 179.33774834437088,621.5347680262985 187.6158940397351,621.8055864254419 195.89403973509934,618.5758662473011 204.17218543046357,603.3604010411327 212.4503311258278,590.0712807197276 220.72847682119206,609.7452258787584 229.0066225165563,592.2372261748213 237.28476821192052,609.8935777810414 245.56291390728478,612.0726014365996 253.841059602649,625.7952996315531 262.11920529801324,641.4184018264525 270.3973509933775,619.2495888160157 278.67549668874176,634.0721617495911 286.95364238410593,619.8163129699659 295.2317880794702,567.4542112681139 303.50993377483445,580.5723270234848 311.7880794701987,533.9494449747046 320.0662251655629,510.0485716532181 328.34437086092714,559.0161281619712 336.6225165562914,570.6573162734054 344.9006622516556,608.1812425287441 353.1788079470199,580.2121014454441 361.4569536423841,598.1614525397011 369.73509933774835,631.21046840596 378.0132450331126,634.9162081948394 386.2913907284768,583.7983002086389 394.56953642384104,607.5866783876083 402.8476821192053,578.0392722777221 411.12582781456956,572.3123669165219 419.4039735099338,575.5989790804326 427.682119205298,608.0964252028732 435.96026490066225,617.9855078710724 444.2384105960265,633.3167585746472 452.5165562913907,645.205975856809 460.79470198675494,638.5320052152773 469.07284768211923,656.2748577336248 477.35099337748346,602.3090238290497 485.6291390728477,616.3287736416994 493.9072847682119,629.0576779689546 502.18543046357615,632.8968777102 510.4635761589404,628.6223482268173 518.7417218543046,618.7580883202437 527.0198675496689,613.0587476830767 535.2980132450332,618.883350125084 543.5761589403974,607.4136018795525 551.8543046357615,593.0482325065125 560.1324503311258,640.3560802367903 568.4105960264901,597.8241698253239 576.6887417218543,605.0023820190762 584.9668874172185,615.5142507698932 593.2450331125827,583.9652590464824 601.523178807947,491.1724137931035 609.8013245033112,541.2069137518885 618.0794701986755,595.2301496259032 626.3576158940398,597.0968349566143 634.635761589404,615.8018964963107 642.9139072847682,614.4289841827446 651.1920529801324,626.2007259797748 659.4701986754967,627.5531429245269 667.7483443708609,633.2135092866924 676.0264900662252,625.6886084872842 684.3046357615895,622.6866482962828 692.5827814569536,622.1772855691373 700.8609271523179,618.8205282455156 709.1390728476821,620.4243372658626 717.4172185430464,572.0692370031392 725.6953642384105,588.8735872723943 733.9735099337748,599.430733611016 742.2516556291391,615.7046880609445 750.5298013245033,630.7528828911281 758.8079470198676,663.387599973608 767.0860927152318,665.8311707228494 775.364238410596,665.7049017536073 783.6423841059602,668.8024614775193 791.9205298013245,658.5637071192705 800.1986754966888,656.9058248931851 808.476821192053,651.773178536448 816.7549668874173,661.5384141243799 825.0331125827814,636.2100388984505 833.3112582781457,662.9001089310375 841.5894039735099,673.7859706851517 849.8675496688742,673.7754936147845 858.1456953642385,670.6609529283505 866.4238410596026,674.2356802597136 874.7019867549669,673.5929322640031 882.9801324503311,674.7312776954255 891.2582781456954,668.9957303515395 899.5364238410596,670.9798783644449 907.8145695364238,670.0001570586755 916.0927152317881,667.6429549245427 924.3708609271523,670.3236723477963 932.6490066225166,665.1761873867142 940.9271523178808,674.2287965470854 949.205298013245,678.2873426118331 957.4834437086092,680.8275862068965 965.7615894039735,678.1018003104808 974.0397350993378,678.3039394862355 982.317880794702,677.7943463062184 990.5960264900663,670.8165918357871 998.8741721854304,666.8957883059363 1007.1523178807947,647.8542869119024 1015.4304635761589,637.5916145329313 1023.7086092715232,666.815484015468 1031.9867549668875,657.2834133880441 1040.2649006622516,672.957680388089 1048.5430463576158,669.6702018920869 1056.8211920529802,671.3768163652285 1065.0993377483444,672.3198273820776 1073.3774834437086,665.8021080551506 1081.655629139073,650.396519229895 1089.933774834437,663.6397260842755 1098.2119205298013,663.7225866945604 1106.4900662251655,655.4626265875975 1114.76821192053,643.4125019892952 1123.046357615894,646.0439793156459 1131.3245033112582,657.0297253190245 1139.6026490066224,654.1601005557284 1147.8807947019868,673.8537323646997 1156.158940397351,674.5704728027835 1164.4370860927152,656.5524830277726 1172.7152317880796,647.1049096527868 1180.9933774834437,648.2787576293761 1189.271523178808,631.3574653307107 1197.549668874172,639.6493943721424 1205.8278145695365,647.4596449045434 1214.1059602649007,649.6862528104455 1222.3841059602648,646.9938740451233 1230.6622516556292,656.9420017263838 1238.9403973509934,656.6281995990373 1247.2185430463576,671.8408268207681 1255.4966887417218,665.4718157445459 1263.7748344370862,654.5219094303501 1272.0529801324503,645.5402754867923 1280.3311258278145,647.2003726210328 1288.609271523179,646.6498633871886 1296.887417218543,652.7159420298424 1305.1655629139073,653.7762194171804 1313.4437086092714,648.2048441384495 1321.7218543046358,655.632414874587 1330.0,653.4180316399952" stroke="#B91C1C" stroke-width="2" fill="none" opacity="0.35" /><polyline points="121.3907284768212,609.7911887793466 129.66887417218544,602.2875155040288 137.94701986754967,601.3148690785558 146.2251655629139,601.8017026962226 154.50331125827813,605.7089639665496 162.7814569536424,607.8647950429714 171.05960264900662,608.9303527043619 179.33774834437088,608.7845414738612 187.6158940397351,609.5109207455553 195.89403973509934,607.306760834226 204.17218543046357,604.6545674662111 212.4503311258278,605.3428974751248 220.72847682119206,609.4591856762436 229.0066225165563,612.3734982031353 237.28476821192052,613.6557676765349 245.56291390728478,614.1871201597885 253.841059602649,612.9305355124602 262.11920529801324,613.9301435140654 270.3973509933775,613.8133186670954 278.67549668874176,614.8581014773697 286.95364238410593,614.6923286894134 295.2317880794702,610.4321907744811 303.50993377483445,608.5331846063438 311.7880794701987,603.8563649609252 320.0662251655629,595.5483104421302 328.34437086092714,592.779885607726 336.6225165562914,589.5101971487563 344.9006622516556,589.1859172397684 353.1788079470199,585.387317390926 361.4569536423841,581.78257161703 369.73509933774835,582.7793115828587 378.0132450331126,582.8496487866294 386.2913907284768,579.8481477231855 394.56953642384104,583.1925199831434 402.8476821192053,582.9814320876632 411.12582781456956,586.1783422494813 419.4039735099338,591.6408762017492 427.682119205298,595.7309009551576 435.96026490066225,599.6749169216299 444.2384105960265,601.7695432587884 452.5165562913907,607.1856994597356 460.79470198675494,610.5499121827002 469.07284768211923,612.638611293339 477.35099337748346,609.9213459295231 485.6291390728477,612.6322187156115 493.9072847682119,614.4214686807237 502.18543046357615,618.9929358000968 510.4635761589404,623.6854342426215 518.7417218543046,627.2820266792723 527.0198675496689,627.6955535526226 535.2980132450332,627.770373740457 543.5761589403974,625.6117773491991 551.8543046357615,621.2652987366744 560.1324503311258,621.4173049884671 568.4105960264901,616.5464143294421 576.6887417218543,616.7708608452776 584.9668874172185,616.7029839392937 593.2450331125827,612.945282362421 601.523178807947,601.1349103693296 609.8013245033112,593.8502908297522 618.0794701986755,591.8896292718906 626.3576158940398,590.5594698780187 634.635761589404,590.302682075621 642.9139072847682,590.8872972675535 651.1920529801324,593.6500050569921 659.4701986754967,592.5830936143035 667.7483443708609,595.5322052360842 676.0264900662252,597.2560574417682 684.3046357615895,597.853757235634 692.5827814569536,601.0380927791887 700.8609271523179,611.675435650223 709.1390728476821,618.2768876097208 717.4172185430464,616.3468115578238 725.6953642384105,615.6615409174722 733.9735099337748,614.2972773436976 742.2516556291391,614.4035860002142 750.5298013245033,614.7829324094937 758.8079470198676,617.7691371635838 767.0860927152318,620.4872756165969 775.364238410596,623.8219667221238 783.6423841059602,627.6649511538934 791.9205298013245,630.6971529497379 800.1986754966888,633.870927670377 808.476821192053,636.4833311095924 816.7549668874173,643.9390958696958 825.0331125827814,647.8838001718672 833.3112582781457,653.1729147818689 841.5894039735099,658.0130216672196 849.8675496688742,661.5982392275243 858.1456953642385,662.2043519737529 866.4238410596026,662.9047277684915 874.7019867549669,663.5620636443579 882.9801324503311,664.0561316625167 891.2582781456954,664.9254669318725 899.5364238410596,666.0983047211441 907.8145695364238,667.6172195979964 916.0927152317881,668.1259313313433 924.3708609271523,670.9687341187888 932.6490066225166,671.1584073234285 940.9271523178808,671.1953094785896 949.205298013245,671.5712968950104 957.4834437086092,672.4185163348892 965.7615894039735,672.7406930057865 974.0397350993378,673.1332769409725 982.317880794702,673.3885326585386 990.5960264900663,673.5402711155592 998.8741721854304,673.1999302773502 1007.1523178807947,671.3544410984524 1015.4304635761589,668.8501627324848 1023.7086092715232,668.5578137047908 1031.9867549668875,667.9000825382349 1040.2649006622516,667.7941561916518 1048.5430463576158,667.076061131673 1056.8211920529802,666.2884969782007 1065.0993377483444,665.8066659008338 1073.3774834437086,664.76484661491 1081.655629139073,662.4816943585497 1089.933774834437,661.8836222125905 1098.2119205298013,661.6191887449758 1106.4900662251655,662.2532170512837 1114.76821192053,662.7382910059807 1123.046357615894,661.0073322809956 1131.3245033112582,660.9861916085772 1139.6026490066224,659.4197266225472 1147.8807947019868,659.7683541619316 1156.158940397351,660.0344921983944 1164.4370860927152,658.7205468355357 1172.7152317880796,657.162446968672 1180.9933774834437,656.9859668352955 1189.271523178808,654.2957784391651 1197.549668874172,652.2896790789636 1205.8278145695365,651.6227639387091 1214.1059602649007,652.1455765071382 1222.3841059602648,652.2247344012615 1230.6622516556292,652.2174241018747 1238.9403973509934,652.4230990221504 1247.2185430463576,652.2553568934894 1255.4966887417218,651.4971354719696 1263.7748344370862,651.3279210055177 1272.0529801324503,651.1975348250182 1280.3311258278145,651.1076694076563 1288.609271523179,652.3820359123628 1296.887417218543,653.4709148838378 1305.1655629139073,653.9972960932242 1313.4437086092714,653.8738453705579 1321.7218543046358,654.5937237730132 1330.0,654.3000595991475" stroke="#011E42" stroke-width="4" fill="none" opacity="1.0" /><line x1="80.0" y1="696" x2="1330.0" y2="696" stroke="#E2E8F0" stroke-width="2" /><line x1="80.0" y1="690" x2="80.0" y2="702" stroke="#E2E8F0" stroke-width="1" /><text x="80.0" y="718" font-family="Inter, Arial, sans-serif" font-size="11" font-weight="500" fill="#64748B" text-anchor="middle">2013</text><line x1="113.11258278145695" y1="690" x2="113.11258278145695" y2="702" stroke="#E2E8F0" stroke-width="1" /><text x="113.11258278145695" y="718" font-family="Inter, Arial, sans-serif" font-size="11" font-weight="500" fill="#64748B" text-anchor="middle">2014</text><line x1="212.4503311258278" y1="690" x2="212.4503311258278" y2="702" stroke="#E2E8F0" stroke-width="1" /><text x="212.4503311258278" y="718" font-family="Inter, Arial, sans-serif" font-size="11" font-weight="500" fill="#64748B" text-anchor="middle">2015</text><line x1="311.7880794701987" y1="690" x2="311.7880794701987" y2="702" stroke="#E2E8F0" stroke-width="1" /><text x="311.7880794701987" y="718" font-family="Inter, Arial, sans-serif" font-size="11" font-weight="500" fill="#64748B" text-anchor="middle">2016</text><line x1="411.12582781456956" y1="690" x2="411.12582781456956" y2="702" stroke="#E2E8F0" stroke-width="1" /><text x="411.12582781456956" y="718" font-family="Inter, Arial, sans-serif" font-size="11" font-weight="500" fill="#64748B" text-anchor="middle">2017</text><line x1="510.4635761589404" y1="690" x2="510.4635761589404" y2="702" stroke="#E2E8F0" stroke-width="1" /><text x="510.4635761589404" y="718" font-family="Inter, Arial, sans-serif" font-size="11" font-weight="500" fill="#64748B" text-anchor="middle">2018</text><line x1="609.8013245033112" y1="690" x2="609.8013245033112" y2="702" stroke="#E2E8F0" stroke-width="1" /><text x="609.8013245033112" y="718" font-family="Inter, Arial, sans-serif" font-size="11" font-weight="500" fill="#64748B" text-anchor="middle">2019</text><line x1="709.1390728476821" y1="690" x2="709.1390728476821" y2="702" stroke="#E2E8F0" stroke-width="1" /><text x="709.1390728476821" y="718" font-family="Inter, Arial, sans-serif" font-size="11" font-weight="500" fill="#64748B" text-anchor="middle">2020</text><line x1="808.476821192053" y1="690" x2="808.476821192053" y2="702" stroke="#E2E8F0" stroke-width="1" /><text x="808.476821192053" y="718" font-family="Inter, Arial, sans-serif" font-size="11" font-weight="500" fill="#64748B" text-anchor="middle">2021</text><line x1="907.8145695364238" y1="690" x2="907.8145695364238" y2="702" stroke="#E2E8F0" stroke-width="1" /><text x="907.8145695364238" y="718" font-family="Inter, Arial, sans-serif" font-size="11" font-weight="500" fill="#64748B" text-anchor="middle">2022</text><line x1="1007.1523178807947" y1="690" x2="1007.1523178807947" y2="702" stroke="#E2E8F0" stroke-width="1" /><text x="1007.1523178807947" y="718" font-family="Inter, Arial, sans-serif" font-size="11" font-weight="500" fill="#64748B" text-anchor="middle">2023</text><line x1="1106.4900662251655" y1="690" x2="1106.4900662251655" y2="702" stroke="#E2E8F0" stroke-width="1" /><text x="1106.4900662251655" y="718" font-family="Inter, Arial, sans-serif" font-size="11" font-weight="500" fill="#64748B" text-anchor="middle">2024</text><line x1="1205.8278145695365" y1="690" x2="1205.8278145695365" y2="702" stroke="#E2E8F0" stroke-width="1" /><text x="1205.8278145695365" y="718" font-family="Inter, Arial, sans-serif" font-size="11" font-weight="500" fill="#64748B" text-anchor="middle">2025</text><line x1="1305.1655629139073" y1="690" x2="1305.1655629139073" y2="702" stroke="#E2E8F0" stroke-width="1" /><text x="1305.1655629139073" y="718" font-family="Inter, Arial, sans-serif" font-size="11" font-weight="500" fill="#64748B" text-anchor="middle">2026</text><line x1="1330.0" y1="690" x2="1330.0" y2="702" stroke="#E2E8F0" stroke-width="1" /><text x="1330.0" y="718" font-family="Inter, Arial, sans-serif" font-size="11" font-weight="500" fill="#64748B" text-anchor="middle">2026</text></svg>