<svg xmlns="http://www.w3.org/2000/svg" width="1400" height="560" viewBox="0 0 1400 560" role="img" aria-label="Savannah River analytical figure"><rect x="0" y="0" width="1400" height="560" rx="12" fill="#F8FAFC" stroke="none" /><text x="70" y="62" font-family="Inter, Arial, sans-serif" font-size="30" font-weight="700" fill="#011E42" text-anchor="start">Savannah River discharge at Augusta (2006–2026)</text><text x="70" y="90" font-family="Inter, Arial, sans-serif" font-size="14" font-weight="400" fill="#64748B" text-anchor="start">Complete monthly series with 12-month moving average. This is the starting point — everything that follows is a consequence of this signal.</text><line x1="70" y1="113" x2="94" y2="113" stroke="#0B5CAD" stroke-width="2"  opacity="0.35" /><text x="100" y="118" font-family="Inter, Arial, sans-serif" font-size="11" font-weight="500" fill="#64748B" text-anchor="start">Monthly (raw)</text><line x1="190.39999999999998" y1="113" x2="214.39999999999998" y2="113" stroke="#011E42" stroke-width="4" /><text x="220.39999999999998" y="118" font-family="Inter, Arial, sans-serif" font-size="11" font-weight="500" fill="#64748B" text-anchor="start">12-month average</text><rect x="62" y="120" width="1286" height="412" rx="18" fill="#FFFFFF" stroke="#E2E8F0" /><text x="80" y="144" font-family="Inter, Arial, sans-serif" font-size="15" font-weight="700" fill="#011E42" text-anchor="start">Discharge (ft³/s)</text><rect x="1190" y="126" width="72" height="24" rx="12" fill="#DBEAFE" stroke="none" /><text x="1200" y="143" font-family="Inter, Arial, sans-serif" font-size="11" font-weight="700" fill="#011E42" text-anchor="start">2006–2026</text><rect x="1070" y="126" width="103.60000000000001" height="24" rx="12" fill="#D1FAE5" stroke="none" /><text x="1080" y="143" font-family="Inter, Arial, sans-serif" font-size="11" font-weight="700" fill="#0F7B5F" text-anchor="start">n = 244 months</text><line x1="80" y1="164.0" x2="1330" y2="164.0" stroke="#E2E8F0" stroke-width="1" stroke-dasharray="4 6" /><line x1="80" y1="334.0" x2="1330" y2="334.0" stroke="#E2E8F0" stroke-width="1" stroke-dasharray="4 6" /><line x1="80" y1="504.0" x2="1330" y2="504.0" stroke="#E2E8F0" stroke-width="1" stroke-dasharray="4 6" /><text x="74" y="170" font-family="Inter, Arial, sans-serif" font-size="11" font-weight="500" fill="#64748B" text-anchor="end">37,291</text><text x="74" y="338.0" font-family="Inter, Arial, sans-serif" font-size="11" font-weight="500" fill="#64748B" text-anchor="end">19,097</text><text x="74" y="508" font-family="Inter, Arial, sans-serif" font-size="11" font-weight="500" fill="#64748B" text-anchor="end">903.2</text><polygon points="80.0,504 80.0,438.3668345267573 85.1440329218107,435.6563336713504 90.2880658436214,417.0236627948518 95.4320987654321,458.02081347377583 100.57613168724279,466.03059380567674 105.7201646090535,463.81102091166645 110.8641975308642,462.27798730576575 116.0082304526749,451.1688654619999 121.1522633744856,464.93421648780526 126.2962962962963,464.05331680752505 131.440329218107,465.2709958308764 136.5843621399177,466.88246976388115 141.7283950617284,458.73034244733145 146.8724279835391,449.20091269995595 152.0164609053498,435.3325646062808 157.1604938271605,468.47034062575307 162.3045267489712,464.79077682522353 167.4485596707819,464.1091304012839 172.5925925925926,473.68549789847964 177.73662551440327,473.4219806294533 182.880658436214,473.19417059072737 188.0246913580247,473.7140900940166 193.16872427983537,476.20965882386895 198.3127572016461,471.83148133619096 203.45679012345678,469.82941715016034 208.6008230452675,464.8716736196961 213.7448559670782,464.29846700340585 218.88888888888889,471.8777274269811 224.03292181069958,476.8845183219687 229.1769547325103,476.5239516098748 234.320987654321,475.98429464725376 239.46502057613168,476.5770758597537 244.6090534979424,475.9319155592298 249.7530864197531,474.4762190439616 254.89711934156378,471.81232055060053 260.0411522633745,465.85778301706716 265.1851851851852,480.55172413793105 270.3292181069959,474.8937853259845 275.47325102880654,446.5522049910096 280.6172839506173,467.2161897283411 285.761316872428,474.56161972791017 290.90534979423865,473.01871404724903 296.0493827160494,473.24142563864876 301.1934156378601,471.6406403385369 306.33744855967075,474.4711619898443 311.4814814814815,469.8414737211535 316.6255144032922,343.1414216410311 321.76954732510285,273.939338888175 326.91358024691357,323.7661164649066 332.0576131687243,277.4684683119805 337.201646090535,416.8558755720388 342.34567901234567,451.8902165696161 347.4897119341564,455.4278477847779 352.63374485596705,452.31899498248265 357.77777777777777,457.2071961373057 362.9218106995885,442.8468200413555 368.06584362139915,468.05609707845724 373.2098765432099,470.41215123106707 378.3539094650206,470.7616577151157 383.49794238683126,470.50759904660885 388.641975308642,469.78922859575624 393.7860082304527,463.0093113922649 398.93004115226336,449.1112113456962 404.0740740740741,440.6059730842666 409.2181069958848,466.054706947663 414.36213991769546,469.3652728094181 419.5061728395062,461.22303768491525 424.6502057613169,472.81643164896184 429.79423868312756,473.00002636828316 434.9382716049383,471.2259695068053 440.082304526749,471.8012383178133 445.22633744855966,473.0925292392159 450.3703703703704,473.70861761279593 455.51440329218104,473.08458633093045 460.65843621399176,474.7615578035903 465.8024691358025,477.53905595029613 470.94650205761315,479.789146272562 476.09053497942386,477.4591142083448 481.2345679012346,475.2106649259197 486.37860082304525,467.0031568876629 491.52263374485597,472.5089556984261 496.6666666666667,474.3536439506931 501.81069958847735,478.4018037927733 506.95473251028807,479.36817113364356 512.0987654320988,480.15486214099894 517.2427983539094,460.275125987445 522.3868312757202,461.7826633482076 527.530864197531,467.1331333763434 532.6748971193415,467.19907610323065 537.8189300411523,447.38856234553487 542.962962962963,283.66798380640137 548.1069958847736,388.9891302009369 553.2510288065844,442.23387756099635 558.395061728395,473.13994953293854 563.5390946502057,470.2477465435538 568.6831275720165,418.82081759015614 573.8271604938271,275.5223443567652 578.9711934156378,400.1608672528172 584.1152263374486,409.0030315462539 589.2592592592592,408.2804412960209 594.40329218107,454.377921729724 599.5473251028807,460.71703027095134 604.6913580246913,455.6177387101772 609.835390946502,456.9791260782146 614.9794238683128,466.0720884980268 620.1234567901234,470.62113172331226 625.2674897119341,467.5715212179864 630.4115226337449,463.50675243959773 635.5555555555555,463.8964395918499 640.6995884773662,461.0086858398241 645.843621399177,453.5118583285885 650.9876543209876,453.3480442932005 656.1316872427983,469.9941902372329 661.2757201646091,458.39560525644237 666.4197530864197,462.72207086229855 671.5637860082304,461.180839700455 676.7078189300412,470.1148563747512 681.8518518518518,453.5872118716002 686.9958847736625,328.64082096685155 692.1399176954733,353.1208431574268 697.283950617284,187.44827586206895 702.4279835390946,384.1531495785256 707.5720164609054,431.2936146410568 712.716049382716,438.36968083779675 717.8600823045267,446.35226691532955 723.0041152263375,465.2062260361594 728.1481481481482,457.6251571311399 733.2921810699588,467.6391407996511 738.4362139917696,464.1229925477872 743.5802469135803,474.36268637660197 748.7242798353909,476.2080779209792 753.8683127572017,472.7039036872865 759.0123456790124,451.7345193967731 764.156378600823,464.99042783946703 769.3004115226338,469.6164177978028 774.4444444444445,462.2027007487394 779.5884773662551,467.89735228155314 784.7325102880659,468.66448484819733 789.8765432098766,466.55204033527735 795.0205761316872,468.31531326604346 800.164609053498,469.2438028961398 805.3086419753087,472.04682077839624 810.4526748971193,472.85052493655604 815.59670781893,470.18508587766024 820.7407407407408,470.5457781803006 825.8847736625514,467.73239978341866 831.0288065843621,469.2969187739385 836.1728395061729,464.57707418075586 841.3168724279835,412.1588379735527 846.4609053497942,382.2744595989476 851.604938271605,463.41029989968405 856.7489711934156,427.9780586924821 861.8930041152263,452.7031306046322 867.0370370370371,464.8018286811886 872.1810699588477,394.21692467084205 877.3251028806584,255.49379598242828 882.4691358024692,278.0626848316633 887.6131687242798,378.84245252818914 892.7572016460905,338.80969803244574 897.9012345679013,355.71615317837563 903.0452674897119,432.8288175127319 908.1893004115226,460.49900734345346 913.3333333333334,460.4916059573852 918.477366255144,451.31655841228275 923.6213991769547,470.01934157322415 928.7654320987655,470.4643963471205 933.9094650205761,469.65389363004056 939.0534979423868,444.97982770067085 944.1975308641976,360.6350985831576 949.3415637860082,252.61615672173443 954.4855967078189,270.4640334276681 959.6296296296297,394.5325387972207 964.7736625514403,381.3000545471965 969.917695473251,421.670163275079 975.0617283950618,435.28936190679246 980.2057613168724,432.56156361426486 985.3497942386831,413.68429512720866 990.4938271604939,444.108740724395 995.6378600823045,353.6563556787329 1000.7818930041152,427.3772397691014 1005.925925925926,384.4860023973062 1011.0699588477366,381.2351428569331 1016.2139917695473,406.3686716392119 1021.358024691358,408.4766619251627 1026.5020576131687,440.9589625779209 1031.6460905349795,447.505879445418 1036.79012345679,449.4829555043016 1041.9341563786008,435.97658623849367 1047.0781893004114,441.50401987797795 1052.2222222222222,390.59566776485514 1057.366255144033,440.07752705647783 1062.5102880658437,427.43752260537946 1067.6543209876543,428.95665005529287 1072.798353909465,426.9398662666411 1077.9423868312756,392.67241144800477 1083.0864197530864,338.48818957852524 1088.2304526748972,459.8787304630114 1093.374485596708,458.16408567606635 1098.5185185185185,450.0978404193878 1103.6625514403293,449.0760463570886 1108.80658436214,471.3793893243388 1113.9506172839506,472.6255359991907 1119.0946502057614,471.27349247063614 1124.238683127572,458.88406367843896 1129.3827160493827,375.5792134750427 1134.5267489711935,375.83573846866875 1139.670781893004,447.53280577453273 1144.8148148148148,390.277977222435 1149.9588477366256,421.4876067497627 1155.102880658436,438.57939811981663 1160.2469135802469,444.08161344666826 1165.3909465020577,447.4966360708971 1170.5349794238682,457.4726415543285 1175.679012345679,467.8842909955319 1180.8230452674898,471.2080855942556 1185.9670781893003,461.0874013056256 1191.111111111111,454.26941262816104 1196.2551440329219,402.1336985175498 1201.3991769547324,371.115269510788 1206.5432098765432,432.9855528889237 1211.687242798354,415.3508141138309 1216.8312757201645,448.73303702772995 1221.9753086419753,438.4662673309933 1227.119341563786,452.74425689742293 1232.2633744855966,434.9851345382736 1237.4074074074074,444.16902356067305 1242.5514403292182,451.96289087878205 1247.6954732510287,452.11731540199975 1252.8395061728395,456.8374614181003 1257.9835390946503,449.3684181125701 1263.1275720164608,453.4465519265139 1268.2716049382716,439.97785943221186 1273.4156378600824,417.80432551203864 1278.559670781893,435.8883723487289 1283.7037037037037,455.8126532107169 1288.8477366255145,409.14771035145253 1293.991769547325,448.3935441962976 1299.1358024691358,466.9649777539711 1304.2798353909466,469.1306386189957 1309.4238683127571,461.8168236217871 1314.567901234568,468.8729294992797 1319.7119341563787,467.4053654015156 1324.8559670781892,466.8624969425766 1330.0,471.1914743313311 1330.0,504" fill="#0B5CAD" opacity="0.08" /><polyline points="80.0,438.3668345267573 85.1440329218107,435.6563336713504 90.2880658436214,417.0236627948518 95.4320987654321,458.02081347377583 100.57613168724279,466.03059380567674 105.7201646090535,463.81102091166645 110.8641975308642,462.27798730576575 116.0082304526749,451.1688654619999 121.1522633744856,464.93421648780526 126.2962962962963,464.05331680752505 131.440329218107,465.2709958308764 136.5843621399177,466.88246976388115 141.7283950617284,458.73034244733145 146.8724279835391,449.20091269995595 152.0164609053498,435.3325646062808 157.1604938271605,468.47034062575307 162.3045267489712,464.79077682522353 167.4485596707819,464.1091304012839 172.5925925925926,473.68549789847964 177.73662551440327,473.4219806294533 182.880658436214,473.19417059072737 188.0246913580247,473.7140900940166 193.16872427983537,476.20965882386895 198.3127572016461,471.83148133619096 203.45679012345678,469.82941715016034 208.6008230452675,464.8716736196961 213.7448559670782,464.29846700340585 218.88888888888889,471.8777274269811 224.03292181069958,476.8845183219687 229.1769547325103,476.5239516098748 234.320987654321,475.98429464725376 239.46502057613168,476.5770758597537 244.6090534979424,475.9319155592298 249.7530864197531,474.4762190439616 254.89711934156378,471.81232055060053 260.0411522633745,465.85778301706716 265.1851851851852,480.55172413793105 270.3292181069959,474.8937853259845 275.47325102880654,446.5522049910096 280.6172839506173,467.2161897283411 285.761316872428,474.56161972791017 290.90534979423865,473.01871404724903 296.0493827160494,473.24142563864876 301.1934156378601,471.6406403385369 306.33744855967075,474.4711619898443 311.4814814814815,469.8414737211535 316.6255144032922,343.1414216410311 321.76954732510285,273.939338888175 326.91358024691357,323.7661164649066 332.0576131687243,277.4684683119805 337.201646090535,416.8558755720388 342.34567901234567,451.8902165696161 347.4897119341564,455.4278477847779 352.63374485596705,452.31899498248265 357.77777777777777,457.2071961373057 362.9218106995885,442.8468200413555 368.06584362139915,468.05609707845724 373.2098765432099,470.41215123106707 378.3539094650206,470.7616577151157 383.49794238683126,470.50759904660885 388.641975308642,469.78922859575624 393.7860082304527,463.0093113922649 398.93004115226336,449.1112113456962 404.0740740740741,440.6059730842666 409.2181069958848,466.054706947663 414.36213991769546,469.3652728094181 419.5061728395062,461.22303768491525 424.6502057613169,472.81643164896184 429.79423868312756,473.00002636828316 434.9382716049383,471.2259695068053 440.082304526749,471.8012383178133 445.22633744855966,473.0925292392159 450.3703703703704,473.70861761279593 455.51440329218104,473.08458633093045 460.65843621399176,474.7615578035903 465.8024691358025,477.53905595029613 470.94650205761315,479.789146272562 476.09053497942386,477.4591142083448 481.2345679012346,475.2106649259197 486.37860082304525,467.0031568876629 491.52263374485597,472.5089556984261 496.6666666666667,474.3536439506931 501.81069958847735,478.4018037927733 506.95473251028807,479.36817113364356 512.0987654320988,480.15486214099894 517.2427983539094,460.275125987445 522.3868312757202,461.7826633482076 527.530864197531,467.1331333763434 532.6748971193415,467.19907610323065 537.8189300411523,447.38856234553487 542.962962962963,283.66798380640137 548.1069958847736,388.9891302009369 553.2510288065844,442.23387756099635 558.395061728395,473.13994953293854 563.5390946502057,470.2477465435538 568.6831275720165,418.82081759015614 573.8271604938271,275.5223443567652 578.9711934156378,400.1608672528172 584.1152263374486,409.0030315462539 589.2592592592592,408.2804412960209 594.40329218107,454.377921729724 599.5473251028807,460.71703027095134 604.6913580246913,455.6177387101772 609.835390946502,456.9791260782146 614.9794238683128,466.0720884980268 620.1234567901234,470.62113172331226 625.2674897119341,467.5715212179864 630.4115226337449,463.50675243959773 635.5555555555555,463.8964395918499 640.6995884773662,461.0086858398241 645.843621399177,453.5118583285885 650.9876543209876,453.3480442932005 656.1316872427983,469.9941902372329 661.2757201646091,458.39560525644237 666.4197530864197,462.72207086229855 671.5637860082304,461.180839700455 676.7078189300412,470.1148563747512 681.8518518518518,453.5872118716002 686.9958847736625,328.64082096685155 692.1399176954733,353.1208431574268 697.283950617284,187.44827586206895 702.4279835390946,384.1531495785256 707.5720164609054,431.2936146410568 712.716049382716,438.36968083779675 717.8600823045267,446.35226691532955 723.0041152263375,465.2062260361594 728.1481481481482,457.6251571311399 733.2921810699588,467.6391407996511 738.4362139917696,464.1229925477872 743.5802469135803,474.36268637660197 748.7242798353909,476.2080779209792 753.8683127572017,472.7039036872865 759.0123456790124,451.7345193967731 764.156378600823,464.99042783946703 769.3004115226338,469.6164177978028 774.4444444444445,462.2027007487394 779.5884773662551,467.89735228155314 784.7325102880659,468.66448484819733 789.8765432098766,466.55204033527735 795.0205761316872,468.31531326604346 800.164609053498,469.2438028961398 805.3086419753087,472.04682077839624 810.4526748971193,472.85052493655604 815.59670781893,470.18508587766024 820.7407407407408,470.5457781803006 825.8847736625514,467.73239978341866 831.0288065843621,469.2969187739385 836.1728395061729,464.57707418075586 841.3168724279835,412.1588379735527 846.4609053497942,382.2744595989476 851.604938271605,463.41029989968405 856.7489711934156,427.9780586924821 861.8930041152263,452.7031306046322 867.0370370370371,464.8018286811886 872.1810699588477,394.21692467084205 877.3251028806584,255.49379598242828 882.4691358024692,278.0626848316633 887.6131687242798,378.84245252818914 892.7572016460905,338.80969803244574 897.9012345679013,355.71615317837563 903.0452674897119,432.8288175127319 908.1893004115226,460.49900734345346 913.3333333333334,460.4916059573852 918.477366255144,451.31655841228275 923.6213991769547,470.01934157322415 928.7654320987655,470.4643963471205 933.9094650205761,469.65389363004056 939.0534979423868,444.97982770067085 944.1975308641976,360.6350985831576 949.3415637860082,252.61615672173443 954.4855967078189,270.4640334276681 959.6296296296297,394.5325387972207 964.7736625514403,381.3000545471965 969.917695473251,421.670163275079 975.0617283950618,435.28936190679246 980.2057613168724,432.56156361426486 985.3497942386831,413.68429512720866 990.4938271604939,444.108740724395 995.6378600823045,353.6563556787329 1000.7818930041152,427.3772397691014 1005.925925925926,384.4860023973062 1011.0699588477366,381.2351428569331 1016.2139917695473,406.3686716392119 1021.358024691358,408.4766619251627 1026.5020576131687,440.9589625779209 1031.6460905349795,447.505879445418 1036.79012345679,449.4829555043016 1041.9341563786008,435.97658623849367 1047.0781893004114,441.50401987797795 1052.2222222222222,390.59566776485514 1057.366255144033,440.07752705647783 1062.5102880658437,427.43752260537946 1067.6543209876543,428.95665005529287 1072.798353909465,426.9398662666411 1077.9423868312756,392.67241144800477 1083.0864197530864,338.48818957852524 1088.2304526748972,459.8787304630114 1093.374485596708,458.16408567606635 1098.5185185185185,450.0978404193878 1103.6625514403293,449.0760463570886 1108.80658436214,471.3793893243388 1113.9506172839506,472.6255359991907 1119.0946502057614,471.27349247063614 1124.238683127572,458.88406367843896 1129.3827160493827,375.5792134750427 1134.5267489711935,375.83573846866875 1139.670781893004,447.53280577453273 1144.8148148148148,390.277977222435 1149.9588477366256,421.4876067497627 1155.102880658436,438.57939811981663 1160.2469135802469,444.08161344666826 1165.3909465020577,447.4966360708971 1170.5349794238682,457.4726415543285 1175.679012345679,467.8842909955319 1180.8230452674898,471.2080855942556 1185.9670781893003,461.0874013056256 1191.111111111111,454.26941262816104 1196.2551440329219,402.1336985175498 1201.3991769547324,371.115269510788 1206.5432098765432,432.9855528889237 1211.687242798354,415.3508141138309 1216.8312757201645,448.73303702772995 1221.9753086419753,438.4662673309933 1227.119341563786,452.74425689742293 1232.2633744855966,434.9851345382736 1237.4074074074074,444.16902356067305 1242.5514403292182,451.96289087878205 1247.6954732510287,452.11731540199975 1252.8395061728395,456.8374614181003 1257.9835390946503,449.3684181125701 1263.1275720164608,453.4465519265139 1268.2716049382716,439.97785943221186 1273.4156378600824,417.80432551203864 1278.559670781893,435.8883723487289 1283.7037037037037,455.8126532107169 1288.8477366255145,409.14771035145253 1293.991769547325,448.3935441962976 1299.1358024691358,466.9649777539711 1304.2798353909466,469.1306386189957 1309.4238683127571,461.8168236217871 1314.567901234568,468.8729294992797 1319.7119341563787,467.4053654015156 1324.8559670781892,466.8624969425766 1330.0,471.1914743313311" stroke="#0B5CAD" stroke-width="2" fill="none" opacity="0.35" /><polyline points="105.7201646090535,446.4848765306798 110.8641975308642,448.7410352128349 116.0082304526749,449.04451399398056 121.1522633744856,450.8100364932944 126.2962962962963,452.13436452471745 131.440329218107,453.32860373436824 136.5843621399177,454.458092570161 141.7283950617284,456.1550515635422 146.8724279835391,457.2837664825927 152.0164609053498,458.80950830021175 157.1604938271605,459.68030222954314 162.3045267489712,459.57698414783874 167.4485596707819,459.6018266053068 172.5925925925926,460.552452488033 177.73662551440327,462.40687875198745 182.880658436214,463.0952082605643 188.0246913580247,463.9002727011053 193.16872427983537,464.8118279505213 198.3127572016461,465.2242455815471 203.45679012345678,466.14916847344955 208.6008230452675,467.4550652167612 213.7448559670782,469.86889041652165 218.88888888888889,470.15283931662395 224.03292181069958,471.1606511080194 229.1769547325103,472.1952195420686 234.320987654321,472.3867859377998 239.46502057613168,472.64971054032486 244.6090534979424,472.87785595436674 249.7530864197531,472.9413667001955 254.89711934156378,472.5749218440898 260.0411522633745,472.07711365082946 265.1851851851852,472.9706392331437 270.3292181069959,473.8058152086677 275.47325102880654,472.326960040968 280.6172839506173,471.93849856608136 285.761316872428,471.74492368324314 290.90534979423865,471.4528205530243 296.0493827160494,471.22424813564055 301.1934156378601,470.81287850887253 306.33744855967075,470.691149044757 311.4814814814815,470.30492026785635 316.6255144032922,459.5823453587256 321.76954732510285,443.5891416813179 326.91358024691357,430.52367437523253 332.0576131687243,414.07156462406556 337.201646090535,411.59687050581795 342.34567901234567,410.3197060759242 347.4897119341564,408.7252250806632 352.63374485596705,407.00024849193267 357.77777777777777,405.6640627001541 362.9218106995885,403.264577675389 368.06584362139915,402.7299889327734 373.2098765432099,402.77754539193285 378.3539094650206,413.4125650647732 383.49794238683126,429.79325341130937 388.641975308642,441.9618460888802 393.7860082304527,457.4235830122372 398.93004115226336,460.111527660042 404.0740740740741,459.17117403626287 409.2181069958848,460.05674563316995 414.36213991769546,461.4772687854146 419.5061728395062,461.8119222477154 424.6502057613169,464.3093898816826 429.79423868312756,464.7213839891681 434.9382716049383,464.78920217881296 440.082304526749,464.8758338957044 445.22633744855966,465.0912447450883 450.3703703703704,465.4178604965083 455.51440329218104,466.2574667413971 460.65843621399176,468.39499561288824 465.8024691358025,471.47275251839073 470.94650205761315,472.617289128799 476.09053497942386,473.29177591204285 481.2345679012346,474.4574115154599 486.37860082304525,473.9729719520183 491.52263374485597,473.9320493961969 496.6666666666667,474.1926889331875 501.81069958847735,474.74273605610085 506.95473251028807,475.26570621396985 512.0987654320988,475.80289325798674 517.2427983539094,474.73543822936296 522.3868312757202,473.6538636914144 527.530864197531,472.7867034769184 532.6748971193415,471.7375309628074 537.8189300411523,469.2316516409066 542.962962962963,453.2697615476134 548.1069958847736,446.7685926570529 553.2510288065844,444.24566947893373 558.395061728395,444.1445282774542 563.5390946502057,443.4650235066859 568.6831275720165,438.4194107113953 573.8271604938271,421.3667008960425 578.9711934156378,416.3571793348235 584.1152263374486,411.9588766846607 589.2592592592592,407.05448567796714 594.40329218107,405.9860561468416 599.5473251028807,407.096761807293 604.6913580246913,421.4259080492743 609.835390946502,427.0917410390474 614.9794238683128,429.0782586171333 620.1234567901234,428.8683571329978 625.2674897119341,428.6453383558672 630.4115226337449,432.3691662599873 635.5555555555555,448.0670075295777 640.6995884773662,453.13765907849495 645.843621399177,456.84672797702285 650.9876543209876,460.60236156012115 656.1316872427983,461.9037172690802 661.2757201646091,461.7102651845378 666.4197530864197,462.30229286388123 671.5637860082304,462.6524356657346 676.7078189300412,462.98933298879496 681.8518518518518,461.56983966781894 686.9958847736625,449.9922813135577 692.1399176954733,440.79345554004345 697.283950617284,417.75610856256174 702.4279835390946,411.35148054078684 707.5720164609054,409.4999602334925 712.716049382716,408.25176327887556 717.8600823045267,406.28160300205025 723.0041152263375,406.84915473369335 728.1481481481482,406.4244119227635 733.2921810699588,406.9626036810298 738.4362139917696,406.4632816954495 743.5802469135803,408.19457123753295 748.7242798353909,420.49184265037695 753.8683127572017,430.4570976945319 759.0123456790124,452.48095132242395 764.156378600823,459.21739117750235 769.3004115226338,462.41095810723124 774.4444444444445,464.39704309980976 779.5884773662551,466.1924668803284 784.7325102880659,466.4806551146649 789.8765432098766,467.22456204834305 795.0205761316872,467.2809097538757 800.164609053498,467.7076439495718 805.3086419753087,467.5146551497213 810.4526748971193,467.23485906768605 815.59670781893,467.0249575835505 820.7407407407408,468.5925624821778 825.8847736625514,468.82106014417377 831.0288065843621,468.7944352255184 836.1728395061729,468.99229967818644 841.3168724279835,464.3474234858531 846.4609053497942,457.14825471508226 851.604938271605,456.88644301211616 856.7489711934156,453.525005130986 861.8930041152263,452.1466157733604 867.0370370370371,451.5428664319264 872.1810699588477,444.9900664097836 877.3251028806584,427.0991255851809 882.4691358024692,411.0588678061278 887.6131687242798,403.65137220152536 892.7572016460905,392.7774371397343 897.9012345679013,383.7056937228693 903.0452674897119,385.4281920178009 908.1893004115226,391.94690432984305 913.3333333333334,391.70367983465144 918.477366255144,393.64855481130155 923.6213991769547,395.0915723920175 928.7654320987655,395.5634530308452 933.9094650205761,401.8498671107784 939.0534979423868,417.6403697539653 944.1975308641976,424.5214042332565 949.3415637860082,414.0025462493852 954.4855967078189,408.3070741989871 959.6296296296297,411.54177300055755 964.7736625514403,407.24770942009627 969.917695473251,404.0119724143984 975.0617283950618,401.9117854101823 980.2057613168724,400.3488691770142 985.3497942386831,395.65428197317954 990.4938271604939,393.4579773379524 995.6378600823045,383.7915158420101 1000.7818930041152,382.32463351437934 1005.925925925926,384.312208832225 1011.0699588477366,395.0304576768249 1016.2139917695473,406.35584419445354 1021.358024691358,407.5178544551154 1026.5020576131687,412.48943012434245 1031.6460905349795,414.6424064718707 1036.79012345679,415.82520593832976 1041.9341563786008,416.1097911570155 1047.0781893004114,418.42810155291295 1052.2222222222222,413.96867880628463 1057.366255144033,421.1704430877634 1062.5102880658437,421.1754666574532 1067.6543209876543,424.8813539622854 1072.798353909465,428.69008091309445 1077.9423868312756,427.54872589716047 1083.0864197530864,421.7163532016074 1088.2304526748972,423.2930005253649 1093.374485596708,424.18118437791895 1098.5185185185185,424.23242478750944 1103.6625514403293,425.32404646405905 1108.80658436214,427.8136605845891 1113.9506172839506,434.64948293745044 1119.0946502057614,437.2491467219636 1124.238683127572,439.8696918113852 1129.3827160493827,435.42157209636434 1134.5267489711935,431.1628947798667 1139.670781893004,435.7345943070774 1144.8148148148148,440.0504099440698 1149.9588477366256,436.8511496346324 1155.102880658436,435.2190923382783 1160.2469135802469,434.7177400905517 1165.3909465020577,434.5861225667024 1170.5349794238682,433.42722691920153 1175.679012345679,433.03212316889665 1180.8230452674898,433.0266725958649 1185.9670781893003,433.2102840647971 1191.111111111111,439.7678006608903 1196.2551440329219,441.9592973316304 1201.3991769547324,435.59116930965166 1206.5432098765432,439.1501339485257 1211.687242798354,438.63873456219807 1216.8312757201645,439.4848711378575 1221.9753086419753,439.0169256282179 1227.119341563786,439.45422736376173 1232.2633744855966,437.58026844575716 1237.4074074074074,435.60399615951894 1242.5514403292182,434.0002299332295 1247.6954732510287,433.25272277459396 1252.8395061728395,433.46672684042227 1257.9835390946503,437.40295347334063 1263.1275720164608,444.2638936746511 1268.2716049382716,444.8465858865918 1273.4156378600824,445.05104516977576 1278.559670781893,443.9806564465257 1283.7037037037037,445.42618860316935 1288.8477366255145,441.7931430576718 1293.991769547325,442.9105105291738 1299.1358024691358,444.81017337861533 1304.2798353909466,446.2408190236331 1309.4238683127571,447.04911137528205 1314.567901234568,448.05206704871364 1319.7119341563787,449.5551459894591 1324.8559670781892,450.67314140746436 1330.0,453.274275982391" stroke="#011E42" stroke-width="4" fill="none" opacity="1.0" /><line x1="80.0" y1="504" x2="1330.0" y2="504" stroke="#E2E8F0" stroke-width="2" /><line x1="80.0" y1="498" x2="80.0" y2="510" stroke="#E2E8F0" stroke-width="1" /><text x="80.0" y="526" font-family="Inter, Arial, sans-serif" font-size="11" font-weight="500" fill="#64748B" text-anchor="middle">2006</text><line x1="141.7283950617284" y1="498" x2="141.7283950617284" y2="510" stroke="#E2E8F0" stroke-width="1" /><text x="141.7283950617284" y="526" font-family="Inter, Arial, sans-serif" font-size="11" font-weight="500" fill="#64748B" text-anchor="middle">2007</text><line x1="203.45679012345678" y1="498" x2="203.45679012345678" y2="510" stroke="#E2E8F0" stroke-width="1" /><text x="203.45679012345678" y="526" font-family="Inter, Arial, sans-serif" font-size="11" font-weight="500" fill="#64748B" text-anchor="middle">2008</text><line x1="265.1851851851852" y1="498" x2="265.1851851851852" y2="510" stroke="#E2E8F0" stroke-width="1" /><text x="265.1851851851852" y="526" font-family="Inter, Arial, sans-serif" font-size="11" font-weight="500" fill="#64748B" text-anchor="middle">2009</text><line x1="326.91358024691357" y1="498" x2="326.91358024691357" y2="510" stroke="#E2E8F0" stroke-width="1" /><text x="326.91358024691357" y="526" font-family="Inter, Arial, sans-serif" font-size="11" font-weight="500" fill="#64748B" text-anchor="middle">2010</text><line x1="388.641975308642" y1="498" x2="388.641975308642" y2="510" stroke="#E2E8F0" stroke-width="1" /><text x="388.641975308642" y="526" font-family="Inter, Arial, sans-serif" font-size="11" font-weight="500" fill="#64748B" text-anchor="middle">2011</text><line x1="450.3703703703704" y1="498" x2="450.3703703703704" y2="510" stroke="#E2E8F0" stroke-width="1" /><text x="450.3703703703704" y="526" font-family="Inter, Arial, sans-serif" font-size="11" font-weight="500" fill="#64748B" text-anchor="middle">2012</text><line x1="512.0987654320988" y1="498" x2="512.0987654320988" y2="510" stroke="#E2E8F0" stroke-width="1" /><text x="512.0987654320988" y="526" font-family="Inter, Arial, sans-serif" font-size="11" font-weight="500" fill="#64748B" text-anchor="middle">2013</text><line x1="573.8271604938271" y1="498" x2="573.8271604938271" y2="510" stroke="#E2E8F0" stroke-width="1" /><text x="573.8271604938271" y="526" font-family="Inter, Arial, sans-serif" font-size="11" font-weight="500" fill="#64748B" text-anchor="middle">2014</text><line x1="635.5555555555555" y1="498" x2="635.5555555555555" y2="510" stroke="#E2E8F0" stroke-width="1" /><text x="635.5555555555555" y="526" font-family="Inter, Arial, sans-serif" font-size="11" font-weight="500" fill="#64748B" text-anchor="middle">2015</text><line x1="697.283950617284" y1="498" x2="697.283950617284" y2="510" stroke="#E2E8F0" stroke-width="1" /><text x="697.283950617284" y="526" font-family="Inter, Arial, sans-serif" font-size="11" font-weight="500" fill="#64748B" text-anchor="middle">2016</text><line x1="759.0123456790124" y1="498" x2="759.0123456790124" y2="510" stroke="#E2E8F0" stroke-width="1" /><text x="759.0123456790124" y="526" font-family="Inter, Arial, sans-serif" font-size="11" font-weight="500" fill="#64748B" text-anchor="middle">2017</text><line x1="820.7407407407408" y1="498" x2="820.7407407407408" y2="510" stroke="#E2E8F0" stroke-width="1" /><text x="820.7407407407408" y="526" font-family="Inter, Arial, sans-serif" font-size="11" font-weight="500" fill="#64748B" text-anchor="middle">2018</text><line x1="882.4691358024692" y1="498" x2="882.4691358024692" y2="510" stroke="#E2E8F0" stroke-width="1" /><text x="882.4691358024692" y="526" font-family="Inter, Arial, sans-serif" font-size="11" font-weight="500" fill="#64748B" text-anchor="middle">2019</text><line x1="944.1975308641976" y1="498" x2="944.1975308641976" y2="510" stroke="#E2E8F0" stroke-width="1" /><text x="944.1975308641976" y="526" font-family="Inter, Arial, sans-serif" font-size="11" font-weight="500" fill="#64748B" text-anchor="middle">2020</text><line x1="1005.925925925926" y1="498" x2="1005.925925925926" y2="510" stroke="#E2E8F0" stroke-width="1" /><text x="1005.925925925926" y="526" font-family="Inter, Arial, sans-serif" font-size="11" font-weight="500" fill="#64748B" text-anchor="middle">2021</text><line x1="1067.6543209876543" y1="498" x2="1067.6543209876543" y2="510" stroke="#E2E8F0" stroke-width="1" /><text x="1067.6543209876543" y="526" font-family="Inter, Arial, sans-serif" font-size="11" font-weight="500" fill="#64748B" text-anchor="middle">2022</text><line x1="1129.3827160493827" y1="498" x2="1129.3827160493827" y2="510" stroke="#E2E8F0" stroke-width="1" /><text x="1129.3827160493827" y="526" font-family="Inter, Arial, sans-serif" font-size="11" font-weight="500" fill="#64748B" text-anchor="middle">2023</text><line x1="1191.111111111111" y1="498" x2="1191.111111111111" y2="510" stroke="#E2E8F0" stroke-width="1" /><text x="1191.111111111111" y="526" font-family="Inter, Arial, sans-serif" font-size="11" font-weight="500" fill="#64748B" text-anchor="middle">2024</text><line x1="1252.8395061728395" y1="498" x2="1252.8395061728395" y2="510" stroke="#E2E8F0" stroke-width="1" /><text x="1252.8395061728395" y="526" font-family="Inter, Arial, sans-serif" font-size="11" font-weight="500" fill="#64748B" text-anchor="middle">2025</text><line x1="1314.567901234568" y1="498" x2="1314.567901234568" y2="510" stroke="#E2E8F0" stroke-width="1" /><text x="1314.567901234568" y="526" font-family="Inter, Arial, sans-serif" font-size="11" font-weight="500" fill="#64748B" text-anchor="middle">2026</text><line x1="1330.0" y1="498" x2="1330.0" y2="510" stroke="#E2E8F0" stroke-width="1" /><text x="1330.0" y="526" font-family="Inter, Arial, sans-serif" font-size="11" font-weight="500" fill="#64748B" text-anchor="middle">2026</text><circle cx="275.47325102880654" cy="446.5522049910096" r="5" fill="#B91C1C" stroke="#FFFFFF" stroke-width="1.5" opacity="1.0" /><text x="283.47325102880654" y="438.5522049910096" font-family="Inter, Arial, sans-serif" font-size="10" font-weight="600" fill="#B91C1C" text-anchor="start">Peak 2009</text><circle cx="645.843621399177" cy="453.5118583285885" r="5" fill="#B91C1C" stroke="#FFFFFF" stroke-width="1.5" opacity="1.0" /><text x="653.843621399177" y="445.5118583285885" font-family="Inter, Arial, sans-serif" font-size="10" font-weight="600" fill="#B91C1C" text-anchor="start">Drought 2015</text><circle cx="1077.9423868312756" cy="392.67241144800477" r="5" fill="#B91C1C" stroke="#FFFFFF" stroke-width="1.5" opacity="1.0" /><text x="1085.9423868312756" y="384.67241144800477" font-family="Inter, Arial, sans-serif" font-size="10" font-weight="600" fill="#B91C1C" text-anchor="start">Flood 2022</text></svg>