<svg xmlns="http://www.w3.org/2000/svg" width="1400" height="820" viewBox="0 0 1400 820" role="img" aria-label="Savannah River analytical figure"><rect x="0" y="0" width="1400" height="820" rx="12" fill="#F8FAFC" stroke="none" /><text x="70" y="62" font-family="Inter, Arial, sans-serif" font-size="30" font-weight="700" fill="#011E42" text-anchor="start">Reservoir cascade: Hartwell - Russell - Thurmond</text><text x="70" y="90" font-family="Inter, Arial, sans-serif" font-size="14" font-weight="400" fill="#64748B" text-anchor="start">Each reservoir in a separate panel — monthly outflow with 12-month average. The cascade controls what reaches the river at Augusta.</text><line x1="70" y1="113" x2="94" y2="113" stroke="#64748B" stroke-width="2"  opacity="0.35" /><text x="100" y="118" font-family="Inter, Arial, sans-serif" font-size="11" font-weight="500" fill="#64748B" text-anchor="start">Monthly</text><line x1="149.6" y1="113" x2="173.6" y2="113" stroke="#011E42" stroke-width="4" /><text x="179.6" y="118" font-family="Inter, Arial, sans-serif" font-size="11" font-weight="500" fill="#64748B" text-anchor="start">12-month average</text><rect x="62" y="120" width="1286" height="232" rx="18" fill="#FFFFFF" stroke="#E2E8F0" /><text x="80" y="144" font-family="Inter, Arial, sans-serif" font-size="15" font-weight="700" fill="#011E42" text-anchor="start">Hartwell — outflow (ft³/s)</text><rect x="1190" y="126" width="72" height="24" rx="12" fill="#DBEAFE" stroke="none" /><text x="1200" y="143" font-family="Inter, Arial, sans-serif" font-size="11" font-weight="700" fill="#0F7B5F" text-anchor="start">2023–2026</text><line x1="80" y1="164.0" x2="1330" y2="164.0" stroke="#E2E8F0" stroke-width="1" stroke-dasharray="4 6" /><line x1="80" y1="244.0" x2="1330" y2="244.0" stroke="#E2E8F0" stroke-width="1" stroke-dasharray="4 6" /><line x1="80" y1="324.0" x2="1330" y2="324.0" stroke="#E2E8F0" stroke-width="1" stroke-dasharray="4 6" /><text x="74" y="170" font-family="Inter, Arial, sans-serif" font-size="11" font-weight="500" fill="#64748B" text-anchor="end">6,766</text><text x="74" y="248.0" font-family="Inter, Arial, sans-serif" font-size="11" font-weight="500" fill="#64748B" text-anchor="end">4,048</text><text x="74" y="328" font-family="Inter, Arial, sans-serif" font-size="11" font-weight="500" fill="#64748B" text-anchor="end">1,331</text><polygon points="80.0,324 80.0,208.1079434598435 112.05128205128204,270.3056719242203 144.1025641025641,272.7964778859405 176.15384615384616,264.3134400543977 208.2051282051282,240.8191858454643 240.25641025641025,249.34210765951292 272.3076923076923,261.58035170331266 304.35897435897436,254.28617007213526 336.4102564102564,283.66757333903655 368.46153846153845,298.9008501834069 400.5128205128205,310.0815388126369 432.56410256410254,312.0525685183739 464.61538461538464,258.14118907880925 496.6666666666667,224.797616691885 528.7179487179487,175.0344827586207 560.7692307692307,252.78186452869454 592.8205128205128,235.2071721323993 624.8717948717949,265.47696733703503 656.9230769230769,259.7915130533635 688.974358974359,286.9547529784585 721.025641025641,284.91688851164685 753.0769230769231,271.96740241168527 785.1282051282051,282.8389565815209 817.1794871794872,281.42985261507454 849.2307692307693,263.440946273911 881.2820512820513,275.31635800520473 913.3333333333334,284.5355034134152 945.3846153846154,269.2815202608579 977.4358974358975,244.1418941163558 1009.4871794871794,283.1837161668642 1041.5384615384614,267.4833772823348 1073.5897435897436,305.1728770099799 1105.6410256410256,269.2337317379061 1137.6923076923076,292.32314427113647 1169.7435897435898,302.6793648461614 1201.7948717948718,283.26820738651304 1233.8461538461538,289.7141910340506 1265.8974358974358,285.97684286493 1297.948717948718,312.9655172413793 1330.0,268.3264609996934 1330.0,324" fill="#0F7B5F" opacity="0.08" /><polyline points="80.0,208.1079434598435 112.05128205128204,270.3056719242203 144.1025641025641,272.7964778859405 176.15384615384616,264.3134400543977 208.2051282051282,240.8191858454643 240.25641025641025,249.34210765951292 272.3076923076923,261.58035170331266 304.35897435897436,254.28617007213526 336.4102564102564,283.66757333903655 368.46153846153845,298.9008501834069 400.5128205128205,310.0815388126369 432.56410256410254,312.0525685183739 464.61538461538464,258.14118907880925 496.6666666666667,224.797616691885 528.7179487179487,175.0344827586207 560.7692307692307,252.78186452869454 592.8205128205128,235.2071721323993 624.8717948717949,265.47696733703503 656.9230769230769,259.7915130533635 688.974358974359,286.9547529784585 721.025641025641,284.91688851164685 753.0769230769231,271.96740241168527 785.1282051282051,282.8389565815209 817.1794871794872,281.42985261507454 849.2307692307693,263.440946273911 881.2820512820513,275.31635800520473 913.3333333333334,284.5355034134152 945.3846153846154,269.2815202608579 977.4358974358975,244.1418941163558 1009.4871794871794,283.1837161668642 1041.5384615384614,267.4833772823348 1073.5897435897436,305.1728770099799 1105.6410256410256,269.2337317379061 1137.6923076923076,292.32314427113647 1169.7435897435898,302.6793648461614 1201.7948717948718,283.26820738651304 1233.8461538461538,289.7141910340506 1265.8974358974358,285.97684286493 1297.948717948718,312.9655172413793 1330.0,268.3264609996934" stroke="#0F7B5F" stroke-width="2" fill="none" opacity="0.35" /><polyline points="240.25641025641025,250.94747113822987 272.3076923076923,252.46645407609884 304.35897435897436,252.6939185756034 336.4102564102564,256.1354357715404 368.46153846153845,260.41197721272704 400.5128205128205,264.92739190362795 432.56410256410254,268.8544899548568 464.61538461538464,273.0239270897706 496.6666666666667,269.2315891537427 528.7179487179487,261.084756226466 560.7692307692307,260.1237915993241 592.8205128205128,259.656123789902 624.8717948717949,261.0006954296955 656.9230769230769,260.85162554219977 688.974358974359,263.57400745106 721.025641025641,263.67811704877755 753.0769230769231,261.43366306780075 785.1282051282051,259.1634478818744 817.1794871794872,256.6115548899328 849.2307692307693,257.05320132285794 881.2820512820513,261.26309643230127 913.3333333333334,270.38818148686744 945.3846153846154,271.76315279788105 977.4358974358975,272.5077129632108 1009.4871794871794,273.98327536569656 1041.5384615384614,274.62426405144413 1073.5897435897436,276.1424410540709 1105.6410256410256,274.83551132292587 1137.6923076923076,276.5318231445468 1169.7435897435898,278.18519049993347 1201.7948717948718,278.3383867308867 1233.8461538461538,280.5278237942317 1265.8974358974358,281.4161975325421 1297.948717948718,283.7853653515391 1330.0,283.70577707977543" stroke="#011E42" stroke-width="4" fill="none" opacity="1.0" /><line x1="80.0" y1="324" x2="1330.0" y2="324" stroke="#E2E8F0" stroke-width="2" /><line x1="80.0" y1="318" x2="80.0" y2="330" stroke="#E2E8F0" stroke-width="1" /><text x="80.0" y="346" font-family="Inter, Arial, sans-serif" font-size="11" font-weight="500" fill="#64748B" text-anchor="middle">2023</text><line x1="464.61538461538464" y1="318" x2="464.61538461538464" y2="330" stroke="#E2E8F0" stroke-width="1" /><text x="464.61538461538464" y="346" font-family="Inter, Arial, sans-serif" font-size="11" font-weight="500" fill="#64748B" text-anchor="middle">2024</text><line x1="849.2307692307693" y1="318" x2="849.2307692307693" y2="330" stroke="#E2E8F0" stroke-width="1" /><text x="849.2307692307693" y="346" font-family="Inter, Arial, sans-serif" font-size="11" font-weight="500" fill="#64748B" text-anchor="middle">2025</text><line x1="1233.8461538461538" y1="318" x2="1233.8461538461538" y2="330" stroke="#E2E8F0" stroke-width="1" /><text x="1233.8461538461538" y="346" font-family="Inter, Arial, sans-serif" font-size="11" font-weight="500" fill="#64748B" text-anchor="middle">2026</text><line x1="1330.0" y1="318" x2="1330.0" y2="330" stroke="#E2E8F0" stroke-width="1" /><text x="1330.0" y="346" font-family="Inter, Arial, sans-serif" font-size="11" font-weight="500" fill="#64748B" text-anchor="middle">2026</text><rect x="62" y="362" width="1286" height="232" rx="18" fill="#FFFFFF" stroke="#E2E8F0" /><text x="80" y="386" font-family="Inter, Arial, sans-serif" font-size="15" font-weight="700" fill="#011E42" text-anchor="start">Russell — outflow (ft³/s)</text><rect x="1190" y="368" width="72" height="24" rx="12" fill="#DBEAFE" stroke="none" /><text x="1200" y="385" font-family="Inter, Arial, sans-serif" font-size="11" font-weight="700" fill="#6D28D9" text-anchor="start">2023–2026</text><line x1="80" y1="406.0" x2="1330" y2="406.0" stroke="#E2E8F0" stroke-width="1" stroke-dasharray="4 6" /><line x1="80" y1="486.0" x2="1330" y2="486.0" stroke="#E2E8F0" stroke-width="1" stroke-dasharray="4 6" /><line x1="80" y1="566.0" x2="1330" y2="566.0" stroke="#E2E8F0" stroke-width="1" stroke-dasharray="4 6" /><text x="74" y="412" font-family="Inter, Arial, sans-serif" font-size="11" font-weight="500" fill="#64748B" text-anchor="end">8,727</text><text x="74" y="490.0" font-family="Inter, Arial, sans-serif" font-size="11" font-weight="500" fill="#64748B" text-anchor="end">5,050</text><text x="74" y="570" font-family="Inter, Arial, sans-serif" font-size="11" font-weight="500" fill="#64748B" text-anchor="end">1,373</text><polygon points="80.0,566 80.0,426.40691212539764 112.05128205128204,507.45425804130423 144.1025641025641,525.6290734654024 176.15384615384616,494.7824346721466 208.2051282051282,494.6016780436835 240.25641025641025,486.52485986923443 272.3076923076923,475.3024694254282 304.35897435897436,441.451100885051 336.4102564102564,476.93000588328454 368.46153846153845,554.9655172413793 400.5128205128205,487.2376687750236 432.56410256410254,469.185388299132 464.61538461538464,454.7345268735445 496.6666666666667,461.8165422875201 528.7179487179487,431.7794040478592 560.7692307692307,502.68808526153435 592.8205128205128,490.1470718359332 624.8717948717949,480.60810131495526 656.9230769230769,462.9561636567462 688.974358974359,417.0344827586207 721.025641025641,437.0938900198789 753.0769230769231,453.334560936153 785.1282051282051,470.0209382441824 817.1794871794872,481.75745269717174 849.2307692307693,436.93050852961903 881.2820512820513,464.28572576111685 913.3333333333334,502.503688815267 945.3846153846154,519.3038925495207 977.4358974358975,506.7464346591503 1009.4871794871794,475.6587886090194 1041.5384615384614,434.47404974261724 1073.5897435897436,464.308753542658 1105.6410256410256,454.7054614204453 1137.6923076923076,435.6082886366456 1169.7435897435898,444.52657871906416 1201.7948717948718,496.02844569626274 1233.8461538461538,471.5505983135224 1265.8974358974358,455.8482483282519 1297.948717948718,484.0541872398147 1330.0,514.2228884865339 1330.0,566" fill="#6D28D9" opacity="0.08" /><polyline points="80.0,426.40691212539764 112.05128205128204,507.45425804130423 144.1025641025641,525.6290734654024 176.15384615384616,494.7824346721466 208.2051282051282,494.6016780436835 240.25641025641025,486.52485986923443 272.3076923076923,475.3024694254282 304.35897435897436,441.451100885051 336.4102564102564,476.93000588328454 368.46153846153845,554.9655172413793 400.5128205128205,487.2376687750236 432.56410256410254,469.185388299132 464.61538461538464,454.7345268735445 496.6666666666667,461.8165422875201 528.7179487179487,431.7794040478592 560.7692307692307,502.68808526153435 592.8205128205128,490.1470718359332 624.8717948717949,480.60810131495526 656.9230769230769,462.9561636567462 688.974358974359,417.0344827586207 721.025641025641,437.0938900198789 753.0769230769231,453.334560936153 785.1282051282051,470.0209382441824 817.1794871794872,481.75745269717174 849.2307692307693,436.93050852961903 881.2820512820513,464.28572576111685 913.3333333333334,502.503688815267 945.3846153846154,519.3038925495207 977.4358974358975,506.7464346591503 1009.4871794871794,475.6587886090194 1041.5384615384614,434.47404974261724 1073.5897435897436,464.308753542658 1105.6410256410256,454.7054614204453 1137.6923076923076,435.6082886366456 1169.7435897435898,444.52657871906416 1201.7948717948718,496.02844569626274 1233.8461538461538,471.5505983135224 1265.8974358974358,455.8482483282519 1297.948717948718,484.0541872398147 1330.0,514.2228884865339" stroke="#6D28D9" stroke-width="2" fill="none" opacity="0.35" /><polyline points="240.25641025641025,489.2332027028615 272.3076923076923,487.2430979489424 304.35897435897436,481.519098315956 336.4102564102564,481.0091991567703 368.46153846153845,488.4048309652312 400.5128205128205,488.29872531157594 432.56410256410254,486.7059472272056 464.61538461538464,489.0665817895512 496.6666666666667,485.26343881006915 528.7179487179487,477.4426330252739 560.7692307692307,478.10143724105626 592.8205128205128,477.7302200570771 624.8717948717949,477.23715684422046 656.9230769230769,476.20829803016363 688.974358974359,474.1735798529611 721.025641025641,470.8539035310106 753.0769230769231,462.38465717224176 785.1282051282051,460.94992962800495 817.1794871794872,461.99760166117494 849.2307692307693,460.51393346584786 881.2820512820513,460.7196987553142 913.3333333333334,466.61338915259824 945.3846153846154,467.9980397599304 977.4358974358975,469.3813199951985 1009.4871794871794,468.96887726970385 1041.5384615384614,466.59536777685975 1073.5897435897436,470.53489034219615 1105.6410256410256,472.0025212922434 1137.6923076923076,470.5253319339511 1169.7435897435898,468.4008019735246 1201.7948717948718,469.59005139011555 1233.8461538461538,472.47505887210747 1265.8974358974358,471.771935752702 1297.948717948718,470.23447728808105 1330.0,469.81106028283216" stroke="#011E42" stroke-width="4" fill="none" opacity="1.0" /><line x1="80.0" y1="566" x2="1330.0" y2="566" stroke="#E2E8F0" stroke-width="2" /><line x1="80.0" y1="560" x2="80.0" y2="572" stroke="#E2E8F0" stroke-width="1" /><text x="80.0" y="588" font-family="Inter, Arial, sans-serif" font-size="11" font-weight="500" fill="#64748B" text-anchor="middle">2023</text><line x1="464.61538461538464" y1="560" x2="464.61538461538464" y2="572" stroke="#E2E8F0" stroke-width="1" /><text x="464.61538461538464" y="588" font-family="Inter, Arial, sans-serif" font-size="11" font-weight="500" fill="#64748B" text-anchor="middle">2024</text><line x1="849.2307692307693" y1="560" x2="849.2307692307693" y2="572" stroke="#E2E8F0" stroke-width="1" /><text x="849.2307692307693" y="588" font-family="Inter, Arial, sans-serif" font-size="11" font-weight="500" fill="#64748B" text-anchor="middle">2025</text><line x1="1233.8461538461538" y1="560" x2="1233.8461538461538" y2="572" stroke="#E2E8F0" stroke-width="1" /><text x="1233.8461538461538" y="588" font-family="Inter, Arial, sans-serif" font-size="11" font-weight="500" fill="#64748B" text-anchor="middle">2026</text><line x1="1330.0" y1="560" x2="1330.0" y2="572" stroke="#E2E8F0" stroke-width="1" /><text x="1330.0" y="588" font-family="Inter, Arial, sans-serif" font-size="11" font-weight="500" fill="#64748B" text-anchor="middle">2026</text><rect x="62" y="604" width="1286" height="232" rx="18" fill="#FFFFFF" stroke="#E2E8F0" /><text x="80" y="628" font-family="Inter, Arial, sans-serif" font-size="15" font-weight="700" fill="#011E42" text-anchor="start">Thurmond — outflow (ft³/s)</text><rect x="1190" y="610" width="72" height="24" rx="12" fill="#DBEAFE" stroke="none" /><text x="1200" y="627" font-family="Inter, Arial, sans-serif" font-size="11" font-weight="700" fill="#C27803" text-anchor="start">2006–2026</text><line x1="80" y1="648.0" x2="1330" y2="648.0" stroke="#E2E8F0" stroke-width="1" stroke-dasharray="4 6" /><line x1="80" y1="728.0" x2="1330" y2="728.0" stroke="#E2E8F0" stroke-width="1" stroke-dasharray="4 6" /><line x1="80" y1="808.0" x2="1330" y2="808.0" stroke="#E2E8F0" stroke-width="1" stroke-dasharray="4 6" /><text x="74" y="654" font-family="Inter, Arial, sans-serif" font-size="11" font-weight="500" fill="#64748B" text-anchor="end">35,934</text><text x="74" y="732.0" font-family="Inter, Arial, sans-serif" font-size="11" font-weight="500" fill="#64748B" text-anchor="end">16,636</text><text x="74" y="812" font-family="Inter, Arial, sans-serif" font-size="11" font-weight="500" fill="#64748B" text-anchor="end">-2,662</text><polygon points="80.0,808 80.0,796.5901029804913 85.18672199170125,796.9655172413793 90.3734439834025,785.926456489677 95.56016597510373,796.561800022233 100.74688796680498,794.3479639695662 105.93360995850622,790.8109362742528 111.12033195020747,795.9179401637883 116.30705394190872,796.9468168588129 121.49377593360995,796.9655172413793 126.6804979253112,796.9655172413793 131.86721991701245,796.9655172413793 137.05394190871368,796.9235158095673 142.24066390041494,796.5790261981224 147.42738589211618,796.8567635307519 152.61410788381744,796.9262255768209 157.80082987551867,796.3952475667029 162.9875518672199,796.8672412789488 168.17427385892117,796.9046151644229 173.3609958506224,796.543109178546 178.54771784232366,796.9655172413793 183.7344398340249,796.9452165490605 188.92116182572613,796.9655172413793 194.1078838174274,796.9655172413793 199.29460580912863,796.9655172413793 204.4813278008299,795.6679081481453 209.66804979253112,796.9655172413793 214.85477178423236,796.1049319425239 220.04149377593362,796.9655172413793 225.22821576763485,796.886933916408 230.4149377593361,796.9518535530226 235.60165975103735,796.9497441423673 240.78838174273858,796.9655172413793 245.97510373443984,796.9655172413793 251.16182572614107,796.9655172413793 256.34854771784234,796.9655172413793 261.53526970954357,796.1417188987926 266.7219917012448,796.4594033965055 271.9087136929461,795.5757261243933 277.0954356846473,796.9655172413793 282.28215767634856,796.7390479619744 287.4688796680498,796.5897457513187 292.655601659751,796.9655172413793 297.84232365145226,796.9655172413793 303.0290456431535,796.9655172413793 308.2157676348548,796.9655172413793 313.402489626556,796.0829244955116 318.58921161825725,748.7934766242238 323.77593360995854,720.9044060909423 328.9626556016598,749.3156233398643 334.149377593361,719.2335815252429 339.33609958506224,794.3919307297662 344.5228215767635,796.0689744956754 349.7095435684647,793.4729749377574 354.896265560166,792.9091139060185 360.08298755186723,796.5661431640381 365.26970954356847,796.8842914726675 370.4564315352697,796.9655172413793 375.64315352697093,796.9655172413793 380.8298755186722,796.8912077862979 386.01659751037346,795.0478415260601 391.2033195020747,796.8011279972774 396.3900414937759,796.9655172413793 401.57676348547716,793.3508969131201 406.76348547717845,787.4888180007507 411.9502074688797,796.9458714111729 417.1369294605809,796.9045667984484 422.32365145228215,796.9655172413793 427.5103734439834,795.7329850456878 432.6970954356847,796.9655172413793 437.8838174273859,796.9655172413793 443.07053941908714,796.9655172413793 448.2572614107884,796.9458714111729 453.4439834024896,796.9655172413793 458.6307053941909,796.9437664984247 463.81742738589213,795.8061405699523 469.00414937759336,796.9044686901811 474.1908713692946,796.9655172413793 479.37759336099583,796.9452165490605 484.5643153526971,796.9655172413793 489.75103734439836,796.9655172413793 494.9377593360996,796.9655172413793 500.1244813278008,796.9655172413793 505.31120331950206,796.094951712601 510.49792531120335,796.9655172413793 515.6846473029045,795.3902253997952 520.8713692946058,796.4507185928519 526.058091286307,796.0897713133679 531.2448132780082,796.9655172413793 536.4315352697096,796.5717064740426 541.6182572614108,795.610374232552 546.804979253112,721.0174615584838 551.9917012448133,796.9458714111729 557.1784232365145,795.6392467999642 562.3651452282159,796.9262255768209 567.5518672199171,788.6501485049931 572.7385892116183,796.9262255768209 577.9253112033196,753.2500577279446 583.1120331950208,796.9249442826856 588.298755186722,793.2778427969698 593.4854771784233,793.9543487554779 598.6721991701245,794.1465002555104 603.8589211618257,792.2131874893967 609.045643153527,788.058013985615 614.2323651452282,792.0958852098821 619.4190871369294,796.9045667984484 624.6058091286307,785.7663461978927 629.792531120332,791.6769852409969 634.9792531120332,791.2616066856687 640.1659751037345,791.9159483756636 645.3526970954357,793.0250500529929 650.5394190871369,794.2616425115144 655.7261410788382,796.9655172413793 660.9128630705394,796.9655172413793 666.0995850622406,786.5624080490584 671.2863070539419,785.7169029766783 676.4730290456431,791.0694104760248 681.6597510373444,791.8071503907062 686.8464730290457,796.9655172413793 692.0331950207469,782.3969895399365 697.2199170124481,659.0344827586207 702.4066390041494,793.2692639656661 707.5933609958506,796.9045667984484 712.7800829875519,796.9655172413793 717.9668049792531,795.705831781508 723.1535269709543,796.3012599628123 728.3402489626556,795.918297214703 733.5269709543569,796.9655172413793 738.7136929460581,795.0804117047678 743.9004149377594,796.9458714111729 749.0871369294606,794.6787210726027 754.2738589211618,795.2963878394532 759.4605809128631,794.6374534712282 764.6473029045643,792.394023888457 769.8340248962655,796.465986015174 775.0207468879668,795.8883189249179 780.207468879668,793.8111544373767 785.3941908713693,793.2523712401519 790.5809128630706,793.4128579715251 795.7676348547718,795.1106985592724 800.954356846473,796.9655172413793 806.1410788381743,796.1221212107017 811.3278008298755,796.8752382054372 816.5145228215767,792.711044047361 821.701244813278,796.9655172413793 826.8879668049792,796.9011785146512 832.0746887966804,795.7206927712847 837.2614107883818,767.604828416981 842.448132780083,764.3871732072303 847.6348547717843,796.9655172413793 852.8215767634855,793.0882303717248 858.0082987551867,795.6421749292081 863.195020746888,794.5517411624577 868.3817427385892,764.0992620273948 873.5684647302904,707.4229260986059 878.7551867219917,714.8009246526899 883.9419087136929,778.3954205965364 889.1286307053942,763.1586798170715 894.3153526970955,774.1303696929994 899.5020746887967,794.483764644526 904.688796680498,792.1377414898785 909.8755186721992,785.9837128574552 915.0622406639004,794.8317612306241 920.2489626556016,795.7810089471286 925.4356846473029,796.866957778143 930.6224066390041,791.8462830324838 935.8091286307053,793.5739570898435 940.9958506224067,786.1222700613205 946.1825726141079,723.7240983473998 951.3692946058092,716.7927217152255 956.5560165975104,791.6090080390517 961.7427385892116,792.5683709600025 966.9294605809129,781.9981999790986 972.1161825726141,791.7769730985863 977.3029045643153,789.7436910054314 982.4896265560166,788.2543825202318 987.6763485477178,790.3917166637746 992.8630705394191,747.4785733475738 998.0497925311204,794.2510767411408 1003.2365145228216,796.9655172413793 1008.4232365145228,794.6866195840543 1013.6099585062241,792.3784700302892 1018.7966804979253,781.1099322010173 1023.9834024896265,795.413089579966 1029.1701244813278,795.7233029378779 1034.356846473029,794.7437610748701 1039.5435684647302,785.7293694838356 1044.7302904564317,796.423757801787 1049.917012448133,765.1057666132874 1055.1037344398342,794.4801452139037 1060.2904564315354,793.8011904372291 1065.4771784232366,790.3834991408514 1070.6639004149379,794.1761976022857 1075.850622406639,767.5072132530711 1081.0373443983403,750.8033785381322 1086.2240663900416,796.4608982355178 1091.4107883817428,790.6577932447427 1096.597510373444,786.5577618560974 1101.7842323651453,792.8227782951051 1106.9709543568465,796.9247693825 1112.1576763485477,796.401175994836 1117.344398340249,795.9162447803016 1122.5311203319502,796.3618375271703 1127.7178423236514,747.4450749832403 1132.9045643153527,748.8791422210888 1138.091286307054,776.4141535035211 1143.2780082987551,755.0199398389472 1148.4647302904564,766.1548166414578 1153.6514522821576,765.8871768159793 1158.8381742738588,766.5659697799271 1164.02489626556,768.1453631407204 1169.2116182572613,775.5950117633377 1174.3983402489628,779.8583040432283 1179.585062240664,781.8441117133708 1184.7717842323652,781.969417286918 1189.9585062240665,775.1463955233029 1195.1452282157677,750.5333877830409 1200.331950207469,739.9277345539938 1205.5186721991702,765.8208241585929 1210.7053941908714,763.2684218733507 1215.8921161825726,772.2501842864019 1221.0788381742739,766.6518388853252 1226.265560165975,773.4521454510608 1231.4522821576763,781.635427129699 1236.6390041493776,770.5249991677111 1241.8257261410788,772.9619374535692 1247.01244813278,775.3871796512128 1252.1991701244813,776.6159150577934 1257.3858921161825,775.1954125460537 1262.5726141078837,773.7603639519278 1267.759336099585,769.7473611379344 1272.9460580912862,758.2926317884416 1278.1327800829877,764.0746198970864 1283.319502074689,773.0245252797856 1288.5062240663901,759.6245212931817 1293.6929460580914,769.2323407529498 1298.8796680497926,778.6722793324478 1304.0663900414938,779.0570226009274 1309.253112033195,776.3194827317949 1314.4398340248963,779.8936405633264 1319.6265560165975,780.9211513952706 1324.8132780082988,780.6668142316647 1330.0,781.4306961815124 1330.0,808" fill="#C27803" opacity="0.08" /><polyline points="80.0,796.5901029804913 85.18672199170125,796.9655172413793 90.3734439834025,785.926456489677 95.56016597510373,796.561800022233 100.74688796680498,794.3479639695662 105.93360995850622,790.8109362742528 111.12033195020747,795.9179401637883 116.30705394190872,796.9468168588129 121.49377593360995,796.9655172413793 126.6804979253112,796.9655172413793 131.86721991701245,796.9655172413793 137.05394190871368,796.9235158095673 142.24066390041494,796.5790261981224 147.42738589211618,796.8567635307519 152.61410788381744,796.9262255768209 157.80082987551867,796.3952475667029 162.9875518672199,796.8672412789488 168.17427385892117,796.9046151644229 173.3609958506224,796.543109178546 178.54771784232366,796.9655172413793 183.7344398340249,796.9452165490605 188.92116182572613,796.9655172413793 194.1078838174274,796.9655172413793 199.29460580912863,796.9655172413793 204.4813278008299,795.6679081481453 209.66804979253112,796.9655172413793 214.85477178423236,796.1049319425239 220.04149377593362,796.9655172413793 225.22821576763485,796.886933916408 230.4149377593361,796.9518535530226 235.60165975103735,796.9497441423673 240.78838174273858,796.9655172413793 245.97510373443984,796.9655172413793 251.16182572614107,796.9655172413793 256.34854771784234,796.9655172413793 261.53526970954357,796.1417188987926 266.7219917012448,796.4594033965055 271.9087136929461,795.5757261243933 277.0954356846473,796.9655172413793 282.28215767634856,796.7390479619744 287.4688796680498,796.5897457513187 292.655601659751,796.9655172413793 297.84232365145226,796.9655172413793 303.0290456431535,796.9655172413793 308.2157676348548,796.9655172413793 313.402489626556,796.0829244955116 318.58921161825725,748.7934766242238 323.77593360995854,720.9044060909423 328.9626556016598,749.3156233398643 334.149377593361,719.2335815252429 339.33609958506224,794.3919307297662 344.5228215767635,796.0689744956754 349.7095435684647,793.4729749377574 354.896265560166,792.9091139060185 360.08298755186723,796.5661431640381 365.26970954356847,796.8842914726675 370.4564315352697,796.9655172413793 375.64315352697093,796.9655172413793 380.8298755186722,796.8912077862979 386.01659751037346,795.0478415260601 391.2033195020747,796.8011279972774 396.3900414937759,796.9655172413793 401.57676348547716,793.3508969131201 406.76348547717845,787.4888180007507 411.9502074688797,796.9458714111729 417.1369294605809,796.9045667984484 422.32365145228215,796.9655172413793 427.5103734439834,795.7329850456878 432.6970954356847,796.9655172413793 437.8838174273859,796.9655172413793 443.07053941908714,796.9655172413793 448.2572614107884,796.9458714111729 453.4439834024896,796.9655172413793 458.6307053941909,796.9437664984247 463.81742738589213,795.8061405699523 469.00414937759336,796.9044686901811 474.1908713692946,796.9655172413793 479.37759336099583,796.9452165490605 484.5643153526971,796.9655172413793 489.75103734439836,796.9655172413793 494.9377593360996,796.9655172413793 500.1244813278008,796.9655172413793 505.31120331950206,796.094951712601 510.49792531120335,796.9655172413793 515.6846473029045,795.3902253997952 520.8713692946058,796.4507185928519 526.058091286307,796.0897713133679 531.2448132780082,796.9655172413793 536.4315352697096,796.5717064740426 541.6182572614108,795.610374232552 546.804979253112,721.0174615584838 551.9917012448133,796.9458714111729 557.1784232365145,795.6392467999642 562.3651452282159,796.9262255768209 567.5518672199171,788.6501485049931 572.7385892116183,796.9262255768209 577.9253112033196,753.2500577279446 583.1120331950208,796.9249442826856 588.298755186722,793.2778427969698 593.4854771784233,793.9543487554779 598.6721991701245,794.1465002555104 603.8589211618257,792.2131874893967 609.045643153527,788.058013985615 614.2323651452282,792.0958852098821 619.4190871369294,796.9045667984484 624.6058091286307,785.7663461978927 629.792531120332,791.6769852409969 634.9792531120332,791.2616066856687 640.1659751037345,791.9159483756636 645.3526970954357,793.0250500529929 650.5394190871369,794.2616425115144 655.7261410788382,796.9655172413793 660.9128630705394,796.9655172413793 666.0995850622406,786.5624080490584 671.2863070539419,785.7169029766783 676.4730290456431,791.0694104760248 681.6597510373444,791.8071503907062 686.8464730290457,796.9655172413793 692.0331950207469,782.3969895399365 697.2199170124481,659.0344827586207 702.4066390041494,793.2692639656661 707.5933609958506,796.9045667984484 712.7800829875519,796.9655172413793 717.9668049792531,795.705831781508 723.1535269709543,796.3012599628123 728.3402489626556,795.918297214703 733.5269709543569,796.9655172413793 738.7136929460581,795.0804117047678 743.9004149377594,796.9458714111729 749.0871369294606,794.6787210726027 754.2738589211618,795.2963878394532 759.4605809128631,794.6374534712282 764.6473029045643,792.394023888457 769.8340248962655,796.465986015174 775.0207468879668,795.8883189249179 780.207468879668,793.8111544373767 785.3941908713693,793.2523712401519 790.5809128630706,793.4128579715251 795.7676348547718,795.1106985592724 800.954356846473,796.9655172413793 806.1410788381743,796.1221212107017 811.3278008298755,796.8752382054372 816.5145228215767,792.711044047361 821.701244813278,796.9655172413793 826.8879668049792,796.9011785146512 832.0746887966804,795.7206927712847 837.2614107883818,767.604828416981 842.448132780083,764.3871732072303 847.6348547717843,796.9655172413793 852.8215767634855,793.0882303717248 858.0082987551867,795.6421749292081 863.195020746888,794.5517411624577 868.3817427385892,764.0992620273948 873.5684647302904,707.4229260986059 878.7551867219917,714.8009246526899 883.9419087136929,778.3954205965364 889.1286307053942,763.1586798170715 894.3153526970955,774.1303696929994 899.5020746887967,794.483764644526 904.688796680498,792.1377414898785 909.8755186721992,785.9837128574552 915.0622406639004,794.8317612306241 920.2489626556016,795.7810089471286 925.4356846473029,796.866957778143 930.6224066390041,791.8462830324838 935.8091286307053,793.5739570898435 940.9958506224067,786.1222700613205 946.1825726141079,723.7240983473998 951.3692946058092,716.7927217152255 956.5560165975104,791.6090080390517 961.7427385892116,792.5683709600025 966.9294605809129,781.9981999790986 972.1161825726141,791.7769730985863 977.3029045643153,789.7436910054314 982.4896265560166,788.2543825202318 987.6763485477178,790.3917166637746 992.8630705394191,747.4785733475738 998.0497925311204,794.2510767411408 1003.2365145228216,796.9655172413793 1008.4232365145228,794.6866195840543 1013.6099585062241,792.3784700302892 1018.7966804979253,781.1099322010173 1023.9834024896265,795.413089579966 1029.1701244813278,795.7233029378779 1034.356846473029,794.7437610748701 1039.5435684647302,785.7293694838356 1044.7302904564317,796.423757801787 1049.917012448133,765.1057666132874 1055.1037344398342,794.4801452139037 1060.2904564315354,793.8011904372291 1065.4771784232366,790.3834991408514 1070.6639004149379,794.1761976022857 1075.850622406639,767.5072132530711 1081.0373443983403,750.8033785381322 1086.2240663900416,796.4608982355178 1091.4107883817428,790.6577932447427 1096.597510373444,786.5577618560974 1101.7842323651453,792.8227782951051 1106.9709543568465,796.9247693825 1112.1576763485477,796.401175994836 1117.344398340249,795.9162447803016 1122.5311203319502,796.3618375271703 1127.7178423236514,747.4450749832403 1132.9045643153527,748.8791422210888 1138.091286307054,776.4141535035211 1143.2780082987551,755.0199398389472 1148.4647302904564,766.1548166414578 1153.6514522821576,765.8871768159793 1158.8381742738588,766.5659697799271 1164.02489626556,768.1453631407204 1169.2116182572613,775.5950117633377 1174.3983402489628,779.8583040432283 1179.585062240664,781.8441117133708 1184.7717842323652,781.969417286918 1189.9585062240665,775.1463955233029 1195.1452282157677,750.5333877830409 1200.331950207469,739.9277345539938 1205.5186721991702,765.8208241585929 1210.7053941908714,763.2684218733507 1215.8921161825726,772.2501842864019 1221.0788381742739,766.6518388853252 1226.265560165975,773.4521454510608 1231.4522821576763,781.635427129699 1236.6390041493776,770.5249991677111 1241.8257261410788,772.9619374535692 1247.01244813278,775.3871796512128 1252.1991701244813,776.6159150577934 1257.3858921161825,775.1954125460537 1262.5726141078837,773.7603639519278 1267.759336099585,769.7473611379344 1272.9460580912862,758.2926317884416 1278.1327800829877,764.0746198970864 1283.319502074689,773.0245252797856 1288.5062240663901,759.6245212931817 1293.6929460580914,769.2323407529498 1298.8796680497926,778.6722793324478 1304.0663900414938,779.0570226009274 1309.253112033195,776.3194827317949 1314.4398340248963,779.8936405633264 1319.6265560165975,780.9211513952706 1324.8132780082988,780.6668142316647 1330.0,781.4306961815124" stroke="#C27803" stroke-width="2" fill="none" opacity="0.35" /><polyline points="105.93360995850622,793.5337961629333 111.12033195020747,793.8743881630554 116.30705394190872,794.2584417500251 121.49377593360995,794.5592279157311 126.6804979253112,794.7998568482959 131.86721991701245,794.996735065849 137.05394190871368,795.1573001278255 142.24066390041494,795.156377062628 147.42738589211618,795.1473142534091 152.61410788381744,796.0639616773378 157.80082987551867,796.0500823060436 162.9875518672199,796.2600220818255 168.17427385892117,796.7678286560064 173.3609958506224,796.8199260739028 178.54771784232366,796.8214844391167 183.7344398340249,796.8197927147568 188.92116182572613,796.8197927147568 194.1078838174274,796.8197927147568 199.29460580912863,796.8232928340744 204.4813278008299,796.7473663299097 209.66804979253112,796.7564291391286 214.85477178423236,796.6879880029372 220.04149377593362,796.7355104758269 225.22821576763485,796.7371515289485 230.4149377593361,796.7410880613319 235.60165975103735,796.7749743083169 240.78838174273858,796.7749743083169 245.97510373443984,796.7766660326769 251.16182572614107,796.7766660326769 256.34854771784234,796.7766660326769 261.53526970954357,796.7080161707946 266.7219917012448,796.773974108158 271.9087136929461,796.6581581817425 277.0954356846473,796.7298736233138 282.28215767634856,796.7110011833634 287.4688796680498,796.6862355029392 292.655601659751,796.6873741436357 297.84232365145226,796.6886885685533 303.0290456431535,796.6886885685533 308.2157676348548,796.6886885685533 313.402489626556,796.6151391730643 318.58921161825725,792.6008024549681 323.77593360995854,786.3310263876472 328.9626556016598,782.4023780495937 334.149377593361,776.0405326663312 339.33609958506224,775.8260671236968 344.5228215767635,775.7702276681719 349.7095435684647,775.5104967670418 354.896265560166,775.1724631557616 360.08298755186723,775.1391819826499 365.26970954356847,775.1324131685906 370.4564315352697,775.1324131685906 375.64315352697093,775.2059625640795 380.8298755186722,779.2141068275857 386.01659751037346,785.3927264471789 391.2033195020747,789.3498518352967 396.3900414937759,795.8275131449747 401.57676348547716,795.7407603269208 406.76348547717845,795.0257472856771 411.9502074688797,795.3151553251284 417.1369294605809,795.6481097328309 422.32365145228215,795.6813909059426 427.5103734439834,795.5854487036944 432.6970954356847,795.5854487036944 437.8838174273859,795.5854487036944 443.07053941908714,795.5916411582845 448.2572614107884,795.7498103153772 453.4439834024896,795.7635094190524 458.6307053941909,795.7616968571394 463.81742738589213,795.9663004952089 469.00414937759336,796.7509380526614 474.1908713692946,796.7525752051786 479.37759336099583,796.7559626843963 484.5643153526971,796.7559626843963 489.75103734439836,796.8586737007039 494.9377593360996,796.8586737007039 500.1244813278008,796.8586737007039 505.31120331950206,796.7861265733056 510.49792531120335,796.7877637258229 515.6846473029045,796.6564894056909 520.8713692946058,796.6154020802264 526.058091286307,796.6390379755111 531.2448132780082,796.6441253547777 536.4315352697096,796.6113077908329 541.6182572614108,796.5000709311239 546.804979253112,790.1710662908825 551.9917012448133,790.1694291383653 557.1784232365145,790.0589066015808 562.3651452282159,790.0556322962009 567.5518672199171,789.4352320289003 572.7385892116183,789.4319577235203 577.9253112033196,785.9202770841995 583.1120331950208,785.9597958916856 588.298755186722,785.7254685153191 593.4854771784233,785.4745378081607 598.6721991701245,785.2724372899497 603.8589211618257,784.9893383946867 609.045643153527,790.5760510969477 614.2323651452282,790.1718855801735 619.4190871369294,790.2773289133804 624.6058091286307,789.3473389651365 629.792531120332,789.5995753598035 634.9792531120332,789.1275237855407 640.1659751037345,792.3496813395174 645.3526970954357,792.0246901537096 650.5394190871369,792.106673463255 655.7261410788382,792.3576041704134 660.9128630705394,792.5925222525692 666.0995850622406,792.1216239658743 671.2863070539419,791.9265313817963 676.4730290456431,791.8409918206414 681.6597510373444,791.4162071199963 686.8464730290457,792.3494713736202 692.0331950207469,791.5761383985318 697.2199170124481,780.5572114046112 702.4066390041494,780.669987703778 707.5933609958506,780.9932807658993 712.7800829875519,781.2186036600547 717.9668049792531,781.1136298717321 723.1535269709543,781.0582750985182 728.3402489626556,781.8379325289886 733.5269709543569,782.775317051047 738.7136929460581,783.1095671534423 743.9004149377594,783.5377939051479 749.0871369294606,783.3472275577498 754.2738589211618,784.4221774160428 759.4605809128631,795.7224249754267 764.6473029045643,795.6494883023261 769.8340248962655,795.6129399037198 775.0207468879668,795.523173377348 780.207468879668,795.3652835986704 785.3941908713693,795.1112095384487 790.5809128630706,794.9024229348506 795.7676348547718,794.7478547113417 800.954356846473,794.9049468393927 806.1410788381743,794.8363009893534 811.3278008298755,795.0193440837562 816.5145228215767,794.8038987677486 821.701244813278,794.9979040819278 826.8879668049792,795.3735003007773 832.0746887966804,795.3113925304532 837.2614107883818,792.9544349881252 842.448132780083,790.5024365522796 847.6348547717843,790.8118653857152 852.8215767634855,790.7848130857318 858.0082987551867,790.8291027832265 863.195020746888,790.6279547766496 868.3817427385892,787.9593831780408 873.5684647302904,780.5050238358049 878.7551867219917,774.0125138862489 883.9419087136929,772.465005832512 889.1286307053942,769.653130941047 894.3153526970955,767.8539373511899 899.5020746887967,770.0938487034853 904.688796680498,772.4063960603727 909.8755186721992,771.4912456950457 915.0622406639004,771.6365399332873 920.2489626556016,771.6481094347806 925.4356846473029,771.8410441527544 930.6224066390041,774.1532959031786 935.8091286307053,781.3325484857817 940.9958506224067,787.2759939365009 946.1825726141079,782.7200504157395 951.3692946058092,778.856220573919 956.5560165975104,780.3127737694233 961.7427385892116,780.1531576290464 966.9294605809129,779.3081958364814 972.1161825726141,779.7909675232423 977.3029045643153,779.3669616711429 982.4896265560166,778.7397428022349 987.6763485477178,778.2001393760374 992.8630705394191,774.5028302356284 998.0497925311204,774.5592568732364 1003.2365145228216,775.462860804908 1008.4232365145228,781.3764042412959 1013.6099585062241,787.6752166008845 1018.7966804979253,786.8002936143816 1023.9834024896265,787.0373534993786 1029.1701244813278,788.1811120792769 1034.356846473029,788.4283444106338 1039.5435684647302,788.0938176171676 1044.7302904564317,788.7745988906305 1049.917012448133,786.6674363864232 1055.1037344398342,790.5842340419507 1060.2904564315354,790.5467435166247 1065.4771784232366,789.9982420082474 1070.6639004149379,789.9557068431001 1075.850622406639,787.8831021116652 1081.0373443983403,785.3575559730914 1086.2240663900416,785.4448733610541 1091.4107883817428,785.0227475532928 1096.597510373444,784.3405809517284 1101.7842323651453,784.9316983526676 1106.9709543568465,784.9734493177269 1112.1576763485477,787.5814000995226 1117.344398340249,787.7010750633892 1122.5311203319502,787.9144623208842 1127.7178423236514,784.33626030775 1132.9045643153527,780.5615056926503 1138.091286307054,781.3037507135211 1143.2780082987551,781.6551308219223 1148.4647302904564,779.1296240224174 1153.6514522821576,777.0654059866871 1158.8381742738588,775.3994233136729 1164.02489626556,773.3429720508075 1169.2116182572613,771.5654922492106 1174.3983402489628,770.1869195865767 1179.585062240664,769.014241830999 1184.7717842323652,767.8148734776447 1189.9585062240665,770.1233168559833 1195.1452282157677,770.2611706528126 1200.331950207469,767.220635740352 1205.5186721991702,768.1207094336559 1210.7053941908714,767.8801765363136 1215.8921161825726,768.4104271588487 1221.0788381742739,768.417582917632 1226.265560165975,768.859814776827 1231.4522821576763,769.3631827240238 1236.6390041493776,768.5854073177306 1241.8257261410788,767.8452261294138 1247.01244813278,767.2967063264384 1252.1991701244813,767.419166287646 1257.3858921161825,769.474335017897 1262.5726141078837,772.2937208010583 1267.759336099585,772.6209322160033 1272.9460580912862,772.2062830422609 1278.1327800829877,771.5249860098179 1283.319502074689,772.0560432093563 1288.5062240663901,770.9037411961997 1293.6929460580914,769.870150664804 1298.8796680497926,770.549090678532 1304.0663900414938,771.0570144408118 1309.253112033195,771.1347063641937 1314.4398340248963,771.4078501563215 1319.6265560165975,771.8849950604229 1324.8132780082988,772.4605325837342 1330.0,773.4341438373657" stroke="#011E42" stroke-width="4" fill="none" opacity="1.0" /><line x1="80.0" y1="808" x2="1330.0" y2="808" stroke="#E2E8F0" stroke-width="2" /><line x1="80.0" y1="802" x2="80.0" y2="814" stroke="#E2E8F0" stroke-width="1" /><text x="80.0" y="830" font-family="Inter, Arial, sans-serif" font-size="11" font-weight="500" fill="#64748B" text-anchor="middle">2006</text><line x1="142.24066390041494" y1="802" x2="142.24066390041494" y2="814" stroke="#E2E8F0" stroke-width="1" /><text x="142.24066390041494" y="830" font-family="Inter, Arial, sans-serif" font-size="11" font-weight="500" fill="#64748B" text-anchor="middle">2007</text><line x1="204.4813278008299" y1="802" x2="204.4813278008299" y2="814" stroke="#E2E8F0" stroke-width="1" /><text x="204.4813278008299" y="830" font-family="Inter, Arial, sans-serif" font-size="11" font-weight="500" fill="#64748B" text-anchor="middle">2008</text><line x1="266.7219917012448" y1="802" x2="266.7219917012448" y2="814" stroke="#E2E8F0" stroke-width="1" /><text x="266.7219917012448" y="830" font-family="Inter, Arial, sans-serif" font-size="11" font-weight="500" fill="#64748B" text-anchor="middle">2009</text><line x1="328.9626556016598" y1="802" x2="328.9626556016598" y2="814" stroke="#E2E8F0" stroke-width="1" /><text x="328.9626556016598" y="830" font-family="Inter, Arial, sans-serif" font-size="11" font-weight="500" fill="#64748B" text-anchor="middle">2010</text><line x1="391.2033195020747" y1="802" x2="391.2033195020747" y2="814" stroke="#E2E8F0" stroke-width="1" /><text x="391.2033195020747" y="830" font-family="Inter, Arial, sans-serif" font-size="11" font-weight="500" fill="#64748B" text-anchor="middle">2011</text><line x1="453.4439834024896" y1="802" x2="453.4439834024896" y2="814" stroke="#E2E8F0" stroke-width="1" /><text x="453.4439834024896" y="830" font-family="Inter, Arial, sans-serif" font-size="11" font-weight="500" fill="#64748B" text-anchor="middle">2012</text><line x1="515.6846473029045" y1="802" x2="515.6846473029045" y2="814" stroke="#E2E8F0" stroke-width="1" /><text x="515.6846473029045" y="830" font-family="Inter, Arial, sans-serif" font-size="11" font-weight="500" fill="#64748B" text-anchor="middle">2013</text><line x1="577.9253112033196" y1="802" x2="577.9253112033196" y2="814" stroke="#E2E8F0" stroke-width="1" /><text x="577.9253112033196" y="830" font-family="Inter, Arial, sans-serif" font-size="11" font-weight="500" fill="#64748B" text-anchor="middle">2014</text><line x1="640.1659751037345" y1="802" x2="640.1659751037345" y2="814" stroke="#E2E8F0" stroke-width="1" /><text x="640.1659751037345" y="830" font-family="Inter, Arial, sans-serif" font-size="11" font-weight="500" fill="#64748B" text-anchor="middle">2015</text><line x1="697.2199170124481" y1="802" x2="697.2199170124481" y2="814" stroke="#E2E8F0" stroke-width="1" /><text x="697.2199170124481" y="830" font-family="Inter, Arial, sans-serif" font-size="11" font-weight="500" fill="#64748B" text-anchor="middle">2016</text><line x1="759.4605809128631" y1="802" x2="759.4605809128631" y2="814" stroke="#E2E8F0" stroke-width="1" /><text x="759.4605809128631" y="830" font-family="Inter, Arial, sans-serif" font-size="11" font-weight="500" fill="#64748B" text-anchor="middle">2017</text><line x1="821.701244813278" y1="802" x2="821.701244813278" y2="814" stroke="#E2E8F0" stroke-width="1" /><text x="821.701244813278" y="830" font-family="Inter, Arial, sans-serif" font-size="11" font-weight="500" fill="#64748B" text-anchor="middle">2018</text><line x1="878.7551867219917" y1="802" x2="878.7551867219917" y2="814" stroke="#E2E8F0" stroke-width="1" /><text x="878.7551867219917" y="830" font-family="Inter, Arial, sans-serif" font-size="11" font-weight="500" fill="#64748B" text-anchor="middle">2019</text><line x1="940.9958506224067" y1="802" x2="940.9958506224067" y2="814" stroke="#E2E8F0" stroke-width="1" /><text x="940.9958506224067" y="830" font-family="Inter, Arial, sans-serif" font-size="11" font-weight="500" fill="#64748B" text-anchor="middle">2020</text><line x1="1003.2365145228216" y1="802" x2="1003.2365145228216" y2="814" stroke="#E2E8F0" stroke-width="1" /><text x="1003.2365145228216" y="830" font-family="Inter, Arial, sans-serif" font-size="11" font-weight="500" fill="#64748B" text-anchor="middle">2021</text><line x1="1065.4771784232366" y1="802" x2="1065.4771784232366" y2="814" stroke="#E2E8F0" stroke-width="1" /><text x="1065.4771784232366" y="830" font-family="Inter, Arial, sans-serif" font-size="11" font-weight="500" fill="#64748B" text-anchor="middle">2022</text><line x1="1127.7178423236514" y1="802" x2="1127.7178423236514" y2="814" stroke="#E2E8F0" stroke-width="1" /><text x="1127.7178423236514" y="830" font-family="Inter, Arial, sans-serif" font-size="11" font-weight="500" fill="#64748B" text-anchor="middle">2023</text><line x1="1189.9585062240665" y1="802" x2="1189.9585062240665" y2="814" stroke="#E2E8F0" stroke-width="1" /><text x="1189.9585062240665" y="830" font-family="Inter, Arial, sans-serif" font-size="11" font-weight="500" fill="#64748B" text-anchor="middle">2024</text><line x1="1252.1991701244813" y1="802" x2="1252.1991701244813" y2="814" stroke="#E2E8F0" stroke-width="1" /><text x="1252.1991701244813" y="830" font-family="Inter, Arial, sans-serif" font-size="11" font-weight="500" fill="#64748B" text-anchor="middle">2025</text><line x1="1314.4398340248963" y1="802" x2="1314.4398340248963" y2="814" stroke="#E2E8F0" stroke-width="1" /><text x="1314.4398340248963" y="830" font-family="Inter, Arial, sans-serif" font-size="11" font-weight="500" fill="#64748B" text-anchor="middle">2026</text><line x1="1330.0" y1="802" x2="1330.0" y2="814" stroke="#E2E8F0" stroke-width="1" /><text x="1330.0" y="830" font-family="Inter, Arial, sans-serif" font-size="11" font-weight="500" fill="#64748B" text-anchor="middle">2026</text></svg>