<svg xmlns="http://www.w3.org/2000/svg" width="1400" height="980" viewBox="0 0 1400 980" role="img" aria-label="Savannah River analytical figure"><rect x="0" y="0" width="1400" height="980" rx="12" fill="#F8FAFC" stroke="none" /><text x="70" y="60" font-family="Inter, Arial, sans-serif" font-size="30" font-weight="700" fill="#011E42" text-anchor="start">Environmental pressures — Savannah River Basin</text><text x="70" y="88" font-family="Inter, Arial, sans-serif" font-size="14" font-weight="400" fill="#64748B" text-anchor="start">Regulatory inventory: NPDES, sediment loads, bacteria-impaired reaches, and DO deficit in the estuary.</text><rect x="56" y="92" width="608" height="352" rx="18" fill="#FFFFFF" stroke="#E2E8F0" /><text x="70" y="116" font-family="Inter, Arial, sans-serif" font-size="16" font-weight="700" fill="#011E42" text-anchor="start">NPDES facilities by watershed segment</text><text x="70" y="160" font-family="Inter, Arial, sans-serif" font-size="13" font-weight="600" fill="#011E42" text-anchor="start">Seneca</text><rect x="70" y="166" width="430" height="20" rx="6" fill="#E2E8F0" stroke="none" /><rect x="70" y="166" width="430.0" height="20" rx="6" fill="#0F7B5F" stroke="none" /><text x="508.0" y="181" font-family="Inter, Arial, sans-serif" font-size="13" font-weight="700" fill="#0F7B5F" text-anchor="start">588</text><text x="560.0" y="181" font-family="Inter, Arial, sans-serif" font-size="11" font-weight="500" fill="#B91C1C" text-anchor="start">(57 violações)</text><text x="70" y="224" font-family="Inter, Arial, sans-serif" font-size="13" font-weight="600" fill="#011E42" text-anchor="start">Tugaloo</text><rect x="70" y="230" width="430" height="20" rx="6" fill="#E2E8F0" stroke="none" /><rect x="70" y="230" width="189.4047619047619" height="20" rx="6" fill="#6D28D9" stroke="none" /><text x="267.4047619047619" y="245" font-family="Inter, Arial, sans-serif" font-size="13" font-weight="700" fill="#6D28D9" text-anchor="start">259</text><text x="319.4047619047619" y="245" font-family="Inter, Arial, sans-serif" font-size="11" font-weight="500" fill="#B91C1C" text-anchor="start">(30 violações)</text><text x="70" y="288" font-family="Inter, Arial, sans-serif" font-size="13" font-weight="600" fill="#011E42" text-anchor="start">Upper Savannah</text><rect x="70" y="294" width="430" height="20" rx="6" fill="#E2E8F0" stroke="none" /><rect x="70" y="294" width="336.3945578231292" height="20" rx="6" fill="#C27803" stroke="none" /><text x="414.3945578231292" y="309" font-family="Inter, Arial, sans-serif" font-size="13" font-weight="700" fill="#C27803" text-anchor="start">460</text><text x="466.3945578231292" y="309" font-family="Inter, Arial, sans-serif" font-size="11" font-weight="500" fill="#B91C1C" text-anchor="start">(40 violações)</text><text x="70" y="352" font-family="Inter, Arial, sans-serif" font-size="13" font-weight="600" fill="#011E42" text-anchor="start">Broad</text><rect x="70" y="358" width="430" height="20" rx="6" fill="#E2E8F0" stroke="none" /><rect x="70" y="358" width="393.4353741496599" height="20" rx="6" fill="#0B5CAD" stroke="none" /><text x="471.4353741496599" y="373" font-family="Inter, Arial, sans-serif" font-size="13" font-weight="700" fill="#0B5CAD" text-anchor="start">538</text><text x="523.4353741496599" y="373" font-family="Inter, Arial, sans-serif" font-size="11" font-weight="500" fill="#B91C1C" text-anchor="start">(52 violações)</text><rect x="70" y="386" width="200" height="50" rx="10" fill="#F8FAFC" stroke="#E2E8F0" /><text x="82" y="406" font-family="Inter, Arial, sans-serif" font-size="13" font-weight="700" fill="#011E42" text-anchor="start">1,845 total facilities</text><text x="82" y="423" font-family="Inter, Arial, sans-serif" font-size="11" font-weight="500" fill="#B91C1C" text-anchor="start">179 in non-compliance · 24 significant</text><rect x="686" y="92" width="658" height="352" rx="18" fill="#FFFFFF" stroke="#E2E8F0" /><text x="700" y="116" font-family="Inter, Arial, sans-serif" font-size="16" font-weight="700" fill="#011E42" text-anchor="start">Sediment load: current vs TMDL (tons/year)</text><text x="700" y="158" font-family="Inter, Arial, sans-serif" font-size="11" font-weight="500" fill="#64748B" text-anchor="start">Dove Creek</text><rect x="700" y="161" width="490" height="10" rx="4" fill="#E2E8F0" stroke="none" /><rect x="700" y="161" width="490.0" height="10" rx="4" fill="#C27803" stroke="none" /><rect x="700" y="161" width="221.9599226577606" height="4" rx="3" fill="#0F7B5F" stroke="none" /><text x="1196.0" y="170" font-family="Inter, Arial, sans-serif" font-size="10" font-weight="700" fill="#B91C1C" text-anchor="start">−55%</text><text x="700" y="190" font-family="Inter, Arial, sans-serif" font-size="11" font-weight="500" fill="#64748B" text-anchor="start">Mattox Creek</text><rect x="700" y="193" width="490" height="10" rx="4" fill="#E2E8F0" stroke="none" /><rect x="700" y="193" width="337.80629284584285" height="10" rx="4" fill="#C27803" stroke="none" /><rect x="700" y="193" width="337.80629284584285" height="4" rx="3" fill="#0F7B5F" stroke="none" /><text x="700" y="222" font-family="Inter, Arial, sans-serif" font-size="11" font-weight="500" fill="#64748B" text-anchor="start">Big Toms Creek/Toms Cr</text><rect x="700" y="225" width="490" height="10" rx="4" fill="#E2E8F0" stroke="none" /><rect x="700" y="225" width="269.28897873088414" height="10" rx="4" fill="#C27803" stroke="none" /><rect x="700" y="225" width="99.13693091931799" height="4" rx="3" fill="#0F7B5F" stroke="none" /><text x="975.2889787308841" y="234" font-family="Inter, Arial, sans-serif" font-size="10" font-weight="700" fill="#B91C1C" text-anchor="start">−63%</text><text x="700" y="254" font-family="Inter, Arial, sans-serif" font-size="11" font-weight="500" fill="#64748B" text-anchor="start">Eastanollee Creek</text><rect x="700" y="257" width="490" height="10" rx="4" fill="#E2E8F0" stroke="none" /><rect x="700" y="257" width="261.1495869221304" height="10" rx="4" fill="#C27803" stroke="none" /><rect x="700" y="257" width="93.36614519247671" height="4" rx="3" fill="#0F7B5F" stroke="none" /><text x="967.1495869221304" y="266" font-family="Inter, Arial, sans-serif" font-size="10" font-weight="700" fill="#B91C1C" text-anchor="start">−64%</text><text x="700" y="286" font-family="Inter, Arial, sans-serif" font-size="11" font-weight="500" fill="#64748B" text-anchor="start">Little Shoal Creek</text><rect x="700" y="289" width="490" height="10" rx="4" fill="#E2E8F0" stroke="none" /><rect x="700" y="289" width="202.1066971348216" height="10" rx="4" fill="#C27803" stroke="none" /><rect x="700" y="289" width="161.668131481807" height="4" rx="3" fill="#0F7B5F" stroke="none" /><text x="908.1066971348216" y="298" font-family="Inter, Arial, sans-serif" font-size="10" font-weight="700" fill="#B91C1C" text-anchor="start">−20%</text><text x="700" y="318" font-family="Inter, Arial, sans-serif" font-size="11" font-weight="500" fill="#64748B" text-anchor="start">Panther Creek (Big Pan</text><rect x="700" y="321" width="490" height="10" rx="4" fill="#E2E8F0" stroke="none" /><rect x="700" y="321" width="150.729477939884" height="10" rx="4" fill="#C27803" stroke="none" /><rect x="700" y="321" width="120.02373000527334" height="4" rx="3" fill="#0F7B5F" stroke="none" /><text x="856.729477939884" y="330" font-family="Inter, Arial, sans-serif" font-size="10" font-weight="700" fill="#B91C1C" text-anchor="start">−20%</text><text x="700" y="350" font-family="Inter, Arial, sans-serif" font-size="11" font-weight="500" fill="#64748B" text-anchor="start">Little Coldwater Creek</text><rect x="700" y="353" width="490" height="10" rx="4" fill="#E2E8F0" stroke="none" /><rect x="700" y="353" width="134.40762875725085" height="10" rx="4" fill="#C27803" stroke="none" /><rect x="700" y="353" width="68.30198628933029" height="4" rx="3" fill="#0F7B5F" stroke="none" /><text x="840.4076287572509" y="362" font-family="Inter, Arial, sans-serif" font-size="10" font-weight="700" fill="#B91C1C" text-anchor="start">−49%</text><text x="700" y="382" font-family="Inter, Arial, sans-serif" font-size="11" font-weight="500" fill="#64748B" text-anchor="start">Grove Creek</text><rect x="700" y="385" width="490" height="10" rx="4" fill="#E2E8F0" stroke="none" /><rect x="700" y="385" width="106.19968359992968" height="10" rx="4" fill="#C27803" stroke="none" /><rect x="700" y="385" width="104.43399542977677" height="4" rx="3" fill="#0F7B5F" stroke="none" /><text x="812.1996835999297" y="394" font-family="Inter, Arial, sans-serif" font-size="10" font-weight="700" fill="#B91C1C" text-anchor="start">−2%</text><rect x="700" y="424" width="14" height="10" rx="3" fill="#C27803" stroke="none" /><text x="718" y="433" font-family="Inter, Arial, sans-serif" font-size="11" font-weight="500" fill="#64748B" text-anchor="start">Current load</text><rect x="810" y="424" width="14" height="6" rx="3" fill="#0F7B5F" stroke="none" /><text x="828" y="433" font-family="Inter, Arial, sans-serif" font-size="11" font-weight="500" fill="#64748B" text-anchor="start">TMDL allowable</text><rect x="56" y="447" width="608" height="302" rx="18" fill="#FFFFFF" stroke="#E2E8F0" /><text x="70" y="471" font-family="Inter, Arial, sans-serif" font-size="16" font-weight="700" fill="#011E42" text-anchor="start">Bacteria-impaired reaches (TMDL 2023)</text><rect x="70" y="493" width="170" height="56" rx="10" fill="#F8FAFC" stroke="#E2E8F0" /><text x="84" y="519" font-family="Inter, Arial, sans-serif" font-size="28" font-weight="700" fill="#B91C1C" text-anchor="start">14</text><text x="84" y="537" font-family="Inter, Arial, sans-serif" font-size="11" font-weight="500" fill="#64748B" text-anchor="start">impaired segments</text><rect x="260" y="493" width="170" height="56" rx="10" fill="#F8FAFC" stroke="#E2E8F0" /><text x="274" y="519" font-family="Inter, Arial, sans-serif" font-size="28" font-weight="700" fill="#C27803" text-anchor="start">15</text><text x="274" y="537" font-family="Inter, Arial, sans-serif" font-size="11" font-weight="500" fill="#64748B" text-anchor="start">unique reaches</text><text x="70" y="587" font-family="Inter, Arial, sans-serif" font-size="12" font-weight="600" fill="#011E42" text-anchor="start">Fecal coliform</text><rect x="70" y="591" width="520" height="14" rx="5" fill="#E2E8F0" stroke="none" /><rect x="70" y="591" width="520.0" height="14" rx="5" fill="#C27803" stroke="none" /><text x="598.0" y="602" font-family="Inter, Arial, sans-serif" font-size="11" font-weight="700" fill="#C27803" text-anchor="start">31</text><text x="70" y="621" font-family="Inter, Arial, sans-serif" font-size="12" font-weight="600" fill="#011E42" text-anchor="start">E. coli</text><rect x="70" y="625" width="520" height="14" rx="5" fill="#E2E8F0" stroke="none" /><rect x="70" y="625" width="369.03225806451616" height="14" rx="5" fill="#B91C1C" stroke="none" /><text x="447.03225806451616" y="636" font-family="Inter, Arial, sans-serif" font-size="11" font-weight="700" fill="#B91C1C" text-anchor="start">22</text><text x="70" y="655" font-family="Inter, Arial, sans-serif" font-size="12" font-weight="600" fill="#011E42" text-anchor="start">enterococci</text><rect x="70" y="659" width="520" height="14" rx="5" fill="#E2E8F0" stroke="none" /><rect x="70" y="659" width="150.96774193548387" height="14" rx="5" fill="#6D28D9" stroke="none" /><text x="228.96774193548387" y="670" font-family="Inter, Arial, sans-serif" font-size="11" font-weight="700" fill="#6D28D9" text-anchor="start">9</text><rect x="686" y="447" width="658" height="302" rx="18" fill="#FFFFFF" stroke="#E2E8F0" /><text x="700" y="471" font-family="Inter, Arial, sans-serif" font-size="16" font-weight="700" fill="#011E42" text-anchor="start">DO deficit — Savannah Harbor impact zones</text><rect x="700" y="493" width="170" height="56" rx="10" fill="#F8FAFC" stroke="#E2E8F0" /><text x="714" y="519" font-family="Inter, Arial, sans-serif" font-size="24" font-weight="700" fill="#0B5CAD" text-anchor="start">5.0 mg/L</text><text x="714" y="537" font-family="Inter, Arial, sans-serif" font-size="11" font-weight="500" fill="#64748B" text-anchor="start">daily avg criterion</text><rect x="890" y="493" width="170" height="56" rx="10" fill="#F8FAFC" stroke="#E2E8F0" /><text x="904" y="519" font-family="Inter, Arial, sans-serif" font-size="24" font-weight="700" fill="#0F7B5F" text-anchor="start">4.0 mg/L</text><text x="904" y="537" font-family="Inter, Arial, sans-serif" font-size="11" font-weight="500" fill="#64748B" text-anchor="start">minimum criterion</text><text x="700" y="592" font-family="Inter, Arial, sans-serif" font-size="12" font-weight="700" fill="#011E42" text-anchor="start">Zone FR15</text><rect x="700" y="596" width="430" height="10" rx="4" fill="#E2E8F0" stroke="none" /><rect x="700" y="596" width="422.6994906621392" height="10" rx="4" fill="#B91C1C" stroke="none" /><rect x="700" y="596" width="112.42784380305604" height="6" rx="3" fill="#0F7B5F" stroke="none" /><text x="1138" y="605" font-family="Inter, Arial, sans-serif" font-size="11" font-weight="600" fill="#0F7B5F" text-anchor="start">99% attained</text><text x="700" y="636" font-family="Inter, Arial, sans-serif" font-size="12" font-weight="700" fill="#011E42" text-anchor="start">Zone FR17</text><rect x="700" y="640" width="430" height="10" rx="4" fill="#E2E8F0" stroke="none" /><rect x="700" y="640" width="430.0" height="10" rx="4" fill="#B91C1C" stroke="none" /><rect x="700" y="640" width="114.61799660441427" height="6" rx="3" fill="#0F7B5F" stroke="none" /><text x="1138" y="649" font-family="Inter, Arial, sans-serif" font-size="11" font-weight="600" fill="#0F7B5F" text-anchor="start">98% attained</text><text x="700" y="680" font-family="Inter, Arial, sans-serif" font-size="12" font-weight="700" fill="#011E42" text-anchor="start">Zone FR19</text><rect x="700" y="684" width="430" height="10" rx="4" fill="#E2E8F0" stroke="none" /><rect x="700" y="684" width="426.34974533106964" height="10" rx="4" fill="#B91C1C" stroke="none" /><rect x="700" y="684" width="114.61799660441427" height="6" rx="3" fill="#0F7B5F" stroke="none" /><text x="1138" y="693" font-family="Inter, Arial, sans-serif" font-size="11" font-weight="600" fill="#0F7B5F" text-anchor="start">98% attained</text><text x="70" y="958" font-family="Inter, Arial, sans-serif" font-size="10" font-weight="400" fill="#64748B" text-anchor="start">Sources: EPA ECHO NPDES (2026) · Georgia EPD Sediment TMDL 2010 · Bacteria TMDL 2023 · Savannah Harbor 5R DO Plan 2015</text></svg>